<?xml version="1.0" encoding="UTF-8"?>
<svg id="_레이어_2" data-name="레이어 2" xmlns="http://www.w3.org/2000/svg" viewBox="0 0 198.71 322.65">
  <defs>
    <style>
      .cls-1 {
        fill: #d3dde1;
      }

      .cls-1, .cls-2, .cls-3, .cls-4 {
        stroke-width: 0px;
      }

      .cls-2 {
        fill: #221e1f;
      }

      .cls-3 {
        fill: #fff;
      }

      .cls-4 {
        fill: #ee305b;
      }
    </style>
  </defs>
  <g id="OBJECTS">
    <g>
      <g>
        <g>
          <g>
            <path class="cls-2" d="M150.67,294.48c.07-.43-.13-.77-.4-.99-1.1-9.24-6.2-17.92-17.11-16.83-6.15.75-9.82,4.52-11.62,9.57-.14.16-.23.35-.23.62,0,.03,0,.06,0,.09-3.4,10.85,1.35,27.04,8.92,32.89,3.71,2.87,8.64,4.1,12.57.95,4.71-3.77,6.11-11.81,7.16-17.28.46-2.41.65-5.06.52-7.72.08-.47.15-.91.21-1.31Z"/>
            <path class="cls-2" d="M133.15,278.67c11.05-1.1,14.93,8.15,15.22,17.37-1.62,8.46-6.79,26.88-16.93,16.76-6.15-6.13-8.06-17.08-8.14-25.42,1.4-4.58,4.42-8.04,9.85-8.71Z"/>
            <path class="cls-3" d="M141.41,319.24c-5.5,4.32-11.95-1.82-14.64-6.46-1.87-3.22-3.5-8.23-4.15-13.43,1.65,7.64,5.06,15.25,11.56,17.63,5.79,2.13,9.61-1.57,12.13-6.73-.94,3.44-2.31,6.95-4.9,8.99Z"/>
          </g>
          <g>
            <path class="cls-2" d="M152.28,205.83c-2.17-5.19-6.6-10.05-9.84-14.63-2.38-3.35-4.95-6.94-9.13-8.07-9.98-2.7-11.54,9.12-10.79,16.02-.07.22-.03.48.16.74,4.95,6.65,12.75,13.56,20.97,15.67,3.13.8,5.78.21,7.47-1.31.54-.03,1.02-.42.91-1.02,1.25-1.82,1.49-4.42.25-7.4Z"/>
            <path class="cls-3" d="M138.05,188.68c4.1,4.46,7.79,10.29,10.97,15.45.7,1.14,1.76,2.6,1.95,3.93.14.97.14,1.78.05,2.48-4.49-10.69-12.33-19.4-22.55-24.96,3.11-1.3,7.08.38,9.58,3.11Z"/>
            <path class="cls-2" d="M144.18,213.63c-2.28-.6-4.43-1.72-6.45-2.93-5.05-3.01-9.7-7-13.23-11.71-.41-3.47-.84-7.31.88-10.49.36-.67.77-1.22,1.22-1.68,10.8,5.62,18.98,14.78,23.26,26.18-1.37,1.25-3.66,1.15-5.67.62Z"/>
          </g>
        </g>
        <g>
          <path class="cls-2" d="M173.43,151.61c0-.53-.33-.79-.72-.85-.03-.01-.06-.03-.09-.04-18.18-4.2-36.75-4.92-55.16-1.74-.18.03-.32.11-.45.2-.24,0-.49.09-.7.29-12.08,11.67-21.74,25.64-28.17,41.18-4.51,10.9-11.99,28.95-4.74,40.2,6.46,10.03,20.33,7.73,28.4,1.33,8.43-6.7,16.26-14.9,23.03-23.3-.81,25.07-3.94,50.25-13.56,73.33-.54.12-1,.61-.77,1.28,4.45,12.85,19.23,17.59,30.33,9.74.54-.38.5-1,.19-1.42,14.49-45.33,22.04-92.61,22.42-140.2ZM134.94,204.76c-1.59-4.53-4.81-8.73-8.27-11.96,2.57-2.92,5.33-5.69,8.36-8.26.07,6.69.06,13.44-.09,20.21Z"/>
          <path class="cls-4" d="M122.76,283.82c13.86-32.69,14.71-69.56,14.2-104.54.02-.17,0-.34-.08-.51-.08-.18-.21-.31-.38-.39-1.46-1.13-2.87-2.38-4.45-3.34-1.81-1.1-3.9-1.78-5.86-2.57-1.19-.48-2.07,1.32-.87,1.8,1.87.75,3.87,1.4,5.62,2.43,1.43.84,2.72,1.99,4.03,3.02.01.76.02,1.52.03,2.28-3.73,3.02-7.06,6.35-10.14,9.88-.32.13-.56.41-.65.75-5.45,6.4-10.1,13.46-14.67,20.67-.69,1.09,1.12,1.95,1.8.87,4.39-6.92,8.82-13.68,14.01-19.83,3.62,3.39,7.17,8.07,8.23,12.9-5.56,6.92-11.87,13.4-18.4,19.39-3.42,3.14-7.04,6.49-11.51,8.01-7.9,2.69-17.48.4-20.19-8.32-1.97-6.32-.3-13.32,1.32-19.53,1.86-7.14,4.41-14.1,7.57-20.77,6.23-13.13,14.82-24.92,25.24-35.03,0,0,0,0,0,0,17.95-3.11,36.05-2.46,53.79,1.53-.46,47.34-8.07,94.38-22.54,139.45-.02.06,0,.11-.02.17-9.6,6.11-21.81,2.2-26.11-8.3Z"/>
          <g>
            <path class="cls-3" d="M143.47,294.47c12.33-44.69,19.39-90.69,21.03-137.02.05-1.29-1.95-1.29-2,0-1.65,46.49-8.78,92.62-21.22,137.44.73-.09,1.46-.23,2.19-.42Z"/>
            <path class="cls-3" d="M148.44,292.38c11.97-44.04,18.85-89.32,20.46-134.93.05-1.29-1.95-1.29-2,0-1.63,46.05-8.65,91.74-20.87,136.16.82-.34,1.62-.76,2.41-1.23Z"/>
          </g>
        </g>
      </g>
      <g>
        <g>
          <path class="cls-2" d="M172.93,135.37c-.36-.32-.91-.45-1.35-.17-18.55,11.58-40.95,15.02-62.12,9.51-1.24-.32-1.83,1.34-.96,1.97-4.78,5.66-3.7,13.85,2.87,17.75,8.92,5.31,22.98,4.02,32.73,2.67,9.82-1.37,22.38-3.94,29.18-11.92,4.86-5.7,5.51-14.6-.35-19.8Z"/>
          <path class="cls-3" d="M143.8,164.88c-7.29,1.02-14.73,1.16-22.04.22-3.62-.47-7.51-1.1-10.42-3.47-4.54-3.7-4.79-9.68-.82-13.91.12-.13.21-.27.25-.42,10.23,2.41,20.76,2.94,31.18,1.33,6-.93,11.89-2.52,17.54-4.76,2.34-.93,4.65-1.97,6.89-3.12,3.5-1.79,6.04-4.91,7.87.34,5.74,16.47-19.31,22.22-30.46,23.79Z"/>
        </g>
        <g>
          <path class="cls-2" d="M188.48,83.07c-5.46-6.37-12.36-11.43-19.94-14.99-3.71-1.75-7.59-3.14-11.56-4.18-3.2-.84-9.26-3.98-12.42-1.72-1.64,1.18-1.51,2.92-1.39,4.69.34,4.92,2.1,9.86,3.72,14.49,2.36,6.72,5.74,13.08,9.99,18.8,4.62,6.21,10.29,11.63,16.66,16.02,4.98,3.42,11.26,9,17.63,9.08,8.57.11,7.89-16.04,7.06-21.58-1.14-7.63-4.77-14.78-9.77-20.61Z"/>
          <path class="cls-3" d="M192.51,123.08c-26.16-8.53-44.57-31.55-47.14-58.95,14.63,1.28,28.75,7.35,39.12,17.89,10.69,10.86,16.13,27.15,8.02,41.06Z"/>
        </g>
        <g>
          <path class="cls-2" d="M104.27,72.4c-2.19-.78-4.31.36-6.57.44-2.87.11-5.91-1.03-8.71-1.54-5.97-1.07-11.83-2.75-17.45-5.03-10.32-4.2-18.33-10.7-27.22-17.17-5.58-4.06-13.33-7.41-19.98-3.71-5.97,3.32-7.62,10.91-6.03,17.16,2.02,7.93,8.09,14.83,13.48,20.76,5.95,6.54,12.71,12.37,20.02,17.35,7.32,4.98,15.21,9.11,23.49,12.26,8.05,3.07,18.31,6.96,26.87,3.82,6.9-2.53,10.7-9.44,11.49-16.46.84-7.55-2.38-14.66-4.7-21.66-.72-2.19-1.91-4.83-4.07-5.96-.2-.11-.4-.19-.6-.26Z"/>
          <path class="cls-3" d="M110.72,103.74c-4.2,14.41-18.46,12.52-29.9,8.77-18.13-5.94-34.63-16.69-47.47-30.79-6.52-7.17-16.45-18.07-12.63-28.65,5.51-15.26,21.83-2.45,28.98,3.09,7.73,5.99,16.48,10.6,25.74,13.73,4.67,1.58,9.46,2.78,14.32,3.62,2.27.4,4.49,1.06,6.78,1.39,2.12.3,4.48-.28,6.53.28,3.61.99,5.64,9.61,6.73,12.74,1.77,5.09,2.45,10.57.92,15.81Z"/>
          <path class="cls-1" d="M57.06,101.41c7.45,4.62,15.43,8.38,23.76,11.1,11.44,3.74,25.7,5.64,29.9-8.77.29-.99.47-1.98.61-2.98-.64-2.55-1.54-5.06-2.6-7.46.42-.62-.05-1.36-.71-1.56,0-.02-.02-.04-.03-.06-.6-1.26-2.43-.21-1.94,1.04-14.02,11.48-31.83,11.51-48.99,8.69Z"/>
        </g>
        <g>
          <path class="cls-2" d="M171.97,101.44c-4.96-9.8-9.94-19.83-15.86-29.1-4.62-7.23-10.93-11.65-19.79-9.99-5.27.98-10.21,3.62-15.02,5.86-6.53,3.03-13.06,6.06-19.59,9.09-.74.34-.68,1.1-.26,1.59-.68,12.37-1.35,24.74-2.03,37.12-.3,5.48-.6,10.96-.9,16.44-.25,4.66-1.24,10.07.54,14.56,2.71,6.84,10.68,9.13,17.25,10.19,8.78,1.42,17.8,1.26,26.54-.37,9.82-1.83,19.43-5.53,27.81-11,5.96-3.89,12.01-9.42,12.18-17.05.21-9.3-6.83-19.37-10.86-27.33Z"/>
          <path class="cls-3" d="M169.53,143.91c-7.14,4.74-15.31,8.05-23.63,10.01-11.99,2.82-44.88,6.34-45.57-12.41-.38-10.22,1.05-20.76,1.61-30.97.58-10.57,1.16-21.13,1.74-31.7,7.84-3.65,15.63-7.4,23.53-10.92,4.62-2.06,9.6-4.2,14.78-3.59,5.64.66,9.28,4.57,12.21,9.15,9.01,14.09,16.78,29.69,23.58,44.96,2.22,4.98,4.03,10.24,1.54,15.46-2.07,4.34-5.85,7.41-9.78,10.01Z"/>
        </g>
        <g>
          <path class="cls-2" d="M151,52.38c-5.31-2.79-11.06-.22-15.39,3.13,0,0,0,0-.01.01-4.68-.77-10.47.29-13.66.75-6.37.92-16.07,2.62-18.78,9.34-.12,0-.24.03-.38.08-6.79,2.81-17.21,12.1-9,19.58,3.88,3.54,10.66,2.5,15.42,2.59,5.45.09,11.63.98,15.44-3.71,0-.01.01-.02.02-.04,6.11.99,12.24-3.49,16.99-6.88,4.75-3.39,10.87-7.72,13.45-13.1,2.18-4.54.33-9.42-4.11-11.75Z"/>
          <path class="cls-3" d="M101.9,85.5c-4.93-.3-9.72-2.98-8.35-8.75,1.02-4.31,5.13-6.86,8.96-8.54-.01.1-.04.18-.05.28-.81,9.34,9.72,13.18,17.23,14.25.58.08,1.16.17,1.73.27,2.02.35-.86,1.51-1.41,1.75-1.89.81-3.98,1.11-6.01,1.24-4.05.26-8.07-.25-12.1-.5Z"/>
          <path class="cls-3" d="M124.99,81.26c-1.04.75-1.71.28-2.82-.02-1.22-.33-2.44-.64-3.67-.88-1.81-.35-3.62-.75-5.37-1.32-3.18-1.03-6.75-2.73-8.06-6.04-.47-1.18-.59-2.46-.45-3.71.95-8.97,12.6-10.26,19.59-11.08,2.61-.31,5.3-.58,7.93-.53,1.57.02,3.53-.04,4.96.7,2.13,1.1,2.13,6.69,1.34,8.79-.98,2.57-4.47,5.63-6.46,7.71-2.17,2.26-4.43,4.51-6.95,6.37,0,0-.02.01-.03.02Z"/>
          <path class="cls-3" d="M149.99,67.21c-1.22,1.32-2.62,2.57-3.97,3.75-4.28,3.76-11.76,10.18-18.37,10.96,4-3.42,7.72-7.14,10.97-11.3,2.18-2.8,5.1-6.54,3.75-10.38-.7-1.99-2.19-3.23-4.06-3.99,2.2-1.54,4.83-2.86,7.51-2.85,4.02.02,6.09,1.84,7.04,5.54.98,3.83-.29,5.47-2.87,8.26Z"/>
        </g>
        <g>
          <path class="cls-2" d="M182.05,98.18c-6.69,1.51-12.06,11.72-15.89,16.96-5.09,6.98-10.95,9.85-14.08,17.97-1.81,4.71-1.17,11.35,3.47,14.25,5.89,3.68,13.56-1.03,18.93-3.54,3.4-1.58,6.62-3.54,9.57-5.86,5.63-4.43,10.27-10.22,12.76-16.99,3.71-10.11-1.48-25.79-14.76-22.8Z"/>
          <path class="cls-3" d="M189.14,129.69c-2.96,3.68-6.53,6.85-10.52,9.37-5.15,3.26-22.31,13.14-25.21,2.42-.83-3.07.09-6.31,1.43-9.08,2.04-4.21,8.28-10.57,11.33-14.1,16.56-19.22,12.72-24.69,23.37-20.69,12.66,4.76,5.71,24.49-.4,32.08Z"/>
          <path class="cls-1" d="M195.84,115.39c-10.44,13.14-24.8,26.06-41.94,19.29-.75,2.19-1.09,4.54-.48,6.8,2.9,10.72,20.06.84,25.21-2.42,3.99-2.53,7.55-5.7,10.52-9.37,2.62-3.25,5.38-8.72,6.7-14.3Z"/>
        </g>
        <g>
          <path class="cls-2" d="M134.55,162.38c12.49-.97,24.14-6.49,33.12-15.14.33-.32.4-.71.34-1.07.42-.37.59-.99.09-1.52l-9.3-9.88c-1.31-1.39-3.4-4.7-5.14-5.29-1.95-.67-5.44.86-7.44,1.25-4.18.8-8.36,1.61-12.54,2.41-4.77.92-11.66.99-15.21,4.85-2.91,3.16-4.2,9.26-4.26,13.4-.16,10.95,12.03,11.64,20.34,11Z"/>
          <path class="cls-3" d="M116.85,149.05c.33-2.26.66-5.26,1.92-7.17,2.45-3.7,5.48-4.49,9.55-5.32,4.55-.93,9.12-1.75,13.68-2.63,2.22-.43,4.58-1.15,6.84-1.31,3.71-.26,4.79.09,7.36,2.82,3.22,3.42,6.45,6.85,9.67,10.27-6.77,6.43-14.92,11.07-24.06,13.18-8.71,2.01-27.01,4.09-24.96-9.83Z"/>
        </g>
        <g>
          <path class="cls-2" d="M31.12,41.11c-2.57-.72-4.62.48-6.53,2.11-1.92,1.64-3.78,3.34-5.63,5.06-1.54,1.43-3.97,2.68-4.36,4.96-.38,2.23,1.24,4.94,2.72,6.48,1.84,1.92,4.44,2.94,7.08,2.96,5.57.03,10.42-4.27,11.86-9.53,1.21-4.4-.14-10.63-5.14-12.03Z"/>
          <path class="cls-3" d="M34.46,50.73c-.38,4.21-3.48,8.26-7.61,9.4-4.93,1.37-9.79-1.79-9.94-6.94,2.61-2.37,5.19-4.77,7.83-7.12,2.33-2.07,5.13-4.4,7.97-1.39,1.5,1.59,1.94,3.94,1.75,6.04Z"/>
        </g>
        <g>
          <path class="cls-2" d="M32.43,27.57c-4.07-4.46-6.04,2.49-6.82,6.72-1.54-3.26-3.14-6.48-4.87-9.64-1.15-2.09-2.53-4.8-5.3-4.82-5.05-.03-3.21,5.65-1.29,9.64-3.18-1.91-7.3-3.64-9.55-1.31-1.48,1.53-1.22,3.07-.19,4.49-1.81.47-2.85,1.93-2.48,3.97.33,1.87,1.64,3.54,3.16,4.97C2.48,41.64,0,42.6,0,45.76c.01,3.9,5.95,4.95,9.61,5.72.02.11.05.22.11.33,2.39,4.12,6.97,6.46,11.71,5.59,2.19-.4,4.26-1.46,5.86-3.02,4.2-4.09,6.34-10.61,6.9-16.33.29-2.98.43-8.07-1.76-10.48Z"/>
          <path class="cls-3" d="M29.41,46.64c-.16.36-.33.71-.5,1.07-1.49,3.04-3.26,6.27-6.74,7.28-3.66,1.07-7.63-.32-9.89-3.38.54-.53.54-1.62-.41-1.9-2.1-.6-4.2-1.18-6.29-1.79-.33-.09-.66-.19-.99-.29-1.47-.31-1.65-1.61-.55-3.89.9-.64,3.57.3,4.52.58,1.29.39,1.81-1.33.86-2.03-.6-.45-9.76-6.69-3.56-8.08,2,1.76,4.76,3.2,5.95,3.99,1.46.96,2.8-2.12-.02-2.23-1.34-.06-4.54-3.17-5.07-3.94-1.2-1.76.13-2.83,1.62-2.52,2.87.6,5.68,2.42,8.01,4.13.82.6,1.61-.19,1.6-1,.12-.28.13-.6-.07-.95-1.19-1.96-2.26-3.98-3-6.15-.16-.43-.3-.87-.41-1.31-.46-3.14,1.05-2.86,2.46-1.39.01.01.03-.01.05,0,.48.17,1.62,2.55,1.84,2.96,1.9,3.47,3.67,7.01,5.34,10.59-1.49.81-2.49,2.12-3.04,3.94-.41,1.38,1.73,1.96,2.15.59.38-1.39,1.11-2.32,2.19-2.79.27.03.55-.06.79-.24.14-.03.27-.06.42-.08.52-.12.76-.6.82-1.07.08-.66.5-6.33,1.4-6.78,3.35-1.7,3.2,4.42,3.21,5.63.03,3.85-1.09,7.61-2.68,11.09Z"/>
        </g>
        <g>
          <g>
            <path class="cls-2" d="M124.89,86.67c-.29-1.4-2.44-.81-2.15.59,1.52,7.4-2.66,11.03-6.65,16.45-2.03,2.76-3.15,5.38-2.85,8.83.12,1.42,2.35,1.43,2.23,0-.59-6.76,6.03-10.11,8.56-15.66,1.5-3.29,1.58-6.73.86-10.21Z"/>
            <g>
              <path class="cls-2" d="M115.7,112.71c-.05-.02-.1-.02-.15-.04-.08-.05-.15-.1-.26-.13-1.55-.4-3.27.42-3.77,1.99-.47,1.48.38,3.18,1.81,3.74,1.45.56,3.2-.17,3.84-1.58.67-1.46-.02-3.31-1.47-3.99Z"/>
              <path class="cls-3" d="M115.19,115.67c-.1.39-.61.67-1,.57-1.03-.29-.53-1.77.48-1.54.35.2.63.54.52.98Z"/>
            </g>
          </g>
          <g>
            <path class="cls-2" d="M129.04,86.05c-.85-1.13-2.78-.02-1.92,1.12,6.83,9.1,3.81,22.83,3.2,33.42-.08,1.43,2.14,1.43,2.23,0,.65-11.14,3.72-24.91-3.5-34.55Z"/>
            <g>
              <path class="cls-2" d="M132.72,120.33c-.05-.02-.1-.02-.15-.04-.08-.05-.15-.1-.26-.13-1.55-.4-3.27.42-3.77,1.99-.47,1.48.38,3.18,1.81,3.74,1.45.56,3.2-.17,3.84-1.58.67-1.46-.02-3.31-1.47-3.99Z"/>
              <path class="cls-3" d="M132.21,123.29c-.1.39-.61.67-1,.57-1.03-.29-.53-1.77.48-1.54.35.2.63.54.52.98Z"/>
            </g>
          </g>
        </g>
      </g>
      <g>
        <g>
          <g>
            <path class="cls-2" d="M136.11,39.96c-8.06.64-6.99,13.43,1.18,12.57,3.29-.35,5.9-3.59,5.61-6.87-.3-3.28-3.51-5.96-6.79-5.7Z"/>
            <path class="cls-3" d="M140.68,45.84c.22,2.07-1.5,4.22-3.56,4.47-5.17.64-6.24-7.69-.83-8.13,2.09-.17,4.17,1.58,4.4,3.66Z"/>
          </g>
          <g>
            <path class="cls-2" d="M95.3,52.11c-8.06.64-6.99,13.43,1.18,12.57,3.28-.35,5.9-3.59,5.61-6.87-.3-3.28-3.51-5.96-6.79-5.7Z"/>
            <path class="cls-3" d="M99.87,57.99c.22,2.07-1.5,4.22-3.56,4.47-5.17.64-6.24-7.69-.83-8.13,2.09-.17,4.17,1.58,4.4,3.66Z"/>
          </g>
          <g>
            <path class="cls-2" d="M121.71,7.71c-6.27-4.17-15.03-6.14-22.33-3.78-8.79,2.85-10.82,12.27-11.84,20.35-1.14,9.08-.91,18.48,2.98,26.93,4.15,9.01,12,15.99,21.84,17.73,1.4,3.9.63,8.69,3.41,12.01,2.13,2.54,5.78,3.18,8.84,2.21,9.9-3.13,7.49-15.44,4.45-22.65,15.11-14.92,9.32-41.71-7.35-52.79Z"/>
            <path class="cls-3" d="M133.8,47.98c-1.35,4.08-3.55,7.94-6.63,11.31-.19.21-.4.44-.49.71-.39,1.16,1.46,4.33,1.82,5.58.59,2.03,1.04,4.15,1.09,6.27.12,4.33-1.64,8.18-6.14,9.26-10.09,2.43-4.84-11.71-10.47-14.46-2.24-1.09-5.27-1.08-7.68-2.26-2.69-1.32-5.11-3.13-7.14-5.33-4.08-4.43-6.4-10.19-7.59-16.02-1.26-6.19-1.31-12.8-.49-19.16.7-5.4,1.27-12.25,5.82-15.93,8.04-6.51,21.94-1.39,28.63,4.81,9.87,9.15,13.25,23.16,9.25,35.23Z"/>
            <path class="cls-1" d="M124.55,12.75c-6.69-6.2-20.59-11.32-28.63-4.81-4.55,3.68-5.12,10.53-5.82,15.93-.82,6.36-.78,12.97.49,19.16.56,2.75,1.39,5.49,2.52,8.07,7.64-11.51,27.14-8.41,38.72-13.43,1.26-.55,2.45-1.18,3.55-1.89-.48-8.5-4.17-16.87-10.82-23.04Z"/>
            <path class="cls-1" d="M116.4,66.07c-.82.46-1.66.84-2.52,1.18,2.15,1.94,2.12,6.16,2.87,9.5,2.6-.47,4.26-2.98,5.07-5.43.7-2.12,1.83-6.32-1.61-6.75-1.43-.18-2.66.85-3.81,1.51Z"/>
          </g>
        </g>
        <g>
          <path class="cls-2" d="M119.87,37.67c-2.8-.27-1.36,4.63-.46,5.74.61.74,1.8.55,2.01-.44.28-1.32.53-5-1.42-5.29-.05,0-.09-.01-.13-.02Z"/>
          <path class="cls-2" d="M103.68,41.87c-2.8.2-.57,4.8.5,5.73.72.63,1.86.24,1.91-.76.06-1.35-.31-5.02-2.27-4.98-.05,0-.09,0-.13,0Z"/>
          <path class="cls-2" d="M120.44,48.39c-.64,2.36-2.73,3.93-5.15,4.06-1.43.08-1.26,2.3.17,2.22,3.46-.19,6.26-2.57,7.16-5.89.38-1.38-1.82-1.77-2.19-.4Z"/>
          <path class="cls-2" d="M108.22,41.07c0-1.44,2.23-1.32,2.22.12,0,.66.51,6.9,1.97,6.24,1.3-.59,2.31,1.4,1,1.99-4.36,1.97-5.19-5.74-5.19-8.35Z"/>
        </g>
        <g>
          <path class="cls-2" d="M141.77,31.73c-.54-1.13-2.01-1.95-2.95-2.67-1.07-.82-2.14-1.63-3.21-2.45-.47-.36-.99-.71-1.37-1.14-.61-.68-.82-1.24-1.5-.1-1.38,2.3-.4,5.49.06,7.91.54,2.91,1.4,5.75,2.55,8.48.25.59.98,1.13,1.64.67,2.64-1.89,3.95-4.55,3.79-7.62,1.09-.39,1.65-1.72,1-3.07Z"/>
          <path class="cls-2" d="M138.45,33.98c.4,2.13-.19,4.12-1.59,5.62-1.35-3.61-2.18-7.3-2.47-11.13.46.35.92.7,1.38,1.05,1.2.91,2.67,2.55,4.05,3.09-.86-.34-1.51.63-1.37,1.37Z"/>
        </g>
        <g>
          <path class="cls-2" d="M106.26.18c-6.8.77-13.94,3.94-17.73,9.89-5.05,7.92-3.41,17.74-1.8,26.42.11.58.54.81.99.79.24.06.5.05.77-.1,14.06-7.61,29.71-10.66,45.6-8.98.59.52,1.85.25,1.92-.81,1.11-16.6-13.6-29.02-29.74-27.2Z"/>
          <path class="cls-3" d="M133.83,25.94s-.08,0-.11,0c-1.5-5.66-3.46-11.77-6.74-16.61,4.27,4.22,6.91,10.03,6.86,16.62Z"/>
          <path class="cls-4" d="M88.64,34.59c-1.31-7.19-2.53-15.14.96-21.9,3.44-6.67,11.15-10.04,18.38-10.44,1.39-.08,2.76-.04,4.1.1.16.13.35.24.6.26,11.79,1.16,16.02,13.17,18.69,23.12-14.85-1.06-29.47,1.98-42.72,8.86Z"/>
        </g>
        <g>
          <path class="cls-2" d="M132.19,24.92c-3.52-2.76-11.41-2.13-15.5-1.94-6.81.31-13.57,1.76-19.87,4.38-8.68,3.61-16.98,10.71-14.52,21.03.19.79,2.73,1.06,3.06.34,2.94-6.48,8.09-11.58,14.76-14.2,7.4-2.91,13.85-.99,21.35-.02,3.61.47,8.98.57,11.43-2.82,1.61-2.23,1.46-5.07-.71-6.77Z"/>
          <path class="cls-3" d="M125.62,32.51c-3.06.61-6.01-.56-8.39-1.02-13.43-2.6-26.65,2.3-33.07,14.68-1.47-11.89,13.34-17.6,22.84-19.7,5.15-1.14,10.46-1.55,15.72-1.22,1.91.11,3.81.33,5.71.65,3.51.33,6.63,4.1-2.82,6.61Z"/>
        </g>
      </g>
    </g>
  </g>
</svg>