<?xml version="1.0" encoding="UTF-8"?>
<svg id="_레이어_2" data-name="레이어 2" xmlns="http://www.w3.org/2000/svg" viewBox="0 0 155.23 351.79">
  <defs>
    <style>
      .cls-1 {
        fill: #d3dde1;
      }

      .cls-1, .cls-2, .cls-3, .cls-4 {
        stroke-width: 0px;
      }

      .cls-2 {
        fill: #221e1f;
      }

      .cls-3 {
        fill: #fff;
      }

      .cls-4 {
        fill: #ee305b;
      }
    </style>
  </defs>
  <g id="OBJECTS">
    <g>
      <g>
        <path class="cls-2" d="M144.52,148.61c-3.74-4.3-8.43-5.41-13.52-7.35-2.93-1.12-4.68-2.33-5.69-5.39-.6-1.82-.32-3.47-.65-5.3-.4-2.2-1.15-3.86-2.97-5.23-2.99-2.25-6.83-2.47-8.95-5.96-1.59-2.61-1.93-5.79-1.47-8.77.41-2.65,1.65-5.17,1.69-7.88.04-2.71-1.14-5.22-2.43-7.54-2.57-4.66-6.91-8.19-11.84-10.12-5.59-2.19-11.67-2.46-17.56-1.6-2.96.43-5.87,1.14-8.73,2.01-1.62.49-3.64.37-5.21,1.19-2.66,1.39-1.35,3.69-2.24,5.99-.59,1.53-1.85,2.67-3.18,3.58-2.05,1.41-4.55,2.04-7,2.37-5.04.67-10.1-.05-15.14-.2-6.07-.19-12.69,1.01-16.74,5.99-4.1,5.05-1.9,10.44.54,15.7,2.78,5.98,3.13,11.93-4.59,13.86-3.37.84-6.54,1.34-9.53,3.23-10.54,6.67-12.51,21.26-4.02,30.4,4.42,4.76,10.08,5.7,16.03,7.44,5.44,1.59,8.38,4.14,8.96,10.03.28,2.86.33,5.72,2.15,8.11,4.41,5.79,14.78,6.23,21.34,6.81,9.24.8,18.47,0,27.45-2.16,16.66,2.86,31.12-2.02,45.8-9.64,10.32-5.35,23.13-12.32,22.83-25.71-.11-5.04-2.04-10.04-5.35-13.85Z"/>
        <path class="cls-2" d="M130.31,184.2c-14.47,7.83-28.83,13.94-45.27,12.14.17-.66-.33-1.49-1.19-1.26-8.9,2.46-18.06,3.58-27.29,3.08-4.54-.24-9.08-.86-13.51-1.87-6.15-1.4-10.01-3.7-10.7-10.5-.53-5.15-1.67-9.02-6.66-11.35-5.6-2.61-12.06-2.45-17.02-6.5-6.84-5.58-8.88-15.38-4.21-23.01,2.29-3.74,5.83-6.64,10.03-7.97,2.79-.88,5.83-.97,8.49-2.28,4.71-2.31,5.32-7.28,3.79-11.89-1.08-3.26-3.23-6.15-3.99-9.51-1.43-6.31,3.58-10.63,9.06-12.2,10.65-3.06,34.02,5.44,36.16-12.07,8.15-2.97,16.82-5.22,25.51-3.43,9,1.85,16.64,8.34,17.48,17.62-1.56,5.16-2.95,10.82-.58,15.94.95,2.06,2.33,3.66,4.26,4.87,4.32,2.71,7.26,1.9,8.15,8.39.69,5,1.24,7.95,6.25,10.2,5.54,2.48,10.81,3.12,14.74,8.3,3.81,5.02,5.3,11.98,3.05,17.98-2.75,7.34-9.97,11.76-16.52,15.31Z"/>
      </g>
      <g>
        <g>
          <path class="cls-2" d="M75.22,120.24c.09-.69.13-1.37.02-2.06-.24-1.51-1.28-2.54-2.03-3.81-.79-1.33-1.56-2.67-2.3-4.02-1.49-2.69-2.89-5.43-4.21-8.22-2.63-5.54-4.91-11.25-6.83-17.07-3.84-11.65-6.21-23.77-7.06-36.01-.29-4.25-.4-8.52-.33-12.78,0-.06-.02-.1-.03-.15,2.33-3.06,4.97-5.85,7.93-8.3,1.65-1.37,4.57-2.98,3.7-5.6-1.16-3.49-5.38-1.75-8.35.24.08-4.23-.13-8.45-.8-12.64-.4-2.49-.45-7.84-2.97-9.35-3.7-2.22-4.19,3.71-4.05,8.33-.67-1.04-1.38-2.05-2.15-3.03-1.13-1.43-2.85-4.01-5.06-3.45-1.39.36-1.99,1.74-1.95,3.06-2.03-.21-3.7,1.44-3.7,3.54,0,1.78.89,3.54,1.94,5.16-2.64-1.26-5.77-2.12-7.24-.18-1.2,1.59.02,3.25,1.28,4.29,2.2,1.8,4.5,3.5,6.75,5.23,0,.04,0,.08.01.13.78,2.46,1.55,4.92,2.33,7.38-.03.08-.08.15-.09.25-4.66,30.17-2.74,61.13,5.98,90.41,2.02,6.78,4.2,13.77,7.22,20.18,1.53,3.24,3.91,6.87,8.04,6.25,4.65-.7,7.19-6.36,8.89-10.05,1.51-3.27,2.62-6.7,3.49-10.19.45-1.81.83-3.63,1.18-5.45.13-.69.29-1.39.39-2.1Z"/>
          <path class="cls-3" d="M73.08,118.92c.05.34.07.68.05,1.04-.23,2.88-1.06,5.98-1.84,8.77-.43,1.54-.93,3.07-1.49,4.57-.29.78-.6,1.56-.93,2.32-.23.54-.96,1.55-.96,2.11-.97,2.03-2.22,5.13-4.08,6.51-6.26,4.65-8.53-2.96-9.99-6.61-4.35-10.87-7.67-22.17-10.03-33.63-3.26-15.85-4.58-32.1-3.99-48.27.2-5.44.65-10.87,1.28-16.28.32-2.78,1.22-5.51,1.12-8.33-.1-2.71-1.4-5.12-2.2-7.65.22-.36.22-.82-.23-1.17-1.41-1.09-2.81-2.18-4.22-3.27-.7-.54-1.41-1.09-2.11-1.63-.45-.35-1.46-.86-1.72-1.4-.84-1.77,2.91-.39,3.52-.17,1.5.54,2.88,1.31,4.2,2.2.73.5,1.43-.07,1.55-.75.23-.3.3-.7.02-1.12-.79-1.17-1.58-2.34-2.31-3.55-.32-.54-3.17-5.83-.06-5.07.22.06.42.03.59-.03.92,2.52,2.57,5.01,3.73,7.33.62,1.25,2.48.15,1.87-1.09-.76-1.52-1.52-3.05-2.27-4.57-.38-.76-.79-1.52-1.14-2.29-.86-.95-.76-1.42.31-1.39.59-.39,1.03-.27,1.3.37,1.2.83,2.18,2.73,2.97,3.95.81,1.26,1.53,2.56,2.2,3.9.04.08.09.12.14.18.44,1.02,2.2.93,2.06-.33-.24-2.19-.63-4.63-.35-6.83.09-.72.1-3.17,1.31-3.24.2-.01.94,4.03,1,4.3,1.07,5.41,1.38,10.86,1.17,16.36-.18.17-.34.32-.47.46-.95,1.02.58,2.55,1.53,1.53,1.22-1.31,3.09-3.02,4.95-3.29.97-.53,1.65-.12,2.03,1.25-.31.26-.62.53-.93.79-.72.58-1.46,1.14-2.17,1.73-3.02,2.54-5.65,5.44-8.03,8.59-.26.35-.26.69-.1.97,0,.03-.02.06-.02.09-.22,12.23,1.08,24.5,3.84,36.42,2.77,11.95,7.01,23.55,12.6,34.47,1.09,2.14,2.24,4.25,3.44,6.34.95,1.66,2.56,3.41,2.88,5.41Z"/>
        </g>
        <g>
          <path class="cls-2" d="M141.38,99.13c3.53-4.08,6.94-9.32,3.88-14.66-1.45-2.53-3.95-4.07-6.52-4.07-.29-2.8-3.08-4.75-5.81-3.61-2.57,1.07-3.2,4.12-1.77,6.28-1.2.81-1.99,2.18-1.87,3.8-2.08.41-3.71,2.21-3.52,4.49,0,.07.04.11.05.17-.75.3-1.41.85-1.84,1.58-1.78,2.99-.07,6.76,2.66,8.46.17.11.33.15.49.16.55,1.9,1.85,3.58,3.7,4.49.04.02.08.02.12.03,2.77,6.79,3.85,13.89,3.21,20.95-.07.77-8.78,1.55-9.73,1.64-3.51.31-7.04.32-10.55.03-3.39-.27-6.88-1.56-10.21-1.68-1.59-.06-2.15.94-3.17,2.27-5.64,7.36-9.96,20.12-1.49,27.03,8.4,6.85,24.81,4.14,34.07.84,10.16-3.62,19.27-11.61,21.6-22.5,2.88-13.45-5.69-25.55-13.28-35.7Z"/>
          <path class="cls-3" d="M133.8,78.75c1.42-.57,2.77.56,2.81,2,0,0,0,.01,0,.02-.78.28-1.54.71-2.25,1.33-.07.06-.11.14-.16.21-.33-.03-.66-.03-.98,0-.03-.05-.05-.1-.09-.14-1.01-1.08-.78-2.84.66-3.41Z"/>
          <path class="cls-3" d="M137.13,153.24c-8.78,4.54-20.75,6.33-30.49,4.27-6.68-1.41-10.8-6.25-10.26-13.28.43-5.57,3.66-10.43,6.65-14.97,10.23,2.57,20.79,2.6,30.85.22-.44,3.06-1.18,6.1-2.27,9.1-.47,1.31,1.61,1.87,2.08.57,3.09-8.55,3.67-17.95,1.51-26.79-.58-2.39-1.36-4.74-2.31-7.01-.12-.29-.33-.49-.57-.6-.09-.15-.21-.29-.42-.4-2.41-1.2-3.5-3.93-2.59-6.46.47-1.31-1.62-1.88-2.08-.57-.2.56-.32,1.13-.37,1.7-1.03-1.01-1.69-2.46-1.37-3.91.19-.89.7-1.62,1.65-1.62,1.31,0,2.15,1.47,2.76,2.43.75,1.17,2.62.09,1.87-1.09-.95-1.48-2.06-2.99-3.84-3.43,0-.02,0-.03,0-.05-.17-2.05,1.86-2.9,3.55-2.12,1.35.62,2.07,1.99,2.48,3.35.4,1.33,2.49.76,2.08-.57-.7-2.3-2.23-4.44-4.61-5.05,0-.02,0-.03,0-.06-.15-1.93,1.71-2.93,3.39-2.23,1.64.69,2.31,2.43,2.41,4.09.08,1.38,2.25,1.39,2.16,0-.13-2.21-1.06-4.44-2.85-5.63,4.08-2.66,7.97,2.71,7.62,6.61-.32,3.52-2.82,6.21-5.07,8.71-.59.65-.19,1.5.41,1.78,4.52,6.05,9.4,12.58,11.88,19.84-.02,0-.03.01-.05.02.23.34.41.71.52,1.11.13.45.18.92.31,1.38.06.21.09.42.11.63.46,1.99.75,4.02.76,6.13.05,10.44-6.92,19.27-15.91,23.91Z"/>
        </g>
        <g>
          <g>
            <path class="cls-2" d="M114.16,181.89c-1.6-11.47-3.2-22.94-4.8-34.42-1.06-7.63-.31-18.81-8.73-22.36-5.17-2.18-10.93-2.2-16.13-4.54-2.89-1.3-5.59-2.99-8.07-4.96-1.36-1.09-5.29-6.27-6.98-5.41-.6.3-.99.89-1.33,1.46-4.95,8.26-9.16,16.1-11.51,25.56-2.36,9.48-3.2,19.29-3.21,29.03-.01,9.95-.31,20.99,1.98,30.74,1.88,8,7.78,12.38,15.04,15.49,13.36,5.73,33.48,9.98,42.85-4.9,4.79-7.61,2.05-17.43.9-25.69Z"/>
            <path class="cls-4" d="M112.07,205.05c-2.39,4.83-7.24,8.06-12.28,9.57-10.46,3.13-23.72-1.1-32.91-6.38-11.6-6.66-10.47-20.22-10.96-31.96-.93-22.08.92-45.05,14.2-63.48,5.46,5.86,12.29,10.17,20.11,12.17,6.03,1.54,12.9,1.34,14.83,8.74,1.21,4.62,1.45,9.64,2.11,14.37,1.65,11.84,3.3,23.68,4.95,35.53.95,6.84,3.19,14.9-.04,21.45Z"/>
          </g>
          <g>
            <g>
              <path class="cls-2" d="M94.47,172.52c-.75-16.43-2.39-32.8-6.32-48.8-.11-.43-.58-.83-1.04-.79-.94.07-1.88.14-2.82.21-.38-.34-1-.26-1.41.11-.77.06-1.54.12-2.3.17-.52.04-.84.37-.97.76-.56-.03-1.1.3-1.02,1.02,2.09,17.74,3.52,35.55,4.19,53.41.32,8.57.39,17.14.46,25.71.03,3.47,2.28,4.94,5.54,4,.21-.01.4-.08.58-.19.13-.05.26-.09.4-.15,4.62-1.89,5.38-6.94,5.46-11.36.13-8.01-.35-16.12-.72-24.12Z"/>
              <path class="cls-3" d="M85.38,204.33c-.46-.74,0-3.38,0-4.29-.02-3.57-.06-7.14-.14-10.72-.15-7.14-.42-14.28-.8-21.42-.76-14.15-2-28.27-3.66-42.34.71-.06,1.33-.13,1.89-.18,4.15,26.83,5.81,53.95,5,81.09-.72-.2-1.48-.85-2.28-2.15Z"/>
              <path class="cls-3" d="M92.81,199.72c-.18.97-1.3,4.46-2.96,6.05.76-26.87-.92-53.7-4.99-80.27.88.29,1.53,1.05,2.16,2.78,1.11,3.07,1.42,6.78,1.96,10,1.23,7.28,2.03,14.63,2.59,22,.49,6.46.8,12.94,1.02,19.42.22,6.36,1.4,13.76.22,20.03Z"/>
            </g>
            <g>
              <path class="cls-2" d="M96.01,118.89c-2.49-4.58-6.47-8.74-11.82-9.65-10.44-1.76-17.52,8.89-16.69,18.32.35,4,2.31,7.97,6.63,8.58,4.65.66,8.15-2.7,10.98-5.94,1.51,3.9,3.63,8.56,8.29,9.25,3.48.51,6.29-1.61,6.97-5.04.97-4.85-2.12-11.41-4.36-15.52Z"/>
              <path class="cls-3" d="M95.96,136.54c-.79.35-1.73.47-2.72.28-3.79-.71-4.98-4.47-6.18-7.59-.21-.55-.68-.7-1.13-.62-.21-.72-1.26-1.2-1.91-.44-1.55,1.8-3.94,5.12-6.42,5.45-3.58.75-5.94.03-7.2-2.9-.45-1.1-.7-2.24-.75-3.41-.11-1.44-.03-2.95.22-4.38,1.26-7.18,8.21-13.99,15.92-11.04,5.53,2.12,8.51,7.64,10.46,12.87.91,2.45,2.2,4.95,2.24,7.62.03,1.92-.99,3.48-2.53,4.16Z"/>
            </g>
          </g>
        </g>
      </g>
      <g>
        <g>
          <g>
            <g>
              <path class="cls-2" d="M62.08,97.82c.06,3.19,2.94,6.04,6.14,6.03,7.98-.04,7.65-12.5-.2-12.26-3.19.1-6.01,3.03-5.94,6.23Z"/>
              <path class="cls-3" d="M68.09,93.75c5.27-.15,5.12,8,.06,7.93-2.02-.03-3.91-1.91-3.91-3.94,0-2.03,1.82-3.94,3.85-4Z"/>
            </g>
            <g>
              <path class="cls-2" d="M102.75,105.19c.06,3.19,2.94,6.04,6.14,6.03,7.98-.04,7.65-12.5-.2-12.26-3.19.1-6.01,3.03-5.94,6.23Z"/>
              <path class="cls-3" d="M108.76,101.12c5.27-.15,5.12,8,.06,7.93-2.02-.03-3.91-1.91-3.91-3.94,0-2.03,1.82-3.94,3.85-4Z"/>
            </g>
            <g>
              <path class="cls-2" d="M77.01,110.66c-2.16,7.28-3.17,19.42,6.71,21.38,3.06.61,6.51-.39,8.3-3.08,2.33-3.5,1.08-8.04,2.01-11.95,9.31-2.73,16.14-10.3,19.18-19.43,2.85-8.57,2.07-17.66,0-26.3-1.84-7.69-4.8-16.57-13.59-18.37-7.29-1.5-15.53,1.34-21.14,6.03-14.91,12.47-17.64,38.93-1.47,51.72Z"/>
              <path class="cls-3" d="M76.27,64.1c5.79-6.7,18.66-13.12,27.11-7.69,4.78,3.07,6.06,9.62,7.32,14.75,1.47,6.05,2.13,12.43,1.57,18.54-.53,5.76-2.15,11.56-5.61,16.27-1.72,2.34-3.87,4.35-6.32,5.9-2.19,1.39-5.13,1.71-7.17,3-5.14,3.26,1.44,16.34-8.56,15.07-4.46-.56-6.56-4.1-6.91-8.28-.17-2.05.04-4.14.39-6.17.21-1.25,1.66-4.5,1.16-5.58-.12-.25-.33-.45-.55-.63-3.33-2.93-5.86-6.41-7.6-10.21-5.15-11.21-3.38-25.09,5.17-34.97Z"/>
              <path class="cls-1" d="M110.69,71.16c-1.25-5.14-2.53-11.68-7.32-14.75-8.45-5.43-21.32,1-27.11,7.69-6.83,7.9-9.32,18.34-7.42,27.94.08-.03.17-.08.26-.14.09-.07.16-.14.25-.21.13-.07.24-.16.32-.28,2.97-2.54,4.76-6.28,7.98-8.44,1.76-1.18,3.76-1.79,5.78-2.37.8,4.37,5.45,4.68,9.45,4.06,5.54-.85,10.25-3.62,13.96-7.62.9,7.93,1.8,15.87,2.7,23.8,0,0,0,.01,0,.02,1.53-3.52,2.38-7.35,2.72-11.17.56-6.11-.1-12.49-1.57-18.54Z"/>
              <path class="cls-1" d="M89.82,114.68c.84.36,1.69.64,2.56.87-1.87,2.1-1.38,6.17-1.75,9.47-2.56-.18-4.43-2.42-5.47-4.7-.9-1.97-2.44-5.9.83-6.68,1.36-.32,2.65.54,3.83,1.05Z"/>
            </g>
          </g>
          <g>
            <path class="cls-2" d="M82.75,87.47c2.67-.56,1.8,4.33,1.05,5.49-.51.78-1.68.72-1.99-.21-.41-1.24-1.04-4.77.81-5.25.04-.01.09-.02.13-.03Z"/>
            <path class="cls-2" d="M98.69,90.75c2.69-.46,1.65,4.39.86,5.52-.53.76-1.7.66-1.98-.28-.37-1.26-.87-4.8.99-5.22.04,0,.09-.02.13-.03Z"/>
            <path class="cls-2" d="M93.09,90.26c.77,3.06.06,6.11-1.95,8.53-.89,1.07-2.44-.43-1.56-1.5,1.5-1.81,2.01-4.14,1.44-6.42-.34-1.35,1.73-1.97,2.07-.62Z"/>
            <path class="cls-2" d="M88.95,100.02c-1.34-.17-2.59-.75-3.62-1.63-1.45-1.25-2.41,1.52-2.7,2.5-.53,1.83-.48,3.93,1.54,4.82,3.03,1.33,5.15-1.84,5.82-4.32.2-.75-.36-1.28-1.04-1.37Z"/>
          </g>
        </g>
        <g>
          <g>
            <path class="cls-2" d="M73.39,61.83c-5.23-.5-7.98,7.12-8.94,10.97-1.67,6.64-.71,13.33,2.3,19.42.28.57.82.64,1.27.44.34.14.72.09,1.03-.3,4.31-5.5,7.24-11.71,8.26-18.66.53-3.59,1.55-11.34-3.92-11.86Z"/>
            <path class="cls-2" d="M75.37,71.91c-.23,2.28-.7,4.57-1.37,6.77-1.27,4.17-3.29,7.91-5.88,11.37-1.67-3.74-2.52-7.65-2.32-11.8.11-2.21.53-4.44,1.22-6.54.23-.71,2.24-6.13,3.47-6.49,2.61-1.39,4.25-1.32,5.05,3.09,0,1.2-.06,2.4-.17,3.6Z"/>
          </g>
          <g>
            <path class="cls-2" d="M115.58,61.97c-4.67-11.48-16.43-17.82-28.45-13.26-9.12,3.46-18.88,16.37-15.63,26.68,3.03,9.61,15.87,1.17,23.05-4.57-.91,1.32-1.98,2.53-3.25,3.6-1.22,1.03-4.25,2.07-5.06,3.64-1.08,2.07.38,3.48,2.32,3.96,7.34,1.8,15.74-3.87,20.23-9.54,1.89,9.14,2.64,18.33,2.25,27.66-.04,1.05,1.53,1.5,2.01.55,6.03-11.84,7.61-26.23,2.52-38.73Z"/>
            <path class="cls-2" d="M110.6,70.54c-.12-.56-.55-.78-.98-.76-.47-.36-1.22-.4-1.65.23-2.06,3.05-4.68,5.55-7.93,7.31-1.58.86-9.99,4.44-10.59,1.87-.26-1.11,4.73-4.41,5.73-5.6,1.74-2.06,2.93-4.35,3.85-6.87.44-1.2-1.27-1.76-1.92-.84-.05.03-.1.05-.15.09-3.96,3.6-8.28,6.77-13.08,9.16-2.63,1.31-8.21,4.6-10.28-.3-.99-2.33-.02-5.96.6-8.21,2.74-9.88,11.38-17.68,21.99-17.19,21.63,1,22.76,28.57,17.11,45.14-.06-8.09-.95-16.09-2.69-24.04Z"/>
          </g>
        </g>
      </g>
      <g>
        <g>
          <g>
            <path class="cls-2" d="M63.57,337.5c-.28-4.34-1.37-8.47-3.02-12.48-.23-.56-.77-.77-1.26-.7-2.25-2.61-5.4-4.22-8.3-.87-4.31,4.99.39,15.63,2.5,20.57,1.13,2.65,5.03,11.59,8.62,5.95,1.93-3.04,1.67-9.07,1.45-12.46Z"/>
            <path class="cls-2" d="M57.35,347.08c-2.41-2.4-3.67-8.46-4.51-11.77-.58-2.26-.96-4.35-.99-6.68-.74-3.21,1.13-4.4,5.62-3.57.93,1.17,1.67,2.45,2.22,3.83,0,0,0,0,.01.02.91,2.78,1.52,5.63,1.72,8.59.19,2.82.6,14.23-4.07,9.58Z"/>
          </g>
          <g>
            <path class="cls-2" d="M60.05,216.05c-2.46-1.17-5.41.08-7.78.78-4.6,1.37-9.75,2.36-14.13,4.32-3.54,1.58-4.89,5.23-1.49,7.97,2.59,2.09,7.13,2.05,10.28,2.15,4.45.15,8.8-.42,13.13-1.42.99-.23.94-1.4.32-1.89,2.28-3.5,4.75-9.51-.32-11.91Z"/>
            <path class="cls-2" d="M46.92,229.1c-1.76-.06-5.16.14-6.72-.76-7.18-4.15-.72-5.34,1.46-6.04,3.71-1.19,7.45-2.28,11.18-3.39,2.77-.83,2.84-1.18,5.65.65,2.92.8,3.39,2.5,1.42,5.12-.51.89-1.07,1.76-1.67,2.59-.19.28-.22.56-.15.8-3.67.76-7.39,1.17-11.16,1.04Z"/>
          </g>
          <g>
            <path class="cls-2" d="M115.79,189.34c-1.31-2.4-3.85-.49-5.43.48-1.4.86-2.84,1.66-4.3,2.4-2.9,1.47-5.92,2.7-9.02,3.68-6.15,1.94-12.6,2.9-19.05,2.81-3.92-.05-7.83-.49-11.66-1.3-1.92-.4-3.81-.9-5.68-1.49-1.33-.42-3.72-2.16-4.55-.07-.77,1.95.43,4.71.83,6.62.55,2.61,1.17,5.21,1.85,7.79.66,2.49,1.39,4.96,2.19,7.41.4,1.22.81,2.44,1.24,3.66.28.78.69,3.13,1.33,3.63-1.95-1.5-3.5-3.63-6.38-2.65-7.74,2.62-3.49,12.34-1.8,17.28,2.63,7.66,5.97,15.13,10.13,22.08,3.04,5.09,7.23,12.14,12.92,15.36-5.26,14.62-12.7,27.87-21.86,40.38-2.61,3.56-5.58,8.42-2.9,12.81,1.81,2.96,5.57,3.07,8.47,1.78,3.49-1.55,5.8-5.03,8.39-7.68,5.94-6.05,11.39-12.59,16.3-19.5,7.05-9.95,12.98-20.69,17.67-31.95,4.68-11.25,8.13-23.02,10.23-35.03,2.11-12.04,2.87-24.31,2.2-36.51-.13-2.33-.31-4.65-.54-6.97-.15-1.54.21-3.27-.44-4.73-.04-.1-.09-.19-.14-.27Z"/>
            <path class="cls-3" d="M61.58,329.88c-.24-.08-.52-.05-.81.16-5.83-.98-7.47-3.58-4.91-7.79.58-1.07,1.24-2.08,1.97-3.05,1.39-1.99,2.91-3.89,4.3-5.88,2.61-3.74,5.04-7.6,7.29-11.56,4.33-7.62,7.92-15.6,10.9-23.83,2.06.79,4.31,1.07,6.75.58,9.16-1.82,11.27-12.36,12.06-20.13,1.33-13.01.85-26.07-1.09-38.99-.2-1.34-2.25-.77-2.04.56,1.46,9.77,2.07,19.62,1.65,29.49-.37,8.95-.51,28.34-13.99,26.96-9.4-.96-15.54-13.87-19.44-21.32-4.07-7.76-7.13-15.92-9.37-24.37.06-.12.11-.25.12-.4.24-2.6,1.53-7.99,5.24-5.48,1.56,1.05,2.61,2.46,4.4,3.17.04.02.08,0,.11.02,2.11,5.18,4.51,10.26,7.21,15.21.65,1.2,2.49.13,1.83-1.07-7.67-14.07-12.92-29.12-15.7-44.88,18.58,6.57,39.32,3.94,55.67-7.12,6.6,51.69-13.3,105.04-52.18,139.74Z"/>
            <path class="cls-1" d="M99.73,250.06c-.12,2.77-.31,5.54-.59,8.31-.8,7.77-2.9,18.31-12.06,20.13-2.44.49-4.69.21-6.75-.58-1.17,3.23-2.43,6.41-3.8,9.55,5.35,2.2,13.24-3.23,17.11-6.15,2.63-1.98,5.18-4.17,7.65-6.48,4.09-9.34,7.29-19.05,9.58-28.99-3.29,2.08-7.13,3.44-11.14,4.21Z"/>
            <path class="cls-1" d="M83.49,276.36c.06,0,.12.02.18.03,13,1.33,13.59-16.67,13.95-25.98-5.86.82-11.94.44-17.14-.78-7.87-1.86-13.7-6.76-18.96-12.66-.09-.1-.18-.2-.27-.3,4.23,15.56,15.9,27.91,31.63,32.84-1.55,4.4-5.23,6.93-9.4,6.85Z"/>
          </g>
        </g>
        <g>
          <path class="cls-2" d="M131.7,239.92c-5.45-17.2-10.9-34.4-16.35-51.6-.22-.7-.97-.99-1.61-.66-13.7,7-29.23,10.16-44.58,9-2.16-.16-4.32-.41-6.47-.74-2.05-.31-4.44-1.22-6.5-.92-.78.12-1.66.44-1.5,1.43,3.2,20.55-.28,48.96,22.69,59.32,19.38,8.74,39.64-1.66,54.05-14.77.28-.25.39-.71.28-1.07Z"/>
          <path class="cls-3" d="M126.47,242.43c-2.93,2.47-6.03,4.76-9.3,6.76-5.91,3.62-12.47,6.33-19.38,7.22-14.04,1.81-27.73-4.09-33.95-17.2-6.2-13.06-4.91-28.12-6.89-42.14,19.23,4.18,39.03,1.74,56.66-6.93l13.34,42.1c1.3,4.09,3.21,7.06-.49,10.18Z"/>
        </g>
      </g>
    </g>
  </g>
</svg>