<?xml version="1.0" encoding="UTF-8"?>
<svg id="_레이어_2" data-name="레이어 2" xmlns="http://www.w3.org/2000/svg" viewBox="0 0 187.38 320.8">
  <defs>
    <style>
      .cls-1 {
        fill: #d3dde1;
      }

      .cls-1, .cls-2, .cls-3, .cls-4 {
        stroke-width: 0px;
      }

      .cls-2 {
        fill: #221e1f;
      }

      .cls-3 {
        fill: #fff;
      }

      .cls-4 {
        fill: #ee305b;
      }
    </style>
  </defs>
  <g id="OBJECTS">
    <g>
      <g>
        <g>
          <path class="cls-2" d="M54.36,84.91c-1.04-3.09-4.42-2.44-6.14-.38-1.54,1.85-2.11,4.8-2.91,6.98-1.39,3.81-2.71,7.65-3.96,11.51-4.99,15.45-8.79,31.25-11.5,47.25-.16.94.87,1.47,1.49,1.17.03.07.06.14.11.22,1.71,2.57,4.29,1.48,5.48-.98,1.44-3,1.92-6.77,2.8-9.96,1.14-4.18,2.29-8.36,3.43-12.54,2.29-8.36,4.57-16.71,6.86-25.07,1.03-3.78,2.07-7.56,3.1-11.34.49-1.8,1.91-4.85,1.24-6.86Z"/>
          <path class="cls-3" d="M50.94,92.18c-.77,2.82-1.54,5.64-2.32,8.47-1.5,5.46-2.99,10.93-4.49,16.39-1.5,5.46-2.99,10.93-4.49,16.39l-2.11,7.71c-.44,1.61-.88,3.21-1.32,4.82-.09.35-1.81,6.51-3.03,4.68-.33-.5-.89-.54-1.31-.34,1.76-10.29,3.94-20.51,6.64-30.6,1.37-5.12,2.87-10.22,4.48-15.27.86-2.67,1.74-5.34,2.67-7.99.74-2.12,1.44-6.29,2.88-7.92.11-1.09.77-1.41,2.01-.97,1.59-.62,2.06-.33,1.42.85.2.82-.8,2.92-1.03,3.76Z"/>
        </g>
        <g>
          <path class="cls-2" d="M128.84,29.87c-.06-.09-.13-.15-.2-.22-1.02-1.84-2.04-3.67-3.06-5.51.4-4.19-.91-8.17-3.61-11.37,1.41-3.26,3.64-9.95-.11-11.81-3.27-1.63-5.49,2.44-6.94,5.86-.14-.73-.28-1.46-.44-2.18-.32-1.46-.73-2.98-1.97-3.94-1.56-1.21-3.68-.76-4.43.8-.63-.68-1.47-1.08-2.51-.83-3.17.74-3.05,5.25-2.36,9.08-1.83-2.7-4.37-5.16-6.73-3.28-3.06,2.44.54,8.18,2.72,10.95-1.2.53-2.19,1.53-2.38,2.87-.33,2.35,1.87,3.98,3.51,5.23,2.36,1.79,4.92,3.2,7.64,4.35,1.13.48,2.31,6.63,2.64,7.84.8,2.92,1.39,5.93,1.43,8.97.07,4.97-1.78,9.44-5.69,12.58-4.85,3.9-11.07,4.29-16.98,5.37-3.19.58-6.37,1.17-9.56,1.75-1.43.26-8.25.57-8.57,2.17-.1.5.1,1.01.3,1.48,1.97,4.65,4.36,9.11,6.82,13.53,1.4,2.52,4.38,11.09,7.66,10.68,16.61-2.09,35.08-4.15,46.31-18.19,11.58-14.46,5.13-32.01-3.48-46.16Z"/>
          <path class="cls-4" d="M73.41,69.56c7.02-1.28,14.06-2.54,21.07-3.85,3.29-.62,6.76-1.29,9.86-2.69,1.86,8.53,5.7,16.22,11.39,22.88-9.39,4.07-20.17,5.29-30.28,6.33-4.01-7.56-8.03-15.11-12.04-22.67Z"/>
          <path class="cls-3" d="M129.03,76.77c-3.36,3.56-7.24,6.23-11.44,8.26-.02-.02-.02-.04-.04-.06-5.8-6.63-9.57-14.32-11.38-22.9,1.01-.6,1.97-1.29,2.85-2.12,8.65-8.24,4.52-21.17.85-30.66-.1-.26-.28-.42-.47-.53-.08-.29-.27-.56-.62-.7-3.01-1.25-5.94-2.91-8.4-5.05-.55-.48-1.43-1.14-1.55-1.89-.2-1.29,1.21-2.14,2.3-2.13,1.75,0,3.25,1.55,4.41,2.65.51.48,1.14.28,1.48-.14,1.27-.27,2.54-.53,3.8-.8,1.26-.26.73-2.19-.53-1.93-1.33.28-2.67.56-4,.84-1.39-1.26-3-2.48-4.88-2.6-.03-.04-.03-.08-.06-.11-1.24-1.42-5.34-6.86-3.41-8.52,1.84-1.58,5.23,5.13,5.86,6.6.29.68.98.62,1.42.23.62.04,1.3-.45,1.07-1.23-.52-1.75-.93-3.51-1.11-5.33-.1-.94-.15-1.91-.14-2.86.01-1.26-.46-2.21,1.17-2.01,1.37.16,1.1.36,1.45,1.61.2.73.4,1.46.6,2.19.44,1.61.88,3.21,1.31,4.82.34,1.24,2.27.71,1.93-.53-.73-2.67-1.2-5.67-2.24-8.28.3-.14.53-.42.53-.84,1.24-.56,1.97-.38,2.21.56.2.37.33.76.4,1.17.19.7.31,1.45.45,2.16.24,1.18.46,2.36.67,3.55,0,0,0,0,0,0-.24.51-.03.98.31,1.26.49.79,1.99.25,1.79-.88,0-.04-.02-.08-.02-.13l1.55-3.28c.36-.77,1.52-4.15,2.52-4.24.66.3,1.32.59,1.98.89.09.4.13.8.11,1.21.01.8-.1,1.64-.23,2.43-.3,1.78-.88,3.47-1.65,5.1-.28.59.04,1.14.49,1.39,2.42,2.77,3.49,6.17,3.24,9.79-.15.25-.18.55-.03.87.01.28.13.49.33.62l4.38,7.89c.1.18.23.29.37.36,7.84,13.8,12.65,30.28.37,43.28Z"/>
        </g>
        <g>
          <path class="cls-2" d="M77.38,67.49c-6.83-.84-13.38,1.51-19.55,4.19-3.95,1.72-9.19,2.43-12.41,5.69-4.02,4.07-2.15,10.27-1.83,15.32,1,16.04,5.07,31.86,12.01,46.35,7.64,15.93,19.46,35.32,39.38,35.24,9.57-.04,18.55-4.32,25.77-10.4,5.61-4.72,11.18-11.12,8.06-18.86-1.81-4.49-5.45-8.17-8.26-12.03-3.72-5.09-7.17-10.38-10.33-15.84-6.01-10.37-10.36-21.27-14.81-32.36-3.36-8.38-8.38-16.12-18.03-17.3Z"/>
          <path class="cls-4" d="M93.19,84.57c7.1,17.16,14.14,33.5,25.09,48.68,2.31,3.2,4.96,6.21,7.08,9.54,3.57,5.62,2.52,10.93-1.83,15.72-6.7,7.37-16.23,12.82-26.23,13.67-20.31,1.73-32.34-18.22-39.98-34.16-4.47-9.32-7.61-19.24-9.51-29.39-.97-5.2-1.63-10.45-2.01-15.73-.2-2.82-.99-5.59-1.11-8.42-.06-1.52.16-3.11.99-4.38,1.26-1.92,3.5-2.49,5.52-3.27,2.11-.82,4.15-1.89,6.21-2.82,4.14-1.85,8.38-3.58,12.88-4.32,11.53-1.9,18.73,4.81,22.9,14.89Z"/>
          <path class="cls-3" d="M107.01,114.97c-3.12-5.88-5.92-11.9-8.6-18.04-15.37,8.7-31.61,15.69-48.5,20.87,1.85,6.95,4.31,13.73,7.42,20.22.09.19.19.38.28.58,13.53-4.93,26.66-10.87,39.23-17.91,2.98-1.67,6.88-3.43,10.18-5.72Z"/>
        </g>
        <g>
          <path class="cls-2" d="M151.09,212.66c-2.87-2.52-6.39-3.95-10.86-4.77-3.47-.64-7.37-.16-8.13,3.92-.8,4.33,2.51,9.63,4.47,13.24,2.49,4.59,5.5,8.91,8.91,12.86,2.15,2.49,5.82,7.69,9.82,6.68,2.58-.65,3.46-3.27,3.88-5.62,1.22-6.85-.13-14.18-3.43-20.28-1.35-2.5-2.88-4.48-4.66-6.04Z"/>
          <path class="cls-2" d="M157,239.76c-3.35,5.95-9.48-2.46-11.15-4.5-3.71-4.54-6.9-9.52-9.38-14.84-1.88-4.03-5.45-11.22,3.81-10.33,3.23.31,6.72,2.13,9.53,3.62,4.12,4.89,6.86,10.78,7.55,17.19.25,2.31.83,6.73-.36,8.85Z"/>
        </g>
        <g>
          <path class="cls-2" d="M86.2,298.37c-1.69-4.78-3.96-9.47-7.61-13.07-4.11-4.06-10.28-6.47-16.03-5-2.48.63-4.48,2.1-6.37,3.76-.88.77-1.93,1.55-1.97,2.83-.04,1.33.7,2.58,1.1,3.82.54,1.67,1.08,3.33,1.71,4.97,1.25,3.25,2.8,6.38,4.63,9.33,2.3,3.71,5.05,7.15,8.18,10.18,3.1,3,7.29,6.43,11.93,5.42,3.57-.78,5.93-3.93,6.75-7.36,1.18-4.92-.71-10.3-2.33-14.89Z"/>
          <path class="cls-2" d="M86.66,312.04c-2.87,16.15-18.48-.78-22.38-6.62-1.99-2.98-3.67-6.17-5.01-9.5-.68-1.67-1.27-3.38-1.78-5.11-.26-.87-.49-1.74-.71-2.62-.15-.6-.55-1.18-.16-1.78.17-.26.42-.45.66-.64,2.32-1.79,4.65-3.66,7.69-3.9,2.91-.23,5.82.64,8.33,2.06,1.3.73,2.51,1.62,3.61,2.62.54.49,1.06,1.02,1.55,1.57.28.32,1.36,1.29,1.36,1.71,3.89,5.5,8.06,15.39,6.85,22.21Z"/>
        </g>
        <g>
          <path class="cls-2" d="M181.29,171.99c-4.19-6.52-9.98-11.88-16.11-16.63-7.1-5.51-14.75-10.3-22.72-14.45-3.99-2.08-8.05-4-12.18-5.78-2.12-.91-4.25-1.79-6.4-2.63-1.58-.62-3.81-1.92-5.54-1.62-.91.16-1.65.81-2.34,1.42-8.2,7.25-17.36,13.4-27.16,18.28-4.95,2.46-10.06,4.6-15.29,6.39-1.82.62-5.87.93-5.79,3.12.09,2.33,1.82,5.38,2.49,7.65,6.05,20.61,7.34,42.56,4.07,63.77-2.82,18.35-9.07,36.2-18.59,52.15-.37.62-.76,1.29-.7,2.01.07.94.87,1.63,1.6,2.22,4.06,3.27,8.2,6.54,12.97,8.65,4.76,2.12,10.29,2.99,15.22,1.3,8.02-2.75,12.4-11.23,15.44-19.15,10.95-28.47,14.98-59.23,15.07-89.73,0-2.24.31-4.99,2.38-5.85.77-.32,1.63-.29,2.46-.23,6.78.46,13.47,2.17,19.64,5.02,3.46,1.6,7.14,4.14,7.47,7.94.28,3.24-1.98,5.67-4.44,7.42-2.06,1.46-7.87,2.57-6.9,5.78,1.27,4.21,6,8.83,9.2,11.67,1.99,1.76,4.14,3.34,6.44,4.68.91.54,6.33,3.93,7.23,3.32,6.24-4.21,12.54-8.46,17.78-13.87,5.24-5.41,9.41-12.14,10.5-19.59,1.15-7.88-1.25-15.99-5.47-22.74-.11-.17-.22-.35-.33-.52Z"/>
          <path class="cls-3" d="M183.59,200.52c-4.44,11.71-14.87,19.44-25.22,25.67-.17.1-.28.24-.35.38-8.7-3.71-15.67-10.09-20.2-18.39,6.51-2.84,15.39-8.89,10-16.8-2.52-3.7-7.43-5.59-11.45-7.08-5.59-2.07-11.39-3.13-17.31-3.43,1.89-1.75,4.19-3.02,6.8-3.69,1.25-.32.72-2.25-.53-1.93-16.18,4.14-11.75,23.17-12.73,35.85-1.35,17.34-4.35,34.56-9.01,51.32-2.79,10.01-5.54,22.08-13.33,29.54-10.91,10.46-24.11,1.43-33.22-6.66,22.74-37.24,27.57-84,12.86-125.09,18.22-5.61,34.9-14.97,49.19-27.57,21.05,7.06,41.81,19.05,56.71,35.71,8.14,9.1,12.32,20.26,7.8,32.17Z"/>
          <path class="cls-1" d="M136.45,179.31c-3.05-1.1-6.45-2.32-9.9-2.99-.02.38-.23.74-.71.86-2.6.67-4.9,1.94-6.8,3.69,5.92.3,11.72,1.37,17.31,3.43,4.02,1.49,8.92,3.38,11.45,7.08,5.39,7.91-3.49,13.96-10,16.8,1.27,2.33,2.74,4.5,4.38,6.5,8.43-6.51,20-16.08,11.65-25.72-4.3-4.95-11.39-7.51-17.39-9.66Z"/>
          <g>
            <path class="cls-2" d="M118.92,178.39c-1.01-4.02-2.27-7.94-3.77-11.76.11-.04.21-.09.31-.17,4.14-3.54,1.32-8.96-.62-13.01-2.01-4.19-4.59-8.02-7.61-11.5-.55.38-1.1.77-1.65,1.14,1.62,1.83,3.12,3.77,4.46,5.85,2.1,3.27,7.96,11.93,4.34,15.79-2.96-7.07-6.8-13.73-11.41-19.92-.55.36-1.11.71-1.67,1.06,7.48,9.99,12.81,21.3,15.8,33.51.05.22.16.36.29.48.46-.52.97-1.01,1.51-1.47Z"/>
            <path class="cls-2" d="M61.89,282.32c-.64-.72-1.24-1.49-1.82-2.28-.36.64-.71,1.29-1.08,1.93,6.76,8.8,17.2,13.32,27.85,12.58,1.07-.64,2.13-1.43,3.17-2.39-9.77,1.76-19.68-1.33-26.72-8.34.07-.07.14-.13.19-.23,20.2-38.17,23.63-83.82,9.99-124.54-.62.21-1.25.41-1.88.61,13.45,40.07,10.08,85.09-9.71,122.66Z"/>
            <path class="cls-2" d="M159.8,225.31c.67-.41,1.34-.83,2-1.26-8.29-3.88-15.11-10.14-19.73-18.08-.57.35-1.16.68-1.74.99,4.59,7.93,11.33,14.26,19.47,18.35Z"/>
          </g>
        </g>
        <g>
          <g>
            <path class="cls-2" d="M78.74,147.29c-.57-1.01-1.2-1.93-1.9-2.79-.06-.16-.17-.29-.33-.4-.49-.56-1.01-1.08-1.55-1.57.87-1.38,1.31-3.01,1.2-4.55,9.27-13.92,10.61-30.76,9.32-47.04-.48-6.08-.69-12.18-2.21-18.12-.7-2.74-1.69-6.49-4.14-8.24-2.22-1.59-7.75-.89-6.75,2.75,2.98,10.85,4.68,21.78,4.28,33.06-.2,5.57-.86,11.12-1.96,16.58-.57,2.83-1.27,5.64-2.08,8.42-.29,1-1.71,7.54-2.6,7.76-2.21.52-3.95,2.59-3.57,4.99-.97-.22-1.96-.39-2.98-.47-3.19-.25-6.42.09-9.55.72-6.69,1.34-12.76,4.28-19.6,5.2-2.47.33-4.79.86-6.24,3.12-1.58,2.47-1.96,5.62-2.09,8.48-.27,6.13.96,12.13,1.69,18.18.03.23.05.45.08.68.54,5.25.44,11.98,4.14,16.22,3.95,4.51,10.08,3.36,15.38,2.75,7.44-.85,15.19-1.19,22.52-2.8,5.07-1.11,9.62-3.63,11.8-8.54,2.47-5.54,1.76-12.21,1.25-18.07-.48-5.57-1.32-11.37-4.1-16.32ZM73.42,141.28c-1.46-1.06-3.06-1.91-4.79-2.51,0-.09,0-.17-.04-.27-.94-2.5,1.82-4.35,3.97-3.02.87.54,1.35,1.3,1.55,2.14-.03.19.01.37.1.52.1,1.06-.21,2.19-.79,3.14Z"/>
            <path class="cls-3" d="M28.69,164.31c-.47-3.45-1.03-6.88-.85-10.38.11-2.14.42-4.56,1.75-6.31,1.55-2.03,4.03-1.9,6.34-2.17,3.79-.44,7.05-1.73,10.63-2.95,3.11-1.06,6.29-1.94,9.53-2.43,5.98-.91,12.56-.47,17.29,3.71.02.01.03.03.05.05-6.52.95-5.05,12.37-8.66,16.43-3.52,3.96-10.25,5.55-15.18,6.77-4.99,1.24-19.08,5.09-20.77-2.43-.03-.12-.08-.2-.13-.29Z"/>
            <path class="cls-3" d="M32.23,187.2c-2.75-5.07-2.6-12.29-3.02-18.19,3.67,3.04,10.62,2.31,16.29,1.1-.33,7.4,1.72,14.43,6,20.49-6.63,1.05-15.83,2.92-19.27-3.4Z"/>
            <path class="cls-3" d="M74.42,186.53c-5.85,3.21-13.89,2.96-20.37,3.7-.12.01-.24.03-.37.05-.03-.06-.06-.12-.11-.18-4.44-6.05-6.49-12.97-6.06-20.45,1.68-.41,3.18-.82,4.34-1.14,4.43-1.22,9.78-2.78,13.33-5.9,1.59-1.4,2.7-3.03,3.39-5.03,1.07-3.13.56-12.7,6.7-11.74,1.17,1.47,2.12,3.12,2.84,4.86,2.34,5.62,2.78,11.92,3.05,17.94.31,6.75-.11,14.26-6.76,17.9Z"/>
          </g>
          <path class="cls-3" d="M74.21,66.53c7.37-4.32,8.24,14.23,8.62,17.75.66,6.01,1.14,12.05,1.09,18.1-.11,11.66-2.41,23.17-8.55,33.12-.55-.89-1.38-1.64-2.55-2.12-.23-.09-.46-.16-.69-.22,7.99-21.39,8.72-44.76,2.08-66.63Z"/>
        </g>
        <g>
          <path class="cls-2" d="M59.46,145.1c-1.55-.66-3.17-.95-4.66-1.75-1.89-1-3.4-2.41-4.65-4.12.02-.06.06-.1.08-.16.62-2.41,3.76-3.14,4.04-5.8.19-1.78-1.01-3.25-2.84-3.26-4.04-.02-7.43,4.59-8.79,8.03-5.15,1.89-9.92-2.54-9.93-7.74,0-4.51,2.84-8.55,5.95-11.55,4.35-4.19,9.78-7.11,13.67-11.8,3.83-4.61,4.92-10.37,3.56-16.15-.66-2.82-1.78-5.51-3.09-8.09-1.11-2.21-2.27-4.46-3.52-6.59-.87-1.48-1.89-.18-2.88.42-.73.44-1.45.89-2.18,1.34-2.77,1.74-5.49,3.56-8.15,5.47-5.31,3.82-10.37,7.99-15.12,12.49-.48.45-.95.91-1.42,1.36-2.63,2.56-5.3,5.28-7.79,8.16-.12.09-.22.21-.29.34-4.77,5.59-8.83,11.82-10.57,18.91-2.19,8.9-.36,18.84,6.93,24.9,8.74,7.26,20.65,7.01,31.37,6.43.9,2.97,2.08,6.05,4.8,7.8,2.38,1.52,5.3,1.4,7.42-.47.32-.28.36-.62.27-.92,2.37-.3,4.59-1.88,5.32-4.75,1.42-.76,2.58-2.07,3.08-3.88,1.59-.55,2.93-1.87,3.14-3.59.31-2.45-1.7-4.16-3.75-5.03Z"/>
          <path class="cls-4" d="M24.73,95.05c7.11-6.45,14.87-12.1,23.1-17.03,5.41,8.77,10.48,19.04,2.57,28.12-4.86,5.58-12.03,8.72-16.36,14.81-.59.83-1.13,1.73-1.6,2.67-7.82-4.04-14.22-9.94-18.85-17.42,3.46-4,7.32-7.69,11.14-11.16Z"/>
          <path class="cls-3" d="M59.52,151.68c-.31-.12-.65-.09-.89.11-1.02.06-2.07-.1-2.65-.38-1.28-.61-2.32-1.62-3.36-2.56-.95-.86-2.37.55-1.41,1.41,1.88,1.7,4,3.49,6.58,3.73-1.54,2.9-5.61,3.56-7.74.38-.71-1.06-2.45-.06-1.73,1.01,1.52,2.27,3.94,3.2,6.22,2.98-1.9,3.12-6.84,2.85-7.98-1.25-.34-1.24-2.27-.71-1.93.53.73,2.65,2.69,4.17,4.85,4.63-2.27,1.62-4.43.23-5.86-1.74-.77-1.06-1.34-2.25-1.87-3.45-.4-.92-.46-2.75-1.54-3.2-.96-.4-3.26.19-4.33.23-3.12.13-6.24.18-9.35-.04-6.23-.44-12.47-2.05-17.37-6.1C.02,140.43.65,127.47,5.61,117.75c1.8-3.53,4.08-6.83,6.63-9.95,4.81,7.55,11.4,13.59,19.4,17.66-1.22,3.32-1.42,6.98.39,10.14,1.2,2.1,3.15,3.77,5.46,4.5,1.61.51,3.65.78,5.29.11,2.18-.9,2.47-3.51,3.86-5.17,1-1.19,2.24-2.2,3.7-2.77,1.1-.43,2.5-.21,1.71,1.42-.34.71-1.12,1.23-1.69,1.74-.99.89-1.74,1.78-2.08,3.09-.04.15-.04.29-.02.42-.24.27-.31.66-.03,1.06,1.77,2.51,4.04,4.52,6.91,5.71,1.62.67,4.24.87,5.34,2.32,1.71,2.26.62,3.3-.97,3.63Z"/>
        </g>
      </g>
      <g>
        <g>
          <path class="cls-2" d="M58.43,22.67c-.65-.12-1.43.37-1.21,1.21,2.29,8.69,7.44,15.97,14.82,21.08.65.45,1.49-.15,1.5-.86.11-6.14-4.31-28.88-15.12-21.42Z"/>
          <path class="cls-2" d="M59.45,24.4c7.95-5.44,11.41,10.74,12,17.65-5.8-4.51-9.91-10.58-12-17.65Z"/>
        </g>
        <g>
          <g>
            <path class="cls-2" d="M33.88,68.84c1.77,2.36,5.47,2.95,7.87,1.21,5.97-4.34-1.01-13.52-6.77-9.1-2.34,1.8-2.87,5.52-1.1,7.89Z"/>
            <path class="cls-3" d="M36.2,62.54c3.87-2.96,8.17,3.25,4.33,5.93-1.53,1.07-3.97.67-5.07-.84-1.1-1.52-.76-3.94.73-5.08Z"/>
          </g>
          <g>
            <path class="cls-2" d="M68.41,52.4c1.77,2.36,5.47,2.95,7.87,1.21,5.97-4.34-1.01-13.52-6.77-9.1-2.34,1.8-2.87,5.52-1.1,7.89Z"/>
            <path class="cls-3" d="M70.73,46.09c3.87-2.96,8.17,3.25,4.33,5.93-1.53,1.07-3.97.67-5.07-.84-1.1-1.52-.76-3.94.73-5.08Z"/>
          </g>
          <g>
            <path class="cls-2" d="M52.03,70.42c2.31,6.64,8.11,16.3,16.59,12.43,2.63-1.2,4.68-3.81,4.57-6.79-.14-3.88-3.53-6.62-4.95-10.06,5.52-7.08,6.55-16.46,3.9-24.96-2.49-7.98-7.99-14.38-14.21-19.75-5.54-4.78-12.56-9.85-20.14-6.46-6.29,2.81-10.94,9.4-12.62,15.95-4.46,17.42,7.79,38.78,26.85,39.64Z"/>
            <path class="cls-3" d="M26.32,35.85c.73-8.16,6.92-19.93,16.21-20.43,5.25-.28,9.75,3.95,13.47,7.13,4.38,3.75,8.32,8.19,11.2,13.08,2.72,4.61,4.63,9.84,4.57,15.25-.03,2.69-.56,5.35-1.56,7.85-.9,2.23-2.93,4.05-3.76,6.13-2.1,5.22,9.91,11.49,1.72,15.95-3.65,1.98-7.14.47-9.67-2.49-1.24-1.45-2.21-3.13-3.04-4.84-.51-1.05-1.18-4.28-2.14-4.82-.23-.13-.49-.16-.75-.18-4.08-.4-7.87-1.65-11.22-3.56-9.93-5.64-16.1-17.02-15.02-29.06Z"/>
            <path class="cls-1" d="M63.18,29.89c-2.16-2.66-4.59-5.12-7.18-7.34-3.72-3.18-8.22-7.41-13.47-7.13-9.28.49-15.47,12.27-16.21,20.43-.89,9.95,3.17,19.43,10.2,25.61.07-.17.09-.37.04-.59-1.52-6.41-3.03-12.81-4.55-19.22,2.74,1.36,5.96,2.24,8.45,0,1.21-1.09,1.66-2.52,1.42-3.88,4.79,1.52,10.6,1.74,14.71-1.26,2.38-1.73,3.33-4.55,1.9-6.77,1.4-.12,3.13.2,4.67.16Z"/>
            <path class="cls-1" d="M63.83,66.51c.82-.18,1.62-.44,2.39-.73-.27,2.59,2.3,5.38,3.8,8.06-2.02,1.25-4.63.58-6.65-.58-1.74-.99-5.02-3.11-2.99-5.47.84-.98,2.28-1.03,3.45-1.28Z"/>
          </g>
        </g>
        <g>
          <path class="cls-2" d="M43.82,49.9c1.71-1.86,3.69,2.28,3.76,3.55.04.86-.87,1.45-1.6.92-.98-.71-3.36-3.02-2.23-4.38.03-.03.05-.06.08-.09Z"/>
          <path class="cls-2" d="M57.14,42.96c1.99-1.55,3.27,2.85,3.12,4.13-.1.85-1.1,1.28-1.73.64-.85-.86-2.81-3.53-1.48-4.69.03-.03.06-.05.09-.08Z"/>
          <path class="cls-2" d="M49.89,57.4c1.85,1.19,4.19.98,5.88-.39,1-.81,2.22.78,1.22,1.59-2.42,1.96-5.72,2.05-8.32.38-1.08-.7.15-2.27,1.22-1.58Z"/>
          <path class="cls-2" d="M53.63,45.16c-.86-.96-2.28.46-1.41,1.41.39.44,3.81,4.91,2.44,5.35-1.22.39-.7,2.32.53,1.93,4.09-1.31.01-6.95-1.56-8.69Z"/>
        </g>
        <g>
          <path class="cls-2" d="M25.45,31.06c-.47-.8-1.53-.53-1.83.24-3.98,10.09-1.11,21.69,7.43,28.47.51.4,6.02,4.39,5.47,1.33-1.91-10.66-5.62-20.69-11.08-30.03Z"/>
          <path class="cls-2" d="M24.8,34.01c4.43,8.01,7.55,16.53,9.37,25.51-8.67-5.63-12.26-15.68-9.37-25.51Z"/>
        </g>
        <g>
          <path class="cls-2" d="M65.74,14.73c-2.27-1.67-4.78-2.8-7.44-3.51,1.94-.64,3.86-1.43,4.2-3.49.28-1.68-.76-2.84-2.21-3.45-2.91-1.22-7.17-.17-10.17.39-3.89.72-7.55,2.03-11.05,3.78.2-.91.06-1.82-.78-2.61-2.29-2.17-5.88,1.03-7.63,2.53-7.6,6.51-9.64,16.96-5.96,26.09.2.5.67.68,1.1.65,3.02,3.24,7.81,5.85,12.29,5.2,1.33-.19,2.47-.96,2.42-2.39-.04-1.09-.92-2.11-1.94-3.01,2.51.55,5.05.88,7.65.91,2.68.03,7.34.21,9.6-1.61,2.93-2.36.8-4.45-1.68-5.99,3.49.19,6.98-.09,10.41-.98,2.51-.66,5.64-1.7,6.24-4.58.7-3.33-2.7-6.18-5.05-7.91Z"/>
          <path class="cls-2" d="M65.35,24.91c-1.3.43-2.7.73-4.05.96-2.32.39-4.67.5-7.02.37-1.07-.06-2.14-.43-3.22-.33-.95.09-2.92,1.26-1.38,2.13.77.43,4.15,1.71,4.44,2.47,1.33,3.48-4.91,3.22-6.44,3.26-4.09.13-8.06-.52-11.97-1.71-.74-.23-1.22.38-1.22.98-.23.35-.26.81.14,1.17.77.7,2.5,1.75,2.96,2.7,1.07,2.2-2.55,1.21-3.63.92-3-.82-5.48-2.58-7.43-4.97-.11-.14-.24-.22-.37-.27-1.69-4.91-1.81-10.11.23-15.01.99-2.38,2.35-4.45,4.12-6.34.81-.87,1.69-1.59,2.64-2.29.53-.44,1.09-.83,1.69-1.16,1.15-.94,1.51-.18,1.09,2.28-.76.94.45,2.26,1.27,1.56.08-.02.15-.03.23-.08,4.14-2.38,8.51-4.12,13.22-4.98.64-.12,6.67-1.46,7.35-.64,2.03,2.43-1.75,3.72-3.48,4.53-.7-.09-1,.48-.93,1.04-.03.66.59,1.31,1.3,1.01,4.64.67,13.64,3.81,13.37,9.25-.11,2.17-1,2.5-2.91,3.13Z"/>
        </g>
      </g>
    </g>
  </g>
</svg>