<?xml version="1.0" encoding="UTF-8"?>
<svg id="_레이어_2" data-name="레이어 2" xmlns="http://www.w3.org/2000/svg" viewBox="0 0 165.97 310.57">
  <defs>
    <style>
      .cls-1 {
        fill: #d3dde1;
      }

      .cls-1, .cls-2, .cls-3, .cls-4 {
        stroke-width: 0px;
      }

      .cls-2 {
        fill: #221e1f;
      }

      .cls-3 {
        fill: #fff;
      }

      .cls-4 {
        fill: #ee305b;
      }
    </style>
  </defs>
  <g id="OBJECTS">
    <g>
      <g>
        <g>
          <g>
            <path class="cls-2" d="M58.2,75.28c-.1-.34-.24-.64-.41-.88-1.76-2.47-9.9.73-12.51,1.18-4.6.78-9.2,1.56-13.8,2.34-7.49,1.27-16.24,1.63-23.23,4.8-8.15,3.7-12.07,14.76-2.5,19.39,5.11,2.47,11.62,2.52,17.13,3.22,4.14.53,8.28,1.05,12.42,1.58,3,.38,6.24,1.15,9.25.57,5.45-1.06,8.02-7.08,9.91-11.7,1.38-3.37,2.4-6.9,3.02-10.48.37-2.1,1.52-7.36.72-10.02Z"/>
            <path class="cls-3" d="M8.89,101.16c-6.84-2.11-9.14-9.1-3.55-14.31,3.86-3.59,10.06-4.31,15.27-5.1,3.94,6.69,5.37,14.15,4.1,21.8-5.22-.66-10.78-.84-15.82-2.4Z"/>
            <path class="cls-4" d="M41.34,105.62c-4.85-.15-9.82-1.09-14.66-1.79,1.25-7.84-.08-15.5-3.96-22.41,11.08-1.88,22.16-3.76,33.24-5.64,0,.04-.02.07-.02.12.24,8.86-2.48,30.08-14.6,29.71Z"/>
          </g>
          <g>
            <path class="cls-2" d="M50.22,57.04c-.67-3.56-3.98-2.2-6.84-.34,1.41-2.77,2.18-5.88.1-7.63-1.44-1.21-3.36-.52-4.48.75-1.28,1.44-2.3,3.25-3.28,5.04-.32-1.25-1.01-2.3-2.38-2.43-1.04-.1-1.89.37-2.56,1.1-.54-.76-1.49-1.22-2.57-1.03-2.43.41-3.51,3.32-3.78,5.45-.12.97-.06,2.04.25,2.99-.13.07-.26.18-.36.33-1.26,1.87-1.71,4.07-1.36,6.26-.02,0-.04,0-.06.02-4.9,2.49-9.53,5.69-13.63,9.35C5.17,80.53.6,85.39.05,91.12c-.41,4.29,1.65,8.39,5.54,10.21,4.58,2.15,10.2,1.43,13.68-2.39,6.54-7.19,2.3-18.74,9.29-25.65,3.28.99,7.02,1.77,9.9-.62,1.42-1.18,1.98-2.79,1.85-4.4,2.36-1.6,4.58-3.39,6.57-5.44,1.4-1.44,3.77-3.51,3.34-5.79Z"/>
            <path class="cls-3" d="M31.04,57.74c.09-.78,1-4.08,2.51-3.01.71.5.43,2.8.35,3.56-.02.15,0,.28.04.39-.23.91-.63,1.93-1.51,2.01-.63.06-1.14-.68-1.29-1.17-.18-.58-.18-1.19-.11-1.79Z"/>
            <path class="cls-3" d="M26.49,57.62c.12-.57.29-1.15.55-1.67l.25-.46c.36-.84.99-.96,1.89-.37-.11.37,0,.66.2.88-.18.56-.3,1.12-.35,1.61-.06.65-.03,1.38.12,2.09-.36.11-.65.41-.62.91-.97.81-1.58.79-1.82-.05-.25-.37-.37-.79-.36-1.24-.04-.56.03-1.14.14-1.69Z"/>
            <path class="cls-3" d="M39.76,66.21c-.2-.42-.42-.83-.71-1.22-1.67-2.23-5.25-3.41-7.26-.87-1.72,2.18-.24,5.22,2.51,5.19,1.29-.01,1.29-2.01,0-2-.86-1.96-.64-2.81.66-2.55.48-.09.9.03,1.26.36.72.36,1.21.91,1.6,1.61.84,1.51.74,3.15-.55,4.34-2.34,2.18-5.98.98-8.62.16-.38-.12-.68,0-.89.2-.14.04-.28.11-.41.23-4.29,4.05-4.95,9.49-5.75,15.07-.56,3.92-1.2,8.43-4.23,11.33-4.38,4.19-11.7,3.05-14.47-2.22-2.5-4.76.54-9.89,3.67-13.5,4.69-5.4,10.96-9.84,17.32-13.08.18-.09.29-.21.37-.34.49-.13.91-.57.75-1.21-.44-1.78-.14-3.52.78-5.06.3.26.63.48,1.04.63,1.4.51,2.87-.14,3.44-1.35.37.34.82.6,1.37.71,2.66.54,3.91-2.17,4.4-4.28.72-1.2,1.44-2.39,2.16-3.59.36-.6.72-1.2,1.08-1.8.29-.47,2.26-4.23,3.33-1.1.34.99-.84,3.35-1.26,4.22-.67,1.41-1.53,2.68-2.54,3.86-.75.87.31,2.09,1.14,1.63.11-.03.22-.07.33-.15,1.44-1.03,2.89-2.07,4.33-3.1.51-.36,2.2-1.75,2.79-1.52,1.8.7-.09,2.52-.56,3.08-2.06,2.42-4.49,4.5-7.09,6.31Z"/>
          </g>
        </g>
        <g>
          <g>
            <path class="cls-2" d="M90.21,80.63c-5.44-4.22-12.27-5.56-18.93-6.41-4.27-.55-9.14-2.62-13.57-1.47-5.53,1.43-7.11,7.72-9.42,12.22-7.36,14.28-11.97,29.96-13.43,45.96-1.6,17.59-1.39,40.3,15.77,50.43,8.24,4.87,18.14,5.8,27.46,4.27,7.24-1.18,15.3-3.82,16.59-12.07.74-4.78-.49-9.81-.93-14.57-.58-6.28-.84-12.59-.76-18.89.15-11.99,2-23.57,3.86-35.38,1.41-8.92,1.07-18.14-6.62-24.1Z"/>
            <path class="cls-4" d="M95.03,103.4c-2.69,18.37-5.02,36.01-3.39,54.66.34,3.93,1.08,7.87,1.19,11.82.19,6.66-3.43,10.68-9.62,12.56-9.53,2.9-20.5,2.69-29.53-1.7-18.33-8.92-18.44-32.21-16.84-49.82.94-10.29,3.32-20.42,6.89-30.12,1.83-4.96,3.96-9.81,6.33-14.54,1.27-2.53,2.01-5.3,3.36-7.8.72-1.34,1.73-2.59,3.1-3.26,2.06-1,4.28-.35,6.41.01,2.23.38,4.53.5,6.78.76,4.5.53,9.03,1.22,13.27,2.88,10.87,4.27,13.62,13.72,12.04,24.52Z"/>
            <path class="cls-3" d="M83.09,78.93c-2.87,5.23-6.85,10.21-13.1,10.26-9,.08-9.17-7.56-7.18-13.98-.69-.12-1.39-.26-2.09-.37-1.97,6.04-1.98,12.85,5.01,15.59,8.69,3.41,15.02-3.66,19.1-10.73-.56-.27-1.13-.53-1.74-.77Z"/>
          </g>
          <g>
            <g>
              <path class="cls-2" d="M135.96,163.96c-.69-1.92-2.59-2.47-4.44-2.19-2.84.43-5.63,2.35-8.1,3.71-2.8,1.54-6.33,3.11-8.38,5.65-3.74,4.62,1.02,8.28,5.1,9.95.09.39.39.71.92.67,6.01-.48,9.49-7.18,12.77-11.5,1.33-1.76,2.98-3.95,2.14-6.3Z"/>
              <path class="cls-2" d="M132.51,168.71c-.77,1.11-1.65,2.16-2.48,3.23-2.15,2.8-4.46,6.9-8.17,7.69-.05-.03-.09-.07-.15-.09-1.14-.35-2.25-.79-3.31-1.33-2.58-3.42-2.65-5.82-.2-7.18,1.05-1.02,2.59-1.71,3.84-2.45,2.01-1.18,5.55-3.92,7.93-4.2,6.51-.78,3.82,2.48,2.55,4.33Z"/>
            </g>
            <g>
              <path class="cls-2" d="M126.77,175.99c-.54-1.15-1.28-2.19-2.53-2.64-1.85-.67-3.89.19-5.1,1.64-2.04,2.43-1.97,6.24-2.29,9.2-.54,4.96-1.08,9.93-1.62,14.89-4.66-5.48-8.72-11.43-12.15-17.84-.46-.86-1.56-.49-1.8.23-.51,1.52-3.6,3.52-4.81,4.56-1.81,1.56-3.71,3.02-5.68,4.38-1.97,1.36-4.01,2.61-6.12,3.76-.99.54-5.42,1.95-5.22,3.26.08.52.47.93.83,1.31,1.65,1.76,2.87,4.21,4.34,6.17,1.61,2.14,3.29,4.21,5.05,6.22,3.46,3.95,7.23,7.63,11.27,10.98,6.04,5.01,15.77,13.7,24.31,9.97,7.31-3.19,7.65-12.95,7.64-19.73,0-6.47-.59-12.93-1.72-19.3-.89-5.04-1.74-10.15-3.57-14.95-.26-.68-.52-1.42-.84-2.11Z"/>
              <path class="cls-3" d="M123.26,230.68c-8.57,2.25-19.62-8.56-25.2-13.76-6.14-5.71-11.46-12.18-16.02-19.2,7.51-3.53,14.21-8.29,20.03-14.2,5.18,9.38,11.7,17.81,19.52,25.16.94.88,2.35-.53,1.41-1.41-2.11-1.99-4.12-4.06-6.04-6.2.03-.08.06-.15.07-.23.43-3.92.85-7.84,1.28-11.76.34-3.1.6-6.22,1.07-9.31.09-.6.19-1.22.55-1.71,1.19-1.64,4-1.4,5.22,0,1.21,1.39,1.38,3.56,1.8,5.28.59,2.41,1.23,4.8,1.73,7.23.98,4.76,1.65,9.59,1.97,14.44.48,7.25,2.2,23.16-7.4,25.67Z"/>
              <path class="cls-1" d="M82.04,197.72c4.56,7.02,9.88,13.49,16.02,19.2,4.12,3.84,11.21,10.72,18.09,13.16,2.59-3.33,4.31-7.64,5.39-11.33.97-3.32,1.44-6.72,1.46-10.12-.35.35-.94.48-1.41.04-7.82-7.36-14.34-15.78-19.52-25.16-5.82,5.92-12.52,10.67-20.03,14.2Z"/>
            </g>
          </g>
          <g>
            <g>
              <path class="cls-2" d="M123.17,283.77c-1.63-6.55-7.7-5.57-12.42-2.82-.01,0-.02.02-.03.03-.54-.06-1.13.24-1.14.94-.09,8.09.16,18.6,3.7,26.06,1.81,3.81,5.19,3.18,6.8-.39,2.86-6.35,4.81-16.94,3.1-23.83Z"/>
              <path class="cls-2" d="M121.45,291.01c-.22,3.69-.43,11.49-2.81,14.68-4.08,5.45-5.62-6.54-6.01-8.9-.77-4.66-1.06-9.34-1.04-14.05.06-.02.12-.02.18-.06,1.22-.78,2.52-1.41,3.9-1.88,4,.27,5.94,2.02,5.84,5.27.16,1.63.04,3.31-.06,4.95Z"/>
            </g>
            <g>
              <path class="cls-2" d="M116.88,281.84c-1.22-4.7-5.61-10.27-6.98-12.65-2.8-4.85-5.45-9.78-7.93-14.8-5.28-10.65-9.8-21.67-13.57-32.95-1.88-5.64-3.57-11.33-5.07-17.08-1.12-4.3-1.85-8.7-2.94-13.01-.59-2.32-.58-3.6-2.88-4.41-1.94-.69-4.01-1.12-6.05-1.41-4.03-.58-8.15-.48-12.14.33-2,.4-3.97.98-5.88,1.71-1.31.51-2.41,1.5-3.73,2-1.09.41-3.33.34-2.76,2,8.52,25.04,22.54,48.98,38.66,69.85,4.45,5.76,9.13,11.33,14.04,16.69,2.4,2.63,4.86,5.21,7.37,7.73,1.73,1.74,3.93,3.87,6.6,2.93,3.51-1.23,4.04-3.9,3.25-6.94Z"/>
              <path class="cls-3" d="M110.75,286.1c-.16-.04-.33-.09-.5-.16-1.81-.67-3.69-3.45-5.03-4.85-1.62-1.69-3.22-3.41-4.8-5.14-6.29-6.93-12.21-14.2-17.71-21.76-11.01-15.12-20.38-31.43-27.89-48.57-2-4.55-3.86-9.17-5.59-13.83,8.82-5.08,19-5.99,28.58-2.63,0,.02,0,.04,0,.07,3.39,17.06,8.38,33.76,15.04,49.84,3.08,7.43,6.48,14.72,10.22,21.84,1.92,3.65,3.92,7.26,6.01,10.81,1.19,2.03,2.45,4.03,3.66,6.05.49.76.95,1.53,1.38,2.33,1.31,2.43.16,6.89-3.36,6Z"/>
              <path class="cls-1" d="M84.82,243.55c2.08-1.76,4.82-4.11,7.11-6.74-6.2-15.38-10.9-31.31-14.14-47.58,0-.02,0-.04,0-.07-9.58-3.36-19.76-2.45-28.58,2.63,1.73,4.66,3.59,9.27,5.59,13.83,6.46,14.74,14.31,28.87,23.38,42.16,2.36-1.04,4.57-2.49,6.63-4.23Z"/>
            </g>
          </g>
          <g>
            <path class="cls-2" d="M123.55,196.53c-.66-3.43-3.93-5.86-6.22-8.19-4.02-4.08-7.67-8.51-10.92-13.22-6.25-9.08-10.86-19.11-13.88-29.7-.18-.62-.76-.8-1.24-.66-.21-.2-.51-.3-.87-.16-7.95,2.8-16.26,4.64-24.66,5.31-8.06.64-16.82.51-24.65-1.73-1.85-.53-3.76-.88-5.64-1.29-3.29-.72-1.83,3.45-1.77,5.26l.21,6.89c.14,4.59.27,9.18.41,13.77.27,9.18.55,18.36.82,27.55.13,4.32.26,8.63.39,12.95.15,4.97-1.62,14.95,4.89,16.83,3.6,1.05,7.04-1.34,10.58-1.38,4.52-.06,8,3.58,11.4,6.04,4.66,3.37,9.48,4.88,14.81,2.08,7.43-3.91,11.3-10.96,20.72-9.77,7.35.93,11.25-.53,14.95-7.15,2.4-4.28,4.65-8.64,6.97-12.96,1.66-3.09,4.44-6.73,3.73-10.45Z"/>
            <path class="cls-3" d="M119.87,202.68c-1.12,2.22-2.35,4.39-3.53,6.57-1.95,3.63-3.75,7.44-5.92,10.94-3.7,5.96-7.77,5.23-13.81,4.71-12.6-1.08-19.67,17.44-32.18,8.9-4.43-3.03-8.43-7.46-14.25-6.97-4.21.35-10.11,3.97-11.96-1.9-1.3-4.13-.63-9.31-.75-13.61-.55-18.32-1.09-36.64-1.64-54.96-.05-1.56-.09-3.11-.14-4.67-.02-.65-.36-1.7.18-2.21.93-.89,4.9.69,6.02.9,4.23.77,8.52,1.26,12.82,1.46,8.6.4,17.25-.36,25.64-2.26,1.94-.44,3.86-.94,5.76-1.5,1.58-.46,3.14-.97,4.69-1.51,4.12,14.08,11.06,27.15,20.63,38.29,2.42,2.81,5.59,5.25,7.8,8.19,2.47,3.29,2.35,6.26.64,9.63Z"/>
            <g>
              <path class="cls-4" d="M118.43,192.06c-.45-.53-.94-1.05-1.43-1.56l-5.77,10.88c-2.24,4.22-4.21,9.64-7.59,13.1-6.54,6.69-16.13-1.3-23.28,5.06-3.97,3.53-7.61,9.8-13.72,6.25-2.97-1.72-4.93-4.82-7.94-6.54-2.73-1.55-5.45-1.4-8.43-.74-3.37.75-6.18,1.7-9.63.4-1.21-.46-2.29-1.1-3.23-1.89-.01.84,0,1.69.02,2.53.71.46,1.47.88,2.29,1.21,4.55,1.83,8.03-.1,12.59-.57,8.86-.9,13.37,13.22,22.72,7.28,1.8-1.14,3.18-2.81,4.62-4.34,3.18-3.39,6.27-5.03,11.04-4.41,4.24.56,8.3,1.66,12.15-.88,3.85-2.54,5.85-7.42,7.92-11.33,2.56-4.82,5.11-9.64,7.67-14.45Z"/>
              <path class="cls-4" d="M114.43,187.97c-.48-.47-.96-.94-1.43-1.42l-4.82,6.66c-1.73,2.39-3.45,4.8-5.2,7.18-1.54,2.1-3.48,5.57-6.03,6.64-4.7,1.96-8.89-1.6-13.49-.41-3.23.83-5.29,3.57-7.3,6.03-2.2,2.69-4.47,5.18-8.14,4.22-3.09-.81-3.7-2.34-5.62-4.74-1.48-1.86-3.04-3.45-5.46-3.88-3.77-.67-7.1,1.94-10.83,2.02-3.32.07-6.41-1.17-8.78-3.26.03.85.05,1.7.08,2.54,3.27,2.27,7.38,3.26,11.56,2.33,3.54-.79,7.11-3.09,10.41-.2,1.54,1.35,2.48,3.28,3.83,4.8,2.25,2.53,4.91,3.89,8.3,2.65,4.17-1.53,6.01-5.78,9.13-8.59,5.05-4.55,10.46.85,16.02-1.17,4.7-1.7,7.63-7.38,10.37-11.17,2.47-3.41,4.94-6.83,7.42-10.24Z"/>
            </g>
          </g>
        </g>
        <g>
          <path class="cls-2" d="M127.57,99.74c-6.89-4.82-14.26-8.95-21.92-12.41-3.84-1.74-7.76-3.3-11.74-4.71-1.36-.48-4.18-2.06-5.36-1.2-1.62,1.18-1.33,4.48-1.5,6.23-.32,3.34-.55,6.6-.3,9.95.5,6.62,2.42,13.1,5.51,18.96.18.34.46.47.76.48.13.06.27.09.45.07,3.96-.31,8.14-.71,12.03.38,5.42,1.52,10.25,6.74,7.59,12.62-2.99,6.62-12.26,11.05-18.83,13.24-2.26-1.62-6.84-3.24-9.35-1.25-.91.72-1.19,2.06-.41,2.99.9,1.08,2.9,1.38,4.33,1.74-1.57,2.26-3.15,4.51-4.7,6.78-.87,1.28-2.12,3.09-.79,4.54.29.31.59.5.9.63-.03.1-.05.21-.04.34.19,1.98,1.8,2.77,3.48,2.57-.07.17-.11.36-.07.58.38,2.05,2.53,2.55,4.24,1.9.05.13.14.25.28.36,6.08,4.95,9.05-9.44,9.6-14.02,12.57-3.93,26.73-8.69,33.54-20.94,6.27-11.27,2.46-22.76-7.7-29.86Z"/>
          <path class="cls-4" d="M112.85,119.23c-4.6-4.27-13.27-4.54-19.08-4.11-5.08-9.87-6.43-20.85-3.93-31.63,9.18,3.04,18.09,6.93,26.56,11.7,4.09,2.3,8.65,4.74,12.4,7.86-6.07,4.66-11.38,10.05-15.95,16.18Z"/>
          <path class="cls-3" d="M133.89,127.93c-6.36,12.34-20.7,16.94-33.03,20.78-.09.03-.15.08-.22.12-.42.08-.8.38-.84.92-.17,2.36-.57,4.64-1.27,6.9-.27.85-2.66,8.34-4.98,6.49,1.39-1.16,2.4-2.81,3.03-4.47.46-1.2-1.47-1.72-1.93-.53-.42,1.11-1.05,2.12-1.88,2.97-.61.62-2.9,2.49-3.24.64-.04-.24-.16-.4-.31-.52,2.38-1.16,4.07-3.38,4.85-5.88.39-1.23-1.54-1.76-1.93-.53-.39,1.24-1.01,2.36-1.94,3.28-.51.5-3.82,2.98-4.01,1.03-.02-.16-.06-.3-.13-.42,2.28-.96,4.6-4.61,5.33-6.01.6-1.14-1.12-2.15-1.73-1.01-.66,1.25-1.43,2.42-2.4,3.45-.23.25-1.27,1.51-1.63,1.48-1.49-.16-.05-1.64.2-2,1.71-2.5,3.45-4.98,5.18-7.47.42-.61.03-1.2-.52-1.39-.06-.32-.26-.61-.67-.73-.96-.29-1.93-.55-2.88-.86-.45-.15-.99-.09-.58-.5.36-.37,1.13-.33,1.61-.34,1.95-.04,3.75.65,5.31,1.79.07.05.15.09.22.12.21.2.51.3.88.18,7.66-2.5,21.85-9.14,21.55-18.99-.07-2.32-.72-4.18-1.78-5.69,4.57-6.23,9.97-11.72,16.13-16.38.92.88,1.78,1.81,2.54,2.81,4.59,6,4.42,14.19,1.04,20.74Z"/>
        </g>
      </g>
      <g>
        <g>
          <g>
            <path class="cls-2" d="M99.43,59.18c-6.28-3.66-12.04,6.33-5.57,9.88,2.6,1.43,6.2.37,7.66-2.2,1.46-2.57.46-6.2-2.09-7.69Z"/>
            <path class="cls-3" d="M99.79,65.85c-.9,1.64-3.27,2.35-4.92,1.48-4.14-2.17-.67-8.87,3.55-6.43,1.63.94,2.27,3.3,1.37,4.95Z"/>
          </g>
          <g>
            <path class="cls-2" d="M63.09,47.24c-6.28-3.66-12.04,6.33-5.57,9.88,2.6,1.43,6.2.37,7.66-2.19,1.46-2.57.46-6.2-2.09-7.69Z"/>
            <path class="cls-3" d="M63.46,53.92c-.9,1.64-3.27,2.35-4.92,1.48-4.14-2.17-.67-8.87,3.55-6.43,1.63.94,2.27,3.3,1.37,4.95Z"/>
          </g>
          <g>
            <path class="cls-2" d="M105.32,28c-2.49-6.29-7.95-12.23-14.54-14.23-7.95-2.4-14.27,3.51-19.16,8.96-5.49,6.12-10.14,13.17-11.59,21.4-1.55,8.77.67,17.94,7.04,24.27-.97,3.59-3.98,6.74-3.63,10.61.27,2.97,2.63,5.3,5.39,6.16,8.91,2.76,13.43-7.56,14.89-14.44,18.79-3.27,28.24-26.01,21.61-42.72Z"/>
            <path class="cls-3" d="M93.62,63.91c-3.09,2.32-6.69,4.04-10.68,4.95-.25.06-.51.12-.72.27-.88.66-1.14,3.95-1.51,5.05-.61,1.8-1.36,3.59-2.4,5.19-2.13,3.25-5.4,5.2-9.27,3.69-8.69-3.38,2.43-11.12-.32-16.03-1.09-1.95-3.34-3.5-4.51-5.6-1.31-2.35-2.17-4.93-2.54-7.59-.74-5.36.49-10.79,2.6-15.71,2.24-5.22,5.59-10.12,9.46-14.39,3.28-3.63,7.21-8.39,12.46-8.78,9.27-.69,16.9,10.21,18.66,18.21,2.6,11.81-2.08,23.88-11.22,30.73Z"/>
            <g>
              <path class="cls-1" d="M71.51,68.35c-.84-.08-1.66-.23-2.47-.42.6,2.53-1.6,5.63-2.75,8.48,2.16.98,4.67-.01,6.52-1.41,1.6-1.2,4.59-3.72,2.27-5.8-.96-.86-2.4-.73-3.58-.84Z"/>
              <path class="cls-1" d="M98.57,59.17c5.77-6.97,8.35-16.56,6.27-25.99-1.76-8-9.39-18.9-18.66-18.21-5.24.39-9.17,5.15-12.46,8.78-3.87,4.27-7.22,9.18-9.46,14.39-.49,1.15-.93,2.32-1.31,3.52,11.34-1.84,23.14-.06,34.09-4.08-.68,7.29-.17,14.45,1.53,21.59Z"/>
            </g>
          </g>
        </g>
        <g>
          <path class="cls-2" d="M89.26,49.33c-1.93-1.63-3.38,2.72-3.28,4,.07.86,1.05,1.33,1.71.71.89-.83,2.95-3.42,1.66-4.63-.03-.03-.06-.06-.09-.08Z"/>
          <path class="cls-2" d="M79.62,47.04c-1.97,2.15-2.74,4.94-2.17,7.8.25,1.26,2.18.73,1.93-.53-.42-2.13.19-4.26,1.66-5.85.87-.95-.54-2.36-1.41-1.41Z"/>
          <path class="cls-2" d="M84.19,57.54c-1.69,1.41-4.03,1.5-5.88.36-1.1-.68-2.11,1.05-1.01,1.73,2.65,1.63,5.94,1.31,8.3-.68.99-.83-.43-2.24-1.41-1.41Z"/>
          <path class="cls-2" d="M75.64,49.66c-.37-1.28-1.28-2.38-2.46-2.97-.4-.25-.84-.46-1.32-.62-.63-.21-1.06.19-1.18.69-.03.06-.08.12-.1.19-.13.47.16,1.15.7,1.23.38.05.72.17,1.04.34.6.42,1.11.99,1.38,1.68.47,1.16,2.3.74,1.93-.53Z"/>
        </g>
        <g>
          <g>
            <path class="cls-2" d="M164.58,65.36c-3.03,1-11.98,2.46-7.86-5.23.59-1.1,1.95-1.97,2.81-2.85,1.59-1.62,2.87-3.27,3.76-5.37,1.6-3.77,1.76-8.13.28-11.96-1.56-4.04-4.91-7.29-8.93-8.89-4.68-1.86-16.09,1.51-17.21-5.17-.93-5.54,4.73-10.06,3.15-16.02-.93-3.54-3.54-6.55-6.78-8.22-4.39-2.25-9.37-2.08-13.88-.27-2.2.89-4.26,2.11-6.17,3.51-4.48,3.28-7.44,6.88-8.55,12.5-1.18,5.97-.15,12.53,3.25,17.62,2.73,4.1,6.88,7.25,11.48,8.97,4.87,1.81,9.47,1.07,14.51,1.29,16.31.7,3.52,21.05,11.5,29.18,7.23,7.37,16.24-1.46,19.88-7.75.47-.8-.5-1.61-1.26-1.36Z"/>
            <path class="cls-2" d="M147.98,73.3c-4.32-3.52-2.94-9.94-2.58-14.81.43-5.71-.32-12.4-6.54-14.57-3.03-1.06-6.34-.59-9.48-.53-5.34.1-10.32-1.24-14.61-4.54-8.69-6.69-10.25-18.74-4.88-27.89,4.89-5.18,11.33-9.82,18.85-8.77,4.02.56,7.8,3,9.44,6.81,1.7,3.94,0,7.25-1.41,10.89-1.26,3.27-2.35,7.42.34,10.32,2.44,2.63,6.25,2.09,9.46,1.85,7.52-.56,14.97,3.77,15.94,11.8.42,3.51-.52,7.26-2.65,10.1-1.49,1.99-3.69,3.36-5.05,5.46-1.37,2.13-1.82,4.71-.18,6.82,1.99,2.55,5.16,2.44,8.04,1.75-3.4,4.87-9.06,9.9-14.7,5.31Z"/>
          </g>
          <g>
            <path class="cls-2" d="M109.9,23.12c-2.54-3.15-6.61-4.19-10.24-2.36-.3.15-.45.38-.49.62-.38.27-.62.77-.38,1.31,1.5,3.33,3.01,6.66,4.51,9.99,1,2.22,1.92,5.75,3.63,7.56,2.51,2.66,4.81-.62,5.24-3.05.81-4.63.85-10.21-2.26-14.07Z"/>
            <path class="cls-4" d="M110.58,32.97c-.03,1.09-.63,7.19-2.56,5.3-1.58-1.55-2.62-5.76-3.56-7.84-1.21-2.67-2.41-5.34-3.62-8.01,4.44-2.08,8.24,1.67,9.32,5.76.41,1.56.47,3.19.42,4.8Z"/>
          </g>
          <g>
            <path class="cls-2" d="M106.92,29.52c-.14-.22-.33-.35-.53-.41-.13-11.17-10.93-18.4-21.78-16.93-13.22,1.79-22.79,13.7-24.71,26.37-.06.42.12.74.38.96.1.52.54.95,1.18.72,12.76-4.7,27.22-.94,39.64-6.28-4.74,4.46-10.88,6.98-17.57,7.16-1.28.03-1.29,2.03,0,2,6.49-.18,12.43-2.4,17.27-6.31-2.4,7.45-3.13,15.21-2.12,23.15.09.7.8,1.31,1.5.86,10.83-6.87,13.8-20.55,6.73-31.28Z"/>
            <path class="cls-2" d="M62.05,37.91c1.89-10.01,8.44-19.18,18.31-22.65,10.82-3.81,24.36,2.05,24.02,14.56-.38-.12-.8-.02-1.02.46-.06.12-.11.25-.17.38-12.5,7.23-27.76,2.87-41.14,7.25Z"/>
            <path class="cls-2" d="M100.5,58.15c-.8-8.39.36-16.59,3.51-24.38.62-.67,1.21-1.37,1.78-2.11.02-.01.04-.03.06-.04,5.31,9.15,3.12,20.25-5.35,26.53Z"/>
          </g>
        </g>
      </g>
    </g>
  </g>
</svg>