<svg height="17.376" viewBox="0 0 813 17.376" width="813" xmlns="http://www.w3.org/2000/svg"><path d="m361.482 110.241 1.794 1.4v13.728l-1.794 1.4v.052h6.918v-.052l-1.794-1.4v-6.266h4.187v6.266l-1.794 1.4v.052h6.942v-.052l-1.82-1.4v-13.724l1.82-1.4v-.052h-6.941v.052l1.794 1.4v5.8h-4.194v-5.8l1.794-1.4v-.052h-6.916v.052zm15.429-.052v.052l2.028 1.378 3.8 7.93v5.824l-1.794 1.4v.052h6.916v-.052l-1.794-1.4v-5.694l3.822-8.06 1.794-1.378v-.052h-4.94v.052l1.118 1.066-2.7 5.772-2.7-5.746 1.118-1.092v-.052h-6.656zm15.74.052 1.794 1.4v13.728l-1.794 1.4v.052h6.916v-.052l-1.794-1.4v-6.266l4.68 7.722h4.655v-.052l-1.769-1.378-4.056-6.474c2.626-.468 4.291-1.768 4.291-4.264 0-3.224-2.731-4.472-6.657-4.472h-6.266v.052zm5.122 1.612h.676c2.21 0 3.718.494 3.718 2.808 0 2.288-1.508 2.782-3.718 2.782h-.676zm8.585-1.664v.052l1.794 1.4v9c0 5.694 3.016 6.552 5.876 6.552 2.367 0 4.863-1.04 4.863-6.656v-8.892l1.794-1.4v-.052h-5.876v.052l2.08 1.4v9.386c0 3.536-1.17 4.472-2.679 4.472-1.4 0-2.73-.884-2.73-4.472v-9.386l1.794-1.4v-.052h-6.916zm15.361 16.588v.052h10.322v-8.736h-.078l-2.6 7.072h-2.522v-13.52l1.794-1.4v-.052h-6.916v.052l1.794 1.4v13.728zm11.648-16.588v.052l1.794 1.4v13.728l-1.794 1.4v.052h10.842v-7.436h-.052l-2.34 5.772h-3.328v-6.058h1.534l1.612 2.08h.052v-5.694h-.052l-1.612 1.95h-1.534v-5.59h3.276l2.392 4.6h.052v-6.266h-10.842zm22.516 1.456v13.728l-1.794 1.4v.052h4.6c4.6 0 8.5-2.262 8.5-8.32s-4-8.32-8.5-8.32h-4.6v.052zm3.328.286c2.6 0 4.524 2.21 4.524 6.578s-1.924 6.578-4.524 6.578zm8.411-1.69 1.794 1.4v13.728l-1.794 1.4v.052h6.916v-.052l-1.794-1.4v-13.724l1.794-1.4v-.052h-6.916v.052zm14.508 6.344c-2.288-1.2-3.3-1.794-3.3-3.224a2.157 2.157 0 0 1 2.392-1.846c1.56 0 3.562 1.014 4.628 3.952h.078v-5.667l-1.3.806a7.114 7.114 0 0 0 -3.458-.806c-2.99 0-4.992 1.664-4.992 4.576 0 3.042 2.21 4.394 4.654 5.538 2.132 1.014 2.86 1.846 2.86 3.224a2.245 2.245 0 0 1 -2.522 2.366c-1.586 0-3.8-1.456-5.226-5.1h-.078v6.786l1.508-.91a8.316 8.316 0 0 0 3.926.91c3.224 0 5.382-1.82 5.382-4.784-.002-2.727-1.77-4.391-4.552-5.821zm5.756 1.924c0 6.058 3.042 8.684 6.787 8.684a6.9 6.9 0 0 0 3.146-.806l1.352.806v-7.28h-.078c-.91 3.094-2.132 5.59-4.42 5.59-2.236 0-3.329-2.626-3.329-6.994s1.145-6.994 3.329-6.994c1.638 0 3.12 1.9 4.42 4.55h.078v-6.265l-1.3.806a5.8 5.8 0 0 0 -3.2-.806c-3.743 0-6.785 2.651-6.785 8.709zm19.49-8.71c-3.2 0-6.448 2.652-6.448 8.71s3.016 8.684 6.448 8.684c3.458 0 6.474-2.626 6.474-8.684s-3.25-8.709-6.474-8.709zm0 15.7c-2.132 0-3.042-2.626-3.042-6.994s.7-6.994 3.042-6.994c2.366 0 3.068 2.626 3.068 6.994s-.936 6.995-3.068 6.995zm-1.612-6.994 1.612 2.548 1.638-2.548-1.638-2.548zm7.475-8.268 1.924 1.4 5.512 15.392h.052l5.512-15.392 1.664-1.4v-.052h-4.758v.052l1.118 1.066-2.86 8.086-2.834-8.086 1.118-1.066v-.052h-6.448zm15.571-.052v.052l1.794 1.4v13.728l-1.794 1.4v.052h10.843v-7.436h-.053l-2.34 5.772h-3.328v-6.058h1.534l1.612 2.08h.052v-5.694h-.052l-1.612 1.95h-1.534v-5.59h3.276l2.392 4.6h.052v-6.266h-10.842zm12.436.052 1.794 1.4v13.728l-1.794 1.4v.052h6.916v-.052l-1.794-1.4v-6.266l4.68 7.722h4.652v-.052l-1.768-1.378-4.057-6.474c2.627-.468 4.291-1.768 4.291-4.264 0-3.224-2.73-4.472-6.657-4.472h-6.266v.052zm5.122 1.612h.676c2.21 0 3.718.494 3.718 2.808 0 2.288-1.508 2.782-3.718 2.782h-.676zm8.266-1.664v.052l2.028 1.378 3.8 7.93v5.824l-1.794 1.4v.052h6.916v-.052l-1.794-1.4v-5.694l3.822-8.06 1.794-1.378v-.052h-4.94v.052l1.118 1.066-2.7 5.772-2.7-5.746 1.118-1.092v-.052h-6.656zm26.442 0v.052l1.794 1.4v10.166c0 2.028-.832 3.3-1.768 3.562l-2.522-5.954h-.08v6.812a4.2 4.2 0 0 0 2.652.962c2.548 0 5.044-1.222 5.044-7.02v-8.528l1.794-1.4v-.052h-6.916zm13.694-.39c-3.2 0-6.448 2.652-6.448 8.71s3.016 8.684 6.448 8.684c3.458 0 6.474-2.626 6.474-8.684s-3.25-8.705-6.474-8.705zm0 15.7c-2.132 0-3.042-2.626-3.042-6.994s.7-6.994 3.042-6.994c2.366 0 3.068 2.626 3.068 6.994s-.938 6.999-3.068 6.999zm-1.612-6.994 1.612 2.548 1.638-2.548-1.638-2.548zm8.364-8.32v.052l1.794 1.4v9c0 5.694 3.016 6.552 5.876 6.552 2.366 0 4.862-1.04 4.862-6.656v-8.892l1.794-1.4v-.052h-5.876v.052l2.08 1.4v9.386c0 3.536-1.17 4.472-2.678 4.472-1.4 0-2.73-.884-2.73-4.472v-9.386l1.794-1.4v-.052h-6.916zm15.361.052 1.794 1.4v13.728l-1.794 1.4v.052h6.917v-.052l-1.794-1.4v-6.266l4.68 7.722h4.654v-.052l-1.768-1.378-4.056-6.474c2.626-.468 4.29-1.768 4.29-4.264 0-3.224-2.73-4.472-6.656-4.472h-6.266v.052zm5.122 1.612h.676c2.21 0 3.718.494 3.718 2.808 0 2.288-1.508 2.782-3.718 2.782h-.676zm10.241-1.664v.052l1.794 1.4v13.728l-1.794 1.4v.052h5.928v-.052l-1.794-1.4v-9.386l7.749 11.05h.078v-15.38l1.794-1.4v-.052h-5.929v.052l1.794 1.4v6.4l-5.486-7.852h-4.134zm14.776 0v.052l1.794 1.4v13.728l-1.794 1.4v.052h10.842v-7.436h-.052l-2.34 5.772h-3.328v-6.058h1.534l1.612 2.08h.052v-5.694h-.052l-1.612 1.95h-1.534v-5.59h3.276l2.392 4.6h.052v-6.266h-10.842zm12.308 0v.052l2.028 1.378 3.8 7.93v5.824l-1.794 1.4v.052h6.917v-.052l-1.794-1.4v-5.694l3.822-8.06 1.794-1.378v-.052h-4.94v.052l1.118 1.066-2.7 5.772-2.7-5.746 1.118-1.092v-.052z" fill-rule="evenodd" transform="translate(-345 -109.812)"/><g stroke="#000"><path d="m0 7.188h8v2h-8z"/><path d="m337 7.188h476v2h-476z"/></g></svg>