<svg viewBox="0 0 267.4 51.6" xmlns="http://www.w3.org/2000/svg"><path d="m0 0h21.7v.2l-5.4 4.2v40.9h7.6l7.9-21.4h.2v26.4h-32v-.2l5.4-4.2v-41.5l-5.4-4.2zm8.8 25.2 2 2.8 2-2.8-2-2.8zm2-4.6 1.7-2.7-1.6-14-1.7 14 1.7 2.7zm-1.7 11.8 1.7 14 1.6-14-1.7-2.7-1.7 2.7z"/><path d="m68 31.6c0 13.9-7.4 20.1-16.5 20.1s-16.5-6.2-16.5-20.1 7.8-20.1 16.5-20.1 16.5 6.2 16.5 20.1zm-9 0c0-10.1-2.2-16.1-7.4-16.1s-7.4 6.1-7.4 16.1 1.8 16.1 7.4 16.1 7.4-6.1 7.4-16.1zm-7.4-5.8 3.8 5.8-3.8 5.8-3.8-5.8z"/><path d="m69.2 47.4 9-31.7-3.8-3.2v-.2h12.4l9 35 4.3 3.2v.2h-16.3v-.2l3-2.6-2.2-9.4h-7.6l-2.6 9.4 3.3 2.6v.2h-12.7v-.2l4.2-3.2zm8.9-12.6h5.7l-2.8-11.8z"/><path d="m97 12.5v-.2h12.2c10.3 0 19.8 5.4 19.8 19.2s-9.5 19.2-19.8 19.2h-12.2v-.2l4.2-3.2v-31.6zm13.4 34.2c4.1 0 9.8-4.5 9.8-15.2s-5.7-15.2-9.8-15.2z"/><path d="m128.3 12.4h17.6v.2l-4.2 3.2v31.7l4.2 3.2v.2h-17.6v-.2l4.2-3.2v-31.8l-4.2-3.2v-.2z"/><path d="m157.8 12.4 11.8 16.9v-13.6l-4.1-3.2v-.2h14.5v.2l-4.2 3.2v35.5h-.2l-18.7-25.5v21.7l4.2 3.2v.2h-14.5v-.2l4.2-3.2v-31.7l-4.2-3.2v-.2h11.1z"/><path d="m196 11.4c2.7 0 6.2.9 8.1 2.2l3.5-2.2v14.4h-.2c-3.4-5.6-7-10.5-11.4-10.5s-7.7 6.1-7.7 16.1 2.2 16.1 7.7 16.1 2.8-.6 3.4-1.4v-13.7l-4.1-3.2v-.2h16.3v.2l-4.1 3.2v19l-3.5-2.2c-1.9 1.4-5.5 2.2-8.1 2.2-10.2 0-16.9-6.2-16.9-20.1s6.6-20.1 16.9-20.1z"/><path d="m229 45.5-5.6 5.9-5.6-5.9 5.6-6z"/><path d="m248.2 45.5-5.6 5.9-5.6-5.9 5.6-6z"/><path d="m267.4 45.5-5.6 5.9-5.6-5.9 5.6-6z"/></svg>