<?xml version="1.0" encoding="utf-8"?>
<!-- Generator: Adobe Illustrator 28.0.0, SVG Export Plug-In . SVG Version: 6.00 Build 0)  -->
<svg version="1.1" id="Layer_1" xmlns="http://www.w3.org/2000/svg" xmlns:xlink="http://www.w3.org/1999/xlink" x="0px" y="0px"
	 viewBox="0 0 745.51 210" style="enable-background:new 0 0 745.51 210;" xml:space="preserve">
<style type="text/css">
	.st0{fill:#FFFFFF;}
</style>
<g>
	<g>
		<g>
			<path d="M142.35,87.92c-3.84,5.16-10.15,8.59-17.83,8.59c-12.19,0-22.1-10.09-22.1-22.58s9.79-22.7,22.76-22.7
				c6.9,0,12.31,2.76,15.55,6.31v6.84c-3.66-4.86-9.31-7.99-15.55-7.99c-9.73,0-17.23,7.62-17.23,17.53
				c0,9.73,7.39,17.47,16.81,17.47c5.4,0,9.31-1.92,12.13-5.04v-9.61h-12.37l1.38-4.74h16.45V87.92z"/>
			<path d="M161.86,95.78h-5.52V51.95h10.81c9.07,0,15.73,4.62,15.73,12.85c0,6.36-4.02,10.51-10.03,12.07l15.31,18.91h-6.54
				l-14.71-18.25h-5.04V95.78z M161.86,73.03h5.22c5.94,0,10.15-2.88,10.15-8.22c0-5.34-4.2-8.23-10.15-8.23h-5.22V73.03z"/>
			<path d="M238.83,73.87c0,12.49-9.91,22.64-22.22,22.64c-12.31,0-22.22-10.15-22.22-22.64c0-12.49,9.91-22.64,22.22-22.64
				C228.93,51.23,238.83,61.38,238.83,73.87z M199.93,73.87c0,9.85,7.45,17.47,16.69,17.47c9.25,0,16.69-7.62,16.69-17.47
				s-7.44-17.47-16.69-17.47C207.37,56.39,199.93,64.02,199.93,73.87z"/>
			<path d="M265.79,91.58c6.54,0,11.17-4.62,11.17-12.97V51.95h5.52v26.78c0,11.17-7.39,17.77-16.69,17.77s-16.69-6.6-16.69-17.77
				V51.95h5.52v26.66C254.63,86.96,259.25,91.58,265.79,91.58z"/>
			<path d="M327.52,51.95h5.46v45.33l-31.94-33.62v32.12h-5.46V50.45l31.94,33.62V51.95z"/>
			<path d="M360.42,51.95c12.43,0,22.4,9.43,22.4,21.91c0,12.49-9.97,21.92-22.4,21.92h-12.19V51.95H360.42z M353.75,56.64V91.1
				h6.36c9.91,0,17.17-7.62,17.17-17.23c0-9.61-7.26-17.23-17.17-17.23H353.75z"/>
			<path d="M405.21,91.7c5.28,0,9.13-2.7,9.13-7.26c0-3.36-1.98-5.04-5.58-6.9l-7.33-3.66c-4.5-2.28-8.47-4.92-8.47-10.81
				c0-7.03,5.7-11.83,13.33-11.83c4.8,0,8.95,2.04,11.65,4.44v5.94c-3.36-3.3-7.45-5.58-11.83-5.58c-4.5,0-7.86,2.46-7.86,6.66
				c0,3.24,2.52,4.86,5.58,6.48l7.02,3.48c5.7,2.82,8.77,5.58,8.77,11.35c0,7.62-6.42,12.49-14.53,12.49
				c-5.4,0-10.27-2.16-12.97-4.44v-6C395.78,89.42,400.41,91.7,405.21,91.7z"/>
			<path d="M432.29,51.95h25.94v4.68h-20.47v14.47h18.79v4.68h-18.79V91.1h20.65v4.68h-26.12V51.95z"/>
			<path d="M471.55,51.95h25.94v4.68h-20.47v14.47h18.79v4.68h-18.79V91.1h20.65v4.68h-26.12V51.95z"/>
			<path d="M522.23,91.7c5.28,0,9.13-2.7,9.13-7.26c0-3.36-1.98-5.04-5.58-6.9l-7.33-3.66c-4.5-2.28-8.47-4.92-8.47-10.81
				c0-7.03,5.7-11.83,13.33-11.83c4.8,0,8.95,2.04,11.65,4.44v5.94c-3.36-3.3-7.45-5.58-11.83-5.58c-4.5,0-7.86,2.46-7.86,6.66
				c0,3.24,2.52,4.86,5.58,6.48l7.02,3.48c5.7,2.82,8.77,5.58,8.77,11.35c0,7.62-6.42,12.49-14.53,12.49
				c-5.4,0-10.27-2.16-12.97-4.44v-6C512.8,89.42,517.42,91.7,522.23,91.7z"/>
			<path d="M583.83,95.78h-5.88l-5.4-11.95h-19.93l-5.4,11.95h-5.83l21.2-45.39L583.83,95.78z M554.65,79.39h15.85l-7.92-17.53
				L554.65,79.39z"/>
			<path d="M600.88,97.34l-17.35-45.39h6l11.59,31.64l12.31-32.9l12.31,32.9l11.53-31.64h5.82l-17.35,45.39l-12.43-32.9
				L600.88,97.34z"/>
		</g>
	</g>
	<g>
		<path d="M286.23,150.85v5.11c-2.65,1.94-5.96,3.03-9.66,3.03c-9.71,0-17.56-8-17.56-17.85s7.86-17.85,17.56-17.85
			c3.69,0,7.01,1.09,9.66,3.03v5.11c-2.32-2.56-5.77-3.98-9.56-3.98c-7.43,0-13.3,6.01-13.3,13.68c0,7.67,5.87,13.68,13.3,13.68
			C280.46,154.83,283.91,153.41,286.23,150.85z"/>
		<path d="M295.56,123.87h20.45v3.69h-16.14v11.41h14.82v3.69h-14.82v12.07h16.29v3.69h-20.59V123.87z"/>
		<path d="M350.77,123.87h4.31v35.74l-25.18-26.51v25.33h-4.31v-35.74l25.19,26.51V123.87z"/>
		<path d="M379.03,127.56v30.87h-4.4v-30.87h-11.65v-3.69h27.69v3.69H379.03z"/>
		<path d="M402.94,158.43h-4.36v-34.56h8.52c7.15,0,12.4,3.65,12.4,10.13c0,5.02-3.17,8.28-7.91,9.51l12.07,14.91h-5.16l-11.6-14.39
			h-3.98V158.43z M402.94,140.48h4.12c4.69,0,8-2.27,8-6.48c0-4.21-3.31-6.49-8-6.49h-4.12V140.48z"/>
		<path d="M462.08,158.43h-4.64l-4.26-9.42h-15.72l-4.26,9.42h-4.59l16.71-35.79L462.08,158.43z M439.07,145.5h12.5l-6.25-13.82
			L439.07,145.5z"/>
		<path d="M469.61,123.87h4.36v30.87h15.01v3.69h-19.36V123.87z"/>
	</g>
</g>
</svg>
