<svg width="21" height="22" viewBox="0 0 21 22" fill="none" xmlns="http://www.w3.org/2000/svg">
<path d="M9.17967 3.37347C8.74148 3.89352 7.74017 3.77072 6.94318 3.09919C6.14619 2.42766 5.85532 1.46169 6.29351 0.941637C6.73169 0.421585 7.733 0.544385 8.53 1.21592C9.32699 1.88745 9.61786 2.85342 9.17967 3.37347Z" fill="black"/>
<path fill-rule="evenodd" clip-rule="evenodd" d="M9.96875 19.9375C14.3353 19.9375 17.875 16.3978 17.875 12.0312C17.875 10.8743 17.6265 9.77548 17.18 8.7851C17.0825 10.0246 16.0458 11 14.7812 11C13.4523 11 12.375 9.92269 12.375 8.59375C12.375 7.26481 13.4523 6.1875 14.7812 6.1875C14.9857 6.1875 15.1842 6.21299 15.3737 6.26097C13.9599 4.9362 12.0591 4.125 9.96875 4.125C5.60225 4.125 2.0625 7.66475 2.0625 12.0312C2.0625 16.3978 5.60225 19.9375 9.96875 19.9375Z" fill="black"/>
<circle cx="5.84375" cy="19.5938" r="2.40625" fill="black"/>
<circle cx="2.40625" cy="16.8438" r="2.40625" fill="black"/>
<circle cx="10.6562" cy="19.5938" r="2.40625" fill="black"/>
<circle cx="15.4688" cy="18.9062" r="2.40625" fill="black"/>
<circle cx="18.2188" cy="15.4688" r="2.40625" fill="black"/>
</svg>
