<svg width="165" height="224" viewBox="0 0 165 224" fill="none" xmlns="http://www.w3.org/2000/svg">
<path d="M26.4104 193.329C26.3157 192.287 25.8943 191.478 25.1462 190.9C24.4076 190.313 23.3517 190.019 21.9786 190.019C21.0695 190.019 20.312 190.138 19.7059 190.374C19.0998 190.611 18.6453 190.938 18.3423 191.354C18.0392 191.762 17.883 192.23 17.8735 192.761C17.8546 193.196 17.9398 193.58 18.1292 193.911C18.3281 194.243 18.6121 194.536 18.9815 194.792C19.3603 195.038 19.8148 195.256 20.3451 195.445C20.8754 195.635 21.472 195.801 22.1349 195.943L24.6349 196.511C26.0743 196.823 27.3432 197.24 28.4417 197.761C29.5496 198.282 30.4777 198.902 31.2258 199.622C31.9834 200.341 32.5563 201.17 32.9445 202.107C33.3328 203.045 33.5317 204.096 33.5411 205.261C33.5317 207.098 33.0676 208.675 32.1491 209.991C31.2305 211.307 29.9095 212.316 28.186 213.016C26.472 213.717 24.4029 214.068 21.9786 214.068C19.5449 214.068 17.4237 213.703 15.615 212.974C13.8063 212.245 12.4 211.137 11.3962 209.65C10.3925 208.163 9.87635 206.283 9.84794 204.011H16.5809C16.6377 204.948 16.8887 205.729 17.3337 206.354C17.7788 206.979 18.3896 207.453 19.1661 207.775C19.9521 208.097 20.8612 208.258 21.8934 208.258C22.8404 208.258 23.6453 208.13 24.3082 207.874C24.9805 207.619 25.4966 207.264 25.8565 206.809C26.2163 206.354 26.401 205.834 26.4104 205.247C26.401 204.697 26.2305 204.229 25.8991 203.84C25.5676 203.443 25.0563 203.102 24.365 202.818C23.6832 202.524 22.812 202.254 21.7514 202.008L18.7116 201.298C16.1926 200.72 14.2087 199.787 12.7599 198.499C11.311 197.202 10.5913 195.45 10.6008 193.244C10.5913 191.444 11.0743 189.868 12.0496 188.514C13.025 187.159 14.3745 186.104 16.0979 185.346C17.8214 184.588 19.7864 184.21 21.9928 184.21C24.2466 184.21 26.2021 184.593 27.8593 185.36C29.526 186.118 30.8186 187.183 31.7371 188.556C32.6557 189.929 33.1245 191.52 33.1434 193.329H26.4104ZM50.369 204.281V191.88H57.3008V213.698H50.6815V209.636H50.4542C49.9712 210.971 49.1474 212.032 47.9826 212.818C46.8273 213.594 45.4305 213.982 43.7923 213.982C42.3055 213.982 40.9987 213.641 39.8718 212.96C38.7449 212.278 37.869 211.326 37.244 210.104C36.619 208.873 36.3017 207.434 36.2923 205.786V191.88H43.2383V204.423C43.2478 205.606 43.5603 206.539 44.1758 207.221C44.7913 207.903 45.6294 208.244 46.69 208.244C47.3813 208.244 48.0015 208.092 48.5508 207.789C49.1095 207.477 49.5498 207.027 49.8718 206.44C50.2032 205.843 50.369 205.123 50.369 204.281ZM73.2373 191.88V196.994H59.4731V191.88H73.2373ZM62.3566 186.653H69.3026V206.837C69.3026 207.264 69.3689 207.609 69.5015 207.874C69.6435 208.13 69.8471 208.315 70.1123 208.428C70.3774 208.533 70.6947 208.585 71.064 208.585C71.3291 208.585 71.6085 208.561 71.9021 208.514C72.2051 208.457 72.4324 208.409 72.5839 208.372L73.635 213.386C73.3036 213.48 72.8348 213.599 72.2288 213.741C71.6322 213.883 70.9172 213.973 70.0839 214.011C68.4551 214.086 67.0583 213.897 65.8935 213.443C64.7382 212.979 63.8528 212.259 63.2373 211.283C62.6312 210.308 62.3377 209.082 62.3566 207.604V186.653ZM85.9458 214.11C83.6636 214.11 81.6939 213.66 80.0367 212.761C78.389 211.852 77.1201 210.559 76.2299 208.883C75.3492 207.197 74.9089 205.194 74.9089 202.874C74.9089 200.621 75.354 198.651 76.2441 196.965C77.1343 195.27 78.389 193.954 80.0083 193.016C81.6276 192.069 83.5358 191.596 85.7327 191.596C87.2858 191.596 88.7062 191.837 89.9941 192.32C91.282 192.803 92.3947 193.518 93.3322 194.465C94.2697 195.412 94.9988 196.582 95.5197 197.974C96.0405 199.356 96.3009 200.943 96.3009 202.732V204.465H77.3379V200.431H89.8379C89.8284 199.693 89.6532 199.034 89.3123 198.457C88.9714 197.879 88.5026 197.429 87.906 197.107C87.3189 196.776 86.6418 196.61 85.8748 196.61C85.0983 196.61 84.4022 196.785 83.7867 197.136C83.1712 197.477 82.6835 197.945 82.3237 198.542C81.9638 199.129 81.7744 199.797 81.7555 200.545V204.65C81.7555 205.54 81.9307 206.321 82.281 206.994C82.6314 207.657 83.1286 208.173 83.7725 208.542C84.4165 208.911 85.1835 209.096 86.0737 209.096C86.6892 209.096 87.2479 209.011 87.7498 208.84C88.2517 208.67 88.6826 208.419 89.0424 208.087C89.4023 207.756 89.6721 207.349 89.8521 206.866L96.2299 207.051C95.9648 208.48 95.3824 209.726 94.4827 210.786C93.5926 211.837 92.4231 212.657 90.9742 213.244C89.5254 213.821 87.8492 214.11 85.9458 214.11ZM105.199 214.068C103.807 214.068 102.571 213.836 101.492 213.372C100.422 212.898 99.5741 212.188 98.9491 211.241C98.3336 210.284 98.0258 209.086 98.0258 207.647C98.0258 206.435 98.2389 205.412 98.665 204.579C99.0911 203.746 99.6782 203.069 100.426 202.548C101.174 202.027 102.036 201.634 103.012 201.369C103.987 201.094 105.029 200.909 106.137 200.815C107.377 200.701 108.376 200.583 109.134 200.46C109.891 200.327 110.441 200.142 110.781 199.906C111.132 199.659 111.307 199.314 111.307 198.869V198.798C111.307 198.069 111.056 197.505 110.554 197.107C110.052 196.71 109.375 196.511 108.523 196.511C107.604 196.511 106.866 196.71 106.307 197.107C105.748 197.505 105.393 198.054 105.242 198.755L98.8354 198.528C99.0248 197.202 99.5125 196.018 100.299 194.977C101.094 193.926 102.183 193.102 103.566 192.505C104.958 191.899 106.629 191.596 108.58 191.596C109.972 191.596 111.255 191.762 112.429 192.093C113.603 192.415 114.626 192.889 115.497 193.514C116.369 194.129 117.041 194.887 117.514 195.786C117.997 196.686 118.239 197.713 118.239 198.869V213.698H111.705V210.658H111.534C111.146 211.397 110.649 212.022 110.043 212.533C109.446 213.045 108.741 213.428 107.926 213.684C107.121 213.94 106.212 214.068 105.199 214.068ZM107.344 209.522C108.092 209.522 108.764 209.371 109.361 209.068C109.967 208.765 110.45 208.348 110.81 207.818C111.17 207.278 111.35 206.653 111.35 205.943V203.869C111.151 203.973 110.909 204.068 110.625 204.153C110.351 204.238 110.048 204.319 109.716 204.394C109.385 204.47 109.044 204.536 108.693 204.593C108.343 204.65 108.007 204.702 107.685 204.749C107.031 204.854 106.473 205.015 106.009 205.232C105.554 205.45 105.204 205.734 104.958 206.085C104.721 206.426 104.602 206.833 104.602 207.306C104.602 208.026 104.858 208.575 105.37 208.954C105.89 209.333 106.549 209.522 107.344 209.522ZM121.686 213.698V191.88H128.291V195.886H128.533C128.987 194.56 129.754 193.514 130.834 192.747C131.913 191.979 133.201 191.596 134.697 191.596C136.213 191.596 137.51 191.984 138.589 192.761C139.669 193.537 140.356 194.579 140.649 195.886H140.876C141.284 194.588 142.079 193.551 143.263 192.775C144.446 191.989 145.843 191.596 147.453 191.596C149.517 191.596 151.194 192.259 152.481 193.585C153.769 194.901 154.413 196.71 154.413 199.011V213.698H147.467V200.602C147.467 199.513 147.188 198.684 146.629 198.116C146.07 197.538 145.346 197.249 144.456 197.249C143.499 197.249 142.747 197.562 142.197 198.187C141.658 198.802 141.388 199.631 141.388 200.673V213.698H134.712V200.531C134.712 199.517 134.437 198.717 133.888 198.13C133.338 197.543 132.614 197.249 131.714 197.249C131.108 197.249 130.573 197.396 130.109 197.69C129.645 197.974 129.281 198.381 129.016 198.911C128.76 199.442 128.632 200.067 128.632 200.786V213.698H121.686Z" fill="black"/>
<circle cx="83.1633" cy="72.5344" r="71.6604" fill="url(#paint0_linear_114_163)"/>
<path d="M71.874 53.8389L57.5121 59.1703L54.3353 52.4384L62.1778 43.5157L71.874 53.8389Z" fill="white"/>
<path fill-rule="evenodd" clip-rule="evenodd" d="M43.055 77.8485C51.5909 79.4712 59.826 73.8671 61.4487 65.3313C63.0715 56.7954 57.4673 48.5603 48.9315 46.9376C40.3957 45.3148 32.1605 50.919 30.5378 59.4548C28.9151 67.9906 34.5192 76.2258 43.055 77.8485ZM43.8655 73.5859C50.0466 74.761 56.01 70.7028 57.1851 64.5217C58.3602 58.3406 54.302 52.3772 48.1209 51.2021C41.9398 50.0271 35.9764 54.0852 34.8013 60.2664C33.6262 66.4475 37.6844 72.4108 43.8655 73.5859Z" fill="white"/>
<path fill-rule="evenodd" clip-rule="evenodd" d="M74.7257 57.9935C85.1338 59.9722 95.1753 53.1388 97.154 42.7306C99.1326 32.3225 92.2992 22.281 81.8911 20.3024C71.483 18.3237 61.4415 25.1571 59.4628 35.5652C57.4842 45.9734 64.3176 56.0148 74.7257 57.9935ZM75.6683 53.0342C83.3374 54.4922 90.7364 49.457 92.1943 41.7879C93.6523 34.1187 88.6172 26.7197 80.948 25.2618C73.2789 23.8038 65.8799 28.8389 64.4219 36.5081C62.964 44.1772 67.9991 51.5762 75.6683 53.0342Z" fill="white"/>
<circle cx="45.9936" cy="62.395" r="7.36244" transform="rotate(10.764 45.9936 62.395)" fill="white"/>
<circle cx="78.31" cy="39.1474" r="9.09429" transform="rotate(10.764 78.31 39.1474)" fill="white"/>
<path fill-rule="evenodd" clip-rule="evenodd" d="M69.2018 79.1391C73.5824 79.5208 77.443 76.2791 77.8247 71.8985C78.2064 67.5179 74.9646 63.6573 70.584 63.2756C66.2035 62.894 62.3429 66.1357 61.9612 70.5163C61.5795 74.8968 64.8212 78.7574 69.2018 79.1391ZM69.609 74.4666C71.409 74.6234 72.9953 73.2914 73.1521 71.4915C73.3089 69.6915 71.9769 68.1052 70.177 67.9484C68.377 67.7916 66.7908 69.1236 66.6339 70.9235C66.4771 72.7235 67.8091 74.3097 69.609 74.4666Z" fill="white"/>
<path fill-rule="evenodd" clip-rule="evenodd" d="M55.7857 138.778C44.9753 134.306 35.4976 127.264 28.1139 118.414C28.114 118.414 28.1141 118.414 28.1142 118.414C35.498 127.263 44.9756 134.305 55.786 138.778C55.7859 138.778 55.7858 138.778 55.7857 138.778ZM92.1679 143.634C89.2184 144.003 86.2132 144.194 83.1634 144.194C75.4902 144.194 68.0986 142.988 61.168 140.755C61.1678 140.755 61.1676 140.754 61.1673 140.754C68.0982 142.987 75.49 144.193 83.1635 144.193C86.2135 144.193 89.2189 144.003 92.1686 143.633C92.1684 143.633 92.1681 143.633 92.1679 143.634ZM138.052 118.606C129.327 128.99 117.709 136.863 104.439 140.983C104.439 140.983 104.439 140.982 104.439 140.982C117.709 136.862 129.327 128.99 138.052 118.605C138.052 118.605 138.052 118.606 138.052 118.606ZM154.332 80.9751C149.78 78.7501 144.39 78.5095 139.562 80.7867C130.937 84.8553 127.372 95.4201 131.6 104.384C133.746 108.932 137.485 112.194 141.775 113.773C140.602 115.437 139.36 117.049 138.052 118.605C137.826 117.924 137.557 117.251 137.245 116.587C132.683 106.918 120.486 103.088 110.001 108.034C101.935 111.838 97.2324 119.727 97.5674 127.566C96.212 118.215 87.903 111.018 77.8553 111.018C66.8617 111.018 57.9496 119.633 57.9496 130.261C57.9496 134.132 59.1323 137.736 61.1673 140.754C59.3405 140.166 57.5456 139.506 55.786 138.778C57.163 136.07 57.9496 132.936 57.9496 129.597C57.9496 119.336 50.5229 111.018 41.3616 111.018C35.9491 111.018 31.142 113.922 28.1142 118.414C27.5249 117.707 26.9489 116.989 26.3867 116.26C29.9142 111.443 35.3118 108.363 41.3616 108.363C48.675 108.363 55.0355 112.865 58.291 119.494C62.278 112.848 69.8428 108.363 78.5189 108.363C86.7106 108.363 92.8291 112.091 96.181 117.937C98.5001 112.634 102.828 108.01 108.687 105.247C115.344 102.107 122.597 102.019 128.665 104.424C124.331 94.4227 128.396 82.8636 137.953 78.3554C143.385 75.7933 149.445 76.0488 154.577 78.5283C154.515 79.2762 154.441 80.0209 154.357 80.7621C154.348 80.8331 154.34 80.9041 154.332 80.9751ZM97.5674 127.566C97.5939 128.187 97.652 128.808 97.7425 129.426C97.7148 128.798 97.6559 128.178 97.5674 127.566ZM97.7425 129.426C97.7548 129.703 97.7609 129.981 97.7609 130.261C97.7609 135.456 95.6308 140.171 92.1686 143.633C93.2135 143.502 94.2515 143.348 95.2819 143.173C96.2357 141.698 97.0198 140.088 97.6233 138.379C98.498 139.728 99.5144 140.953 100.647 142.045C101.925 141.725 103.189 141.37 104.439 140.982C102.285 139.283 100.503 137.102 99.2745 134.498C98.4997 132.855 97.995 131.15 97.7425 129.426Z" fill="white"/>
<path fill-rule="evenodd" clip-rule="evenodd" d="M30.8594 121.519C33.1184 117.59 36.9789 115 41.3616 115C48.3242 115 53.9685 121.536 53.9685 129.597C53.9685 132.364 53.3041 134.95 52.1498 137.155C44.1053 133.287 36.8943 127.961 30.8594 121.519Z" fill="white"/>
<path fill-rule="evenodd" clip-rule="evenodd" d="M68.669 142.728C64.5922 139.965 61.9307 135.411 61.9307 130.261C61.9307 121.833 69.0603 115 77.8552 115C86.6501 115 93.7797 121.833 93.7797 130.261C93.7797 136.46 89.9229 141.796 84.3834 144.185C83.9776 144.192 83.5709 144.195 83.1634 144.195C78.1978 144.195 73.3501 143.69 68.669 142.728Z" fill="white"/>
<path fill-rule="evenodd" clip-rule="evenodd" d="M134.748 122.276C127.619 129.668 118.916 135.532 109.178 139.327C106.527 137.854 104.335 135.622 102.98 132.75C99.3093 124.968 103.174 115.432 111.612 111.452C120.05 107.472 129.866 110.554 133.537 118.336C134.139 119.613 134.539 120.937 134.748 122.276Z" fill="white"/>
<path fill-rule="evenodd" clip-rule="evenodd" d="M151.541 84.9294C149.583 93.9427 146.107 102.282 141.437 109.582C138.715 108.336 136.358 105.932 134.982 102.635C132.15 95.8524 134.537 87.8584 140.314 84.7798C144.142 82.74 148.328 82.7305 151.541 84.9294Z" fill="white"/>
<circle cx="83.1633" cy="72.5344" r="70.1604" stroke="black" stroke-width="3"/>
<defs>
<linearGradient id="paint0_linear_114_163" x1="83.1633" y1="0.874023" x2="83.1633" y2="144.195" gradientUnits="userSpaceOnUse">
<stop stop-color="#3F0035"/>
<stop offset="1" stop-color="#B76CF2"/>
</linearGradient>
</defs>
</svg>
