<svg xmlns="http://www.w3.org/2000/svg" width="55" height="55" viewBox="0 0 55 55">
    <g fill="none" fill-rule="evenodd">
        <circle cx="27.5" cy="27.5" r="27.5" fill="#D01F2F"/>
        <path fill="#FFF" d="M4.001 27.487C3.997 40.419 14.565 51.08 27.447 51.005c13.378-.078 23.493-10.622 23.555-23.603.062-13-10.58-23.41-23.813-23.403-12.674.007-23.184 10.653-23.188 23.488m23.584 24.512c-13.418.115-24.417-10.753-24.583-24.29C2.837 14.254 13.742 3.094 27.143 3c13.597-.095 24.51 10.59 24.85 23.86.333 13.023-10.075 25.065-24.408 25.138"/>
        <path fill="#FFF" d="M27.53 31.81c3.935 0 7.87-.02 11.806.015.827.008 1.2-.246 1.38-1.056a182.1 182.1 0 0 1 1.773-7.327c.266-1.006-.05-1.222-1.027-1.102-2.87.353-5.743.698-8.623.956-2.284.204-4.533.743-6.871.448-4.169-.524-8.355-.92-12.528-1.408-.945-.11-1.189.094-.939 1.038a148.063 148.063 0 0 1 1.758 7.328c.187.883.59 1.13 1.465 1.121 3.935-.036 7.87-.016 11.806-.013m-.04 1.171c-4.026.001-8.052-.03-12.078.019-1.37.016-2.032-.473-2.31-1.82-.563-2.738-1.293-5.443-1.949-8.163-.409-1.694-.05-2.138 1.7-1.952 4.27.453 8.536.938 12.802 1.429.992.114 1.98.194 2.975.082 4.31-.485 8.62-.975 12.93-1.462.359-.04.72-.07 1.08-.103 1.118-.1 1.523.482 1.302 1.451a528.165 528.165 0 0 1-2.235 9.361c-.227.919-.947 1.172-1.868 1.167-4.117-.023-8.233-.01-12.35-.009M35.371 42.229c.023-1.464-.515-2.475-.71-3.556-.054-.295-.26-.619.089-.842.258-.165.502.01.743.134.945.487 1.897.962 2.926 1.481.313-1.115-.405-1.849-.757-2.643-.319-.718-.2-1.127.408-1.566.487-.352.766-.34 1.002.23.93 2.245 1.87 4.486 2.807 6.73.084.2.215.416.017.607-.298.287-.587.058-.85-.076-1.298-.659-2.587-1.331-4.137-2.133.418 1.637.775 2.997 1.108 4.362.079.325.306.727-.084.976-.333.214-.573-.138-.808-.306a485.963 485.963 0 0 1-5.521-3.994c-.277-.204-.908-.417-.43-.873.376-.36.75-1.138 1.536-.528.797.62 1.615 1.214 2.661 1.997M26.491 46.963c1.305.004 2.456-1.112 2.493-2.416.037-1.344-1.165-2.548-2.522-2.527-1.277.02-2.42 1.201-2.41 2.49.011 1.308 1.144 2.448 2.44 2.453M26.44 40a4.506 4.506 0 0 1 4.558 4.43c.038 2.471-1.965 4.541-4.42 4.57-2.472.028-4.53-1.968-4.578-4.44-.048-2.458 1.972-4.532 4.44-4.56M31.18 10.554c.006-1.385-.905-2.454-2.115-2.483-1.24-.03-2.27 1.114-2.25 2.498.022 1.328 1.01 2.41 2.2 2.409 1.214-.002 2.16-1.06 2.166-2.424M33 10.546c0 2.54-1.736 4.467-4.011 4.454-2.262-.013-4.013-1.987-3.989-4.496C25.025 8 26.833 5.978 29.027 6 31.237 6.022 33 8.04 33 10.546M15.08 39.247c-1.043.813-1.651 1.77-2.357 2.62-.443.532-.757.579-1.275.1-.542-.5-.612-.86-.102-1.451 1.404-1.63 2.75-3.316 4.135-4.963.21-.25.398-.691.82-.51.341.145.255.549.281.856.156 1.83.3 3.66.459 5.626 1.016-.611 1.506-1.605 2.208-2.362.417-.45.706-.75 1.258-.165.45.476.75.786.18 1.438-1.444 1.65-2.821 3.37-4.232 5.055-.19.227-.334.612-.706.483-.374-.129-.275-.526-.295-.83-.127-1.909-.244-3.819-.374-5.897M20.583 13.012c-.722.44-1.536.9-2.302 1.422-.293.2-.002.47.123.68.29.488.56.99.907 1.44.472.614.135.891-.387 1.215-.507.314-.872.36-1.215-.192a493.644 493.644 0 0 0-3.56-5.65c-.35-.546-.03-.782.397-1.005.416-.216.84-.635 1.225.052.148.266.38.495.492.771.483 1.185 1.143 1.257 2.212.547 1.43-.95 1.503-.898.406-2.607-.383-.597-.56-.968.207-1.452.809-.51 1.079-.105 1.431.464a275.619 275.619 0 0 0 3.216 5.093c.374.576.411.931-.276 1.35-.709.431-1.024.233-1.349-.384-.242-.46-.558-.886-.855-1.318-.14-.202-.22-.496-.672-.426M40.647 12.513c-.4.065-.554.345-.75.57-1.013 1.165-2.054 2.311-3.013 3.512-.479.6-.858.446-1.37.099-.533-.363-.722-.689-.224-1.234 1.042-1.141 2.002-2.345 3.049-3.483.5-.545.551-.934-.168-1.308-.729-.378-.6-.789-.133-1.324.552-.634.933-.261 1.378.063.983.715 1.97 1.426 2.958 2.134.45.322.931.582.378 1.21-.463.525-.854.725-1.44.175-.19-.178-.456-.288-.665-.414M27.505 38c-2.028-.046-3.98-.58-5.72-1.726-.372-.245-1.028-.518-.692-1.023.39-.584.816.005 1.186.225 3.5 2.085 6.993 2.14 10.488-.012.343-.212.772-.695 1.117-.224.376.514-.252.792-.623 1.037-1.7 1.122-3.605 1.664-5.756 1.723M27.36 17c2.404.067 4.347.67 6.08 1.871.315.22.755.504.466.917-.303.433-.716.103-1.036-.106-3.58-2.347-7.161-2.274-10.74-.003-.344.22-.746.51-1.034.108-.299-.415.167-.68.48-.901A10.251 10.251 0 0 1 27.359 17"/>
    </g>
</svg>
