<svg width="1303" height="433" viewBox="0 0 1303 433" fill="none" xmlns="http://www.w3.org/2000/svg">
    <mask id="30rbuupkqa" style="mask-type:alpha" maskUnits="userSpaceOnUse" x="0" y="0" width="1303" height="433">
        <rect width="1303" height="433" rx="20" fill="#D9D9D9"/>
    </mask>
    <g mask="url(#30rbuupkqa)">
        <mask id="3tnhg1qvpb" style="mask-type:alpha" maskUnits="userSpaceOnUse" x="1" y="62" width="1299" height="390">
            <path fill="#D9D9D9" d="M1 62h1299v390H1z"/>
        </mask>
        <g opacity=".15" fill-rule="evenodd" clip-rule="evenodd" fill="#fff" mask="url(#3tnhg1qvpb)">
            <path d="M20.55 346.478c-2.883.283-5.512-1.507-5.842-3.975-.33-2.468 1.761-4.717 4.644-4.999 2.883-.283 5.511 1.506 5.841 3.974.33 2.468-1.76 4.718-4.643 5M53.384 343.467c-2.883.282-5.512-1.506-5.842-3.976-.33-2.466 1.761-4.716 4.644-4.998 2.883-.283 5.511 1.506 5.842 3.974.328 2.469-1.762 4.717-4.644 5M86.218 340.456c-2.883.282-5.512-1.506-5.842-3.975-.33-2.467 1.761-4.716 4.644-4.999 2.883-.283 5.511 1.506 5.841 3.974.33 2.469-1.76 4.719-4.644 5M120.224 337.445c-2.882.282-5.511-1.506-5.841-3.976-.329-2.466 1.761-4.716 4.644-4.998 2.882-.284 5.511 1.506 5.841 3.974.329 2.469-1.761 4.717-4.644 5M153.058 333.431c-2.882.281-5.511-1.507-5.841-3.975-.329-2.468 1.761-4.718 4.644-5 2.882-.282 5.511 1.507 5.841 3.974.329 2.469-1.761 4.719-4.644 5.001M187.064 330.419c-2.883.283-5.511-1.506-5.841-3.974-.329-2.468 1.761-4.717 4.643-5 2.883-.282 5.512 1.507 5.842 3.974.329 2.469-1.761 4.719-4.644 5M219.898 327.409c-2.883.281-5.511-1.507-5.841-3.976-.329-2.467 1.761-4.717 4.643-4.998 2.883-.284 5.512 1.506 5.842 3.974.329 2.468-1.761 4.717-4.644 5M252.732 324.398c-2.883.281-5.511-1.507-5.841-3.975-.329-2.468 1.761-4.717 4.643-4.999 2.883-.283 5.512 1.506 5.842 3.974.329 2.468-1.761 4.718-4.644 5M286.739 320.383c-2.883.283-5.511-1.506-5.842-3.975-.329-2.468 1.761-4.716 4.644-4.999 2.883-.283 5.512 1.506 5.842 3.974.329 2.468-1.761 4.718-4.644 5M319.573 317.372c-2.883.282-5.511-1.506-5.842-3.976-.329-2.466 1.761-4.716 4.644-4.998 2.883-.283 5.512 1.506 5.842 3.974.329 2.469-1.761 4.719-4.644 5M352.407 314.361c-2.883.283-5.511-1.506-5.842-3.975-.329-2.467 1.761-4.716 4.644-4.999 2.883-.283 5.512 1.506 5.842 3.974.329 2.469-1.761 4.718-4.644 5M386.413 311.35c-2.883.283-5.512-1.505-5.842-3.975-.329-2.467 1.761-4.717 4.644-4.999 2.883-.284 5.512 1.506 5.842 3.973.329 2.47-1.761 4.719-4.644 5.001M419.247 307.336c-2.883.281-5.512-1.507-5.842-3.975-.329-2.468 1.76-4.718 4.644-5 2.883-.282 5.511 1.507 5.842 3.974.329 2.469-1.761 4.719-4.644 5.001M452.081 304.325c-2.883.282-5.512-1.506-5.842-3.976-.329-2.466 1.761-4.717 4.644-4.998 2.883-.284 5.511 1.505 5.842 3.973.329 2.469-1.761 4.719-4.644 5.001M486.088 301.314c-2.883.281-5.512-1.507-5.842-3.976-.329-2.467 1.761-4.717 4.644-4.998 2.883-.283 5.511 1.506 5.842 3.974.329 2.468-1.762 4.717-4.644 5M518.922 298.303c-2.883.281-5.512-1.507-5.842-3.975-.329-2.468 1.761-4.717 4.644-4.999 2.883-.283 5.511 1.506 5.842 3.974.329 2.468-1.762 4.718-4.644 5M551.756 295.292c-2.883.282-5.512-1.506-5.842-3.976-.329-2.467 1.761-4.716 4.644-4.998 2.883-.284 5.511 1.506 5.842 3.974.329 2.468-1.762 4.717-4.644 5M585.762 291.277c-2.883.282-5.512-1.506-5.842-3.976-.329-2.466 1.761-4.716 4.644-4.998 2.883-.283 5.511 1.506 5.841 3.974.329 2.469-1.761 4.718-4.643 5M618.595 288.266c-2.882.283-5.511-1.506-5.841-3.975-.329-2.467 1.761-4.716 4.644-4.999 2.883-.283 5.511 1.506 5.841 3.974.329 2.469-1.761 4.719-4.644 5M651.429 285.255c-2.882.282-5.511-1.506-5.841-3.976-.329-2.466 1.761-4.716 4.644-4.998 2.882-.283 5.511 1.507 5.841 3.974.329 2.469-1.761 4.718-4.644 5M685.436 282.244c-2.883.282-5.511-1.506-5.842-3.975-.327-2.467 1.763-4.716 4.644-4.999 2.884-.282 5.512 1.507 5.842 3.974.328 2.469-1.762 4.719-4.644 5M718.27 278.23c-2.883.282-5.511-1.507-5.841-3.975-.329-2.468 1.762-4.717 4.643-4.999 2.884-.283 5.511 1.506 5.842 3.973.328 2.469-1.762 4.719-4.644 5.001M751.104 275.219c-2.883.282-5.511-1.506-5.841-3.976-.329-2.467 1.761-4.717 4.644-4.998 2.882-.283 5.511 1.506 5.841 3.974.329 2.468-1.761 4.717-4.644 5M785.11 272.208c-2.883.283-5.512-1.507-5.842-3.975-.329-2.468 1.762-4.717 4.643-4.999 2.884-.283 5.513 1.506 5.843 3.974.328 2.468-1.761 4.718-4.644 5M817.944 269.197c-2.883.283-5.511-1.506-5.842-3.976-.329-2.466 1.763-4.716 4.644-4.998 2.884-.284 5.511 1.505 5.842 3.973.328 2.469-1.762 4.719-4.644 5.001M850.778 265.182c-2.883.282-5.511-1.506-5.842-3.976-.329-2.466 1.762-4.716 4.644-4.998 2.883-.282 5.512 1.507 5.842 3.974.329 2.469-1.761 4.719-4.644 5M884.784 262.171c-2.882.283-5.511-1.506-5.841-3.975-.328-2.467 1.762-4.716 4.644-4.999 2.883-.282 5.512 1.507 5.842 3.974.328 2.469-1.762 4.719-4.645 5M917.617 259.161c-2.882.281-5.51-1.507-5.841-3.977-.329-2.466 1.762-4.716 4.644-4.998 2.883-.282 5.511 1.507 5.842 3.974.328 2.469-1.762 4.718-4.645 5.001M950.452 256.15c-2.883.281-5.511-1.507-5.842-3.975-.329-2.468 1.761-4.717 4.644-5 2.883-.282 5.512 1.507 5.842 3.974.329 2.469-1.761 4.719-4.644 5.001M984.458 252.135c-2.882.283-5.511-1.506-5.841-3.976-.328-2.466 1.762-4.716 4.643-4.998 2.884-.284 5.513 1.505 5.843 3.973.328 2.47-1.762 4.719-4.645 5.001M1017.29 249.124c-2.88.282-5.51-1.506-5.84-3.976-.33-2.467 1.76-4.717 4.64-4.998 2.89-.283 5.52 1.506 5.85 3.974.33 2.468-1.76 4.717-4.65 5M1050.13 246.113c-2.89.282-5.51-1.506-5.84-3.975-.33-2.468 1.76-4.716 4.64-4.999 2.88-.283 5.51 1.506 5.84 3.974.33 2.469-1.76 4.718-4.64 5M1084.13 243.102c-2.88.282-5.51-1.506-5.84-3.975v-.001c-.33-2.466 1.76-4.716 4.65-4.998 2.88-.284 5.51 1.506 5.84 3.974.33 2.469-1.76 4.717-4.65 5M1116.97 239.088c-2.89.281-5.51-1.507-5.85-3.976-.32-2.467 1.77-4.717 4.65-4.999 2.88-.282 5.51 1.507 5.84 3.974.33 2.469-1.76 4.719-4.64 5.001M1149.8 236.076c-2.88.283-5.51-1.506-5.84-3.975-.33-2.467 1.76-4.716 4.64-4.999 2.89-.282 5.51 1.507 5.84 3.974.33 2.469-1.76 4.719-4.64 5M1183.81 233.066c-2.89.281-5.51-1.507-5.84-3.976-.33-2.467 1.76-4.717 4.64-4.999 2.88-.282 5.51 1.507 5.84 3.974.33 2.469-1.76 4.719-4.64 5.001M1216.64 230.055c-2.88.281-5.51-1.507-5.84-3.975-.33-2.468 1.76-4.717 4.64-5 2.89-.282 5.52 1.507 5.84 3.974.34 2.469-1.76 4.719-4.64 5.001M1249.48 227.044c-2.89.282-5.52-1.506-5.85-3.976-.33-2.466 1.76-4.717 4.65-4.998 2.88-.284 5.51 1.505 5.84 3.973.33 2.47-1.76 4.719-4.64 5.001M1283.48 223.029c-2.88.282-5.51-1.506-5.84-3.975-.33-2.467 1.76-4.717 4.64-4.999 2.89-.283 5.51 1.506 5.85 3.974.32 2.469-1.77 4.719-4.65 5M20.55 375.584c-2.883.282-5.512-1.506-5.842-3.975-.33-2.468 1.761-4.718 4.644-4.999 2.883-.283 5.511 1.506 5.841 3.974.33 2.468-1.76 4.718-4.643 5M53.384 372.573c-2.883.283-5.512-1.507-5.842-3.975-.33-2.468 1.761-4.717 4.644-4.999 2.883-.283 5.511 1.506 5.842 3.974.328 2.468-1.762 4.718-4.644 5M86.218 368.558c-2.883.282-5.512-1.506-5.842-3.976-.33-2.466 1.761-4.716 4.644-4.998 2.883-.283 5.511 1.506 5.841 3.974.33 2.469-1.76 4.718-4.644 5M120.224 365.547c-2.882.282-5.511-1.506-5.841-3.975-.329-2.467 1.761-4.716 4.644-4.999 2.882-.283 5.511 1.506 5.841 3.974.329 2.469-1.761 4.719-4.644 5M153.058 362.536c-2.882.282-5.511-1.506-5.841-3.976-.329-2.466 1.761-4.716 4.644-4.998 2.882-.283 5.511 1.507 5.841 3.974.329 2.469-1.761 4.718-4.644 5M187.064 359.526c-2.883.281-5.511-1.507-5.841-3.976-.329-2.467 1.761-4.717 4.643-4.999 2.883-.282 5.512 1.507 5.842 3.974.329 2.469-1.761 4.719-4.644 5.001M219.898 355.511c-2.883.282-5.511-1.507-5.841-3.975-.329-2.468 1.761-4.717 4.643-4.999 2.883-.283 5.512 1.506 5.842 3.974.329 2.468-1.761 4.718-4.644 5M252.732 352.5c-2.883.282-5.511-1.506-5.841-3.976-.329-2.467 1.761-4.716 4.643-4.998 2.883-.284 5.512 1.506 5.842 3.974.329 2.468-1.761 4.717-4.644 5M286.739 349.489c-2.883.282-5.511-1.506-5.842-3.975-.329-2.468 1.761-4.718 4.644-4.999 2.883-.283 5.512 1.506 5.842 3.974.329 2.468-1.761 4.718-4.644 5M319.573 346.478c-2.883.283-5.511-1.507-5.842-3.975-.329-2.468 1.761-4.717 4.644-4.999 2.883-.283 5.512 1.506 5.842 3.974.329 2.468-1.761 4.718-4.644 5M352.407 343.467c-2.883.282-5.511-1.506-5.842-3.976-.329-2.466 1.761-4.716 4.644-4.998 2.883-.283 5.512 1.506 5.842 3.974.329 2.469-1.761 4.717-4.644 5M386.413 339.452c-2.883.282-5.512-1.506-5.842-3.975-.329-2.467 1.761-4.716 4.644-4.999 2.883-.282 5.512 1.507 5.842 3.974.329 2.469-1.761 4.719-4.644 5M419.247 336.441c-2.883.283-5.512-1.505-5.842-3.975-.329-2.467 1.76-4.717 4.644-4.998 2.883-.284 5.511 1.505 5.842 3.973.329 2.47-1.761 4.719-4.644 5M452.081 333.431c-2.883.281-5.512-1.507-5.842-3.975-.329-2.468 1.761-4.718 4.644-5 2.883-.282 5.511 1.507 5.842 3.974.329 2.469-1.761 4.719-4.644 5.001M486.088 330.419c-2.883.283-5.512-1.506-5.842-3.974-.329-2.468 1.761-4.717 4.644-5 2.883-.282 5.511 1.507 5.842 3.974.329 2.469-1.762 4.719-4.644 5M518.922 326.405c-2.883.282-5.512-1.506-5.842-3.976-.329-2.467 1.761-4.717 4.644-4.998 2.883-.283 5.511 1.506 5.842 3.974.329 2.468-1.762 4.717-4.644 5M551.756 323.394c-2.883.282-5.512-1.506-5.842-3.975-.329-2.467 1.761-4.716 4.644-4.999 2.883-.283 5.511 1.506 5.842 3.974.329 2.469-1.762 4.719-4.644 5M585.762 320.383c-2.883.283-5.512-1.505-5.842-3.975-.329-2.467 1.761-4.717 4.644-4.999 2.883-.284 5.511 1.506 5.841 3.973.329 2.47-1.761 4.719-4.643 5.001M618.595 317.372c-2.882.282-5.511-1.506-5.841-3.975-.329-2.467 1.761-4.717 4.644-4.999 2.883-.283 5.511 1.506 5.841 3.974.329 2.469-1.761 4.719-4.644 5M651.429 313.357c-2.882.283-5.511-1.506-5.841-3.974-.329-2.468 1.761-4.717 4.644-5 2.882-.282 5.511 1.507 5.841 3.974.329 2.469-1.761 4.719-4.644 5M685.436 310.347c-2.882.281-5.512-1.507-5.841-3.976-.329-2.467 1.76-4.717 4.642-4.998 2.885-.284 5.513 1.506 5.843 3.973.328 2.469-1.761 4.718-4.644 5.001M718.27 307.336c-2.883.281-5.511-1.507-5.841-3.975-.329-2.468 1.762-4.717 4.643-5 2.884-.282 5.511 1.507 5.842 3.974.328 2.469-1.762 4.719-4.644 5.001M751.104 304.325c-2.883.282-5.511-1.507-5.841-3.975-.329-2.468 1.761-4.717 4.644-4.999 2.882-.283 5.511 1.506 5.841 3.973.329 2.469-1.761 4.719-4.644 5.001M785.11 300.31c-2.883.282-5.512-1.506-5.842-3.976-.329-2.466 1.762-4.716 4.643-4.998 2.884-.284 5.513 1.506 5.843 3.974.328 2.469-1.761 4.717-4.644 5M817.944 297.299c-2.883.283-5.511-1.506-5.842-3.975-.329-2.467 1.763-4.716 4.644-4.999 2.884-.283 5.511 1.506 5.842 3.974.328 2.469-1.762 4.718-4.644 5M850.778 294.288c-2.883.282-5.511-1.506-5.842-3.976-.329-2.466 1.762-4.716 4.644-4.998 2.883-.284 5.512 1.507 5.842 3.974.329 2.469-1.761 4.718-4.644 5M884.784 291.277c-2.882.282-5.511-1.506-5.841-3.976-.328-2.466 1.762-4.716 4.644-4.998 2.883-.283 5.512 1.506 5.842 3.974.328 2.469-1.762 4.719-4.645 5M917.617 287.262c-2.882.283-5.51-1.506-5.841-3.974-.329-2.468 1.762-4.717 4.644-5 2.883-.282 5.511 1.507 5.842 3.974.328 2.469-1.762 4.719-4.645 5M950.452 284.252c-2.883.281-5.511-1.507-5.842-3.976-.329-2.467 1.761-4.717 4.644-4.998 2.883-.283 5.512 1.506 5.842 3.974.329 2.468-1.761 4.717-4.644 5M984.458 281.241c-2.882.281-5.511-1.507-5.841-3.975-.328-2.468 1.762-4.717 4.643-4.999 2.884-.283 5.513 1.506 5.843 3.974.328 2.468-1.762 4.718-4.645 5M1017.29 278.23c-2.88.282-5.51-1.506-5.84-3.976-.33-2.466 1.76-4.717 4.64-4.998 2.89-.284 5.52 1.505 5.85 3.973.33 2.469-1.76 4.719-4.65 5.001M1050.13 274.215c-2.89.282-5.51-1.506-5.84-3.976-.33-2.466 1.76-4.716 4.64-4.998 2.88-.283 5.51 1.506 5.84 3.974.33 2.469-1.76 4.718-4.64 5M1084.13 271.204c-2.88.283-5.51-1.506-5.84-3.975-.33-2.467 1.76-4.716 4.65-4.999 2.88-.283 5.51 1.506 5.84 3.974.33 2.469-1.76 4.718-4.65 5M1116.97 268.193c-2.89.282-5.51-1.506-5.85-3.976-.32-2.466 1.77-4.716 4.65-4.998 2.88-.283 5.51 1.507 5.84 3.974.33 2.469-1.76 4.718-4.64 5M1149.8 265.182c-2.88.282-5.51-1.506-5.84-3.975-.33-2.467 1.76-4.717 4.64-4.999 2.89-.282 5.51 1.507 5.84 3.974.33 2.469-1.76 4.719-4.64 5M1183.81 262.171c-2.89.283-5.51-1.506-5.84-3.975-.33-2.467 1.76-4.716 4.64-4.999 2.88-.282 5.51 1.507 5.84 3.974.33 2.469-1.76 4.719-4.64 5M1216.64 258.157c-2.88.281-5.51-1.507-5.84-3.976-.33-2.467 1.76-4.717 4.64-4.998 2.89-.284 5.52 1.506 5.84 3.974.34 2.468-1.76 4.717-4.64 5M1249.48 255.146c-2.89.282-5.52-1.507-5.85-3.975-.33-2.468 1.76-4.717 4.65-4.999 2.88-.283 5.51 1.506 5.84 3.974.33 2.468-1.76 4.718-4.64 5M1283.48 252.135c-2.88.283-5.51-1.506-5.84-3.976-.33-2.466 1.76-4.716 4.64-4.998 2.89-.284 5.51 1.505 5.85 3.973.32 2.47-1.77 4.719-4.65 5.001M20.55 403.686c-2.883.283-5.512-1.505-5.842-3.975-.33-2.467 1.761-4.717 4.644-4.999 2.883-.284 5.511 1.506 5.841 3.973.33 2.47-1.76 4.719-4.643 5.001M53.384 400.675c-2.883.282-5.512-1.506-5.842-3.975-.33-2.467 1.761-4.717 4.644-4.999 2.883-.283 5.511 1.506 5.842 3.974.328 2.469-1.762 4.719-4.644 5M86.218 397.664c-2.883.283-5.512-1.505-5.842-3.975-.33-2.467 1.761-4.717 4.644-4.999 2.883-.284 5.511 1.506 5.841 3.973.33 2.469-1.76 4.719-4.644 5.001M120.224 394.653c-2.882.282-5.511-1.506-5.841-3.976-.329-2.466 1.761-4.716 4.644-4.998 2.882-.283 5.511 1.506 5.841 3.974.329 2.469-1.761 4.718-4.644 5M153.058 390.639c-2.882.281-5.511-1.507-5.841-3.975-.329-2.468 1.761-4.717 4.644-5 2.882-.282 5.511 1.507 5.841 3.974.329 2.469-1.761 4.719-4.644 5.001M187.064 387.628c-2.883.281-5.511-1.507-5.841-3.976-.329-2.467 1.761-4.717 4.643-4.998 2.883-.284 5.512 1.506 5.842 3.974.329 2.468-1.761 4.717-4.644 5M219.898 384.617c-2.883.281-5.511-1.507-5.841-3.976-.329-2.467 1.761-4.717 4.643-4.998 2.883-.283 5.512 1.506 5.842 3.974.329 2.468-1.761 4.717-4.644 5M252.732 381.606c-2.883.282-5.511-1.507-5.841-3.975-.329-2.468 1.759-4.717 4.643-4.999 2.883-.283 5.512 1.506 5.842 3.973.329 2.469-1.761 4.719-4.644 5.001M286.739 378.595c-2.883.281-5.511-1.507-5.842-3.976-.329-2.467 1.761-4.717 4.644-4.998 2.883-.284 5.512 1.506 5.842 3.974.329 2.468-1.761 4.717-4.644 5M319.573 374.58c-2.883.282-5.511-1.506-5.842-3.975-.329-2.467 1.761-4.716 4.644-4.999 2.883-.283 5.512 1.506 5.842 3.974.329 2.469-1.761 4.719-4.644 5M352.407 371.569c-2.883.283-5.511-1.506-5.842-3.975-.329-2.467 1.761-4.716 4.644-4.999 2.883-.283 5.512 1.506 5.842 3.974.329 2.469-1.761 4.718-4.644 5M386.413 368.558c-2.883.282-5.512-1.506-5.842-3.976-.329-2.466 1.761-4.716 4.644-4.998 2.883-.283 5.512 1.506 5.842 3.974.329 2.469-1.761 4.718-4.644 5M419.247 365.547c-2.883.283-5.512-1.506-5.842-3.975-.329-2.467 1.761-4.716 4.644-4.999 2.883-.283 5.511 1.506 5.842 3.974.329 2.469-1.761 4.719-4.644 5M452.081 361.533c-2.883.282-5.512-1.506-5.842-3.976-.329-2.466 1.761-4.717 4.644-4.998 2.883-.284 5.511 1.505 5.842 3.973.329 2.469-1.761 4.719-4.644 5.001M486.088 358.522c-2.883.281-5.512-1.507-5.842-3.976-.329-2.467 1.761-4.717 4.644-4.998 2.883-.283 5.511 1.506 5.842 3.974.329 2.468-1.762 4.718-4.644 5M518.922 355.511c-2.883.282-5.512-1.507-5.842-3.975-.329-2.468 1.761-4.717 4.644-4.999 2.883-.283 5.511 1.506 5.842 3.974.329 2.468-1.762 4.718-4.644 5M551.756 352.5c-2.883.282-5.512-1.506-5.842-3.976-.329-2.467 1.761-4.717 4.644-4.998 2.883-.283 5.511 1.506 5.842 3.974.329 2.468-1.762 4.717-4.644 5M585.762 348.485c-2.883.282-5.512-1.506-5.842-3.975-.329-2.467 1.761-4.716 4.644-4.999 2.883-.283 5.511 1.506 5.841 3.974.329 2.469-1.761 4.719-4.643 5M618.595 345.474c-2.882.283-5.511-1.505-5.841-3.975-.329-2.467 1.761-4.717 4.644-4.999 2.883-.283 5.511 1.506 5.841 3.974.329 2.47-1.761 4.719-4.644 5M651.429 342.463c-2.882.282-5.511-1.506-5.841-3.976-.329-2.466 1.761-4.716 4.644-4.998 2.882-.282 5.511 1.507 5.841 3.974.329 2.469-1.761 4.718-4.644 5M685.436 339.452c-2.883.282-5.511-1.506-5.842-3.975-.327-2.467 1.763-4.716 4.644-4.999 2.884-.282 5.512 1.507 5.842 3.974.328 2.469-1.762 4.719-4.644 5M718.27 335.438c-2.883.282-5.511-1.506-5.841-3.976-.329-2.467 1.762-4.716 4.643-4.998 2.884-.284 5.511 1.506 5.842 3.974.328 2.468-1.762 4.717-4.644 5M751.104 332.427c-2.883.282-5.511-1.506-5.841-3.975-.329-2.468 1.761-4.718 4.644-4.999 2.882-.283 5.511 1.506 5.841 3.974.329 2.468-1.761 4.718-4.644 5M785.11 329.416c-2.883.283-5.512-1.507-5.842-3.975-.329-2.468 1.762-4.717 4.643-4.999 2.884-.283 5.513 1.506 5.843 3.974.328 2.468-1.761 4.718-4.644 5M817.944 326.405c-2.883.282-5.511-1.506-5.842-3.976-.329-2.467 1.763-4.717 4.644-4.998 2.884-.283 5.511 1.506 5.842 3.974.328 2.468-1.762 4.718-4.644 5M850.778 322.39c-2.883.282-5.511-1.506-5.842-3.975-.329-2.467 1.762-4.716 4.644-4.999 2.883-.282 5.512 1.507 5.842 3.974.329 2.469-1.761 4.719-4.644 5M884.784 319.379c-2.882.283-5.511-1.505-5.841-3.975-.328-2.467 1.762-4.717 4.644-4.999 2.883-.283 5.512 1.506 5.842 3.974.328 2.47-1.762 4.719-4.645 5M917.617 316.369c-2.882.281-5.51-1.507-5.841-3.975-.329-2.468 1.762-4.718 4.644-5 2.883-.282 5.511 1.507 5.842 3.974.328 2.469-1.762 4.719-4.645 5.001M950.452 313.357c-2.883.283-5.511-1.506-5.842-3.974-.329-2.468 1.761-4.717 4.644-5 2.883-.282 5.512 1.507 5.842 3.974.329 2.469-1.761 4.719-4.644 5M984.458 309.343c-2.882.282-5.511-1.506-5.841-3.976-.328-2.467 1.762-4.716 4.643-4.998 2.884-.284 5.513 1.506 5.843 3.974.328 2.468-1.762 4.717-4.645 5M1017.29 306.332c-2.88.282-5.51-1.506-5.84-3.975-.33-2.468 1.76-4.716 4.64-4.999 2.89-.283 5.52 1.506 5.85 3.974.33 2.469-1.76 4.718-4.65 5M1050.13 303.321c-2.89.283-5.51-1.505-5.84-3.975-.33-2.467 1.76-4.717 4.64-4.999 2.88-.284 5.51 1.506 5.84 3.973.33 2.469-1.76 4.719-4.64 5.001M1084.13 300.31c-2.88.282-5.51-1.506-5.84-3.976-.33-2.466 1.76-4.716 4.65-4.998 2.88-.283 5.51 1.506 5.84 3.974.33 2.469-1.76 4.717-4.65 5M1116.97 297.299c-2.89.283-5.51-1.506-5.85-3.975-.32-2.467 1.77-4.716 4.65-4.999 2.88-.283 5.51 1.506 5.84 3.974.33 2.469-1.76 4.718-4.64 5M1149.8 293.285c-2.88.281-5.51-1.507-5.84-3.976-.33-2.467 1.76-4.717 4.64-4.998 2.89-.284 5.51 1.506 5.84 3.973.33 2.469-1.76 4.718-4.64 5.001M1183.81 290.274c-2.89.281-5.51-1.507-5.84-3.975-.33-2.468 1.76-4.718 4.64-5 2.88-.282 5.51 1.507 5.84 3.974.33 2.469-1.76 4.719-4.64 5.001M1216.64 287.262c-2.88.283-5.51-1.506-5.84-3.974-.33-2.468 1.76-4.717 4.64-5 2.89-.282 5.52 1.507 5.84 3.974.34 2.469-1.76 4.719-4.64 5M1249.48 284.252c-2.89.281-5.52-1.507-5.85-3.976-.33-2.467 1.76-4.717 4.65-4.998 2.88-.283 5.51 1.506 5.84 3.974.33 2.468-1.76 4.717-4.64 5M1283.48 280.237c-2.88.282-5.51-1.506-5.84-3.975-.33-2.467 1.76-4.716 4.64-4.999 2.89-.283 5.51 1.506 5.85 3.974.32 2.469-1.77 4.719-4.65 5M20.55 432.792c-2.883.282-5.512-1.506-5.842-3.975-.33-2.468 1.761-4.717 4.644-4.999 2.883-.283 5.511 1.506 5.841 3.974.33 2.468-1.76 4.718-4.643 5M53.384 429.781c-2.883.283-5.512-1.506-5.842-3.976-.33-2.466 1.761-4.716 4.644-4.998 2.883-.284 5.511 1.505 5.842 3.973.328 2.47-1.762 4.719-4.644 5.001M86.218 425.766c-2.883.282-5.512-1.506-5.842-3.975-.33-2.467 1.761-4.717 4.644-4.999 2.883-.283 5.511 1.506 5.841 3.974.33 2.469-1.76 4.719-4.644 5M120.224 422.755c-2.882.283-5.511-1.506-5.841-3.975-.329-2.467 1.761-4.716 4.644-4.999 2.882-.282 5.511 1.507 5.841 3.974.329 2.469-1.761 4.719-4.644 5M153.058 419.744c-2.882.282-5.511-1.506-5.841-3.976-.329-2.466 1.761-4.716 4.644-4.998 2.882-.282 5.511 1.507 5.841 3.974.329 2.469-1.761 4.718-4.644 5M187.064 416.733c-2.883.282-5.511-1.506-5.841-3.975-.329-2.467 1.761-4.716 4.643-4.999 2.883-.282 5.512 1.507 5.842 3.974.329 2.469-1.761 4.719-4.644 5M219.898 413.722c-2.883.283-5.511-1.505-5.841-3.975-.329-2.467 1.761-4.717 4.643-4.998 2.883-.284 5.512 1.505 5.842 3.973.329 2.47-1.761 4.719-4.644 5M252.732 409.708c-2.883.282-5.511-1.506-5.841-3.975-.329-2.468 1.761-4.718 4.643-4.999 2.883-.283 5.512 1.506 5.842 3.974.329 2.468-1.761 4.718-4.644 5M286.739 406.697c-2.883.283-5.511-1.507-5.842-3.975-.329-2.468 1.761-4.717 4.644-4.999 2.883-.283 5.512 1.506 5.842 3.974.329 2.468-1.761 4.718-4.644 5M319.573 403.686c-2.883.282-5.511-1.506-5.842-3.975v-.001c-.329-2.466 1.761-4.716 4.644-4.998 2.883-.284 5.512 1.506 5.842 3.974.329 2.469-1.761 4.717-4.644 5M352.407 400.675c-2.883.282-5.511-1.506-5.842-3.975-.329-2.467 1.761-4.717 4.644-4.999 2.883-.283 5.512 1.506 5.842 3.974.329 2.469-1.761 4.719-4.644 5M386.413 396.66c-2.883.283-5.512-1.506-5.842-3.975-.329-2.467 1.761-4.716 4.644-4.999 2.883-.282 5.512 1.507 5.842 3.974.329 2.469-1.761 4.719-4.644 5M419.247 393.65c-2.883.281-5.512-1.507-5.842-3.976-.329-2.467 1.761-4.717 4.644-4.998 2.883-.284 5.511 1.506 5.842 3.973.329 2.469-1.761 4.718-4.644 5.001M452.081 390.638c-2.883.283-5.512-1.506-5.842-3.975-.329-2.467 1.761-4.716 4.644-4.999 2.883-.282 5.511 1.507 5.842 3.974.329 2.469-1.761 4.719-4.644 5M486.088 387.628c-2.883.281-5.512-1.507-5.842-3.976-.329-2.467 1.761-4.717 4.644-4.998 2.883-.284 5.511 1.506 5.842 3.974.329 2.468-1.762 4.717-4.644 5M518.922 383.613c-2.883.282-5.512-1.506-5.842-3.976-.329-2.466 1.761-4.716 4.644-4.998 2.883-.283 5.511 1.506 5.842 3.974.329 2.469-1.762 4.719-4.644 5M551.756 380.602c-2.883.283-5.512-1.506-5.842-3.975-.329-2.468 1.761-4.716 4.644-4.999 2.883-.283 5.511 1.506 5.842 3.974.329 2.468-1.762 4.718-4.644 5M585.762 377.591c-2.883.282-5.512-1.506-5.842-3.976-.329-2.466 1.761-4.716 4.644-4.998 2.883-.283 5.511 1.506 5.841 3.974.329 2.469-1.761 4.717-4.643 5M618.595 374.58c-2.882.282-5.511-1.506-5.841-3.975-.329-2.467 1.761-4.716 4.644-4.999 2.883-.283 5.511 1.506 5.841 3.974.329 2.469-1.761 4.719-4.644 5M651.429 370.565c-2.882.283-5.511-1.505-5.841-3.975-.329-2.467 1.761-4.717 4.644-4.998 2.882-.284 5.511 1.505 5.841 3.973.329 2.469-1.761 4.719-4.644 5M685.436 367.555c-2.882.281-5.512-1.507-5.841-3.976-.329-2.467 1.761-4.717 4.642-4.999 2.885-.282 5.513 1.507 5.843 3.974.328 2.469-1.761 4.718-4.644 5.001M718.27 364.544c-2.883.282-5.511-1.507-5.841-3.975-.329-2.468 1.762-4.717 4.643-4.999 2.884-.283 5.511 1.506 5.842 3.973.328 2.469-1.762 4.719-4.644 5.001M751.104 361.533c-2.883.281-5.511-1.507-5.841-3.976-.329-2.467 1.761-4.717 4.644-4.998 2.882-.284 5.511 1.506 5.841 3.974.329 2.468-1.761 4.717-4.644 5M785.11 357.518c-2.883.282-5.512-1.506-5.842-3.975-.329-2.467 1.762-4.717 4.643-4.999 2.884-.283 5.513 1.506 5.843 3.974.328 2.469-1.761 4.719-4.644 5M817.944 354.507c-2.883.283-5.511-1.506-5.842-3.975-.329-2.467 1.763-4.716 4.644-4.999 2.884-.283 5.511 1.506 5.842 3.974.328 2.469-1.762 4.718-4.644 5M850.778 351.496c-2.883.282-5.511-1.506-5.842-3.976-.329-2.466 1.762-4.716 4.644-4.998 2.883-.284 5.512 1.507 5.842 3.974.329 2.469-1.761 4.718-4.644 5M884.784 348.485c-2.882.282-5.511-1.506-5.841-3.975-.328-2.467 1.762-4.716 4.644-4.999 2.883-.283 5.512 1.506 5.842 3.974.328 2.469-1.762 4.719-4.645 5M917.617 345.474c-2.882.283-5.51-1.505-5.841-3.975-.329-2.467 1.762-4.717 4.644-4.999 2.883-.283 5.511 1.506 5.842 3.974.328 2.47-1.762 4.719-4.645 5M950.452 341.46c-2.883.281-5.511-1.507-5.842-3.976-.329-2.467 1.761-4.717 4.644-4.998 2.883-.283 5.512 1.506 5.842 3.974.329 2.468-1.761 4.718-4.644 5M984.458 338.449c-2.882.282-5.511-1.507-5.841-3.975-.328-2.468 1.762-4.717 4.643-4.999 2.884-.283 5.513 1.506 5.843 3.973.328 2.469-1.762 4.719-4.645 5.001M1017.29 335.438c-2.88.282-5.51-1.506-5.84-3.976-.33-2.467 1.76-4.716 4.64-4.998 2.89-.284 5.52 1.506 5.85 3.974.33 2.468-1.76 4.717-4.65 5M1050.13 332.427c-2.89.282-5.51-1.506-5.84-3.975-.33-2.468 1.76-4.718 4.64-4.999 2.88-.283 5.51 1.506 5.84 3.974.33 2.468-1.76 4.718-4.64 5M1084.13 328.412c-2.88.283-5.51-1.505-5.84-3.975-.33-2.467 1.76-4.717 4.65-4.999 2.88-.284 5.51 1.506 5.84 3.973.33 2.47-1.76 4.719-4.65 5.001M1116.97 325.401c-2.89.282-5.51-1.506-5.85-3.976-.32-2.466 1.77-4.716 4.65-4.998 2.88-.282 5.51 1.507 5.84 3.974.33 2.469-1.76 4.718-4.64 5M1149.8 322.39c-2.88.282-5.51-1.506-5.84-3.975-.33-2.467 1.76-4.716 4.64-4.999 2.89-.282 5.51 1.507 5.84 3.974.33 2.469-1.76 4.719-4.64 5M1183.81 319.38c-2.89.281-5.51-1.507-5.84-3.977-.33-2.466 1.76-4.716 4.64-4.998 2.88-.283 5.51 1.507 5.84 3.974.33 2.469-1.76 4.718-4.64 5.001M1216.64 315.365c-2.88.282-5.51-1.506-5.84-3.975-.33-2.468 1.76-4.718 4.64-4.999 2.89-.283 5.52 1.506 5.84 3.974.34 2.468-1.76 4.718-4.64 5M1249.48 312.354c-2.89.283-5.52-1.507-5.85-3.975-.33-2.468 1.76-4.717 4.65-4.999 2.88-.283 5.51 1.506 5.84 3.974.33 2.468-1.76 4.718-4.64 5M1283.48 309.343c-2.88.282-5.51-1.506-5.84-3.976-.33-2.467 1.76-4.716 4.64-4.998 2.89-.284 5.51 1.506 5.85 3.974.32 2.468-1.77 4.717-4.65 5M219.898 441.825c-2.883.281-5.511-1.507-5.841-3.975-.329-2.468 1.761-4.717 4.643-4.999 2.883-.283 5.512 1.506 5.842 3.974.329 2.468-1.761 4.718-4.644 5M252.732 438.814c-2.883.282-5.511-1.506-5.841-3.976-.329-2.466 1.761-4.717 4.643-4.998 2.883-.284 5.512 1.505 5.842 3.973.329 2.47-1.761 4.719-4.644 5.001M286.739 435.803c-2.883.281-5.511-1.507-5.842-3.976-.329-2.467 1.761-4.717 4.644-4.998 2.883-.283 5.512 1.506 5.842 3.974.329 2.468-1.761 4.717-4.644 5M319.573 431.788c-2.883.282-5.511-1.506-5.842-3.975-.329-2.467 1.761-4.716 4.644-4.999 2.883-.283 5.512 1.506 5.842 3.974.329 2.469-1.761 4.719-4.644 5M352.407 428.777c-2.883.282-5.511-1.506-5.842-3.976-.329-2.466 1.761-4.716 4.644-4.998 2.883-.284 5.512 1.507 5.842 3.974.329 2.469-1.761 4.718-4.644 5M386.413 425.766c-2.883.282-5.512-1.506-5.842-3.975-.329-2.467 1.761-4.717 4.644-4.999 2.883-.283 5.512 1.506 5.842 3.974.329 2.469-1.761 4.719-4.644 5M419.247 422.755c-2.883.283-5.512-1.506-5.842-3.974v-.001c-.329-2.467 1.761-4.716 4.644-4.999 2.883-.282 5.511 1.507 5.842 3.974.329 2.469-1.761 4.719-4.644 5M452.081 418.741c-2.883.281-5.512-1.507-5.842-3.976-.329-2.467 1.761-4.717 4.644-4.998 2.883-.284 5.511 1.506 5.842 3.974.329 2.468-1.761 4.717-4.644 5M486.088 415.73c-2.883.281-5.512-1.507-5.842-3.975-.329-2.468 1.761-4.717 4.644-4.999 2.883-.283 5.511 1.506 5.842 3.974.329 2.468-1.762 4.718-4.644 5M518.922 412.719c-2.883.282-5.512-1.506-5.842-3.976-.329-2.466 1.761-4.716 4.644-4.998 2.883-.284 5.511 1.505 5.842 3.973.329 2.47-1.762 4.719-4.644 5.001M551.756 409.708c-2.883.282-5.512-1.506-5.842-3.975-.329-2.468 1.761-4.718 4.644-4.999 2.883-.283 5.511 1.506 5.842 3.974.329 2.468-1.762 4.718-4.644 5M585.762 405.693c-2.883.283-5.512-1.506-5.842-3.975-.329-2.467 1.761-4.716 4.644-4.999 2.883-.283 5.511 1.506 5.841 3.974.329 2.469-1.761 4.719-4.643 5M618.595 402.682c-2.882.282-5.511-1.506-5.841-3.976-.329-2.466 1.761-4.716 4.644-4.998 2.883-.283 5.511 1.507 5.841 3.974.329 2.469-1.761 4.718-4.644 5M651.429 399.671c-2.882.282-5.511-1.506-5.841-3.975-.329-2.467 1.761-4.716 4.644-4.999 2.882-.282 5.511 1.507 5.841 3.974.329 2.469-1.761 4.719-4.644 5M685.436 396.66c-2.882.283-5.512-1.505-5.841-3.975-.329-2.467 1.761-4.717 4.642-4.999 2.885-.283 5.513 1.506 5.843 3.974.328 2.468-1.761 4.719-4.644 5M718.27 392.646c-2.883.282-5.511-1.506-5.841-3.976-.329-2.467 1.762-4.717 4.643-4.998 2.884-.283 5.511 1.506 5.842 3.974.328 2.468-1.762 4.717-4.644 5M751.104 389.635c-2.883.282-5.511-1.507-5.841-3.975-.329-2.468 1.761-4.717 4.644-4.999 2.882-.283 5.511 1.506 5.841 3.974.329 2.468-1.761 4.718-4.644 5M785.11 386.624c-2.883.282-5.512-1.506-5.842-3.976-.329-2.466 1.762-4.716 4.643-4.998 2.884-.284 5.513 1.506 5.843 3.974.328 2.468-1.761 4.717-4.644 5M817.944 383.613c-2.883.282-5.511-1.506-5.842-3.975-.329-2.467 1.763-4.717 4.644-4.999 2.884-.283 5.511 1.506 5.842 3.974.328 2.469-1.762 4.719-4.644 5M850.778 380.602c-2.883.283-5.511-1.506-5.842-3.975-.329-2.468 1.762-4.716 4.644-4.999 2.883-.283 5.512 1.506 5.842 3.974.329 2.468-1.761 4.718-4.644 5M884.784 376.588c-2.882.281-5.511-1.507-5.841-3.977-.328-2.466 1.762-4.716 4.644-4.998 2.883-.282 5.512 1.507 5.842 3.974.328 2.469-1.762 4.718-4.645 5.001M917.617 373.577c-2.882.281-5.51-1.507-5.841-3.975-.329-2.468 1.762-4.717 4.644-5 2.883-.282 5.511 1.507 5.842 3.974.328 2.469-1.762 4.719-4.645 5.001M950.452 370.565c-2.883.283-5.511-1.505-5.842-3.975-.329-2.467 1.761-4.717 4.644-4.998 2.883-.284 5.512 1.505 5.842 3.973.329 2.469-1.761 4.719-4.644 5M984.458 367.555c-2.882.281-5.511-1.507-5.841-3.976-.328-2.467 1.762-4.717 4.643-4.999 2.884-.282 5.513 1.507 5.843 3.974.328 2.469-1.762 4.719-4.645 5.001M1017.29 363.54c-2.88.283-5.51-1.506-5.84-3.975-.33-2.468 1.76-4.716 4.64-4.999 2.89-.283 5.52 1.506 5.85 3.974.33 2.468-1.76 4.718-4.65 5M1050.13 360.529c-2.89.282-5.51-1.506-5.84-3.976-.33-2.466 1.76-4.716 4.64-4.998 2.88-.283 5.51 1.506 5.84 3.974.33 2.469-1.76 4.717-4.64 5M1084.13 357.518c-2.88.282-5.51-1.506-5.84-3.975-.33-2.467 1.76-4.717 4.65-4.999 2.88-.283 5.51 1.506 5.84 3.974.33 2.469-1.76 4.719-4.65 5M1116.97 354.507c-2.89.283-5.51-1.505-5.85-3.975-.32-2.467 1.77-4.717 4.65-4.999 2.88-.284 5.51 1.506 5.84 3.973.33 2.469-1.76 4.719-4.64 5.001M1149.8 350.493c-2.88.281-5.51-1.507-5.84-3.976-.33-2.467 1.76-4.717 4.64-4.999 2.89-.282 5.51 1.507 5.84 3.974.33 2.469-1.76 4.718-4.64 5.001M1183.81 347.482c-2.89.281-5.51-1.507-5.84-3.975-.33-2.468 1.76-4.717 4.64-5 2.88-.282 5.51 1.507 5.84 3.974.33 2.469-1.76 4.719-4.64 5.001M1216.64 344.471c-2.88.281-5.51-1.507-5.84-3.976-.33-2.467 1.76-4.717 4.64-4.998 2.89-.284 5.52 1.506 5.84 3.974.34 2.468-1.76 4.717-4.64 5M1249.48 341.46c-2.89.281-5.52-1.507-5.85-3.976-.33-2.467 1.76-4.717 4.65-4.998 2.88-.283 5.51 1.506 5.84 3.974.33 2.468-1.76 4.717-4.64 5M1283.48 337.445c-2.88.283-5.51-1.506-5.84-3.975-.33-2.468 1.76-4.716 4.64-4.999 2.89-.283 5.51 1.506 5.85 3.974.32 2.468-1.77 4.718-4.65 5M518.922 440.821c-2.883.282-5.512-1.506-5.842-3.975-.329-2.467 1.761-4.716 4.644-4.999 2.883-.283 5.511 1.506 5.842 3.974.329 2.469-1.762 4.719-4.644 5M551.756 437.81c-2.883.283-5.512-1.505-5.842-3.975-.329-2.467 1.761-4.717 4.644-4.999 2.883-.284 5.511 1.506 5.842 3.973.329 2.47-1.762 4.719-4.644 5.001M585.762 434.799c-2.883.282-5.512-1.506-5.842-3.976-.329-2.466 1.761-4.716 4.644-4.998 2.883-.283 5.511 1.506 5.841 3.974.329 2.469-1.761 4.719-4.643 5M618.595 431.788c-2.882.283-5.511-1.506-5.841-3.975-.329-2.467 1.761-4.716 4.644-4.999 2.883-.283 5.511 1.506 5.841 3.974.329 2.469-1.761 4.718-4.644 5M651.429 427.774c-2.882.281-5.511-1.507-5.841-3.976-.329-2.467 1.761-4.717 4.644-4.998 2.882-.284 5.511 1.506 5.841 3.973.329 2.469-1.761 4.718-4.644 5.001M685.436 424.763c-2.883.281-5.511-1.507-5.842-3.975-.327-2.468 1.763-4.718 4.644-5 2.884-.282 5.512 1.507 5.842 3.974.328 2.469-1.762 4.719-4.644 5.001M718.27 421.752c-2.883.282-5.511-1.506-5.841-3.976-.329-2.466 1.762-4.717 4.643-4.998 2.884-.284 5.511 1.505 5.842 3.973.328 2.47-1.762 4.719-4.644 5.001M751.104 418.741c-2.883.281-5.511-1.507-5.841-3.976-.329-2.467 1.761-4.717 4.644-4.998 2.882-.283 5.511 1.506 5.841 3.974.329 2.468-1.761 4.717-4.644 5M785.11 415.73c-2.883.281-5.512-1.507-5.842-3.975-.329-2.468 1.762-4.717 4.643-4.999 2.884-.283 5.513 1.506 5.843 3.974.328 2.468-1.761 4.718-4.644 5M817.944 411.715c-2.883.283-5.511-1.505-5.842-3.974v-.001c-.329-2.467 1.763-4.717 4.644-4.999 2.884-.284 5.511 1.506 5.842 3.973.328 2.47-1.762 4.719-4.644 5.001M850.778 408.704c-2.883.282-5.511-1.506-5.842-3.975-.329-2.467 1.762-4.717 4.644-4.999 2.883-.283 5.512 1.506 5.842 3.974.329 2.469-1.761 4.719-4.644 5M884.784 405.693c-2.882.283-5.511-1.506-5.841-3.975-.328-2.467 1.762-4.716 4.644-4.999 2.883-.283 5.512 1.506 5.842 3.974.328 2.469-1.762 4.719-4.645 5M917.617 402.682c-2.882.282-5.51-1.506-5.841-3.976-.329-2.466 1.762-4.716 4.644-4.998 2.883-.283 5.511 1.507 5.842 3.974.328 2.469-1.762 4.718-4.645 5M950.452 398.668c-2.883.282-5.511-1.507-5.842-3.975-.329-2.468 1.761-4.717 4.644-4.999 2.883-.283 5.512 1.506 5.842 3.973.329 2.469-1.761 4.719-4.644 5.001M984.458 395.657c-2.882.282-5.511-1.506-5.841-3.976-.328-2.466 1.762-4.716 4.643-4.998 2.884-.284 5.513 1.505 5.843 3.973.328 2.469-1.762 4.719-4.645 5.001M1017.29 392.646c-2.88.282-5.51-1.506-5.84-3.976-.33-2.467 1.76-4.717 4.64-4.998 2.89-.283 5.52 1.506 5.85 3.974.33 2.468-1.76 4.718-4.65 5M1050.13 389.635c-2.89.282-5.51-1.507-5.84-3.975-.33-2.468 1.76-4.717 4.64-4.999 2.88-.283 5.51 1.506 5.84 3.974.33 2.468-1.76 4.718-4.64 5M1084.13 385.62c-2.88.282-5.51-1.506-5.84-3.976-.33-2.466 1.76-4.716 4.65-4.998 2.88-.283 5.51 1.507 5.84 3.974.33 2.469-1.76 4.718-4.65 5M1116.97 382.609c-2.89.282-5.51-1.506-5.85-3.975-.32-2.467 1.77-4.717 4.65-4.999 2.88-.282 5.51 1.507 5.84 3.974.33 2.469-1.76 4.719-4.64 5M1149.8 379.598c-2.88.283-5.51-1.505-5.84-3.975-.33-2.467 1.76-4.717 4.64-4.999 2.89-.283 5.51 1.506 5.84 3.974.33 2.468-1.76 4.719-4.64 5M1183.81 376.588c-2.89.281-5.51-1.507-5.84-3.977-.33-2.466 1.76-4.716 4.64-4.998 2.88-.282 5.51 1.507 5.84 3.974.33 2.469-1.76 4.718-4.64 5.001M1216.64 372.573c-2.88.282-5.51-1.506-5.84-3.975-.33-2.468 1.76-4.717 4.64-4.999 2.89-.283 5.52 1.506 5.84 3.974.34 2.468-1.76 4.718-4.64 5M1249.48 369.562c-2.89.282-5.52-1.506-5.85-3.976-.33-2.467 1.76-4.716 4.65-4.998 2.88-.284 5.51 1.506 5.84 3.974.33 2.468-1.76 4.717-4.64 5M1283.48 366.551c-2.88.282-5.51-1.506-5.84-3.975-.33-2.468 1.76-4.718 4.64-4.999 2.89-.283 5.51 1.506 5.85 3.974.32 2.468-1.77 4.718-4.65 5M817.944 440.821c-2.883.282-5.511-1.506-5.842-3.975-.329-2.467 1.763-4.716 4.644-4.999 2.884-.283 5.511 1.506 5.842 3.974.328 2.469-1.762 4.719-4.644 5M850.778 437.81c-2.883.282-5.511-1.506-5.842-3.976-.329-2.466 1.762-4.716 4.644-4.998 2.883-.284 5.512 1.506 5.842 3.974.329 2.469-1.761 4.717-4.644 5M884.784 433.796c-2.882.281-5.511-1.507-5.841-3.976-.328-2.467 1.762-4.717 4.644-4.999 2.883-.282 5.512 1.507 5.842 3.974.328 2.469-1.762 4.718-4.645 5.001M917.617 430.784c-2.882.283-5.51-1.506-5.841-3.974-.329-2.468 1.762-4.717 4.644-5 2.883-.282 5.511 1.507 5.842 3.974.328 2.469-1.762 4.719-4.645 5M950.452 427.774c-2.883.281-5.511-1.507-5.842-3.976-.329-2.467 1.761-4.717 4.644-4.998 2.883-.284 5.512 1.506 5.842 3.973.329 2.469-1.761 4.718-4.644 5.001M984.458 424.763c-2.882.281-5.511-1.507-5.841-3.975-.328-2.468 1.762-4.717 4.643-5 2.884-.282 5.513 1.507 5.843 3.974.328 2.469-1.762 4.719-4.645 5.001M1017.29 420.748c-2.88.283-5.51-1.505-5.84-3.975-.33-2.467 1.76-4.717 4.64-4.999 2.89-.284 5.52 1.506 5.85 3.973.33 2.47-1.76 4.719-4.65 5.001M1050.13 417.737c-2.89.282-5.51-1.506-5.84-3.976-.33-2.466 1.76-4.716 4.64-4.998 2.88-.283 5.51 1.506 5.84 3.974.33 2.469-1.76 4.719-4.64 5M1084.13 414.726c-2.88.283-5.51-1.506-5.84-3.975-.33-2.467 1.76-4.716 4.65-4.999 2.88-.283 5.51 1.506 5.84 3.974.33 2.469-1.76 4.718-4.65 5M1116.97 411.715c-2.89.282-5.51-1.506-5.85-3.976-.32-2.466 1.77-4.716 4.65-4.998 2.88-.284 5.51 1.507 5.84 3.974.33 2.469-1.76 4.718-4.64 5M1149.8 407.701c-2.88.281-5.51-1.507-5.84-3.975-.33-2.468 1.76-4.718 4.64-5 2.89-.282 5.51 1.507 5.84 3.974.33 2.469-1.76 4.719-4.64 5.001M1183.81 404.689c-2.89.283-5.51-1.506-5.84-3.974-.33-2.468 1.76-4.717 4.64-5 2.88-.282 5.51 1.507 5.84 3.974.33 2.469-1.76 4.719-4.64 5M1216.64 401.679c-2.88.281-5.51-1.507-5.84-3.976-.33-2.467 1.76-4.717 4.64-4.998 2.89-.283 5.52 1.506 5.84 3.974.34 2.468-1.76 4.717-4.64 5M1249.48 398.668c-2.89.281-5.52-1.507-5.85-3.975-.33-2.468 1.76-4.717 4.65-4.999 2.88-.283 5.51 1.506 5.84 3.974.33 2.468-1.76 4.718-4.64 5M1283.48 394.653c-2.88.283-5.51-1.505-5.84-3.975-.33-2.467 1.76-4.717 4.64-4.999 2.89-.284 5.51 1.506 5.85 3.973.32 2.47-1.77 4.719-4.65 5.001M1116.97 439.817c-2.89.283-5.51-1.506-5.85-3.975-.32-2.467 1.77-4.716 4.65-4.999 2.88-.282 5.51 1.507 5.84 3.974.33 2.469-1.76 4.719-4.64 5M1149.8 436.807c-2.88.281-5.51-1.507-5.84-3.977-.33-2.466 1.76-4.716 4.64-4.998 2.89-.283 5.51 1.507 5.84 3.974.33 2.469-1.76 4.718-4.64 5.001M1183.81 433.796c-2.89.281-5.51-1.507-5.84-3.975-.33-2.468 1.76-4.718 4.64-5 2.88-.282 5.51 1.507 5.84 3.974.33 2.469-1.76 4.719-4.64 5.001M1216.64 429.781c-2.88.283-5.51-1.507-5.84-3.975-.33-2.468 1.76-4.717 4.64-4.999 2.89-.283 5.52 1.506 5.84 3.974.34 2.468-1.76 4.718-4.64 5M1249.48 426.77c-2.89.282-5.52-1.506-5.85-3.976-.33-2.467 1.76-4.717 4.65-4.998 2.88-.283 5.51 1.506 5.84 3.974.33 2.468-1.76 4.717-4.64 5M1283.48 423.759c-2.88.282-5.51-1.506-5.84-3.975-.33-2.468 1.76-4.717 4.64-4.999 2.89-.283 5.51 1.506 5.85 3.974.32 2.469-1.77 4.718-4.65 5"/>
        </g>
    </g>
</svg>
