<svg xmlns="http://www.w3.org/2000/svg" xmlns:xlink="http://www.w3.org/1999/xlink" width="16" height="15" viewBox="0 0 16 15">
    <defs>
        <path id="a" d="M14.804 13.613l-3.692-3.692a6.149 6.149 0 0 0-.557-8.106A6.136 6.136 0 0 0 6.183 0 6.136 6.136 0 0 0 1.81 1.815a6.187 6.187 0 0 0 0 8.745 6.136 6.136 0 0 0 4.373 1.815c1.32 0 2.64-.412 3.733-1.258l3.713 3.672a.826.826 0 0 0 .598.247.861.861 0 0 0 .598-.247c.31-.31.31-.846-.02-1.176zm-8.6-2.908c-1.218 0-2.332-.475-3.198-1.32-1.753-1.753-1.753-4.62 0-6.394a4.492 4.492 0 0 1 3.197-1.32c1.217 0 2.33.474 3.197 1.32.866.845 1.32 1.98 1.32 3.197s-.474 2.33-1.32 3.197c-.845.866-2 1.32-3.197 1.32z"/>
    </defs>
    <g fill="none" fill-rule="evenodd">
        <mask id="b" fill="#fff">
            <use xlink:href="#a"/>
        </mask>
        <use fill="#0B6A38" fill-rule="nonzero" xlink:href="#a"/>
        <path d="M-1.067-1.067H16V16H-1.067z" mask="url(#b)"/>
    </g>
</svg>
