<svg xmlns="http://www.w3.org/2000/svg" xmlns:xlink="http://www.w3.org/1999/xlink" width="114" height="20" class="logo_vibe"><defs xmlns="http://www.w3.org/2000/svg"><path id="a" d="M.132.19h19.071v17.407H.132z"/><path id="c" d="M.168.19h4.377v17.306H.168z"/><path id="e" d="M.152.19h15.257v17.306H.152z"/><path id="g" d="M.199.19h13.106v17.306H.199z"/></defs><g xmlns="http://www.w3.org/2000/svg" fill="none" fill-rule="evenodd"><path fill="#FFF" d="M6.161 5.023v4.322L3.199 5.023H0v8.57h3.189V9.267l2.961 4.326h3.2v-8.57zM42.013 8.64c-.187.152-.545.226-.842.226h-.684V7.178h.671c.323 0 .69.078.867.23.178.155.26.364.26.63a.727.727 0 0 1-.272.603Zm1.566 1.747c1.133-.316 1.865-1.134 1.865-2.448 0-2.207-1.752-2.916-4.06-2.916h-3.985v8.57h3.19v-2.677l1.904 2.677h3.665l-2.579-3.206ZM29.625 5.023h6.466v2.231h-3.307v1.008h3.047v2.108h-3.047v.991h3.407v2.232h-6.566zM14.415 10.492l.75-2.827h.088l.75 2.827h-1.588Zm2.613-5.469h-3.637l-3.357 8.57h3.548l.31-1.12h2.635l.31 1.12h3.548l-3.357-8.57ZM25.462 5.023l-1.572 5.166h-.089l-1.57-5.166h-3.479l3.588 8.57h3.012l3.59-8.57z"/><g transform="translate(50.54 .015)"><mask id="b" fill="#fff"><use xmlns:xlink="http://www.w3.org/1999/xlink" xlink:href="#a"/></mask><path fill="#FFF" d="M7.406 17.415.157.61A.3.3 0 0 1 .434.19h4.159a.3.3 0 0 1 .277.185l4.798 11.401L14.465.374a.3.3 0 0 1 .278-.185h4.16a.3.3 0 0 1 .275.42l-7.223 16.806a.3.3 0 0 1-.276.182H7.682a.3.3 0 0 1-.276-.182" mask="url(#b)"/></g><g transform="translate(72.434 .015)"><mask id="d" fill="#fff"><use xmlns:xlink="http://www.w3.org/1999/xlink" xlink:href="#c"/></mask><path fill="#FFF" d="M.168 17.195V.49a.3.3 0 0 1 .3-.3h3.776a.3.3 0 0 1 .3.3v16.705a.3.3 0 0 1-.3.3H.469a.3.3 0 0 1-.3-.3" mask="url(#d)"/></g><g transform="translate(81.232 .015)"><mask id="f" fill="#fff"><use xmlns:xlink="http://www.w3.org/1999/xlink" xlink:href="#e"/></mask><path fill="#FFF" d="M8.021 7.198c1.537 0 2.455-.671 2.455-1.796 0-1.34-1.335-1.62-2.455-1.62H4.529v3.416H8.02Zm.607 6.655c.832 0 1.475-.17 1.911-.508.39-.3.595-.729.595-1.238 0-1.276-1.308-1.544-2.405-1.544h-4.2v3.29h4.1ZM.152 17.195V.49a.3.3 0 0 1 .301-.3h8.251c1.824 0 3.336.43 4.374 1.247 1.028.81 1.572 1.98 1.572 3.383 0 1.679-.922 3.198-2.26 3.758 1.84.47 3.019 2.057 3.019 4.086 0 1.434-.571 2.645-1.651 3.502-1.097.87-2.67 1.33-4.548 1.33H.453a.3.3 0 0 1-.3-.301Z" mask="url(#f)"/></g><g transform="translate(99.238 .015)"><mask id="h" fill="#fff"><use xmlns:xlink="http://www.w3.org/1999/xlink" xlink:href="#g"/></mask><path fill="#FFF" d="M.2 17.195V.49a.3.3 0 0 1 .3-.3h12.505a.3.3 0 0 1 .3.3V3.71a.3.3 0 0 1-.3.3h-8.43v3.038h7.241a.3.3 0 0 1 .3.3v3.143a.3.3 0 0 1-.3.3h-7.24v2.886h8.429a.3.3 0 0 1 .3.3v3.219a.3.3 0 0 1-.3.3H.5a.3.3 0 0 1-.3-.3" mask="url(#h)"/></g></g></svg>