<?xml version="1.0" encoding="utf-8"?>
<!-- Generator: Adobe Illustrator 28.3.0, SVG Export Plug-In . SVG Version: 6.00 Build 0)  -->
<svg version="1.1" xmlns="http://www.w3.org/2000/svg" xmlns:xlink="http://www.w3.org/1999/xlink" x="0px" y="0px"
	 viewBox="0 0 58.7 56.1" style="enable-background:new 0 0 58.7 56.1;" xml:space="preserve">
<style type="text/css">
	.st0{display:none;}
	.st1{display:inline;}
	.st2{fill:#76C28D;}
	.st3{fill:#040000;}
	.st4{fill:#F09394;}
	.st5{display:inline;fill:#CAE090;}
	.st6{display:inline;opacity:0.45;}
	.st7{fill:#CAE090;}
	.st8{display:inline;fill:none;}
	.st9{fill:#F2EC50;}
</style>
<g id="레이어_1" class="st0">
	<g class="st1">
		<path class="st2" d="M42,10.5c0.7-2,0.1-4.4-1.3-5.9c-1.5-1.5-3.7-2.2-5.8-1.9c-1.8,0.2-3.7,1.2-4.1,3c-2.1-2.1-4.9-4-7.8-3.3
			c-1.5,0.4-2.7,1.4-3.8,2.5c-1.4,1.4-2.5,3.6-2.2,5.6h-0.2C4.3,15.8-3,34.3,6.8,45.6c6,6.9,16.8,8.5,25.5,7.6
			c10-1.1,19.8-6.7,22.9-16.8C58.5,25.7,52.1,14.6,42,10.5z"/>
		<g>
			<path class="st3" d="M42.4,10.6c1.2-3.3-0.9-6.8-4.1-8c-2.8-1-7.2-0.4-8.1,3c0.3-0.1,0.6-0.1,0.8-0.2c-2.4-2.4-5.8-4.5-9.2-3.1
				c-3,1.3-5.8,4.8-5.4,8.2c0.2-0.2,0.3-0.3,0.5-0.5c-0.8,0-1.8,0.7-2.5,1.1c-0.9,0.5-1.7,1-2.5,1.6c-1.6,1.2-3,2.6-4.3,4.2
				c-2.6,3.2-4.4,7-5.3,10.9c-0.9,3.9-0.8,8,0.5,11.8c1.4,4.1,4.2,7.5,7.9,9.9c3.9,2.5,8.6,3.7,13.2,4.2c4.6,0.4,9.3,0.1,13.7-1.1
				c8.8-2.4,16.7-8.8,18.6-18.1c1.9-9.2-3.1-18.5-11.1-23.1c-1-0.6-2-1-3-1.5c-0.6-0.2-0.9,0.7-0.3,1C50,14.3,56,22.5,55.6,31.4
				c-0.2,4.5-2,8.8-4.9,12.2c-2.8,3.3-6.6,5.7-10.6,7.2c-4.1,1.5-8.4,2.1-12.7,2.1c-4.4,0-9-0.8-13-2.6C10.4,48.6,7,45.8,4.9,42
				c-1.8-3.4-2.5-7.3-2.1-11.1c0.7-7.6,5.3-15.1,12-18.9c0.4-0.2,0.8-0.4,1.2-0.6c0.2-0.1,0.4-0.2,0.5-0.3c0.1,0,0.2-0.1,0.3-0.1
				c-0.2,0,0,0,0.1,0c0.2,0,0.5-0.2,0.5-0.5c-0.3-3,2.1-6,4.7-7.2c3-1.4,6.2,0.7,8.2,2.8c0.3,0.3,0.7,0.1,0.8-0.2
				c0.8-2.8,4.6-3.1,6.9-2.3c2.7,1,4.4,4,3.4,6.8C41.3,11,42.2,11.3,42.4,10.6z"/>
		</g>
	</g>
	<g class="st1">
		<g>
			<path class="st3" d="M17.2,10.8C17.3,10.8,17.3,10.8,17.2,10.8c0.1-0.1,0.1-0.1,0.1-0.2c0-0.1,0-0.1,0-0.2c0-0.1,0-0.1,0-0.2
				c0-0.1-0.1-0.1-0.1-0.2c0,0-0.1-0.1-0.1-0.1c-0.1,0-0.2-0.1-0.3-0.1c0,0-0.1,0-0.1,0c-0.1,0-0.2,0.1-0.2,0.1c0,0,0,0,0,0
				c0,0-0.1,0.1-0.1,0.2c0,0.1,0,0.1,0,0.2c0,0.1,0,0.1,0,0.2c0,0.1,0.1,0.1,0.1,0.2c0,0,0.1,0.1,0.1,0.1c0.1,0,0.2,0.1,0.3,0.1
				c0,0,0.1,0,0.1,0C17.1,10.9,17.2,10.8,17.2,10.8L17.2,10.8z"/>
		</g>
	</g>
	<g class="st1">
		<g>
			<path class="st3" d="M42,11c0.6,0,0.6-1,0-1C41.4,10,41.4,11,42,11L42,11z"/>
		</g>
	</g>
	<g class="st1">
		<g>
			<path class="st3" d="M27.2,15.7C27.2,15.7,27.2,15.7,27.2,15.7c-0.1,0-0.2,0-0.3,0c-0.1,0-0.1,0-0.2,0.1c-0.1,0-0.1,0.1-0.1,0.1
				c0,0-0.1,0.1-0.1,0.2c0,0,0,0.1,0,0.1c0,0.1,0,0.2,0.1,0.3c0,0,0.1,0.1,0.1,0.1c0.1,0.1,0.1,0.1,0.2,0.1c0,0,0,0,0.1,0
				c0.1,0,0.1,0,0.2,0c0.1,0,0.1,0,0.2-0.1c0.1,0,0.1-0.1,0.1-0.1c0,0,0.1-0.1,0.1-0.2c0,0,0-0.1,0-0.1c0-0.1,0-0.2-0.1-0.3
				c0,0-0.1-0.1-0.1-0.1C27.4,15.8,27.3,15.7,27.2,15.7L27.2,15.7z"/>
		</g>
	</g>
	<g class="st1">
		<g>
			<path class="st3" d="M29.7,15.6C29.7,15.6,29.7,15.6,29.7,15.6c0-0.1,0-0.2,0-0.3c0-0.1-0.1-0.1-0.1-0.2c0,0-0.1-0.1-0.2-0.1
				c-0.1,0-0.1,0-0.2,0c0,0-0.1,0-0.1,0c-0.1,0-0.2,0.1-0.2,0.1c0,0-0.1,0.1-0.1,0.1c0,0.1-0.1,0.2-0.1,0.3c0,0,0,0,0,0.1
				c0,0.1,0,0.1,0,0.2c0,0.1,0.1,0.1,0.1,0.2c0,0,0.1,0.1,0.2,0.1c0.1,0,0.1,0,0.2,0c0,0,0.1,0,0.1,0c0.1,0,0.2-0.1,0.2-0.1
				c0,0,0.1-0.1,0.1-0.1C29.7,15.8,29.7,15.7,29.7,15.6L29.7,15.6z"/>
		</g>
	</g>
	<g class="st1">
		<path class="st4" d="M23.6,21.4c1.2-0.8,2.3-1.5,3.5-2.3c0.2-0.1,0.4-0.3,0.6-0.4c0.1-0.1,0.2-0.1,0.3-0.2
			c0.7-0.5,1.5-0.9,2.3-1.3c0.6-0.3,1.3-0.6,2-0.7c1.1-0.1,2.2,0.4,2.8,1.3c0.2,0.2,0.3,0.5,0.4,0.8c0,0.7-0.5,1.2-1.2,1.5
			c-1.2,0.6-2.7,0.7-4,0.2c-0.9-0.3-1.6-0.9-2.5-0.9"/>
		<g>
			<path class="st3" d="M23.9,21.8c1.6-1,3.1-2.1,4.7-3.1c1.4-0.9,3.3-2.2,5-1.5c0.6,0.2,1.8,1.1,1.3,1.8c-0.4,0.7-1.5,1-2.2,1.1
				c-0.9,0.1-1.8-0.1-2.6-0.4c-0.7-0.3-1.4-0.7-2.3-0.8c-0.6-0.1-0.6,0.9,0,1c0.8,0.1,1.6,0.6,2.3,0.9c0.8,0.3,1.6,0.4,2.4,0.3
				c1.3-0.1,3.1-0.7,3.4-2.1c0.3-1.5-1.4-2.6-2.6-2.9c-1.6-0.3-3.2,0.6-4.6,1.4c-1.8,1.1-3.6,2.3-5.4,3.5
				C22.8,21.3,23.3,22.1,23.9,21.8L23.9,21.8z"/>
		</g>
	</g>
	<g class="st1">
		<g>
			<path class="st3" d="M26.7,19.8c0.3,0,0.7,0.1,1,0.1c0.1,0,0.3-0.1,0.4-0.1c0.1-0.1,0.2-0.2,0.1-0.4c0-0.1,0-0.3-0.1-0.4
				c-0.1-0.1-0.2-0.1-0.4-0.1c-0.3,0-0.7-0.1-1-0.1c-0.1,0-0.3,0.1-0.4,0.1c-0.1,0.1-0.2,0.2-0.1,0.4c0,0.1,0,0.3,0.1,0.4
				C26.4,19.7,26.6,19.8,26.7,19.8L26.7,19.8z"/>
		</g>
	</g>
	<g class="st1">
		<g>
			<path class="st3" d="M30.3,17.8c0.2,0,0.4,0.1,0.6,0.2c0,0-0.1,0-0.1-0.1c0.2,0.1,0.5,0.2,0.7,0.4c0.1,0.1,0.3,0.1,0.4,0.1
				c0.1,0,0.2-0.1,0.3-0.2c0.1-0.1,0.1-0.3,0.1-0.4c0-0.1-0.1-0.2-0.2-0.3c-0.4-0.3-0.9-0.5-1.3-0.6c-0.1,0-0.3,0-0.4,0.1
				c-0.1,0.1-0.2,0.2-0.2,0.3C29.9,17.4,30,17.7,30.3,17.8L30.3,17.8z"/>
		</g>
	</g>
	<path class="st5" d="M53.6,39.2C51.3,30.6,43.4,24.2,34,24.2c-11.2,0-20.3,9-20.3,20.1c0,2.2,0.4,4.2,1,6.2
		c5.5,2.2,11.9,2.7,17.4,2.1C41,51.6,49.6,47.1,53.6,39.2z"/>
</g>
<g id="레이어_2" class="st0">
	<g class="st1">
		<path class="st2" d="M47.3,16.9c-0.1-1.5,1.1-2.8,2.3-3.7c0.8-0.6,1.6-1.1,2.6-1.3s2-0.1,2.8,0.4c0.8,0.5,1.2,1.4,1.5,2.3
			c0.2,1,0.2,2.1-0.2,3c-0.6,1.3-1.9,2.1-3.3,2.4c-1,0.2-2.1,0.2-2.9-0.5c-0.9-0.7-1.1-2-2-2.7c-0.2-0.2-0.4-0.3-0.5-0.6
			c0-0.2,0.3-0.5,0.4-0.3"/>
		<g>
			<path class="st3" d="M47.8,16.9c-0.1-1.7,1.5-2.9,2.8-3.7c1.4-0.9,3.4-1.4,4.6,0c1.1,1.2,1.3,3.4,0.3,4.7
				c-0.9,1.2-2.6,1.9-4.1,1.7c-0.9-0.1-1.4-0.7-1.9-1.5c-0.2-0.4-0.4-0.7-0.6-1.1c-0.1-0.2-0.3-0.3-0.4-0.5
				c-0.1-0.1-0.1-0.1-0.2-0.2c0,0-0.1-0.1-0.1-0.1c-0.1-0.2-0.3-0.1-0.4,0.1c0.5,0.4,1-0.5,0.5-0.9c-0.4-0.3-0.9-0.1-1.1,0.3
				c-0.3,0.5,0,1,0.4,1.3c0.8,0.7,1.1,1.7,1.7,2.5c1.4,1.7,4.1,1.2,5.7,0.1c2-1.3,2.5-3.7,1.7-5.9c-0.4-1-1-1.8-2-2.2
				c-1-0.5-2.2-0.4-3.3,0c-1.2,0.4-2.3,1.2-3.2,2.1c-0.8,0.8-1.5,1.9-1.4,3.1C46.8,17.5,47.8,17.5,47.8,16.9L47.8,16.9z"/>
		</g>
	</g>
	<g class="st1">
		<path class="st2" d="M43,9.8c0.8-2.1,0.1-4.6-1.4-6.2c-1.6-1.6-3.9-2.3-6.1-2c-1.9,0.2-3.9,1.3-4.4,3.2c-2.2-2.3-5.2-4.2-8.3-3.5
			c-1.6,0.4-2.9,1.4-4,2.6c-1.5,1.5-2.6,3.8-2.4,5.9h-0.2c-2.2,0.9-4.2,2.2-6,3.8c-0.8-0.6-1.6-1.1-2.5-1.3c-2.3-0.7-5.1,0.3-6,2
			c-1,1.7-1.2,3.8,0.3,6.6c0.4,0.6,0.8,1.3,1.4,1.8C-0.2,30.6-0.3,40.1,5.7,47c6.4,7.3,17.8,9,27,8c10.6-1.2,21-7.1,24.3-17.8
			C60.6,25.9,53.8,14.1,43,9.8z"/>
		<g>
			<path class="st3" d="M43.5,10c1.2-3.5-0.9-7.2-4.3-8.5c-3-1.1-7.6-0.4-8.5,3.1c0.3-0.1,0.6-0.1,0.8-0.2c-2.5-2.6-6.2-4.8-9.8-3.2
				c-3.1,1.4-6,5.1-5.7,8.6c0.2-0.2,0.3-0.3,0.5-0.5c-0.5,0-1,0.3-1.4,0.5c-0.6,0.3-1.2,0.6-1.8,1c-1.2,0.7-2.3,1.6-3.4,2.5
				c0.2,0,0.4-0.1,0.6-0.1c-1.5-1.1-3.3-1.9-5.2-1.6c-1.5,0.2-3,1-3.9,2.3c-1.9,3-0.6,6.8,1.7,9.2c0-0.2-0.1-0.4-0.1-0.6
				c-3.6,7.8-3.7,17.2,1.7,24.1c5.1,6.5,13.6,8.9,21.5,9.2c7.8,0.3,15.9-1.4,22.3-6.1c6.4-4.7,10.5-12.4,9.8-20.4
				c-0.7-7.8-5.7-14.9-12.5-18.6c-0.9-0.5-1.8-0.9-2.7-1.3c-0.6-0.2-0.9,0.7-0.3,1c7,2.8,12.5,9,14.2,16.5
				c1.6,7.6-1.4,15.4-7.1,20.5c-5.7,5-13.3,7.3-20.7,7.5c-7.5,0.2-15.8-1.3-21.5-6.5c-3-2.7-5.1-6.4-5.9-10.4c-0.8-4-0.4-8.1,0.9-12
				c0.3-1,0.7-2,1.2-2.9C4,22.8,4,22.6,3.8,22.4c-2-2-3.2-5.3-1.6-7.8c0.7-1.2,2.1-1.8,3.4-2c1.6-0.2,3.1,0.5,4.4,1.5
				c0.2,0.1,0.5,0.1,0.6-0.1c1-0.8,2-1.6,3.1-2.3c0.5-0.3,1-0.6,1.5-0.9c0.4-0.2,0.9-0.6,1.3-0.6c0.2,0,0.5-0.2,0.5-0.5
				c-0.3-3.2,2.2-6.4,5-7.7c3.2-1.5,6.6,0.7,8.8,3c0.3,0.3,0.7,0.1,0.8-0.2c0.8-3,4.9-3.3,7.3-2.4c2.9,1.1,4.7,4.3,3.6,7.2
				C42.3,10.3,43.3,10.6,43.5,10z"/>
		</g>
	</g>
	<path class="st5" d="M55.3,40.2c-2.4-9.1-10.8-15.8-20.8-15.8c-11.9,0-21.5,9.5-21.5,21.3c0,2.3,0.4,4.5,1,6.5
		c5.8,2.4,12.6,2.9,18.5,2.2C42,53.4,51.1,48.7,55.3,40.2z"/>
	<g class="st1">
		<g>
			<path class="st3" d="M29.2,11.2c0.3,0.2,0.6,0.3,0.8,0.5c0.1,0.1,0.3,0.1,0.4,0.2c0.1,0,0.1,0.1,0.2,0.1c0,0,0.1,0.1,0.1,0.1
				c0.1,0,0-0.1,0,0c0-0.1-0.1-0.1-0.1-0.2c0,0,0,0,0,0c0-0.1,0-0.2,0-0.3c0.1-0.1,0.1-0.2,0-0.1c0,0,0,0-0.1,0.1
				c0,0-0.1,0.1-0.1,0.1c-0.1,0.1-0.2,0.2-0.2,0.2c-0.1,0.1-0.2,0.1-0.3,0.2c0,0-0.2,0.1-0.1,0.1c0,0-0.1,0.1-0.1,0.1
				c-0.4,0.3-0.8,0.5-1.2,0.7c-0.2,0.1-0.3,0.5-0.2,0.7c0.2,0.2,0.4,0.3,0.7,0.2c0.8-0.4,1.5-0.9,2.1-1.5c0.2-0.2,0.5-0.4,0.4-0.8
				c-0.1-0.3-0.4-0.4-0.6-0.6c-0.4-0.2-0.8-0.5-1.2-0.7c-0.2-0.1-0.6-0.1-0.7,0.2C28.9,10.8,29,11.1,29.2,11.2L29.2,11.2z"/>
		</g>
	</g>
	<g class="st1">
		<g>
			<path class="st3" d="M34.2,10.3c-0.4,0.3-0.8,0.6-1.3,0.9c-0.1,0.1-0.2,0.2-0.2,0.4c0,0.1,0,0.3,0.1,0.4c0.8,0.7,1.8,1,2.8,1.1
				c0.3,0,0.5-0.2,0.5-0.5c0-0.3-0.2-0.5-0.5-0.5c-0.1,0-0.2,0-0.3,0c0,0-0.1,0-0.1,0c0.1,0,0.1,0,0,0c-0.1,0-0.1,0-0.2,0
				c-0.2,0-0.4-0.1-0.6-0.2c0,0-0.2-0.1-0.1,0c-0.1,0-0.1,0-0.2-0.1c-0.1,0-0.2-0.1-0.3-0.1c-0.1-0.1-0.2-0.1-0.3-0.2
				c0,0-0.1-0.1-0.1-0.1c0.1,0.1,0,0-0.1-0.1c0,0.3-0.1,0.5-0.1,0.8c0.4-0.3,0.8-0.6,1.3-0.9c0.2-0.2,0.3-0.4,0.2-0.7
				C34.8,10.3,34.4,10.1,34.2,10.3L34.2,10.3z"/>
		</g>
	</g>
	<g class="st1">
		<path class="st4" d="M31.4,13.8c0.5-0.1,1.1-0.1,1.6,0c0.1,0,0.2,0.1,0.3,0.1c0.1,0.1,0.1,0.3,0.1,0.5c0,1.4-0.3,2.9-0.7,4.2
			c-0.1,0.3-0.2,0.5-0.5,0.6C31.7,17.5,31.4,15.7,31.4,13.8c-0.1,0.1-0.1,0.2-0.1,0.2"/>
		<g>
			<path class="st3" d="M31.6,14.3c0.3-0.1,0.5-0.1,0.8-0.1c0.1,0,0.2,0,0.4,0c0,0,0.2,0.1,0.2,0.1c0,0-0.1,0,0-0.1c0,0,0,0.2,0,0.3
				c0,0.2,0,0.3,0,0.5c0,0.3,0,0.6-0.1,0.9c-0.1,0.6-0.2,1.1-0.3,1.6c-0.1,0.3-0.2,0.6-0.2,0.8c0,0.1-0.1,0.4-0.2,0.4
				c0.2,0.1,0.4,0.2,0.6,0.3c-0.6-1.7-0.9-3.4-0.9-5.2c0-0.7-0.9-0.6-1,0c0,0.1,0,0.1,0,0.2c0,0.3,0.2,0.5,0.5,0.5
				c0.3,0,0.5-0.2,0.5-0.5c0-0.1,0-0.1,0-0.2c-0.3,0-0.7,0-1,0c0,1.9,0.3,3.7,0.9,5.5c0.1,0.3,0.3,0.4,0.6,0.3
				c0.7-0.2,0.9-1.1,1.1-1.7c0.2-0.8,0.4-1.6,0.4-2.4c0-0.4,0.1-0.8,0-1.1c0-0.4-0.1-0.8-0.4-1c-0.3-0.2-0.7-0.3-1-0.3
				c-0.4,0-0.8,0-1.2,0.1C30.7,13.5,30.9,14.5,31.6,14.3L31.6,14.3z"/>
		</g>
	</g>
</g>
<g id="레이어_3" class="st0">
	<g class="st1">
		<path class="st2" d="M47,26.8c-4.9-0.2-1.6-8.4-8.4-14.2c-9.2-7.8-19.8-7.3-28.4,1.6c-2.5,2.6-4.3,5.7-5.5,8.9
			C3.5,26.5,2.9,30,2.9,33.6c0,2.5,0.3,5,0.9,7.5c-1.1,1.1-2,1.2-2.8,2.5c-0.1,0.2-0.3,1.4-0.3,1.7c0,0.2,0.1,0.5,0.3,0.7
			c1.2,1.7,4,4.3,12.7,5.4c14,1.8,22.4-1.4,26-2.2c4.8-1,12-6.1,14.8-8.5c2.7-2.4,5.4-10,1.8-12.3C53.9,26.9,50.7,26.9,47,26.8z"/>
		<g>
			<path d="M47,26.3c-1.5-0.1-2.1-1.2-2.5-2.5C44,21.9,43.7,20,43,18.2c-0.8-2.3-2.2-4.4-4.1-6c-2.1-1.8-4.5-3.3-7-4.3
				c-4.7-1.9-9.9-1.7-14.5,0.4c-5.2,2.4-9.5,6.8-12,11.9c-3.2,6.4-3.9,14-2.2,21c0-0.2,0.1-0.3,0.1-0.5c-0.7,0.6-1.5,1.1-2.1,1.7
				c-0.5,0.5-0.8,1-0.9,1.7c-0.1,0.6-0.3,1.2,0.1,1.8c0.2,0.3,0.4,0.6,0.7,0.9C2.4,48.3,4.2,49.3,6,50c3.6,1.4,7.7,1.9,11.5,2.2
				c3.8,0.3,7.6,0.2,11.3-0.3c2.6-0.3,5.2-0.8,7.8-1.5c2-0.5,4.1-0.9,6-1.7c3.1-1.3,6.1-3.2,8.9-5.1c1.1-0.8,2.1-1.6,3.2-2.4
				c1-0.8,1.7-1.9,2.2-3c1.2-2.3,2.2-5.5,1.3-8.1c-1.1-3.1-5.1-3.5-8-3.7C49.1,26.4,48.1,26.3,47,26.3c-0.6,0-0.6,1,0,1
				c1.7,0.1,3.4,0.1,5.1,0.3c1.4,0.2,2.9,0.5,4.1,1.4c1.8,1.3,1.4,4.1,0.9,6c-0.6,2.1-1.6,4.2-3.3,5.6c-1.9,1.6-3.9,3-6,4.3
				c-2.3,1.4-4.7,2.8-7.4,3.6c-1.4,0.4-2.9,0.8-4.4,1.1c-4.8,1.2-9.7,1.9-14.7,1.8c-3.6,0-7.2-0.3-10.7-1c-2.3-0.5-4.7-1.1-6.8-2.4
				c-0.6-0.4-1.2-0.8-1.7-1.3c-0.4-0.4-1-1-1.1-1.5c-0.1-1.3,0.8-2.1,1.8-2.8c0.4-0.3,1.3-0.8,1.3-1.3c0-0.4-0.2-0.9-0.3-1.3
				c-0.1-0.5-0.2-1.1-0.3-1.6c-1-7.1,0.5-14.8,4.6-20.7c3.5-5.1,9.3-9.3,15.7-9.8c2.8-0.2,5.7,0.4,8.3,1.5c2.9,1.3,5.8,3.2,7.8,5.6
				c1.6,2,2.4,4.5,3,7c0.4,1.6,0.6,3.7,1.9,4.8c0.6,0.5,1.3,0.7,2.1,0.8C47.7,27.3,47.7,26.3,47,26.3z"/>
		</g>
	</g>
	<g class="st1">
		<g>
			<path d="M3.1,40.6c0.5,1.5,0.9,3.1,1.1,4.7c0,0.3,0.4,0.4,0.6,0.3c0.3-0.1,0.4-0.3,0.3-0.6c-0.2-1.6-0.6-3.2-1.1-4.7
				C3.9,39.8,2.9,40,3.1,40.6L3.1,40.6z"/>
		</g>
	</g>
	<g class="st1">
		<g>
			<path d="M42.8,20.7c0.6,2,1,4.1,1.8,6.1c0.6,1.4,1.5,2.7,2.9,3.3c0.6,0.3,1.1-0.6,0.5-0.9c-1.3-0.6-2.1-1.7-2.6-3
				c-0.7-1.9-1.1-3.9-1.7-5.8C43.6,19.8,42.6,20.1,42.8,20.7L42.8,20.7z"/>
		</g>
	</g>
	<g class="st1">
		<path class="st2" d="M17.6,10.5c0.1-1.2,0-0.8,0.1-1.2c0.2-1.2,1-2.3,2-3.1s2.2-1.4,3.4-1.8C23.8,4.2,24.6,4,25.4,4s1.6,0.4,2.1,1
			C28.2,6,27.8,7.4,27,8.1c1.2-1.5,3.3-2.3,5.3-2c1,0.2,2,0.7,2.4,1.6c0.4,0.8,0.1,1.8-0.3,2.7c-0.4,1-1,2-1.6,2.9"/>
		<g>
			<path d="M18.1,10.5c0-0.9,0-1.3,0.4-2.2c0.7-1.3,1.9-2.2,3.3-2.8c1.3-0.6,3-1.2,4.4-0.8c1.5,0.5,1.5,2.1,0.5,3.1
				c0.2,0.2,0.5,0.5,0.7,0.7c1.3-1.6,3.8-2.5,5.8-1.6c2.7,1.2,0.3,4.5-0.7,6.2c-0.3,0.6,0.5,1.1,0.9,0.5c1.3-2.1,3.7-5.8,0.5-7.5
				c-2.4-1.2-5.5-0.4-7.1,1.6c-0.4,0.5,0.2,1.2,0.7,0.7c1.1-1,1.5-2.9,0.4-4.1c-1.4-1.3-3.4-1-5.1-0.4c-1.7,0.6-3.4,1.5-4.5,3
				c-0.8,1.1-0.9,2.1-1,3.4C17.1,11.1,18.1,11.1,18.1,10.5L18.1,10.5z"/>
		</g>
	</g>
	<g class="st1">
		<g>
			<path d="M16.2,17.2c0.6,0,1.3-0.1,1.9-0.3c0.3-0.1,0.4-0.4,0.3-0.6c-0.1-0.3-0.3-0.4-0.6-0.3c-0.3,0.1-0.6,0.1-1,0.2
				c0,0,0.1,0,0.1,0c-0.3,0-0.6,0.1-0.8,0.1c-0.3,0-0.5,0.2-0.5,0.5C15.8,17,16,17.2,16.2,17.2L16.2,17.2z"/>
		</g>
	</g>
	<g class="st1">
		<g>
			<path d="M20.7,17.6c0.6,0,0.6-1,0-1C20.1,16.6,20.1,17.6,20.7,17.6L20.7,17.6z"/>
		</g>
	</g>
	<g class="st1">
		<g>
			<path d="M20.3,17.4c0.4,0.6,0.9,1.2,1.5,1.6c0.1,0.1,0.3,0.1,0.4,0.1c0.1,0,0.2-0.1,0.3-0.2c0.1-0.3,0.1-0.5-0.2-0.7
				c-0.1-0.1-0.2-0.1-0.2-0.2c0,0,0.1,0.1,0.1,0.1c-0.3-0.2-0.6-0.5-0.8-0.8c0,0,0.1,0.1,0.1,0.1c-0.1-0.1-0.2-0.3-0.3-0.5
				c-0.1-0.2-0.5-0.3-0.7-0.2C20.2,16.8,20.1,17.1,20.3,17.4L20.3,17.4z"/>
		</g>
	</g>
	<g class="st6">
		<path d="M20.5,16.7c-0.6-0.6-1.6-0.5-2.4-0.3c-0.4,0.1-0.7,0.2-1.1,0.4c-0.4,0.2-0.6,0.6-0.8,1c-0.4,1.2,0.1,2.7,1.3,3.3
			s2.8,0.2,3.5-0.8S21.5,17.6,20.5,16.7"/>
	</g>
	<g class="st1">
		<path class="st7" d="M21.1,51.4c9.1-0.1,10.8-0.9,12.3-1.2c0.9-2,1.6-4.6,1.9-6.4c0.3-2,0-4.1-0.7-6c-1.2-3.7-3.7-7.2-7-9.9
			c-2.8-2.3-6.3-4.1-10.1-4.4c-3.8-0.3-7.9,1-9.9,3.7c-0.8,1.2-1.3,2.5-1.6,3.8c-1.3,5.5-0.3,11.4,2.1,16.7c0.3,0.7,0.8,1.6,1.5,2.5
			C9.7,50.1,13.6,51.5,21.1,51.4z"/>
	</g>
	<g class="st1">
		<g>
			<path d="M18.1,19.4c0.5-0.5,1,0.4,1.1,0.7c0.2,0.7,0.2,1.5,0.2,2.3c0.1,1.6,0.1,3.3,0.1,4.9c0,0.6,1,0.6,1,0
				c0.1-2.1,0-4.2-0.2-6.4c-0.1-0.8-0.2-1.7-0.8-2.3c-0.6-0.5-1.5-0.6-2.1,0C17,19.1,17.7,19.8,18.1,19.4L18.1,19.4z"/>
		</g>
	</g>
</g>
<g id="레이어_4" class="st0">
	<g class="st1">
		<path class="st2" d="M43,10.1c-0.7-0.3-9.4-3.6-17.6-2.6C19,8.4,12.9,11.2,9.5,14C0.1,21.7-1.9,38.3,6.9,47.9
			c6.2,6.8,17.1,8.1,25.7,6.9c10-1.4,19.6-7.2,22.5-17.4C58.1,27,52.6,14.4,43,10.1z"/>
		<g>
			<path class="st3" d="M43.3,9.7c-1.5-0.6-3-1.1-4.6-1.5c-3-0.8-6-1.3-9.1-1.4c-6.5-0.2-13.4,1.9-18.8,5.6
				c-8.6,5.8-12,17.5-9.1,27.3c1.5,5.2,4.9,9.7,9.6,12.3c4.9,2.8,10.8,3.8,16.3,3.7c5.5-0.1,11-1.2,15.9-3.9
				c4.8-2.6,8.9-6.5,11-11.6c4.2-9.8,0.6-22.5-8.1-28.7C45.5,10.8,44.4,10.2,43.3,9.7c-0.6-0.3-1.1,0.6-0.5,0.9
				c9.4,4.2,14.4,16,12.1,25.8c-2.5,10.8-12.9,17-23.3,18.1c-5.4,0.6-11,0.2-16.1-1.6C10.4,51,6.3,47.5,4,42.7
				c-4.2-8.8-2.4-20.5,4.7-27.3c1.9-1.9,4.3-3.3,6.7-4.4c3-1.4,6.2-2.4,9.5-2.9c5.5-0.8,11.4,0.2,16.6,2c0.3,0.1,0.6,0.2,0.9,0.3
				c0.1,0,0.2,0.1,0.3,0.1c0.1,0,0.2,0.1,0.1,0C43.4,10.8,43.9,9.9,43.3,9.7z"/>
		</g>
	</g>
	<g class="st1">
		<g>
			<path class="st3" d="M27.5,12.8c0.6,0,0.6-1,0-1C26.8,11.8,26.8,12.8,27.5,12.8L27.5,12.8z"/>
		</g>
	</g>
	<g class="st1">
		<g>
			<path class="st3" d="M30.2,10.8C30.2,10.8,30.2,10.8,30.2,10.8c-0.1-0.1-0.1-0.2-0.2-0.2c0,0-0.1-0.1-0.2-0.1c-0.1,0-0.1,0-0.2,0
				c-0.1,0-0.1,0-0.2,0.1c0,0-0.1,0.1-0.1,0.1c-0.1,0.1-0.1,0.1-0.1,0.2c0,0,0,0.1,0,0.1c0,0.1,0,0.2,0.1,0.3c0,0,0,0,0,0.1
				c0,0.1,0.1,0.1,0.1,0.1c0,0,0.1,0.1,0.2,0.1c0.1,0,0.1,0,0.2,0c0.1,0,0.1,0,0.2-0.1c0,0,0.1-0.1,0.1-0.1c0.1-0.1,0.1-0.1,0.1-0.2
				c0,0,0-0.1,0-0.1C30.3,11,30.3,10.9,30.2,10.8L30.2,10.8z"/>
		</g>
	</g>
	<g class="st1">
		<g>
			<path class="st3" d="M29.4,13.5c0,0.2,0,0.5,0,0.7c0,0.1,0.1,0.3,0.1,0.4c0,0,0.1,0.1,0.2,0.1c0.1,0,0.1,0,0.2,0
				c0.1,0,0.3,0,0.4-0.1c0.1-0.1,0.1-0.2,0.1-0.4c0-0.2,0-0.5,0-0.7c0-0.1-0.1-0.3-0.1-0.4c0,0-0.1-0.1-0.2-0.1c-0.1,0-0.1,0-0.2,0
				c-0.1,0-0.3,0-0.4,0.1C29.4,13.2,29.3,13.4,29.4,13.5L29.4,13.5z"/>
		</g>
	</g>
	<path class="st5" d="M53.6,40.3c-2.5-8.5-10.6-14.7-20-14.5c-11.2,0.3-20.1,9.5-19.8,20.6c0.1,2.2,0.5,4.2,1.1,6.2
		c5.5,2.1,12,2.4,17.5,1.7C41.3,53.1,49.8,48.4,53.6,40.3z"/>
	<g class="st1">
		<path class="st2" d="M14.2,17.5c-2.7-1.3-2.8-1.2-4-2.6s-1.7-3.4-1.7-5.3c0-0.8,0.1-1.7,0.5-2.4c0.8-1.7,2.8-2.6,4.7-2.7
			c4.1-0.3,5.5-0.4,8.6,4c-0.9-1.3,1,1.6-1-1.4c-0.5-0.7-1.2-2.1-1.1-3c0.1-0.8,0.7-1.5,1.3-2c2.2-1.8,5.6-2.1,8.1-0.6
			s4.1,3.7,3.4,6.5"/>
		<g>
			<path class="st3" d="M14.5,17.1c-1.3-0.6-2.6-1-3.6-2.1c-1.5-1.7-2.1-3.9-1.8-6.1c0.3-2.3,2.2-3.5,4.3-3.8
				c1.4-0.2,3.1-0.3,4.5,0.1c1.8,0.5,3,2.2,4.1,3.7c0.3-0.2,0.6-0.3,0.9-0.5c-0.1-0.2-0.3-0.4-0.5-0.5c-0.3-0.2-0.6,0-0.7,0.3
				c-0.1,0.3,0.1,0.5,0.3,0.7c0.3-0.2,0.5-0.4,0.8-0.6c0.2,0.2-0.1-0.1-0.1-0.2c-0.3-0.4-0.5-0.7-0.8-1.1c-0.5-0.7-1-1.6-1.1-2.4
				c-0.1-1,0.9-1.8,1.6-2.3c0.8-0.6,1.8-0.9,2.8-1c3.7-0.4,8.2,2.7,7.4,6.8c-0.1,0.6,0.8,0.9,1,0.3c0.4-1.7,0-3.4-1.1-4.8
				c-1.1-1.4-2.7-2.5-4.4-3c-1.8-0.5-3.7-0.3-5.4,0.5c-1.5,0.7-3.2,2.2-2.8,4C20,5.8,20.5,6.6,21,7.4c0.3,0.5,0.6,1.1,1,1.5
				c0.4,0.4,1.1-0.1,0.8-0.6c0-0.1-0.1-0.1-0.1-0.2c-0.2-0.3,0-0.2-0.1,0.2c-0.2,0.1-0.5,0.2-0.7,0.3c-0.2-0.1,0,0.1,0.1,0.2
				c0.4,0.5,1.2,0,0.9-0.5c-1.1-1.6-2.4-3.3-4.2-4c-1.5-0.6-3.3-0.4-5-0.3c-2.2,0.2-4.5,1.2-5.3,3.4c-0.8,2.3-0.3,5.3,1,7.2
				c0.5,0.7,1.1,1.4,1.8,1.9c0.8,0.6,1.9,1,2.8,1.4C14.6,18.2,15.1,17.3,14.5,17.1L14.5,17.1z"/>
		</g>
	</g>
	<path class="st8" d="M30,10.8"/>
</g>
<g id="레이어_5">
	<g>
		<path class="st2" d="M42.6,11.8c0.8-2,0.1-4.4-1.4-6c-1.5-1.5-3.7-2.2-5.9-2c-1.8,0.2-3.7,1.3-4.2,3.1c-2.1-2.2-5-4-7.9-3.3
			C21.8,4,20.5,5,19.4,6.2c-1.4,1.5-2.5,3.6-2.3,5.7H17C4.3,17.2-3.1,36,6.9,47.4c6.1,7,17.1,8.7,25.9,7.7
			c10.2-1.1,20.1-6.8,23.3-17C59.4,27.2,52.9,16,42.6,11.8z"/>
		<g>
			<path class="st3" d="M43,12c1.2-3.4-0.9-6.9-4.1-8.1c-2.9-1.1-7.3-0.4-8.2,3c0.3-0.1,0.6-0.1,0.8-0.2c-2.4-2.5-6-4.6-9.5-3.1
				c-3,1.3-5.8,4.8-5.4,8.2c0.2-0.2,0.3-0.3,0.5-0.5c-0.8,0-1.8,0.7-2.5,1.1c-0.9,0.5-1.7,1.1-2.6,1.7c-1.6,1.2-3.1,2.7-4.4,4.3
				c-2.6,3.2-4.5,7-5.4,11c-0.9,4-0.9,8.2,0.5,12.1c1.5,4.2,4.3,7.7,8.1,10c4,2.5,8.7,3.8,13.4,4.2c4.7,0.4,9.5,0.1,14-1.1
				c8.9-2.5,16.9-9,18.8-18.5c1.8-9.3-3.2-18.6-11.2-23.2c-1-0.6-2-1.1-3.1-1.5c-0.6-0.2-0.9,0.7-0.3,1c8.2,3.3,14.3,11.6,14,20.6
				c-0.2,4.5-2,8.9-4.9,12.3c-2.8,3.4-6.6,5.8-10.7,7.4c-4.1,1.6-8.5,2.2-13,2.2c-4.6,0-9.2-0.8-13.4-2.6c-4-1.8-7.4-4.6-9.5-8.5
				c-1.9-3.4-2.5-7.4-2.1-11.3C3.6,24.8,8.2,17.2,15,13.4c0.4-0.2,0.8-0.4,1.2-0.6c0.2-0.1,0.4-0.2,0.6-0.3c0.3-0.1,0.2-0.1,0.3-0.1
				c0.2,0,0.5-0.2,0.5-0.5c-0.3-3,2.1-6,4.7-7.3c3.1-1.5,6.3,0.6,8.4,2.8c0.3,0.3,0.7,0.1,0.8-0.2c0.8-2.9,4.7-3.2,7-2.3
				c2.8,1,4.4,4.1,3.4,6.9C41.9,12.3,42.8,12.6,43,12z"/>
		</g>
	</g>
	<g>
		<g>
			<path class="st3" d="M17.5,12.1C17.5,12.1,17.5,12.1,17.5,12.1c0.1-0.1,0.1-0.1,0.1-0.2c0-0.1,0-0.1,0-0.2c0-0.1,0-0.1,0-0.2
				c0-0.1-0.1-0.1-0.1-0.2c0,0-0.1-0.1-0.1-0.1c-0.1,0-0.2-0.1-0.3-0.1c0,0-0.1,0-0.1,0c-0.1,0-0.2,0.1-0.2,0.1c0,0,0,0,0,0
				c0,0-0.1,0.1-0.1,0.2c0,0.1,0,0.1,0,0.2c0,0.1,0,0.1,0,0.2c0,0.1,0.1,0.1,0.1,0.2c0,0,0.1,0.1,0.1,0.1c0.1,0,0.2,0.1,0.3,0.1
				c0,0,0.1,0,0.1,0C17.3,12.2,17.4,12.2,17.5,12.1L17.5,12.1z"/>
		</g>
	</g>
	<g>
		<g>
			<path class="st3" d="M42.6,12.3c0.6,0,0.6-1,0-1C42,11.3,42,12.3,42.6,12.3L42.6,12.3z"/>
		</g>
	</g>
	<g>
		<g>
			<path class="st3" d="M28.7,15C28.7,15,28.7,15,28.7,15c-0.1-0.1-0.2-0.1-0.2-0.1c-0.1,0-0.1,0-0.2,0c-0.1,0-0.1,0-0.2,0.1
				c-0.1,0-0.1,0.1-0.1,0.1c0,0,0,0.1-0.1,0.1c0,0.1,0,0.2,0,0.3c0,0,0,0.1,0.1,0.1c0,0.1,0.1,0.1,0.2,0.2c0,0,0,0,0.1,0
				c0.1,0,0.1,0.1,0.2,0.1c0.1,0,0.1,0,0.2,0c0.1,0,0.1,0,0.2-0.1c0.1,0,0.1-0.1,0.1-0.1c0,0,0-0.1,0.1-0.1c0-0.1,0-0.2,0-0.3
				c0,0,0-0.1-0.1-0.1C28.8,15.1,28.8,15.1,28.7,15L28.7,15z"/>
		</g>
	</g>
	<g>
		<g>
			<path class="st3" d="M31.1,15.8C31.1,15.8,31.1,15.8,31.1,15.8c0-0.1,0-0.2,0-0.3c0-0.1,0-0.1-0.1-0.2c0-0.1-0.1-0.1-0.1-0.1
				c0,0-0.1-0.1-0.2-0.1c0,0-0.1,0-0.1,0c-0.1,0-0.2,0-0.3,0.1c0,0-0.1,0.1-0.1,0.1c-0.1,0.1-0.1,0.1-0.1,0.2c0,0,0,0,0,0.1
				c0,0.1,0,0.1,0,0.2c0,0.1,0,0.1,0.1,0.2c0,0.1,0.1,0.1,0.1,0.1c0,0,0.1,0.1,0.2,0.1c0,0,0.1,0,0.1,0c0.1,0,0.2,0,0.3-0.1
				c0,0,0.1-0.1,0.1-0.1C31.1,16,31.1,15.9,31.1,15.8L31.1,15.8z"/>
		</g>
	</g>
	<g>
		<path class="st9" d="M44.3,15.7c-2.6-1.2-4.3-2.1-8.4-5.5c-1.3-1.1-3.9-3.6-4.3-4.4c0-0.1-0.2-0.2-0.2-0.2c0-0.1,0-0.1,0-0.2
			c0.5-1.9,1.1-3.3,2.3-4.8c1.9,2.4,3,3.7,3.7,5.6c2,0.1,1.6-0.7,4.8-0.3c1.1,2.1,1.3,3.1,1.4,5.2c2.1,0.3,3.8,0.5,6.7,1.9
			C50.2,13.9,45.9,15.6,44.3,15.7"/>
		<g>
			<path class="st3" d="M44.6,15.3c-2.3-1.1-4.4-2.3-6.5-3.9c-1.2-1-2.4-2-3.6-3.1c-0.9-0.8-1.7-1.7-2.4-2.6c0-0.1-0.3-0.3-0.3-0.3
				c0,0.2,0.2-0.4,0.2-0.5c0.1-0.5,0.3-0.9,0.5-1.4C33,2.6,33.5,1.7,34.1,1c-0.2,0-0.5,0-0.7,0c1.4,1.7,2.8,3.4,3.6,5.4
				c0.1,0.2,0.2,0.4,0.5,0.4c0.7,0,1.3-0.1,2-0.3c0.9-0.2,1.9-0.1,2.8,0c-0.1-0.1-0.3-0.2-0.4-0.2c0.4,0.8,0.8,1.6,1,2.5
				c0.2,0.8,0.3,1.6,0.3,2.5c0,0.2,0.1,0.5,0.4,0.5c2.3,0.3,4.4,0.8,6.6,1.8C50,13.2,50,13,49.9,12.8c-0.1,0.2-0.5,0.5-0.8,0.6
				c-0.5,0.3-1,0.6-1.6,0.8c-1,0.4-2.1,0.9-3.2,1c-0.6,0-0.6,1,0,1c1.3-0.1,2.7-0.6,3.9-1.2c0.9-0.4,2.4-1,2.6-2
				c0.1-0.2,0-0.5-0.2-0.6c-2.2-1-4.4-1.6-6.8-1.9c0.1,0.2,0.2,0.3,0.4,0.5c0-1.1-0.1-2.2-0.5-3.2c-0.2-0.6-0.4-1.1-0.7-1.6
				c-0.1-0.2-0.2-0.6-0.5-0.8c-0.2-0.2-0.6-0.1-0.9-0.2c-0.8-0.1-1.6-0.1-2.5,0.1c-0.6,0.1-1.2,0.3-1.8,0.3c0.2,0.1,0.3,0.2,0.5,0.4
				c-0.9-2.2-2.4-4-3.9-5.8c-0.2-0.2-0.6-0.2-0.7,0c-1.1,1.4-1.9,3-2.4,4.8c-0.2,0.6,0.1,0.9,0.4,1.3c0.4,0.5,0.8,1,1.3,1.4
				c2.3,2.4,4.8,4.6,7.6,6.3c1.2,0.8,2.5,1.4,3.8,2C44.6,16.4,45.2,15.6,44.6,15.3L44.6,15.3z"/>
		</g>
	</g>
	<g>
		<path class="st4" d="M32.8,18.9c-0.1-0.1-0.1-0.3,0-0.5c0.5-1,1.5-1.6,2.4-2.1c0.6-0.3,1.2-0.5,1.8-0.4s1.2,1,1.2,1.6"/>
		<g>
			<path d="M33.1,18.5c0.2,0.2,0,0.2,0.1,0.1c0,0,0.1-0.1,0.1-0.2c0.1-0.1,0.1-0.2,0.2-0.3c0.2-0.2,0.4-0.4,0.6-0.6
				c0.4-0.4,0.9-0.6,1.4-0.9c0.4-0.2,1.1-0.5,1.6-0.3c0.3,0.2,0.6,0.7,0.6,1c0,0.3,0.2,0.5,0.5,0.5c0.2,0,0.5-0.2,0.5-0.5
				c-0.1-0.7-0.5-1.5-1.1-1.9c-0.8-0.5-1.8-0.1-2.5,0.2c-0.7,0.3-1.4,0.8-2,1.3c-0.5,0.5-1.3,1.5-0.7,2.1
				C32.9,19.7,33.6,19,33.1,18.5L33.1,18.5z"/>
		</g>
	</g>
	<g>
		<path class="st7" d="M40.7,29.8c-3.7-2.7-8.1-4.5-12.6-4.8c-5.6-0.4-11.3,1.6-15.7,5.3C8.5,33.6,5.9,37.9,4.5,43
			c0.7,1.3,2.9,5.3,6.1,7.2c7,4.3,13.3,5.4,22.1,4.4c7.1-0.7,13.7-3.8,18.4-8.9C49.5,39.3,45.9,33.7,40.7,29.8z"/>
	</g>
	<g>
		<g>
			<path class="st3" d="M22.5,17.8c1.3,0.8,2.5,1.7,3.8,2.5c0.5,0.3,1,0.7,1.6,0.7c0.7,0,1.3-0.4,2-0.5c2.8-0.8,5.6-1.7,8.5-2.5
				c0.6-0.2,0.4-1.1-0.3-1c-2.6,0.8-5.2,1.5-7.8,2.3c-0.6,0.2-1.3,0.4-1.9,0.6c-0.3,0.1-0.6,0.2-0.9,0c-0.3-0.1-0.6-0.4-0.9-0.6
				c-1.2-0.8-2.4-1.6-3.6-2.4C22.5,16.5,22,17.4,22.5,17.8L22.5,17.8z"/>
		</g>
	</g>
	<g>
		<g>
			<path class="st3" d="M22.5,16.6C22.5,16.6,22.5,16.7,22.5,16.6C22.5,16.6,22.5,16.6,22.5,16.6c-0.1,0.2-0.3,0.4-0.5,0.5
				c0,0-0.1,0.1-0.1,0.2c0,0.1,0,0.1,0,0.2c0,0.1,0,0.1,0,0.2c0,0.1,0.1,0.1,0.1,0.2c0.1,0.1,0.2,0.2,0.4,0.1c0.1,0,0.3-0.1,0.4-0.1
				c0.2-0.2,0.4-0.5,0.6-0.7c0-0.1,0.1-0.1,0.1-0.2c0-0.1,0-0.1,0-0.2c0-0.1,0-0.1-0.1-0.2c0-0.1-0.1-0.1-0.1-0.1
				c-0.1-0.1-0.3-0.1-0.4-0.1c0,0-0.1,0-0.1,0.1C22.6,16.5,22.6,16.5,22.5,16.6L22.5,16.6z"/>
		</g>
	</g>
	<g>
		<path d="M25.9,25.2c-1-1.3-2.1-2.8-3.7-3.1c-0.5,2.2-0.9,4.4-0.9,6.6c1.4-0.6,2.8-1.3,4.2-1.9c0.2-0.1,0.3-0.1,0.5-0.1
			c0.1,0.1,0.2,0.2,0.3,0.3c0.5,0.8,1,1.5,1.7,2.2c0.1,0.1,0.3,0.3,0.5,0.2c0.1,0,0.2-0.2,0.3-0.3c1.1-1.6,2.3-3.5,2.1-5.5
			c-1.8,0.1-3.5,0.7-4.9,1.8"/>
		<g>
			<path class="st3" d="M26.4,25c-1-1.4-2.2-3-4-3.4c-0.3-0.1-0.5,0.1-0.6,0.3c-0.5,2.2-0.9,4.5-1,6.7c0,0.4,0.4,0.6,0.8,0.4
				c0.7-0.3,1.4-0.6,2.1-1c0.3-0.2,0.7-0.3,1-0.5c0.2-0.1,0.3-0.2,0.5-0.2c0.1,0,0.4-0.2,0.5-0.2c0-0.1,0.1-0.1,0.1,0
				c0,0.1,0.1,0.1,0.1,0.2c0.1,0.1,0.2,0.3,0.3,0.4c0.2,0.3,0.4,0.5,0.6,0.8c0.4,0.4,0.8,1.1,1.4,1.3c0.7,0.2,1-0.5,1.3-0.9
				c0.4-0.5,0.7-1.1,1-1.7c0.6-1.1,1-2.3,0.9-3.6c0-0.3-0.2-0.5-0.5-0.5c-1.9,0.1-3.7,0.8-5.1,1.9c-0.5,0.4,0,1.3,0.5,0.9
				c1.3-1,2.9-1.7,4.6-1.8c-0.2-0.2-0.3-0.3-0.5-0.5c0.1,1.2-0.3,2.4-0.9,3.4c-0.3,0.5-0.6,1-1,1.5c-0.1,0.1-0.1,0.2-0.2,0.3
				c0,0,0,0,0-0.1c-0.1,0-0.3-0.3-0.4-0.4c-0.2-0.2-0.4-0.5-0.6-0.8c-0.3-0.4-0.5-1-1-1.3c-0.5-0.3-1-0.1-1.4,0.1
				c-1.3,0.6-2.6,1.2-3.9,1.8c0.3,0.1,0.5,0.3,0.8,0.4c0.1-2.2,0.4-4.3,0.9-6.5c-0.2,0.1-0.4,0.2-0.6,0.3c1.5,0.4,2.5,1.7,3.4,2.9
				C25.9,26,26.8,25.5,26.4,25L26.4,25z"/>
		</g>
	</g>
</g>
</svg>
