<?xml version="1.0" encoding="utf-8"?>
<!-- Generator: Adobe Illustrator 28.3.0, SVG Export Plug-In . SVG Version: 6.00 Build 0)  -->
<svg version="1.1" xmlns="http://www.w3.org/2000/svg" xmlns:xlink="http://www.w3.org/1999/xlink" x="0px" y="0px"
	 viewBox="0 0 192.5 201.4" style="enable-background:new 0 0 192.5 201.4;" xml:space="preserve">
<style type="text/css">
	.st0{display:none;}
	.st1{display:inline;}
	.st2{fill:#76C28D;}
	.st3{fill:#040000;}
	.st4{fill:#F09394;}
	.st5{display:inline;fill:#CAE090;}
	.st6{display:inline;opacity:0.45;}
	.st7{fill:#CAE090;}
	.st8{display:inline;fill:none;}
	.st9{fill:#F2EC50;}
	.st10{display:inline;fill:#006543;stroke:#040000;stroke-miterlimit:10;}
	.st11{display:inline;fill:#006543;stroke:#000000;stroke-miterlimit:10;}
	.st12{fill:#EFEFEF;}
	.st13{fill:#980014;}
	.st14{opacity:0.18;}
	.st15{fill:#595757;}
	.st16{fill:#C30D23;}
	.st17{fill:none;stroke:#000000;stroke-width:0.5;stroke-miterlimit:10;}
</style>
<g id="레이어_1" class="st0">
	<g class="st1">
		<path class="st2" d="M81.2,145.9c0.7-2,0.1-4.4-1.3-5.9c-1.5-1.5-3.7-2.2-5.8-1.9c-1.8,0.2-3.7,1.2-4.1,3c-2.1-2.1-4.9-4-7.8-3.3
			c-1.5,0.4-2.7,1.4-3.8,2.5c-1.4,1.4-2.5,3.6-2.2,5.6h-0.2c-12.5,5.3-19.8,23.8-10,35.1c6,6.9,16.8,8.5,25.5,7.6
			c10-1.1,19.8-6.7,22.9-16.8C97.8,161.1,91.4,150,81.2,145.9z"/>
		<g>
			<path class="st3" d="M81.7,146c1.2-3.3-0.9-6.8-4.1-8c-2.8-1-7.2-0.4-8.1,3c0.3-0.1,0.6-0.1,0.8-0.2c-2.4-2.4-5.8-4.5-9.2-3.1
				c-3,1.3-5.8,4.8-5.4,8.2c0.2-0.2,0.3-0.3,0.5-0.5c-0.8,0-1.8,0.7-2.5,1.1c-0.9,0.5-1.7,1-2.5,1.6c-1.6,1.2-3,2.6-4.3,4.2
				c-2.6,3.2-4.4,7-5.3,10.9c-0.9,3.9-0.8,8,0.5,11.8c1.4,4.1,4.2,7.5,7.9,9.9c3.9,2.5,8.6,3.7,13.2,4.2c4.6,0.4,9.3,0.1,13.7-1.1
				c8.8-2.4,16.7-8.8,18.6-18.1c1.9-9.2-3.1-18.5-11.1-23.1c-1-0.6-2-1-3-1.5c-0.6-0.2-0.9,0.7-0.3,1c8.1,3.3,14.1,11.5,13.7,20.4
				c-0.2,4.5-2,8.8-4.9,12.2c-2.8,3.3-6.6,5.7-10.6,7.2c-4.1,1.5-8.4,2.1-12.7,2.1c-4.4,0-9-0.8-13-2.6c-3.9-1.7-7.3-4.5-9.4-8.3
				c-1.8-3.4-2.5-7.3-2.1-11.1c0.7-7.6,5.3-15.1,12-18.9c0.4-0.2,0.8-0.4,1.2-0.6c0.2-0.1,0.4-0.2,0.5-0.3c0.1,0,0.2-0.1,0.3-0.1
				c-0.2,0,0,0,0.1,0c0.2,0,0.5-0.2,0.5-0.5c-0.3-3,2.1-6,4.7-7.2c3-1.4,6.2,0.7,8.2,2.8c0.3,0.3,0.7,0.1,0.8-0.2
				c0.8-2.8,4.6-3.1,6.9-2.3c2.7,1,4.4,4,3.4,6.8C80.5,146.4,81.5,146.6,81.7,146z"/>
		</g>
	</g>
	<g class="st1">
		<g>
			<path class="st3" d="M56.5,146.2C56.5,146.2,56.5,146.2,56.5,146.2c0.1-0.1,0.1-0.1,0.1-0.2c0-0.1,0-0.1,0-0.2c0-0.1,0-0.1,0-0.2
				c0-0.1-0.1-0.1-0.1-0.2c0,0-0.1-0.1-0.1-0.1c-0.1,0-0.2-0.1-0.3-0.1c0,0-0.1,0-0.1,0c-0.1,0-0.2,0.1-0.2,0.1c0,0,0,0,0,0
				c0,0-0.1,0.1-0.1,0.2c0,0.1,0,0.1,0,0.2c0,0.1,0,0.1,0,0.2c0,0.1,0.1,0.1,0.1,0.2c0,0,0.1,0.1,0.1,0.1c0.1,0,0.2,0.1,0.3,0.1
				c0,0,0.1,0,0.1,0C56.4,146.3,56.5,146.2,56.5,146.2L56.5,146.2z"/>
		</g>
	</g>
	<g class="st1">
		<g>
			<path class="st3" d="M81.3,146.4c0.6,0,0.6-1,0-1C80.6,145.4,80.6,146.4,81.3,146.4L81.3,146.4z"/>
		</g>
	</g>
	<g class="st1">
		<g>
			<path class="st3" d="M66.5,151.1C66.5,151.1,66.5,151.1,66.5,151.1c-0.1,0-0.2,0-0.3,0c-0.1,0-0.1,0-0.2,0.1
				c-0.1,0-0.1,0.1-0.1,0.1c0,0-0.1,0.1-0.1,0.2c0,0,0,0.1,0,0.1c0,0.1,0,0.2,0.1,0.3c0,0,0.1,0.1,0.1,0.1c0.1,0.1,0.1,0.1,0.2,0.1
				c0,0,0,0,0.1,0c0.1,0,0.1,0,0.2,0c0.1,0,0.1,0,0.2-0.1c0.1,0,0.1-0.1,0.1-0.1c0,0,0.1-0.1,0.1-0.2c0,0,0-0.1,0-0.1
				c0-0.1,0-0.2-0.1-0.3c0,0-0.1-0.1-0.1-0.1C66.7,151.2,66.6,151.1,66.5,151.1L66.5,151.1z"/>
		</g>
	</g>
	<g class="st1">
		<g>
			<path class="st3" d="M69,151C69,151,69,151,69,151c0-0.1,0-0.2,0-0.3c0-0.1-0.1-0.1-0.1-0.2c0,0-0.1-0.1-0.2-0.1
				c-0.1,0-0.1,0-0.2,0c0,0-0.1,0-0.1,0c-0.1,0-0.2,0.1-0.2,0.1c0,0-0.1,0.1-0.1,0.1c0,0.1-0.1,0.2-0.1,0.3c0,0,0,0,0,0.1
				c0,0.1,0,0.1,0,0.2c0,0.1,0.1,0.1,0.1,0.2c0,0,0.1,0.1,0.2,0.1c0.1,0,0.1,0,0.2,0c0,0,0.1,0,0.1,0c0.1,0,0.2-0.1,0.2-0.1
				c0,0,0.1-0.1,0.1-0.1C68.9,151.2,69,151.1,69,151L69,151z"/>
		</g>
	</g>
	<g class="st1">
		<path class="st4" d="M62.9,156.7c1.2-0.8,2.3-1.5,3.5-2.3c0.2-0.1,0.4-0.3,0.6-0.4c0.1-0.1,0.2-0.1,0.3-0.2
			c0.7-0.5,1.5-0.9,2.3-1.3c0.6-0.3,1.3-0.6,2-0.7c1.1-0.1,2.2,0.4,2.8,1.3c0.2,0.2,0.3,0.5,0.4,0.8c0,0.7-0.5,1.2-1.2,1.5
			c-1.2,0.6-2.7,0.7-4,0.2c-0.9-0.3-1.6-0.9-2.5-0.9"/>
		<g>
			<path class="st3" d="M63.1,157.2c1.6-1,3.1-2.1,4.7-3.1c1.4-0.9,3.3-2.2,5-1.5c0.6,0.2,1.8,1.1,1.3,1.8c-0.4,0.7-1.5,1-2.2,1.1
				c-0.9,0.1-1.8-0.1-2.6-0.4c-0.7-0.3-1.4-0.7-2.3-0.8c-0.6-0.1-0.6,0.9,0,1c0.8,0.1,1.6,0.6,2.3,0.9c0.8,0.3,1.6,0.4,2.4,0.3
				c1.3-0.1,3.1-0.7,3.4-2.1c0.3-1.5-1.4-2.6-2.6-2.9c-1.6-0.3-3.2,0.6-4.6,1.4c-1.8,1.1-3.6,2.3-5.4,3.5
				C62.1,156.7,62.6,157.5,63.1,157.2L63.1,157.2z"/>
		</g>
	</g>
	<g class="st1">
		<g>
			<path class="st3" d="M66,155.2c0.3,0,0.7,0.1,1,0.1c0.1,0,0.3-0.1,0.4-0.1c0.1-0.1,0.2-0.2,0.1-0.4c0-0.1,0-0.3-0.1-0.4
				c-0.1-0.1-0.2-0.1-0.4-0.1c-0.3,0-0.7-0.1-1-0.1c-0.1,0-0.3,0.1-0.4,0.1c-0.1,0.1-0.2,0.2-0.1,0.4c0,0.1,0,0.3,0.1,0.4
				C65.7,155.1,65.8,155.2,66,155.2L66,155.2z"/>
		</g>
	</g>
	<g class="st1">
		<g>
			<path class="st3" d="M69.6,153.2c0.2,0,0.4,0.1,0.6,0.2c0,0-0.1,0-0.1-0.1c0.2,0.1,0.5,0.2,0.7,0.4c0.1,0.1,0.3,0.1,0.4,0.1
				c0.1,0,0.2-0.1,0.3-0.2c0.1-0.1,0.1-0.3,0.1-0.4c0-0.1-0.1-0.2-0.2-0.3c-0.4-0.3-0.9-0.5-1.3-0.6c-0.1,0-0.3,0-0.4,0.1
				c-0.1,0.1-0.2,0.2-0.2,0.3C69.2,152.8,69.3,153.1,69.6,153.2L69.6,153.2z"/>
		</g>
	</g>
	<path class="st5" d="M92.9,174.6c-2.3-8.6-10.2-14.9-19.6-14.9c-11.2,0-20.3,9-20.3,20.1c0,2.2,0.4,4.2,1,6.2
		c5.5,2.2,11.9,2.7,17.4,2.1C80.3,187,88.9,182.5,92.9,174.6z"/>
</g>
<g id="레이어_2" class="st0">
	<g class="st1">
		<path class="st2" d="M86.6,152.3c-0.1-1.5,1.1-2.8,2.3-3.7c0.8-0.6,1.6-1.1,2.6-1.3s2-0.1,2.8,0.4c0.8,0.5,1.2,1.4,1.5,2.3
			c0.2,1,0.2,2.1-0.2,3c-0.6,1.3-1.9,2.1-3.3,2.4c-1,0.2-2.1,0.2-2.9-0.5c-0.9-0.7-1.1-2-2-2.7c-0.2-0.2-0.4-0.3-0.5-0.6
			c0-0.2,0.3-0.5,0.4-0.3"/>
		<g>
			<path class="st3" d="M87.1,152.3c-0.1-1.7,1.5-2.9,2.8-3.7c1.4-0.9,3.4-1.4,4.6,0c1.1,1.2,1.3,3.4,0.3,4.7
				c-0.9,1.2-2.6,1.9-4.1,1.7c-0.9-0.1-1.4-0.7-1.9-1.5c-0.2-0.4-0.4-0.7-0.6-1.1c-0.1-0.2-0.3-0.3-0.4-0.5
				c-0.1-0.1-0.1-0.1-0.2-0.2c0,0-0.1-0.1-0.1-0.1c-0.1-0.2-0.3-0.1-0.4,0.1c0.5,0.4,1-0.5,0.5-0.9c-0.4-0.3-0.9-0.1-1.1,0.3
				c-0.3,0.5,0,1,0.4,1.3c0.8,0.7,1.1,1.7,1.7,2.5c1.4,1.7,4.1,1.2,5.7,0.1c2-1.3,2.5-3.7,1.7-5.9c-0.4-1-1-1.8-2-2.2
				c-1-0.5-2.2-0.4-3.3,0c-1.2,0.4-2.3,1.2-3.2,2.1c-0.8,0.8-1.5,1.9-1.4,3.1C86.1,152.9,87.1,152.9,87.1,152.3L87.1,152.3z"/>
		</g>
	</g>
	<g class="st1">
		<path class="st2" d="M82.3,145.2c0.8-2.1,0.1-4.6-1.4-6.2c-1.6-1.6-3.9-2.3-6.1-2c-1.9,0.2-3.9,1.3-4.4,3.2
			c-2.2-2.3-5.2-4.2-8.3-3.5c-1.6,0.4-2.9,1.4-4,2.6c-1.5,1.5-2.6,3.8-2.4,5.9h-0.2c-2.2,0.9-4.2,2.2-6,3.8
			c-0.8-0.6-1.6-1.1-2.5-1.3c-2.3-0.7-5.1,0.3-6,2c-1,1.7-1.2,3.8,0.3,6.6c0.4,0.6,0.8,1.3,1.4,1.8C39,166,39,175.5,45,182.4
			c6.4,7.3,17.8,9,27,8c10.6-1.2,21-7.1,24.3-17.8C99.9,161.3,93,149.5,82.3,145.2z"/>
		<g>
			<path class="st3" d="M82.8,145.4c1.2-3.5-0.9-7.2-4.3-8.5c-3-1.1-7.6-0.4-8.5,3.1c0.3-0.1,0.6-0.1,0.8-0.2
				c-2.5-2.6-6.2-4.8-9.8-3.2c-3.1,1.4-6,5.1-5.7,8.6c0.2-0.2,0.3-0.3,0.5-0.5c-0.5,0-1,0.3-1.4,0.5c-0.6,0.3-1.2,0.6-1.8,1
				c-1.2,0.7-2.3,1.6-3.4,2.5c0.2,0,0.4-0.1,0.6-0.1c-1.5-1.1-3.3-1.9-5.2-1.6c-1.5,0.2-3,1-3.9,2.3c-1.9,3-0.6,6.8,1.7,9.2
				c0-0.2-0.1-0.4-0.1-0.6c-3.6,7.8-3.7,17.2,1.7,24.1c5.1,6.5,13.6,8.9,21.5,9.2c7.8,0.3,15.9-1.4,22.3-6.1
				c6.4-4.7,10.5-12.4,9.8-20.4C97,156.8,92,149.8,85.1,146c-0.9-0.5-1.8-0.9-2.7-1.3c-0.6-0.2-0.9,0.7-0.3,1
				c7,2.8,12.5,9,14.2,16.5c1.6,7.6-1.4,15.4-7.1,20.5c-5.7,5-13.3,7.3-20.7,7.5c-7.5,0.2-15.8-1.3-21.5-6.5
				c-3-2.7-5.1-6.4-5.9-10.4c-0.8-4-0.4-8.1,0.9-12c0.3-1,0.7-2,1.2-2.9c0.1-0.2,0.1-0.4-0.1-0.6c-2-2-3.2-5.3-1.6-7.8
				c0.7-1.2,2.1-1.8,3.4-2c1.6-0.2,3.1,0.5,4.4,1.5c0.2,0.1,0.5,0.1,0.6-0.1c1-0.8,2-1.6,3.1-2.3c0.5-0.3,1-0.6,1.5-0.9
				c0.4-0.2,0.9-0.6,1.3-0.6c0.2,0,0.5-0.2,0.5-0.5c-0.3-3.2,2.2-6.4,5-7.7c3.2-1.5,6.6,0.7,8.8,3c0.3,0.3,0.7,0.1,0.8-0.2
				c0.8-3,4.9-3.3,7.3-2.4c2.9,1.1,4.7,4.3,3.6,7.2C81.6,145.7,82.6,146,82.8,145.4z"/>
		</g>
	</g>
	<path class="st5" d="M94.6,175.6c-2.4-9.1-10.8-15.8-20.8-15.8c-11.9,0-21.5,9.5-21.5,21.3c0,2.3,0.4,4.5,1,6.5
		c5.8,2.4,12.6,2.9,18.5,2.2C81.3,188.8,90.4,184.1,94.6,175.6z"/>
	<g class="st1">
		<g>
			<path class="st3" d="M68.5,146.6c0.3,0.2,0.6,0.3,0.8,0.5c0.1,0.1,0.3,0.1,0.4,0.2c0.1,0,0.1,0.1,0.2,0.1c0,0,0.1,0.1,0.1,0.1
				c0.1,0,0-0.1,0,0c0-0.1-0.1-0.1-0.1-0.2c0,0,0,0,0,0c0-0.1,0-0.2,0-0.3c0.1-0.1,0.1-0.2,0-0.1c0,0,0,0-0.1,0.1
				c0,0-0.1,0.1-0.1,0.1c-0.1,0.1-0.2,0.2-0.2,0.2c-0.1,0.1-0.2,0.1-0.3,0.2c0,0-0.2,0.1-0.1,0.1c0,0-0.1,0.1-0.1,0.1
				c-0.4,0.3-0.8,0.5-1.2,0.7c-0.2,0.1-0.3,0.5-0.2,0.7c0.2,0.2,0.4,0.3,0.7,0.2c0.8-0.4,1.5-0.9,2.1-1.5c0.2-0.2,0.5-0.4,0.4-0.8
				c-0.1-0.3-0.4-0.4-0.6-0.6c-0.4-0.2-0.8-0.5-1.2-0.7c-0.2-0.1-0.6-0.1-0.7,0.2C68.2,146.2,68.2,146.5,68.5,146.6L68.5,146.6z"/>
		</g>
	</g>
	<g class="st1">
		<g>
			<path class="st3" d="M73.5,145.7c-0.4,0.3-0.8,0.6-1.3,0.9c-0.1,0.1-0.2,0.2-0.2,0.4c0,0.1,0,0.3,0.1,0.4c0.8,0.7,1.8,1,2.8,1.1
				c0.3,0,0.5-0.2,0.5-0.5c0-0.3-0.2-0.5-0.5-0.5c-0.1,0-0.2,0-0.3,0c0,0-0.1,0-0.1,0c0.1,0,0.1,0,0,0c-0.1,0-0.1,0-0.2,0
				c-0.2,0-0.4-0.1-0.6-0.2c0,0-0.2-0.1-0.1,0c-0.1,0-0.1,0-0.2-0.1c-0.1,0-0.2-0.1-0.3-0.1c-0.1-0.1-0.2-0.1-0.3-0.2
				c0,0-0.1-0.1-0.1-0.1c0.1,0.1,0,0-0.1-0.1c0,0.3-0.1,0.5-0.1,0.8c0.4-0.3,0.8-0.6,1.3-0.9c0.2-0.2,0.3-0.4,0.2-0.7
				C74,145.7,73.7,145.5,73.5,145.7L73.5,145.7z"/>
		</g>
	</g>
	<g class="st1">
		<path class="st4" d="M70.7,149.2c0.5-0.1,1.1-0.1,1.6,0c0.1,0,0.2,0.1,0.3,0.1c0.1,0.1,0.1,0.3,0.1,0.5c0,1.4-0.3,2.9-0.7,4.2
			c-0.1,0.3-0.2,0.5-0.5,0.6C70.9,152.9,70.6,151.1,70.7,149.2c-0.1,0.1-0.1,0.2-0.1,0.2"/>
		<g>
			<path class="st3" d="M70.8,149.7c0.3-0.1,0.5-0.1,0.8-0.1c0.1,0,0.2,0,0.4,0c0,0,0.2,0.1,0.2,0.1c0,0-0.1,0,0-0.1
				c0,0,0,0.2,0,0.3c0,0.2,0,0.3,0,0.5c0,0.3,0,0.6-0.1,0.9c-0.1,0.6-0.2,1.1-0.3,1.6c-0.1,0.3-0.2,0.6-0.2,0.8
				c0,0.1-0.1,0.4-0.2,0.4c0.2,0.1,0.4,0.2,0.6,0.3c-0.6-1.7-0.9-3.4-0.9-5.2c0-0.7-0.9-0.6-1,0c0,0.1,0,0.1,0,0.2
				c0,0.3,0.2,0.5,0.5,0.5c0.3,0,0.5-0.2,0.5-0.5c0-0.1,0-0.1,0-0.2c-0.3,0-0.7,0-1,0c0,1.9,0.3,3.7,0.9,5.5
				c0.1,0.3,0.3,0.4,0.6,0.3c0.7-0.2,0.9-1.1,1.1-1.7c0.2-0.8,0.4-1.6,0.4-2.4c0-0.4,0.1-0.8,0-1.1c0-0.4-0.1-0.8-0.4-1
				c-0.3-0.2-0.7-0.3-1-0.3c-0.4,0-0.8,0-1.2,0.1C70,148.9,70.2,149.9,70.8,149.7L70.8,149.7z"/>
		</g>
	</g>
</g>
<g id="레이어_3" class="st0">
	<g class="st1">
		<path class="st2" d="M86.3,162.2c-4.9-0.2-1.6-8.4-8.4-14.2c-9.2-7.8-19.8-7.3-28.4,1.6c-2.5,2.6-4.3,5.7-5.5,8.9
			c-1.2,3.4-1.8,6.9-1.9,10.4c0,2.5,0.3,5,0.9,7.5c-1.1,1.1-2,1.2-2.8,2.5c-0.1,0.2-0.3,1.4-0.3,1.7c0,0.2,0.1,0.5,0.3,0.7
			c1.2,1.7,4,4.3,12.7,5.4c14,1.8,22.4-1.4,26-2.2c4.8-1,12-6.1,14.8-8.5c2.7-2.4,5.4-10,1.8-12.3C93.1,162.3,90,162.3,86.3,162.2z"
			/>
		<g>
			<path d="M86.3,161.7c-1.5-0.1-2.1-1.2-2.5-2.5c-0.5-1.8-0.8-3.7-1.5-5.5c-0.8-2.3-2.2-4.4-4.1-6c-2.1-1.8-4.5-3.3-7-4.3
				c-4.7-1.9-9.9-1.7-14.5,0.4c-5.2,2.4-9.5,6.8-12,11.9c-3.2,6.4-3.9,14-2.2,21c0-0.2,0.1-0.3,0.1-0.5c-0.7,0.6-1.5,1.1-2.1,1.7
				c-0.5,0.5-0.8,1-0.9,1.7c-0.1,0.6-0.3,1.2,0.1,1.8c0.2,0.3,0.4,0.6,0.7,0.9c1.3,1.5,3.1,2.5,4.9,3.2c3.6,1.4,7.7,1.9,11.5,2.2
				c3.8,0.3,7.6,0.2,11.3-0.3c2.6-0.3,5.2-0.8,7.8-1.5c2-0.5,4.1-0.9,6-1.7c3.1-1.3,6.1-3.2,8.9-5.1c1.1-0.8,2.1-1.6,3.2-2.4
				c1-0.8,1.7-1.9,2.2-3c1.2-2.3,2.2-5.5,1.3-8.1c-1.1-3.1-5.1-3.5-8-3.7C88.4,161.7,87.4,161.7,86.3,161.7c-0.6,0-0.6,1,0,1
				c1.7,0.1,3.4,0.1,5.1,0.3c1.4,0.2,2.9,0.5,4.1,1.4c1.8,1.3,1.4,4.1,0.9,6c-0.6,2.1-1.6,4.2-3.3,5.6c-1.9,1.6-3.9,3-6,4.3
				c-2.3,1.4-4.7,2.8-7.4,3.6c-1.4,0.4-2.9,0.8-4.4,1.1c-4.8,1.2-9.7,1.9-14.7,1.8c-3.6,0-7.2-0.3-10.7-1c-2.3-0.5-4.7-1.1-6.8-2.4
				c-0.6-0.4-1.2-0.8-1.7-1.3c-0.4-0.4-1-1-1.1-1.5c-0.1-1.3,0.8-2.1,1.8-2.8c0.4-0.3,1.3-0.8,1.3-1.3c0-0.4-0.2-0.9-0.3-1.3
				c-0.1-0.5-0.2-1.1-0.3-1.6c-1-7.1,0.5-14.8,4.6-20.7c3.5-5.1,9.3-9.3,15.7-9.8c2.8-0.2,5.7,0.4,8.3,1.5c2.9,1.3,5.8,3.2,7.8,5.6
				c1.6,2,2.4,4.5,3,7c0.4,1.6,0.6,3.7,1.9,4.8c0.6,0.5,1.3,0.7,2.1,0.8C86.9,162.7,86.9,161.7,86.3,161.7z"/>
		</g>
	</g>
	<g class="st1">
		<g>
			<path d="M42.4,176c0.5,1.5,0.9,3.1,1.1,4.7c0,0.3,0.4,0.4,0.6,0.3c0.3-0.1,0.4-0.3,0.3-0.6c-0.2-1.6-0.6-3.2-1.1-4.7
				C43.2,175.2,42.2,175.4,42.4,176L42.4,176z"/>
		</g>
	</g>
	<g class="st1">
		<g>
			<path d="M82.1,156.1c0.6,2,1,4.1,1.8,6.1c0.6,1.4,1.5,2.7,2.9,3.3c0.6,0.3,1.1-0.6,0.5-0.9c-1.3-0.6-2.1-1.7-2.6-3
				c-0.7-1.9-1.1-3.9-1.7-5.8C82.8,155.2,81.9,155.5,82.1,156.1L82.1,156.1z"/>
		</g>
	</g>
	<g class="st1">
		<path class="st2" d="M56.9,145.9c0.1-1.2,0-0.8,0.1-1.2c0.2-1.2,1-2.3,2-3.1s2.2-1.4,3.4-1.8c0.8-0.2,1.6-0.4,2.4-0.4
			c0.8,0.1,1.6,0.4,2.1,1c0.7,0.9,0.3,2.3-0.6,3.1c1.2-1.5,3.3-2.3,5.3-2c1,0.2,2,0.7,2.4,1.6c0.4,0.8,0.1,1.8-0.3,2.7
			c-0.4,1-1,2-1.6,2.9"/>
		<g>
			<path d="M57.4,145.9c0-0.9,0-1.3,0.4-2.2c0.7-1.3,1.9-2.2,3.3-2.8c1.3-0.6,3-1.2,4.4-0.8c1.5,0.5,1.5,2.1,0.5,3.1
				c0.2,0.2,0.5,0.5,0.7,0.7c1.3-1.6,3.8-2.5,5.8-1.6c2.7,1.2,0.3,4.5-0.7,6.2c-0.3,0.6,0.5,1.1,0.9,0.5c1.3-2.1,3.7-5.8,0.5-7.5
				c-2.4-1.2-5.5-0.4-7.1,1.6c-0.4,0.5,0.2,1.2,0.7,0.7c1.1-1,1.5-2.9,0.4-4.1c-1.4-1.3-3.4-1-5.1-0.4c-1.7,0.6-3.4,1.5-4.5,3
				c-0.8,1.1-0.9,2.1-1,3.4C56.3,146.5,57.3,146.5,57.4,145.9L57.4,145.9z"/>
		</g>
	</g>
	<g class="st1">
		<g>
			<path d="M55.5,152.6c0.6,0,1.3-0.1,1.9-0.3c0.3-0.1,0.4-0.4,0.3-0.6c-0.1-0.3-0.3-0.4-0.6-0.3c-0.3,0.1-0.6,0.1-1,0.2
				c0,0,0.1,0,0.1,0c-0.3,0-0.6,0.1-0.8,0.1c-0.3,0-0.5,0.2-0.5,0.5C55,152.4,55.2,152.6,55.5,152.6L55.5,152.6z"/>
		</g>
	</g>
	<g class="st1">
		<g>
			<path d="M60,153c0.6,0,0.6-1,0-1C59.3,152,59.3,153,60,153L60,153z"/>
		</g>
	</g>
	<g class="st1">
		<g>
			<path d="M59.5,152.8c0.4,0.6,0.9,1.2,1.5,1.6c0.1,0.1,0.3,0.1,0.4,0.1c0.1,0,0.2-0.1,0.3-0.2c0.1-0.3,0.1-0.5-0.2-0.7
				c-0.1-0.1-0.2-0.1-0.2-0.2c0,0,0.1,0.1,0.1,0.1c-0.3-0.2-0.6-0.5-0.8-0.8c0,0,0.1,0.1,0.1,0.1c-0.1-0.1-0.2-0.3-0.3-0.5
				c-0.1-0.2-0.5-0.3-0.7-0.2C59.5,152.2,59.4,152.5,59.5,152.8L59.5,152.8z"/>
		</g>
	</g>
	<g class="st6">
		<path d="M59.8,152.1c-0.6-0.6-1.6-0.5-2.4-0.3c-0.4,0.1-0.7,0.2-1.1,0.4c-0.4,0.2-0.6,0.6-0.8,1c-0.4,1.2,0.1,2.7,1.3,3.3
			c1.2,0.6,2.8,0.2,3.5-0.8C61.1,154.7,60.8,153,59.8,152.1"/>
	</g>
	<g class="st1">
		<path class="st7" d="M60.4,186.8c9.1-0.1,10.8-0.9,12.3-1.2c0.9-2,1.6-4.6,1.9-6.4c0.3-2,0-4.1-0.7-6c-1.2-3.7-3.7-7.2-7-9.9
			c-2.8-2.3-6.3-4.1-10.1-4.4c-3.8-0.3-7.9,1-9.9,3.7c-0.8,1.2-1.3,2.5-1.6,3.8c-1.3,5.5-0.3,11.4,2.1,16.7c0.3,0.7,0.8,1.6,1.5,2.5
			C49,185.4,52.9,186.8,60.4,186.8z"/>
	</g>
	<g class="st1">
		<g>
			<path d="M57.4,154.8c0.5-0.5,1,0.4,1.1,0.7c0.2,0.7,0.2,1.5,0.2,2.3c0.1,1.6,0.1,3.3,0.1,4.9c0,0.6,1,0.6,1,0
				c0.1-2.1,0-4.2-0.2-6.4c-0.1-0.8-0.2-1.7-0.8-2.3c-0.6-0.5-1.5-0.6-2.1,0C56.2,154.5,57,155.2,57.4,154.8L57.4,154.8z"/>
		</g>
	</g>
</g>
<g id="레이어_4" class="st0">
	<g class="st1">
		<path class="st2" d="M82.3,145.5c-0.7-0.3-9.4-3.6-17.6-2.6c-6.4,0.8-12.5,3.7-15.9,6.5c-9.5,7.7-11.4,24.3-2.6,33.9
			c6.2,6.8,17.1,8.1,25.7,6.9c10-1.4,19.6-7.2,22.5-17.4C97.4,162.4,91.9,149.8,82.3,145.5z"/>
		<g>
			<path class="st3" d="M82.6,145.1c-1.5-0.6-3-1.1-4.6-1.5c-3-0.8-6-1.3-9.1-1.4c-6.5-0.2-13.4,1.9-18.8,5.6
				c-8.6,5.8-12,17.5-9.1,27.3c1.5,5.2,4.9,9.7,9.6,12.3c4.9,2.8,10.8,3.8,16.3,3.7c5.5-0.1,11-1.2,15.9-3.9
				c4.8-2.6,8.9-6.5,11-11.6c4.2-9.8,0.6-22.5-8.1-28.7C84.8,146.2,83.7,145.6,82.6,145.1c-0.6-0.3-1.1,0.6-0.5,0.9
				c9.4,4.2,14.4,16,12.1,25.8c-2.5,10.8-12.9,17-23.3,18.1c-5.4,0.6-11,0.2-16.1-1.6c-5-1.8-9.1-5.3-11.5-10.2
				c-4.2-8.8-2.4-20.5,4.7-27.3c1.9-1.9,4.3-3.3,6.7-4.4c3-1.4,6.2-2.4,9.5-2.9c5.5-0.8,11.4,0.2,16.6,2c0.3,0.1,0.6,0.2,0.9,0.3
				c0.1,0,0.2,0.1,0.3,0.1c0.1,0,0.2,0.1,0.1,0C82.7,146.2,83.2,145.3,82.6,145.1z"/>
		</g>
	</g>
	<g class="st1">
		<g>
			<path class="st3" d="M66.7,148.2c0.6,0,0.6-1,0-1C66.1,147.2,66.1,148.2,66.7,148.2L66.7,148.2z"/>
		</g>
	</g>
	<g class="st1">
		<g>
			<path class="st3" d="M69.5,146.2C69.5,146.2,69.5,146.2,69.5,146.2c-0.1-0.1-0.1-0.2-0.2-0.2c0,0-0.1-0.1-0.2-0.1
				c-0.1,0-0.1,0-0.2,0c-0.1,0-0.1,0-0.2,0.1c0,0-0.1,0.1-0.1,0.1c-0.1,0.1-0.1,0.1-0.1,0.2c0,0,0,0.1,0,0.1c0,0.1,0,0.2,0.1,0.3
				c0,0,0,0,0,0.1c0,0.1,0.1,0.1,0.1,0.1c0,0,0.1,0.1,0.2,0.1c0.1,0,0.1,0,0.2,0c0.1,0,0.1,0,0.2-0.1c0,0,0.1-0.1,0.1-0.1
				c0.1-0.1,0.1-0.1,0.1-0.2c0,0,0-0.1,0-0.1C69.6,146.4,69.6,146.3,69.5,146.2L69.5,146.2z"/>
		</g>
	</g>
	<g class="st1">
		<g>
			<path class="st3" d="M68.6,148.9c0,0.2,0,0.5,0,0.7c0,0.1,0.1,0.3,0.1,0.4c0,0,0.1,0.1,0.2,0.1c0.1,0,0.1,0,0.2,0
				c0.1,0,0.3,0,0.4-0.1c0.1-0.1,0.1-0.2,0.1-0.4c0-0.2,0-0.5,0-0.7c0-0.1-0.1-0.3-0.1-0.4c0,0-0.1-0.1-0.2-0.1c-0.1,0-0.1,0-0.2,0
				c-0.1,0-0.3,0-0.4,0.1C68.7,148.6,68.6,148.8,68.6,148.9L68.6,148.9z"/>
		</g>
	</g>
	<path class="st5" d="M92.9,175.7c-2.5-8.5-10.6-14.7-20-14.5c-11.2,0.3-20.1,9.5-19.8,20.6c0.1,2.2,0.5,4.2,1.1,6.2
		c5.5,2.1,12,2.4,17.5,1.7C80.6,188.5,89.1,183.8,92.9,175.7z"/>
	<g class="st1">
		<path class="st2" d="M53.5,152.9c-2.7-1.3-2.8-1.2-4-2.6c-1.2-1.4-1.7-3.4-1.7-5.3c0-0.8,0.1-1.7,0.5-2.4c0.8-1.7,2.8-2.6,4.7-2.7
			c4.1-0.3,5.5-0.4,8.6,4c-0.9-1.3,1,1.6-1-1.4c-0.5-0.7-1.2-2.1-1.1-3c0.1-0.8,0.7-1.5,1.3-2c2.2-1.8,5.6-2.1,8.1-0.6
			c2.5,1.5,4.1,3.7,3.4,6.5"/>
		<g>
			<path class="st3" d="M53.8,152.5c-1.3-0.6-2.6-1-3.6-2.1c-1.5-1.7-2.1-3.9-1.8-6.1c0.3-2.3,2.2-3.5,4.3-3.8
				c1.4-0.2,3.1-0.3,4.5,0.1c1.8,0.5,3,2.2,4.1,3.7c0.3-0.2,0.6-0.3,0.9-0.5c-0.1-0.2-0.3-0.4-0.5-0.5c-0.3-0.2-0.6,0-0.7,0.3
				c-0.1,0.3,0.1,0.5,0.3,0.7c0.3-0.2,0.5-0.4,0.8-0.6c0.2,0.2-0.1-0.1-0.1-0.2c-0.3-0.4-0.5-0.7-0.8-1.1c-0.5-0.7-1-1.6-1.1-2.4
				c-0.1-1,0.9-1.8,1.6-2.3c0.8-0.6,1.8-0.9,2.8-1c3.7-0.4,8.2,2.7,7.4,6.8c-0.1,0.6,0.8,0.9,1,0.3c0.4-1.7,0-3.4-1.1-4.8
				c-1.1-1.4-2.7-2.5-4.4-3c-1.8-0.5-3.7-0.3-5.4,0.5c-1.5,0.7-3.2,2.2-2.8,4c0.2,0.9,0.7,1.8,1.2,2.5c0.3,0.5,0.6,1.1,1,1.5
				c0.4,0.4,1.1-0.1,0.8-0.6c0-0.1-0.1-0.1-0.1-0.2c-0.2-0.3,0-0.2-0.1,0.2c-0.2,0.1-0.5,0.2-0.7,0.3c-0.2-0.1,0,0.1,0.1,0.2
				c0.4,0.5,1.2,0,0.9-0.5c-1.1-1.6-2.4-3.3-4.2-4c-1.5-0.6-3.3-0.4-5-0.3c-2.2,0.2-4.5,1.2-5.3,3.4c-0.8,2.3-0.3,5.3,1,7.2
				c0.5,0.7,1.1,1.4,1.8,1.9c0.8,0.6,1.9,1,2.8,1.4C53.8,153.6,54.4,152.7,53.8,152.5L53.8,152.5z"/>
		</g>
	</g>
	<path class="st8" d="M69.2,146.2"/>
</g>
<g id="레이어_5" class="st0">
	<g class="st1">
		<path class="st2" d="M81.8,147.2c0.8-2,0.1-4.4-1.4-6c-1.5-1.5-3.7-2.2-5.9-2c-1.8,0.2-3.7,1.3-4.2,3.1c-2.1-2.2-5-4-7.9-3.3
			c-1.5,0.4-2.8,1.4-3.8,2.5c-1.4,1.5-2.5,3.6-2.3,5.7h-0.2c-12.7,5.4-20.1,24.2-10.1,35.6c6.1,7,17.1,8.7,25.9,7.7
			c10.2-1.1,20.1-6.8,23.3-17C98.7,162.6,92.1,151.3,81.8,147.2z"/>
		<g>
			<path class="st3" d="M82.3,147.4c1.2-3.4-0.9-6.9-4.1-8.1c-2.9-1.1-7.3-0.4-8.2,3c0.3-0.1,0.6-0.1,0.8-0.2
				c-2.4-2.5-6-4.6-9.5-3.1c-3,1.3-5.8,4.8-5.4,8.2c0.2-0.2,0.3-0.3,0.5-0.5c-0.8,0-1.8,0.7-2.5,1.1c-0.9,0.5-1.7,1.1-2.6,1.7
				c-1.6,1.2-3.1,2.7-4.4,4.3c-2.6,3.2-4.5,7-5.4,11c-0.9,4-0.9,8.2,0.5,12.1c1.5,4.2,4.3,7.7,8.1,10c4,2.5,8.7,3.8,13.4,4.2
				c4.7,0.4,9.5,0.1,14-1.1c8.9-2.5,16.9-9,18.8-18.5c1.8-9.3-3.2-18.6-11.2-23.2c-1-0.6-2-1.1-3.1-1.5c-0.6-0.2-0.9,0.7-0.3,1
				c8.2,3.3,14.3,11.6,14,20.6c-0.2,4.5-2,8.9-4.9,12.3c-2.8,3.4-6.6,5.8-10.7,7.4c-4.1,1.6-8.5,2.2-13,2.2c-4.6,0-9.2-0.8-13.4-2.6
				c-4-1.8-7.4-4.6-9.5-8.5c-1.9-3.4-2.5-7.4-2.1-11.3c0.8-7.7,5.4-15.3,12.2-19.2c0.4-0.2,0.8-0.4,1.2-0.6c0.2-0.1,0.4-0.2,0.6-0.3
				c0.3-0.1,0.2-0.1,0.3-0.1c0.2,0,0.5-0.2,0.5-0.5c-0.3-3,2.1-6,4.7-7.3c3.1-1.5,6.3,0.6,8.4,2.8c0.3,0.3,0.7,0.1,0.8-0.2
				c0.8-2.9,4.7-3.2,7-2.3c2.8,1,4.4,4.1,3.4,6.9C81.1,147.7,82.1,148,82.3,147.4z"/>
		</g>
	</g>
	<g class="st1">
		<g>
			<path class="st3" d="M56.7,147.5C56.7,147.5,56.7,147.5,56.7,147.5c0.1-0.1,0.1-0.1,0.1-0.2c0-0.1,0-0.1,0-0.2c0-0.1,0-0.1,0-0.2
				c0-0.1-0.1-0.1-0.1-0.2c0,0-0.1-0.1-0.1-0.1c-0.1,0-0.2-0.1-0.3-0.1c0,0-0.1,0-0.1,0c-0.1,0-0.2,0.1-0.2,0.1c0,0,0,0,0,0
				c0,0-0.1,0.1-0.1,0.2c0,0.1,0,0.1,0,0.2c0,0.1,0,0.1,0,0.2c0,0.1,0.1,0.1,0.1,0.2c0,0,0.1,0.1,0.1,0.1c0.1,0,0.2,0.1,0.3,0.1
				c0,0,0.1,0,0.1,0C56.6,147.6,56.7,147.5,56.7,147.5L56.7,147.5z"/>
		</g>
	</g>
	<g class="st1">
		<g>
			<path class="st3" d="M81.9,147.7c0.6,0,0.6-1,0-1C81.2,146.7,81.2,147.7,81.9,147.7L81.9,147.7z"/>
		</g>
	</g>
	<g class="st1">
		<g>
			<path class="st3" d="M68,150.4C68,150.4,67.9,150.4,68,150.4c-0.1-0.1-0.2-0.1-0.2-0.1c-0.1,0-0.1,0-0.2,0c-0.1,0-0.1,0-0.2,0.1
				c-0.1,0-0.1,0.1-0.1,0.1c0,0,0,0.1-0.1,0.1c0,0.1,0,0.2,0,0.3c0,0,0,0.1,0.1,0.1c0,0.1,0.1,0.1,0.2,0.2c0,0,0,0,0.1,0
				c0.1,0,0.1,0.1,0.2,0.1c0.1,0,0.1,0,0.2,0c0.1,0,0.1,0,0.2-0.1c0.1,0,0.1-0.1,0.1-0.1c0,0,0-0.1,0.1-0.1c0-0.1,0-0.2,0-0.3
				c0,0,0-0.1-0.1-0.1C68.1,150.5,68.1,150.4,68,150.4L68,150.4z"/>
		</g>
	</g>
	<g class="st1">
		<g>
			<path class="st3" d="M70.4,151.2C70.4,151.2,70.4,151.2,70.4,151.2c0-0.1,0-0.2,0-0.3c0-0.1,0-0.1-0.1-0.2c0-0.1-0.1-0.1-0.1-0.1
				c0,0-0.1-0.1-0.2-0.1c0,0-0.1,0-0.1,0c-0.1,0-0.2,0-0.3,0.1c0,0-0.1,0.1-0.1,0.1c-0.1,0.1-0.1,0.1-0.1,0.2c0,0,0,0,0,0.1
				c0,0.1,0,0.1,0,0.2c0,0.1,0,0.1,0.1,0.2c0,0.1,0.1,0.1,0.1,0.1c0,0,0.1,0.1,0.2,0.1c0,0,0.1,0,0.1,0c0.1,0,0.2,0,0.3-0.1
				c0,0,0.1-0.1,0.1-0.1C70.3,151.4,70.4,151.3,70.4,151.2L70.4,151.2z"/>
		</g>
	</g>
	<g class="st1">
		<path class="st9" d="M83.6,151.1c-2.6-1.2-4.3-2.1-8.4-5.5c-1.3-1.1-3.9-3.6-4.3-4.4c0-0.1-0.2-0.2-0.2-0.2c0-0.1,0-0.1,0-0.2
			c0.5-1.9,1.1-3.3,2.3-4.8c1.9,2.4,3,3.7,3.7,5.6c2,0.1,1.6-0.7,4.8-0.3c1.1,2.1,1.3,3.1,1.4,5.2c2.1,0.3,3.8,0.5,6.7,1.9
			C89.4,149.3,85.2,151,83.6,151.1"/>
		<g>
			<path class="st3" d="M83.9,150.7c-2.3-1.1-4.4-2.3-6.5-3.9c-1.2-1-2.4-2-3.6-3.1c-0.9-0.8-1.7-1.7-2.4-2.6c0-0.1-0.3-0.3-0.3-0.3
				c0,0.2,0.2-0.4,0.2-0.5c0.1-0.5,0.3-0.9,0.5-1.4c0.4-0.9,0.9-1.7,1.5-2.5c-0.2,0-0.5,0-0.7,0c1.4,1.7,2.8,3.4,3.6,5.4
				c0.1,0.2,0.2,0.4,0.5,0.4c0.7,0,1.3-0.1,2-0.3c0.9-0.2,1.9-0.1,2.8,0c-0.1-0.1-0.3-0.2-0.4-0.2c0.4,0.8,0.8,1.6,1,2.5
				c0.2,0.8,0.3,1.6,0.3,2.5c0,0.2,0.1,0.5,0.4,0.5c2.3,0.3,4.4,0.8,6.6,1.8c-0.1-0.2-0.2-0.4-0.2-0.6c-0.1,0.2-0.5,0.5-0.8,0.6
				c-0.5,0.3-1,0.6-1.6,0.8c-1,0.4-2.1,0.9-3.2,1c-0.6,0-0.6,1,0,1c1.3-0.1,2.7-0.6,3.9-1.2c0.9-0.4,2.4-1,2.6-2
				c0.1-0.2,0-0.5-0.2-0.6c-2.2-1-4.4-1.6-6.8-1.9c0.1,0.2,0.2,0.3,0.4,0.5c0-1.1-0.1-2.2-0.5-3.2c-0.2-0.6-0.4-1.1-0.7-1.6
				c-0.1-0.2-0.2-0.6-0.5-0.8c-0.2-0.2-0.6-0.1-0.9-0.2c-0.8-0.1-1.6-0.1-2.5,0.1c-0.6,0.1-1.2,0.3-1.8,0.3c0.2,0.1,0.3,0.2,0.5,0.4
				c-0.9-2.2-2.4-4-3.9-5.8c-0.2-0.2-0.6-0.2-0.7,0c-1.1,1.4-1.9,3-2.4,4.8c-0.2,0.6,0.1,0.9,0.4,1.3c0.4,0.5,0.8,1,1.3,1.4
				c2.3,2.4,4.8,4.6,7.6,6.3c1.2,0.8,2.5,1.4,3.8,2C83.9,151.8,84.4,151,83.9,150.7L83.9,150.7z"/>
		</g>
	</g>
	<g class="st1">
		<path class="st4" d="M72.1,154.2c-0.1-0.1-0.1-0.3,0-0.5c0.5-1,1.5-1.6,2.4-2.1c0.6-0.3,1.2-0.5,1.8-0.4c0.6,0.1,1.2,1,1.2,1.6"/>
		<g>
			<path d="M72.4,153.9c0.2,0.2,0,0.2,0.1,0.1c0,0,0.1-0.1,0.1-0.2c0.1-0.1,0.1-0.2,0.2-0.3c0.2-0.2,0.4-0.4,0.6-0.6
				c0.4-0.4,0.9-0.6,1.4-0.9c0.4-0.2,1.1-0.5,1.6-0.3c0.3,0.2,0.6,0.7,0.6,1c0,0.3,0.2,0.5,0.5,0.5c0.2,0,0.5-0.2,0.5-0.5
				c-0.1-0.7-0.5-1.5-1.1-1.9c-0.8-0.5-1.8-0.1-2.5,0.2c-0.7,0.3-1.4,0.8-2,1.3c-0.5,0.5-1.3,1.5-0.7,2.1
				C72.2,155.1,72.9,154.3,72.4,153.9L72.4,153.9z"/>
		</g>
	</g>
	<g class="st1">
		<path class="st7" d="M80,165.2c-3.7-2.7-8.1-4.5-12.6-4.8c-5.6-0.4-11.3,1.6-15.7,5.3c-3.9,3.3-6.6,7.7-7.9,12.7
			c0.7,1.3,2.9,5.3,6.1,7.2c7,4.3,13.3,5.4,22.1,4.4c7.1-0.7,13.7-3.8,18.4-8.9C88.8,174.7,85.2,169.1,80,165.2z"/>
	</g>
	<g class="st1">
		<g>
			<path class="st3" d="M61.8,153.2c1.3,0.8,2.5,1.7,3.8,2.5c0.5,0.3,1,0.7,1.6,0.7c0.7,0,1.3-0.4,2-0.5c2.8-0.8,5.6-1.7,8.5-2.5
				c0.6-0.2,0.4-1.1-0.3-1c-2.6,0.8-5.2,1.5-7.8,2.3c-0.6,0.2-1.3,0.4-1.9,0.6c-0.3,0.1-0.6,0.2-0.9,0c-0.3-0.1-0.6-0.4-0.9-0.6
				c-1.2-0.8-2.4-1.6-3.6-2.4C61.8,151.9,61.3,152.8,61.8,153.2L61.8,153.2z"/>
		</g>
	</g>
	<g class="st1">
		<g>
			<path class="st3" d="M61.8,152C61.8,152,61.8,152,61.8,152C61.8,152,61.8,152,61.8,152c-0.1,0.2-0.3,0.4-0.5,0.5
				c0,0-0.1,0.1-0.1,0.2c0,0.1,0,0.1,0,0.2c0,0.1,0,0.1,0,0.2c0,0.1,0.1,0.1,0.1,0.2c0.1,0.1,0.2,0.2,0.4,0.1c0.1,0,0.3-0.1,0.4-0.1
				c0.2-0.2,0.4-0.5,0.6-0.7c0-0.1,0.1-0.1,0.1-0.2c0-0.1,0-0.1,0-0.2c0-0.1,0-0.1-0.1-0.2c0-0.1-0.1-0.1-0.1-0.1
				c-0.1-0.1-0.3-0.1-0.4-0.1c0,0-0.1,0-0.1,0.1C61.9,151.8,61.9,151.9,61.8,152L61.8,152z"/>
		</g>
	</g>
	<g class="st1">
		<path d="M65.2,160.6c-1-1.3-2.1-2.8-3.7-3.1c-0.5,2.2-0.9,4.4-0.9,6.6c1.4-0.6,2.8-1.3,4.2-1.9c0.2-0.1,0.3-0.1,0.5-0.1
			c0.1,0.1,0.2,0.2,0.3,0.3c0.5,0.8,1,1.5,1.7,2.2c0.1,0.1,0.3,0.3,0.5,0.2c0.1,0,0.2-0.2,0.3-0.3c1.1-1.6,2.3-3.5,2.1-5.5
			c-1.8,0.1-3.5,0.7-4.9,1.8"/>
		<g>
			<path class="st3" d="M65.7,160.3c-1-1.4-2.2-3-4-3.4c-0.3-0.1-0.5,0.1-0.6,0.3c-0.5,2.2-0.9,4.5-1,6.7c0,0.4,0.4,0.6,0.8,0.4
				c0.7-0.3,1.4-0.6,2.1-1c0.3-0.2,0.7-0.3,1-0.5c0.2-0.1,0.3-0.2,0.5-0.2c0.1,0,0.4-0.2,0.5-0.2c0-0.1,0.1-0.1,0.1,0
				c0,0.1,0.1,0.1,0.1,0.2c0.1,0.1,0.2,0.3,0.3,0.4c0.2,0.3,0.4,0.5,0.6,0.8c0.4,0.4,0.8,1.1,1.4,1.3c0.7,0.2,1-0.5,1.3-0.9
				c0.4-0.5,0.7-1.1,1-1.7c0.6-1.1,1-2.3,0.9-3.6c0-0.3-0.2-0.5-0.5-0.5c-1.9,0.1-3.7,0.8-5.1,1.9c-0.5,0.4,0,1.3,0.5,0.9
				c1.3-1,2.9-1.7,4.6-1.8c-0.2-0.2-0.3-0.3-0.5-0.5c0.1,1.2-0.3,2.4-0.9,3.4c-0.3,0.5-0.6,1-1,1.5c-0.1,0.1-0.1,0.2-0.2,0.3
				c0,0,0,0,0-0.1c-0.1,0-0.3-0.3-0.4-0.4c-0.2-0.2-0.4-0.5-0.6-0.8c-0.3-0.4-0.5-1-1-1.3c-0.5-0.3-1-0.1-1.4,0.1
				c-1.3,0.6-2.6,1.2-3.9,1.8c0.3,0.1,0.5,0.3,0.8,0.4c0.1-2.2,0.4-4.3,0.9-6.5c-0.2,0.1-0.4,0.2-0.6,0.3c1.5,0.4,2.5,1.7,3.4,2.9
				C65.2,161.4,66,160.9,65.7,160.3L65.7,160.3z"/>
		</g>
	</g>
</g>
<g id="레이어_6" class="st0">
	<path class="st10" d="M96.7,160.2c-1.5-12.4-15.3-21-30.8-19.1S39.1,154.6,40.6,167c0.1,0.8,0.2,1.5,0.4,2.3l21-3L51,182
		c5.5,3.4,12.8,5,20.4,4C86.9,184.2,98.2,172.6,96.7,160.2z"/>
</g>
<g id="레이어_7" class="st0">
	<g class="st1">
		<path class="st2" d="M82.4,145.2c0.8-2.1,0.1-4.6-1.4-6.2c-1.6-1.6-3.9-2.3-6.1-2c-1.9,0.2-3.9,1.3-4.4,3.2
			c-2.2-2.3-5.2-4.2-8.3-3.5c-1.6,0.4-2.9,1.4-4,2.6c-1.5,1.5-2.6,3.8-2.4,5.9h-0.2c-13.2,5.6-21,25.2-10.6,37.2
			c6.4,7.3,17.9,9,27,8c10.6-1.2,21-7.1,24.3-17.8C100,161.3,93.1,149.6,82.4,145.2z"/>
		<g>
			<path class="st3" d="M82.9,145.4c1.2-3.5-0.9-7.2-4.3-8.5c-3-1.1-7.6-0.4-8.5,3.1c0.3-0.1,0.6-0.1,0.8-0.2
				c-2.5-2.6-6.2-4.8-9.8-3.2c-3.1,1.4-6,5.1-5.7,8.6c0.2-0.2,0.3-0.3,0.5-0.5c-0.4,0-0.8,0.2-1.1,0.4c-0.5,0.2-1,0.5-1.5,0.8
				c-0.9,0.5-1.8,1.1-2.7,1.8c-1.7,1.3-3.2,2.8-4.5,4.4c-2.7,3.4-4.7,7.4-5.6,11.6c-0.9,4.1-0.9,8.5,0.5,12.5
				c1.5,4.3,4.5,8,8.3,10.4c4.2,2.7,9.1,4,14,4.4c4.8,0.5,9.8,0.1,14.5-1.2c9.3-2.6,17.7-9.4,19.6-19.2c2-9.7-3.3-19.5-11.7-24.4
				c-1-0.6-2.1-1.1-3.2-1.5c-0.6-0.2-0.9,0.7-0.3,1c8.6,3.5,15,12.2,14.6,21.6c-0.2,4.7-2.1,9.3-5.1,12.9c-3,3.5-7,6.1-11.3,7.8
				c-4.3,1.6-8.9,2.3-13.5,2.2c-4.7,0-9.5-0.8-13.9-2.7c-4.2-1.9-7.8-4.8-10-8.9c-1.9-3.6-2.6-7.7-2.2-11.7
				c0.8-8.1,5.7-16,12.7-20.1c0.4-0.2,0.8-0.4,1.2-0.6c0.2-0.1,0.5-0.2,0.7-0.3c0.1,0,0.2-0.1,0.3-0.1c-0.2,0,0,0,0.1,0
				c0.2,0,0.5-0.2,0.5-0.5c-0.3-3.2,2.2-6.4,5-7.7c3.2-1.5,6.6,0.7,8.8,3c0.3,0.3,0.7,0.1,0.8-0.2c0.8-3,4.9-3.3,7.3-2.4
				c2.9,1.1,4.7,4.3,3.6,7.2C81.7,145.7,82.6,146,82.9,145.4z"/>
		</g>
	</g>
	<g class="st1">
		<g>
			<path class="st3" d="M56.1,145.5C56.1,145.5,56.1,145.5,56.1,145.5c0.1-0.1,0.1-0.1,0.1-0.2c0-0.1,0-0.1,0-0.2c0-0.1,0-0.1,0-0.2
				c0-0.1-0.1-0.1-0.1-0.2c0,0-0.1-0.1-0.1-0.1c-0.1,0-0.2-0.1-0.3-0.1c0,0-0.1,0-0.1,0c-0.1,0-0.2,0.1-0.2,0.1c0,0,0,0,0,0
				c0,0-0.1,0.1-0.1,0.2c0,0.1,0,0.1,0,0.2c0,0.1,0,0.1,0,0.2c0,0.1,0.1,0.1,0.1,0.2c0,0,0.1,0.1,0.1,0.1c0.1,0,0.2,0.1,0.3,0.1
				c0,0,0.1,0,0.1,0C56,145.6,56.1,145.6,56.1,145.5L56.1,145.5z"/>
		</g>
	</g>
	<g class="st1">
		<g>
			<path class="st3" d="M82.4,145.7c0.6,0,0.6-1,0-1C81.8,144.7,81.8,145.7,82.4,145.7L82.4,145.7z"/>
		</g>
	</g>
	<g class="st1">
		<g>
			<path class="st3" d="M68.1,146.2C68.1,146.2,68.1,146.2,68.1,146.2c-0.1-0.1-0.2-0.1-0.2-0.1c-0.1,0-0.1,0-0.2,0
				c-0.1,0-0.1,0-0.2,0.1c-0.1,0-0.1,0.1-0.1,0.1c0,0,0,0.1-0.1,0.1c0,0.1,0,0.2,0,0.3c0,0,0,0.1,0.1,0.1c0,0.1,0.1,0.1,0.2,0.2
				c0,0,0,0,0.1,0c0.1,0,0.1,0.1,0.2,0.1c0.1,0,0.1,0,0.2,0c0.1,0,0.1,0,0.2-0.1c0.1,0,0.1-0.1,0.1-0.1c0,0,0-0.1,0.1-0.1
				c0-0.1,0-0.2,0-0.3c0,0,0-0.1-0.1-0.1C68.3,146.3,68.2,146.3,68.1,146.2L68.1,146.2z"/>
		</g>
	</g>
	<g class="st1">
		<g>
			<path class="st3" d="M70.7,147C70.7,146.9,70.7,146.9,70.7,147c0-0.1,0-0.2,0-0.3c0-0.1,0-0.1-0.1-0.2c0-0.1-0.1-0.1-0.1-0.1
				c0,0-0.1-0.1-0.2-0.1c0,0-0.1,0-0.1,0c-0.1,0-0.2,0-0.3,0.1c0,0-0.1,0.1-0.1,0.1c-0.1,0.1-0.1,0.1-0.1,0.2c0,0,0,0,0,0.1
				c0,0.1,0,0.1,0,0.2c0,0.1,0,0.1,0.1,0.2c0,0.1,0.1,0.1,0.1,0.1c0,0,0.1,0.1,0.2,0.1c0,0,0.1,0,0.1,0c0.1,0,0.2,0,0.3-0.1
				c0,0,0.1-0.1,0.1-0.1C70.6,147.1,70.6,147,70.7,147L70.7,147z"/>
		</g>
	</g>
	<g class="st1">
		<path class="st7" d="M83.5,160.8c-3.8-3.6-9-5.5-14.2-6.1c-3.1-0.3-6.3-0.2-9.3,0.7c-2.1,0.7-4,1.8-5.7,3.2
			c-4.9,4-7.9,10.1-8.1,16.4c-0.1,3.4,0.6,6.7,2,9.8c6.6,4.8,16,5.9,23.7,5c4.8-0.5,9.5-2,13.5-4.5c0.2-0.2,0.3-0.4,0.5-0.7
			c3.2-4.7,4.1-10.8,2.4-16.2C87.4,165.7,85.8,163,83.5,160.8z"/>
	</g>
</g>
<g id="레이어_8" class="st0">
	<path class="st11" d="M72.7,165l22.5,5.2c0.5-2.1,0.8-4.4,0.8-6.7c0-15.2-12.3-27.4-27.4-27.4c-15.2,0-27.4,12.3-27.4,27.4
		c0,15.2,12.3,27.4,27.4,27.4c6,0,11.6-1.9,16.1-5.2L72.7,165z"/>
</g>
<g id="레이어_9" class="st0">
	<g class="st1">
		<path class="st12" d="M-1.1,147.4c0,0,54.3-46.8,131.2-16.1c0,0,43.8,24.9,19.3,58.3s-101.6,34-107.6,35.1c0,0-58.9-8-58.1-29.4
			C-15.5,173.8-19.5,169.4-1.1,147.4z"/>
		<path class="st13" d="M120.3,126.3c0,0-16.7-6.3-22.8-6.4s-0.5,2.7-0.5,2.7l4.7,7.5C101.7,130,101.5,122,120.3,126.3z"/>
		<path class="st13" d="M113.4,143.5c0,0,4.5,1.6-8.9,11.8c0,0,38.5,0.1,42.4,37.4c0,0,18.8-17.4,5.5-40.1
			C152.3,152.7,134,132.1,113.4,143.5z"/>
		<path class="st13" d="M44.6,169.9c0,0,14.7,5.5,34.3-0.9c0,0,16.1,31.7,15.3,49.8c0,0-38.9,10.8-58.1,5.4
			C36.1,224.3,18.2,203.3,44.6,169.9z"/>
		<path class="st13" d="M-6.2,153.2c0,0,20-18.1,37.8-8.6c0,0-1.6,1.1,1.3,11.4c0,0-39.2-0.8-48.4,35.3
			C-15.4,191.3-23.9,177.3-6.2,153.2z"/>
		<path class="st14" d="M26,134.9c0,0,38.7-25.8,95.5-6.6c0,0,32.5,15.2,15.3,33.9s-73.6,17.5-77.9,18c0,0-43.2-5.8-43-18
			C16.1,149.8,13.1,147.2,26,134.9z"/>
		<g>
			<path class="st15" d="M104.5,141.9c2.1-0.6,4.5-0.6,6.6,0.1c1.4,0.5,2.9,1.5,3.1,3c0.1,1.4-0.8,2.6-1.8,3.5c-3,3-6.2,5.8-9.7,8.2
				L104.5,141.9"/>
			<g>
				<path d="M104.8,143.1c2-0.6,4.2-0.6,6.2,0.2c0.7,0.3,1.4,0.7,1.7,1.4c0.4,0.8-0.2,1.6-0.7,2.2c-1.4,1.7-3.1,3.2-4.8,4.6
					c-1.7,1.5-3.5,2.8-5.3,4.1c0.6,0.4,1.3,0.7,1.9,1.1c0.6-4.3,1.1-8.7,1.7-13c0.1-0.6,0.2-1.2,0.2-1.8c0.1-0.7-0.6-1.2-1.2-1.2
					c-0.7,0-1.2,0.6-1.2,1.2c-0.6,4.3-1.1,8.7-1.7,13c-0.1,0.6-0.2,1.2-0.2,1.8c-0.1,0.9,1.2,1.6,1.9,1.1c2.3-1.6,4.5-3.4,6.6-5.2
					c1-0.9,2-1.8,2.9-2.8c0.9-0.9,1.8-1.9,2.3-3.1c0.9-2.4-0.7-4.6-2.8-5.5c-2.5-1.1-5.5-1.2-8.1-0.5
					C102.6,141.1,103.3,143.5,104.8,143.1L104.8,143.1z"/>
			</g>
		</g>
		<g>
			<path class="st2" d="M45,126c0,0-0.2-3.1-0.1-3.8c0.3-2.4,0.9-3.6,1.8-5.8c0.9-2.2,2.4-4.2,4.6-5.1c2.2-0.9,5-0.5,6.4,1.4
				c0.7,1,1.1,2.2,1.3,3.4c1.5-1,3.3-1.6,5.1-1.8c0.1-2.9,0.4-6.3,3-7.7c0.9-0.5,1.9-0.6,2.9-0.5c4.2,0.3,7.7,4.4,7.4,8.6
				C84,115.9,91,117.4,96,122c4.2,3.8,6.5,9.4,7.3,15c0.8,5.6,0.2,11.3-0.5,16.9c-0.1,0.9-0.2,1.8-0.7,2.6c-0.6,0.9-1.5,1.4-2.4,1.9
				c-2.1,1.1-4.2,2.2-6.3,3.3c-10.8,5.5-22.4,10.8-34.6,10.3c-5.5-0.2-10.8-1.6-16.1-3c-1.2-0.3-2.4-0.6-3.4-1.3
				c-1.3-0.8-2.2-2-3-3.3c-4-6.2-5.6-14-4.1-21.2C33.6,135.9,38.4,129.3,45,126"/>
			<g>
				<path d="M46.3,126c-0.1-1.2-0.2-2.4-0.1-3.6c0.2-2.2,1.2-4.6,2.2-6.5c1-1.9,2.8-3.7,5.1-3.8c2.8-0.1,3.9,1.9,4.4,4.4
					c0.2,0.8,1.2,1.1,1.8,0.7c1.4-0.8,2.8-1.4,4.4-1.6c0.7-0.1,1.2-0.5,1.2-1.2c0.1-3.3,0.8-7.7,5.2-6.9c3.4,0.6,5.8,3.9,5.6,7.3
					c0,0.5,0.4,1.1,0.9,1.2c5,0.9,10.3,1.9,14.8,4.5c4.4,2.5,7.4,6.6,9,11.4c1.8,5.5,1.8,11.3,1.3,16.9c-0.1,1.5-0.3,2.9-0.5,4.4
					c-0.2,1.5-0.3,2.7-1.6,3.5c-2.4,1.6-5.2,2.7-7.7,4c-10,5.1-20.7,10-32.2,9.9c-5.9,0-11.8-1.6-17.5-3.1c-1.2-0.3-2.4-0.7-3.4-1.6
					c-1-0.9-1.8-2.2-2.5-3.4c-1.3-2.3-2.4-4.8-3-7.4c-2.7-10.9,1.7-22.9,12-28.1c1.4-0.7,0.2-2.9-1.3-2.2
					c-9.7,4.9-15,15.8-13.9,26.5c0.6,5.5,2.6,11.6,6.3,15.8c2.1,2.3,5,2.8,7.8,3.5c3.1,0.8,6.2,1.6,9.4,2c12.7,1.8,24.7-2.5,36-8.1
					c2.8-1.4,5.7-2.8,8.5-4.3c1.2-0.6,2.5-1.2,3.6-2.1c1.1-0.9,1.6-2.2,1.8-3.6c0.9-6.3,1.5-13,0.3-19.4c-1.1-6-4-11.7-8.8-15.4
					c-5.1-3.9-11.5-5.2-17.7-6.3c0.3,0.4,0.6,0.8,0.9,1.2c0.3-4.7-3.4-9.2-8.1-9.8c-2.5-0.3-4.9,0.6-6.2,2.7c-1.2,2-1.4,4.4-1.5,6.7
					c0.4-0.4,0.8-0.8,1.3-1.2c-2,0.3-3.9,0.9-5.7,1.9c0.6,0.2,1.2,0.5,1.8,0.7c-0.6-3-2.1-5.5-5.3-6.1c-2.8-0.5-5.5,0.7-7.4,2.8
					c-1.8,2.1-3,5.1-3.6,7.8c-0.4,1.9-0.3,3.8-0.2,5.7C43.8,127.6,46.4,127.6,46.3,126L46.3,126z"/>
			</g>
		</g>
		<g>
			<g>
				<path d="M103.4,129.9c1.9-2,4.7-2.6,7.3-2.7c2.8-0.1,5.6,0.2,8.3,0.8c5.5,1.3,10.6,3.8,15.2,7c9.2,6.5,17.2,16.1,20.3,27
					c1.6,5.5,1.7,11.3-0.1,16.8c-1.7,5.4-5.1,10.1-9.1,14c-8.8,8.5-20.9,13.3-32.1,17.8c-24.1,9.6-50,15.8-76,12.2
					c-6.5-0.9-13-2.4-19.4-4.2c-6-1.7-12.1-3.6-17.7-6.2c-5.2-2.3-9.9-5.6-12.7-10.6c-2.7-5-3.7-11.1-3.8-16.7
					c-0.2-10.9,3.4-22.2,10.9-30.2c7.1-7.7,17.7-12.2,28.2-11.7c2.6,0.1,5.1,0.6,7.6,1.3c1.5,0.5,2.2-2,0.7-2.4
					c-10.7-3.2-22.5-0.8-31.6,5.5c-9.5,6.5-15.6,17.1-17.5,28.4c-1,5.8-0.9,11.7,0.2,17.5c1.1,6,3.5,11.8,8.2,15.8
					c4.5,3.9,10.2,6.2,15.7,8.2c6.5,2.3,13.2,4.3,19.9,5.9c13.5,3,27.4,3.9,41.2,2.3c13.7-1.6,27-5.2,39.9-9.9
					c6.5-2.4,12.8-5,19.1-7.8c5.9-2.7,11.6-5.7,16.8-9.6c9.4-7.2,16.4-18,15.4-30.2c-1-12.1-8.5-23.1-17.4-31
					c-8.5-7.6-20.3-13.7-32-12.3c-2.7,0.3-5.3,1.2-7.2,3.3C100.5,129.4,102.3,131.1,103.4,129.9L103.4,129.9z"/>
			</g>
		</g>
		<g>
			<g>
				<path d="M66.8,125.5c0-0.1,0-0.1,0-0.2c0-0.2,0-0.3-0.1-0.5c-0.1-0.2-0.1-0.3-0.3-0.4c-0.1-0.1-0.2-0.2-0.4-0.3
					c-0.1-0.1-0.3-0.1-0.5-0.1c-0.1,0-0.2,0-0.3,0c-0.2,0.1-0.4,0.2-0.6,0.3c-0.1,0.1-0.1,0.2-0.2,0.3c-0.1,0.2-0.2,0.4-0.2,0.6
					c0,0.1,0,0.1,0,0.2c0,0.2,0,0.3,0.1,0.5c0.1,0.2,0.1,0.3,0.3,0.4c0.1,0.1,0.2,0.2,0.4,0.3c0.1,0.1,0.3,0.1,0.5,0.1
					c0.1,0,0.2,0,0.3,0c0.2-0.1,0.4-0.2,0.6-0.3c0.1-0.1,0.1-0.2,0.2-0.3C66.7,125.9,66.8,125.7,66.8,125.5L66.8,125.5z"/>
			</g>
		</g>
		<g>
			<g>
				<path d="M58.5,130.4c1.6,0,1.6-2.5,0-2.5C56.8,127.9,56.8,130.4,58.5,130.4L58.5,130.4z"/>
			</g>
		</g>
		<g>
			<path class="st4" d="M49.8,141.6c7.9-5.5,16.4-11.2,26.1-11.7c0.3,0,0.6,0,0.9,0.2c0.3,0.2,0.3,0.5,0.4,0.9
				c0.5,3.1,0.8,6.7-1.5,8.8c-1.5,1.3-3.7,1.6-5.7,1.8c-2.1,0.2-4.4,0.3-6.3-0.7c-1.9-1-3.2-3.5-2.1-5.3"/>
			<g>
				<path d="M50.4,142.7c5.8-4,11.9-8.2,18.7-10.3c1.7-0.5,3.4-0.9,5.2-1.1c0.4,0,1-0.2,1.5-0.1c0.1,0-0.2-0.5,0-0.1
					c0.1,0.1,0.1,0.4,0.1,0.5c0.1,0.8,0.2,1.6,0.3,2.4c0,1.5-0.1,3.1-1,4.3c-1,1.3-2.8,1.7-4.3,1.8c-1.9,0.2-4,0.5-5.9-0.1
					c-1.5-0.5-3.2-2.2-2.3-3.9c0.7-1.4-1.4-2.7-2.2-1.3c-0.9,1.7-0.6,3.7,0.5,5.2c1.2,1.7,3.2,2.5,5.2,2.7c2.2,0.2,4.7,0,6.8-0.5
					c1.9-0.5,3.7-1.5,4.6-3.3c1-1.8,1.1-3.9,0.9-5.9c-0.1-1.7-0.2-4.2-2.3-4.4c-2.1-0.2-4.6,0.4-6.6,0.9c-2.3,0.6-4.5,1.4-6.6,2.4
					c-4.9,2.3-9.5,5.4-13.9,8.5C47.9,141.4,49.1,143.6,50.4,142.7L50.4,142.7z"/>
			</g>
		</g>
		<g>
			<g>
				<path d="M67,133.3C67,133.3,67,133.4,67,133.3c0,0-0.1-0.1-0.1-0.2c0.6,0.8,1.1,1.7,1.5,2.6c0-0.1-0.1-0.2-0.1-0.3
					c0.1,0.3,0.2,0.5,0.3,0.8c0.1,0.3,0.3,0.6,0.6,0.7c0.3,0.2,0.7,0.2,1,0.1c0.6-0.2,1.1-0.9,0.9-1.5c-0.2-0.7-0.6-1.4-0.9-2.1
					c-0.4-0.7-0.8-1.3-1.3-1.9c-0.2-0.2-0.6-0.4-0.9-0.4c-0.3,0-0.7,0.1-0.9,0.4c-0.2,0.2-0.4,0.6-0.4,0.9c0,0.1,0,0.2,0,0.3
					C66.7,133,66.8,133.2,67,133.3L67,133.3z"/>
			</g>
		</g>
		<g>
			<g>
				<path d="M31.6,154.8c-8.8,0.3-17.8,2.4-25.5,6.6c-4.1,2.3-7.6,5.4-10.8,8.9c-3.3,3.6-6.3,7.5-8.7,11.8
					c-2.5,4.6-4.1,9.8-3.7,15.1c0.1,1.6,2.6,1.6,2.5,0c-0.6-9.2,4.8-17.3,10.6-24c3-3.4,6.1-6.5,10-8.9c3.6-2.2,7.6-3.8,11.7-4.9
					c4.5-1.3,9.2-2,13.9-2.1C33.2,157.3,33.2,154.8,31.6,154.8L31.6,154.8z"/>
			</g>
		</g>
		<g>
			<g>
				<path d="M35.4,223c-3.4-6-4.5-13.5-4-20.3c0.3-4.2,1.3-8.3,2.5-12.3c1.2-3.6,2.5-7.3,4.4-10.6c2-3.4,4.7-6.6,8.3-8.5
					c1.4-0.8,0.2-2.9-1.3-2.2c-6.9,3.8-10.6,11.3-13.1,18.4c-2.8,7.9-4.1,16.1-3,24.5c0.6,4.2,1.8,8.5,4,12.2
					C34.1,225.7,36.2,224.4,35.4,223L35.4,223z"/>
			</g>
		</g>
		<g>
			<g>
				<path d="M78.9,170c6.9,15.1,11.6,31.1,14,47.4c0.2,1.6,2.6,0.9,2.4-0.7c-2.4-16.6-7.2-32.8-14.2-48
					C80.4,167.2,78.3,168.5,78.9,170L78.9,170z"/>
			</g>
		</g>
		<g>
			<g>
				<path d="M105.1,157.7c8-1.9,16.4,2.1,23,6.4c6.4,4.2,11.8,9.8,14.5,17.1c1.5,4,2.2,8.3,1.9,12.5c-0.1,1.6,2.4,1.6,2.5,0
					c0.5-8.1-2.2-16.4-7.3-22.7c-5.3-6.5-12.7-11.4-20.5-14.4c-4.7-1.8-9.8-2.6-14.7-1.4C102.9,155.7,103.5,158.1,105.1,157.7
					L105.1,157.7z"/>
			</g>
		</g>
		<g>
			<g>
				<path d="M114.7,143.5c6.4-3.1,13.7-3.4,20.4-1c5.7,2,11.7,5.5,15,10.6c0.9,1.3,3,0.1,2.2-1.3c-3.7-5.7-10.2-9.6-16.5-11.8
					c-7.3-2.6-15.3-2.1-22.3,1.3C112,142,113.2,144.2,114.7,143.5L114.7,143.5z"/>
			</g>
		</g>
		<g>
			<g>
				<path d="M-10.8,162.3c5.4-9,12.6-16.7,21.4-22.4c4-2.6,8.9-5.3,13.1-7c3.2-1.2,6.5-2.2,9.8-3.1c2.2-0.6,4.5-1.2,6.8-1.8
					c1.5-0.3,3.1-0.7,4.7-0.8c1.6,0,1.6-2.5,0-2.5c-3.5,0.1-7.1,1.2-10.4,2.1c-3.7,1-7.4,2.1-11,3.4c-4.4,1.6-8.7,4-12.7,6.5
					c-4.5,2.8-8.7,6-12.5,9.6C-6,150.7-9.8,155.7-13,161C-13.8,162.4-11.7,163.7-10.8,162.3L-10.8,162.3z"/>
			</g>
		</g>
		<g>
			<g>
				<path d="M128.6,128.9c-5.3-2.8-10.7-5.5-16.4-7.3c-5.7-1.8-11.6-2.6-17.6-2.7c-1.6,0-1.6,2.5,0,2.5c5.7,0.2,11.4,0.9,16.9,2.6
					c5.5,1.7,10.7,4.3,15.8,7C128.7,131.9,130,129.7,128.6,128.9L128.6,128.9z"/>
			</g>
		</g>
		<g>
			<path class="st7" d="M90.3,146.6c-6.9-2.5-14.5-2-21.5-0.2c-5.2,1.3-10.3,3.4-14.6,6.6s-7.8,7.4-9.5,12.4
				c-0.3,0.9-0.5,1.7-0.7,2.6c4.9,1.3,9.9,2.5,15,2.7c12.1,0.6,23.7-4.4,34.5-9.6c2.1-1,3.4-1.8,5.4-3.1c1.3-0.8,1.9-1.4,2.3-2.2
				c0.2-0.4,0.2-0.8-0.1-1.2C98.6,150.6,94.9,148.3,90.3,146.6z"/>
		</g>
		<path class="st16" d="M96,120.6"/>
		<path class="st17" d="M104.1,144.2c0,0,0.3-5.1,6-2.3c5.7,2.8,4,5.9-1.4,9.9"/>
	</g>
</g>
<g id="레이어_10">
	<g>
		<path class="st12" d="M20.7,78.8c0,0,58.2-50.2,140.7-17.3c0,0,46.9,26.7,20.7,62.6s-109,36.5-115.5,37.6c0,0-63.2-8.5-62.3-31.5
			S1,102.4,20.7,78.8z"/>
		<path class="st13" d="M150.9,56.1c0,0-18-6.8-24.4-6.8c-6.5,0-0.5,2.9-0.5,2.9l5,8C131,60.2,130.8,51.5,150.9,56.1z"/>
		<path class="st13" d="M143.5,74.6c0,0,4.9,1.7-9.6,12.7c0,0,41.2,0.1,45.5,40.2c0,0,20.1-18.6,5.8-43
			C185.3,84.5,165.7,62.4,143.5,74.6z"/>
		<path class="st13" d="M69.7,102.9c0,0,15.8,5.9,36.8-0.9c0,0,17.3,34,16.4,53.4c0,0-41.7,11.5-62.3,5.8
			C60.6,161.2,41.4,138.7,69.7,102.9z"/>
		<path class="st13" d="M15.3,85.1c0,0,21.5-19.4,40.5-9.2c0,0-1.7,1.2,1.4,12.2c0,0-42.1-0.8-51.9,37.9
			C5.4,125.9-3.7,110.9,15.3,85.1z"/>
		<path class="st14" d="M49.8,65.4c0,0,41.5-27.7,102.4-7.1c0,0,34.8,16.3,16.4,36.3s-78.9,18.8-83.6,19.3c0,0-46.4-6.2-46.2-19.4
			S35.9,78.6,49.8,65.4z"/>
		<g>
			<path class="st15" d="M134,72.9c2.3-0.7,4.8-0.7,7,0.1c1.5,0.5,3.1,1.6,3.3,3.2c0.2,1.5-0.9,2.7-1.9,3.8
				c-3.2,3.3-6.7,6.2-10.4,8.8L134,72.9"/>
			<g>
				<path d="M134.3,74.1c2.2-0.6,4.6-0.6,6.7,0.2c0.7,0.3,1.6,0.8,1.9,1.5c0.4,0.9-0.2,1.8-0.7,2.5c-1.5,1.8-3.4,3.4-5.2,5
					c-1.8,1.6-3.7,3.1-5.7,4.5c0.6,0.4,1.3,0.7,1.9,1.1c0.6-4.7,1.2-9.3,1.8-14c0.1-0.7,0.2-1.3,0.3-2c0.1-0.7-0.6-1.2-1.2-1.2
					c-0.7,0-1.2,0.6-1.2,1.2c-0.6,4.7-1.2,9.3-1.8,14c-0.1,0.7-0.2,1.3-0.3,2c-0.1,0.9,1.2,1.6,1.9,1.1c2.5-1.7,4.8-3.6,7.1-5.6
					c1.1-1,2.1-2,3.2-3c1-1,1.9-2,2.4-3.3c1-2.5-0.7-4.8-3-5.8c-2.7-1.2-5.8-1.3-8.6-0.5C132.1,72.1,132.7,74.5,134.3,74.1
					L134.3,74.1z"/>
			</g>
		</g>
		<g>
			<path class="st2" d="M70.1,55.9c0,0-0.2-3.4-0.1-4c0.3-2.5,1-3.8,1.9-6.2c0.9-2.4,2.6-4.5,5-5.5c2.3-1,5.4-0.5,6.9,1.5
				c0.8,1,1.1,2.4,1.4,3.7c1.6-1,3.5-1.7,5.4-1.9c0.1-3.1,0.5-6.8,3.2-8.2c0.9-0.5,2.1-0.6,3.1-0.6c4.5,0.3,8.3,4.7,7.9,9.2
				c7.1,1.3,14.6,2.9,20,7.8c4.5,4.1,6.9,10.1,7.8,16.1c0.9,6,0.3,12.1-0.5,18.2c-0.1,1-0.3,2-0.8,2.8c-0.6,0.9-1.6,1.5-2.6,2
				c-2.2,1.2-4.5,2.3-6.8,3.5c-11.6,5.9-24.1,11.6-37.1,11c-5.9-0.3-11.6-1.8-17.3-3.3c-1.3-0.3-2.6-0.7-3.7-1.4
				c-1.4-0.9-2.4-2.2-3.2-3.5c-4.3-6.7-6-15-4.4-22.7S63.1,59.4,70.1,55.9"/>
			<g>
				<path d="M71.4,55.9c-0.1-1.3-0.2-2.6-0.1-3.9c0.2-2.3,1.2-4.9,2.3-6.9c1.1-2.2,3.1-4.1,5.7-4.2c3-0.1,4.2,2.1,4.7,4.8
					c0.2,0.8,1.2,1.1,1.8,0.7c1.5-0.9,3.1-1.5,4.8-1.7c0.7-0.1,1.2-0.5,1.2-1.2c0.1-3.6,0.9-8.3,5.6-7.5c3.7,0.6,6.4,4.2,6.1,7.9
					c0,0.5,0.4,1.1,0.9,1.2c5.4,1,11,2.1,15.8,4.9c4.7,2.7,8,7.2,9.7,12.3c1.9,5.8,2,11.9,1.4,17.9c-0.1,1.6-0.3,3.2-0.5,4.8
					c-0.2,1.6-0.3,3.1-1.8,4c-2.6,1.7-5.5,3-8.3,4.3c-10.8,5.5-22.5,10.9-34.9,10.7c-6.4-0.1-12.8-1.7-18.9-3.5
					c-1.4-0.4-2.6-0.9-3.7-2c-1-1-1.8-2.3-2.5-3.6c-1.4-2.5-2.4-5.1-3.1-7.8C55,75.4,59.8,62.5,70.8,56.9c1.4-0.7,0.2-2.9-1.3-2.2
					c-10.3,5.2-16,16.8-14.9,28.1c0.6,5.9,2.7,12.4,6.7,16.9c2.2,2.5,5.3,3.1,8.3,3.9c3.4,0.9,6.8,1.7,10.2,2.2
					c13.7,2,26.6-2.7,38.7-8.6c3.1-1.5,6.1-3.1,9.2-4.7c1.3-0.7,2.7-1.3,3.8-2.3c1.2-1,1.6-2.4,1.8-3.9c0.9-6.8,1.6-13.9,0.3-20.7
					c-1.2-6.4-4.3-12.6-9.6-16.5c-5.4-4-12.2-5.4-18.7-6.6c0.3,0.4,0.6,0.8,0.9,1.2c0.3-5-3.7-9.8-8.7-10.4
					c-2.6-0.3-5.1,0.6-6.5,2.9c-1.3,2.1-1.5,4.7-1.6,7.1c0.4-0.4,0.8-0.8,1.2-1.2c-2.2,0.3-4.2,0.9-6.1,2.1c0.6,0.2,1.2,0.5,1.8,0.7
					c-0.6-3.1-2.1-5.7-5.4-6.4c-3.1-0.6-6.1,0.7-8.1,3.1c-1.9,2.3-3.2,5.6-3.8,8.5c-0.4,1.9-0.3,3.8-0.2,5.8
					C69,57.4,71.5,57.5,71.4,55.9L71.4,55.9z"/>
			</g>
		</g>
		<g>
			<g>
				<path d="M132.7,60c2-2.2,5.1-2.8,8-2.9c2.9-0.1,5.8,0.2,8.7,0.9c5.9,1.3,11.4,4,16.3,7.4c10,6.9,18.7,17.3,22.1,29.1
					c1.7,5.9,1.9,12.1,0,18c-1.8,5.7-5.3,10.8-9.6,14.9c-9.5,9.3-22.5,14.5-34.6,19.4c-26,10.4-53.9,17.1-81.9,13.1
					c-7-1-13.9-2.5-20.7-4.5c-6.4-1.8-12.9-3.9-18.9-6.6c-5.5-2.5-10.7-5.9-13.6-11.3c-3-5.4-4-12-4.1-18.2
					C4,107.6,7.8,95.6,15.9,86.9c7.7-8.3,19-13.1,30.3-12.6c2.8,0.1,5.5,0.6,8.1,1.4c1.5,0.5,2.2-2,0.7-2.4
					c-11.5-3.4-24.3-0.8-34.1,6c-10.1,7-16.5,18.3-18.5,30.4c-1,6.2-1,12.5,0.2,18.6c1.2,6.6,3.9,12.8,9.1,17.2
					c4.8,4,10.6,6.3,16.4,8.4c7.1,2.5,14.3,4.7,21.7,6.4c14.6,3.3,29.5,4.1,44.3,2.4c14.6-1.7,28.8-5.6,42.6-10.7
					c6.9-2.5,13.7-5.3,20.4-8.4c6.3-2.9,12.4-6.1,17.9-10.3c10.1-7.8,17.5-19.3,16.4-32.5c-1.1-12.9-9.1-24.5-18.6-33
					c-9.2-8.1-21.9-14.8-34.5-13.2c-2.8,0.4-5.5,1.3-7.5,3.4C129.8,59.4,131.6,61.2,132.7,60L132.7,60z"/>
			</g>
		</g>
		<g>
			<g>
				<path d="M93.4,55.3c0-0.1,0-0.1,0-0.2c0-0.2,0-0.3-0.1-0.5c-0.1-0.2-0.1-0.3-0.3-0.4C93,54,92.8,54,92.7,53.9
					c-0.1-0.1-0.3-0.1-0.5-0.1c-0.1,0-0.2,0-0.3,0c-0.2,0.1-0.4,0.2-0.6,0.3c-0.1,0.1-0.1,0.2-0.2,0.3c-0.1,0.2-0.2,0.4-0.2,0.6
					c0,0.1,0,0.1,0,0.2c0,0.2,0,0.3,0.1,0.5c0.1,0.2,0.1,0.3,0.3,0.4c0.1,0.1,0.2,0.2,0.4,0.3c0.1,0.1,0.3,0.1,0.5,0.1
					c0.1,0,0.2,0,0.3,0c0.2-0.1,0.4-0.2,0.6-0.3c0.1-0.1,0.1-0.2,0.2-0.3C93.3,55.7,93.4,55.5,93.4,55.3L93.4,55.3z"/>
			</g>
		</g>
		<g>
			<g>
				<path d="M84.6,60.4c1.6,0,1.6-2.5,0-2.5C83,57.9,83,60.4,84.6,60.4L84.6,60.4z"/>
			</g>
		</g>
		<g>
			<path class="st4" d="M75.3,72.6c8.5-5.9,17.6-12,28-12.5c0.3,0,0.7,0,0.9,0.2c0.3,0.2,0.4,0.6,0.4,0.9c0.6,3.3,0.8,7.2-1.6,9.4
				c-1.6,1.4-3.9,1.7-6.1,1.9c-2.3,0.2-4.7,0.3-6.7-0.7c-2-1-3.4-3.7-2.2-5.7"/>
			<g>
				<path d="M75.9,73.6c6.4-4.4,12.9-9,20.4-11.2c1.8-0.5,3.7-0.9,5.6-1.1c0.3,0,1.2-0.2,1.3-0.2c0.1,0,0.1,0.5,0.2,0.8
					c0.1,0.9,0.2,1.9,0.3,2.8c0,1.6-0.2,3.3-1.3,4.5c-1.2,1.3-3.1,1.7-4.8,1.9c-2.1,0.2-4.4,0.5-6.4-0.3c-1.6-0.6-3.1-2.5-2.2-4.2
					c0.8-1.4-1.4-2.7-2.2-1.3c-0.9,1.8-0.7,3.8,0.5,5.4c1.3,1.9,3.4,2.7,5.6,2.9c2.3,0.2,4.8,0,7.1-0.5c2.1-0.5,4.1-1.6,5.1-3.6
					c1-1.8,1.1-4,1-6c-0.1-1.8-0.2-4.8-2.6-4.9c-2.4-0.1-5,0.5-7.3,1.1c-2.3,0.6-4.6,1.5-6.8,2.6c-5.3,2.4-10.1,5.7-14.8,9
					C73.4,72.4,74.6,74.6,75.9,73.6L75.9,73.6z"/>
			</g>
		</g>
		<g>
			<g>
				<path d="M93.8,63.6c0,0,0.1,0.1,0.1,0.1c-0.1-0.1-0.1-0.2-0.2-0.3c0.7,0.9,1.2,1.8,1.6,2.8c0-0.1-0.1-0.2-0.1-0.3
					c0.1,0.3,0.2,0.6,0.3,0.9c0.1,0.3,0.3,0.6,0.6,0.7c0.3,0.2,0.7,0.2,1,0.1c0.6-0.2,1.1-0.9,0.9-1.5c-0.5-1.6-1.3-3-2.3-4.3
					c-0.2-0.2-0.6-0.4-0.9-0.4c-0.3,0-0.7,0.1-0.9,0.4c-0.2,0.2-0.4,0.6-0.4,0.9C93.5,63.1,93.6,63.3,93.8,63.6L93.8,63.6z"/>
			</g>
		</g>
		<g>
			<g>
				<path d="M55.8,86.9c-9.5,0.3-19.2,2.6-27.5,7.3c-4.4,2.5-8.1,5.8-11.4,9.5c-3.4,3.8-6.7,7.9-9.1,12.4c-2.7,5-4.4,10.5-4,16.2
					c0.1,1.6,2.6,1.6,2.5,0c-0.6-9.9,5.3-18.7,11.5-25.9c3.1-3.6,6.6-7,10.7-9.4c3.8-2.3,8.1-4,12.4-5.3c4.9-1.4,10-2.2,15-2.3
					C57.4,89.3,57.4,86.8,55.8,86.9L55.8,86.9z"/>
			</g>
		</g>
		<g>
			<g>
				<path d="M59.8,159.9c-3.7-6.4-4.8-14.5-4.3-21.8c0.3-4.5,1.3-9,2.7-13.3c1.2-3.9,2.7-7.8,4.8-11.4c2.2-3.6,5.1-7.1,8.9-9.1
					c1.4-0.8,0.2-2.9-1.3-2.2c-7.4,4.1-11.4,12.2-14.1,19.8c-3,8.5-4.4,17.3-3.1,26.2c0.7,4.5,1.9,9,4.2,12.9
					C58.4,162.6,60.6,161.3,59.8,159.9L59.8,159.9z"/>
			</g>
		</g>
		<g>
			<g>
				<path d="M106.6,102.9c7.4,16.2,12.4,33.3,15,50.9c0.2,1.6,2.6,0.9,2.4-0.7c-2.6-17.8-7.8-35.1-15.2-51.5
					C108.1,100.2,106,101.5,106.6,102.9L106.6,102.9z"/>
			</g>
		</g>
		<g>
			<g>
				<path d="M134.6,89.8c8.6-2.1,17.6,2.2,24.7,6.8c6.9,4.5,12.8,10.6,15.6,18.4c1.6,4.3,2.4,8.9,2.1,13.5c-0.1,1.6,2.4,1.6,2.5,0
					c0.6-8.6-2.4-17.5-7.7-24.2c-5.6-7-13.6-12.2-21.9-15.4c-5.1-1.9-10.5-2.8-15.9-1.6C132.4,87.8,133,90.2,134.6,89.8L134.6,89.8z
					"/>
			</g>
		</g>
		<g>
			<g>
				<path d="M144.8,74.5c6.9-3.3,14.8-3.6,22-1.1c6.1,2.1,12.5,5.9,16.1,11.4c0.9,1.3,3,0.1,2.2-1.3c-4-6.1-10.9-10.2-17.6-12.6
					c-7.8-2.8-16.4-2.2-23.9,1.4C142.1,73.1,143.4,75.2,144.8,74.5L144.8,74.5z"/>
			</g>
		</g>
		<g>
			<g>
				<path d="M10.2,94.7C16,85,23.7,76.8,33.2,70.7c2.4-1.5,4.8-3,7.4-4.3c1.2-0.7,2.5-1.3,3.8-1.9c1-0.5,2.1-1,2.8-1.3
					c3.4-1.3,7-2.3,10.5-3.4c2.4-0.7,4.9-1.4,7.4-1.9c1.7-0.4,3.4-0.8,5.1-0.8c1.6,0,1.6-2.5,0-2.5c-3.8,0.1-7.8,1.3-11.4,2.4
					c-3.9,1.1-7.9,2.2-11.7,3.6c-4.7,1.8-9.3,4.3-13.6,7C28.6,70.5,24.1,74,20,78c-4.7,4.6-8.6,9.8-12,15.5
					C7.2,94.8,9.3,96.1,10.2,94.7L10.2,94.7z"/>
			</g>
		</g>
		<g>
			<g>
				<path d="M159.7,59.1c-5.7-3-11.4-5.9-17.5-7.8c-6.1-1.9-12.5-2.7-18.8-2.9c-1.6,0-1.6,2.5,0,2.5c6.2,0.2,12.3,1,18.2,2.8
					c5.9,1.9,11.5,4.6,16.9,7.5C159.9,62,161.2,59.8,159.7,59.1L159.7,59.1z"/>
			</g>
		</g>
		<g>
			<path class="st7" d="M118.7,77.9c-7.4-2.6-15.6-2.2-23.1-0.2c-5.6,1.4-11.1,3.7-15.7,7.1c-4.6,3.4-8.4,8-10.2,13.3
				c-0.3,0.9-0.6,1.9-0.7,2.8c5.3,1.4,10.6,2.7,16.1,2.9c13,0.6,25.4-4.7,37-10.3c2.2-1.1,3.7-2,5.8-3.3c1.4-0.9,2-1.5,2.5-2.3
				c0.2-0.4,0.2-0.9-0.1-1.3C127.6,82.3,123.7,79.7,118.7,77.9z"/>
		</g>
		<path class="st16" d="M124.8,50"/>
		<path class="st17" d="M133.5,75.4c0,0,0.3-5.5,6.4-2.4c6.1,3,4.2,6.3-1.5,10.7"/>
	</g>
</g>
</svg>
