<?xml version="1.0" encoding="utf-8"?>
<!-- Generator: Adobe Illustrator 28.3.0, SVG Export Plug-In . SVG Version: 6.00 Build 0)  -->
<svg version="1.1" id="레이어_1" xmlns="http://www.w3.org/2000/svg" xmlns:xlink="http://www.w3.org/1999/xlink" x="0px"
	 y="0px" viewBox="0 0 58.7 56.1" style="enable-background:new 0 0 58.7 56.1;" xml:space="preserve">
<style type="text/css">
	.st0{fill:#76C28D;}
	.st1{fill:#040000;}
	.st2{fill:#F09394;}
	.st3{fill:#CAE090;}
</style>
<g>
	<path class="st0" d="M42,10.5c0.7-2,0.1-4.4-1.3-5.9c-1.5-1.5-3.7-2.2-5.8-1.9c-1.8,0.2-3.7,1.2-4.1,3c-2.1-2.1-4.9-4-7.8-3.3
		c-1.5,0.4-2.7,1.4-3.8,2.5c-1.4,1.4-2.5,3.6-2.2,5.6h-0.2C4.3,15.8-3,34.3,6.8,45.6c6,6.9,16.8,8.5,25.5,7.6
		c10-1.1,19.8-6.7,22.9-16.8C58.5,25.7,52.1,14.6,42,10.5z"/>
	<g>
		<path class="st1" d="M42.4,10.6c1.2-3.3-0.9-6.8-4.1-8c-2.8-1-7.2-0.4-8.1,3c0.3-0.1,0.6-0.1,0.8-0.2c-2.4-2.4-5.8-4.5-9.2-3.1
			c-3,1.3-5.8,4.8-5.4,8.2c0.2-0.2,0.3-0.3,0.5-0.5c-0.8,0-1.8,0.7-2.5,1.1c-0.9,0.5-1.7,1-2.5,1.6c-1.6,1.2-3,2.6-4.3,4.2
			c-2.6,3.2-4.4,7-5.3,10.9c-0.9,3.9-0.8,8,0.5,11.8c1.4,4.1,4.2,7.5,7.9,9.9c3.9,2.5,8.6,3.7,13.2,4.2c4.6,0.4,9.3,0.1,13.7-1.1
			c8.8-2.4,16.7-8.8,18.6-18.1c1.9-9.2-3.1-18.5-11.1-23.1c-1-0.6-2-1-3-1.5c-0.6-0.2-0.9,0.7-0.3,1C50,14.3,56,22.5,55.6,31.4
			c-0.2,4.5-2,8.8-4.9,12.2c-2.8,3.3-6.6,5.7-10.6,7.2c-4.1,1.5-8.4,2.1-12.7,2.1c-4.4,0-9-0.8-13-2.6C10.4,48.6,7,45.8,4.9,42
			c-1.8-3.4-2.5-7.3-2.1-11.1c0.7-7.6,5.3-15.1,12-18.9c0.4-0.2,0.8-0.4,1.2-0.6c0.2-0.1,0.4-0.2,0.5-0.3c0.1,0,0.2-0.1,0.3-0.1
			c-0.2,0,0,0,0.1,0c0.2,0,0.5-0.2,0.5-0.5c-0.3-3,2.1-6,4.7-7.2c3-1.4,6.2,0.7,8.2,2.8c0.3,0.3,0.7,0.1,0.8-0.2
			c0.8-2.8,4.6-3.1,6.9-2.3c2.7,1,4.4,4,3.4,6.8C41.3,11,42.2,11.3,42.4,10.6z"/>
	</g>
</g>
<g>
	<g>
		<path class="st1" d="M17.2,10.8C17.3,10.8,17.3,10.8,17.2,10.8c0.1-0.1,0.1-0.1,0.1-0.2c0-0.1,0-0.1,0-0.2c0-0.1,0-0.1,0-0.2
			c0-0.1-0.1-0.1-0.1-0.2c0,0-0.1-0.1-0.1-0.1c-0.1,0-0.2-0.1-0.3-0.1c0,0-0.1,0-0.1,0c-0.1,0-0.2,0.1-0.2,0.1c0,0,0,0,0,0
			c0,0-0.1,0.1-0.1,0.2c0,0.1,0,0.1,0,0.2c0,0.1,0,0.1,0,0.2c0,0.1,0.1,0.1,0.1,0.2c0,0,0.1,0.1,0.1,0.1c0.1,0,0.2,0.1,0.3,0.1
			c0,0,0.1,0,0.1,0C17.1,10.9,17.2,10.8,17.2,10.8L17.2,10.8z"/>
	</g>
</g>
<g>
	<g>
		<path class="st1" d="M42,11c0.6,0,0.6-1,0-1C41.4,10,41.4,11,42,11L42,11z"/>
	</g>
</g>
<g>
	<g>
		<path class="st1" d="M27.2,15.7C27.2,15.7,27.2,15.7,27.2,15.7c-0.1,0-0.2,0-0.3,0c-0.1,0-0.1,0-0.2,0.1c-0.1,0-0.1,0.1-0.1,0.1
			c0,0-0.1,0.1-0.1,0.2c0,0,0,0.1,0,0.1c0,0.1,0,0.2,0.1,0.3c0,0,0.1,0.1,0.1,0.1c0.1,0.1,0.1,0.1,0.2,0.1c0,0,0,0,0.1,0
			c0.1,0,0.1,0,0.2,0c0.1,0,0.1,0,0.2-0.1c0.1,0,0.1-0.1,0.1-0.1c0,0,0.1-0.1,0.1-0.2c0,0,0-0.1,0-0.1c0-0.1,0-0.2-0.1-0.3
			c0,0-0.1-0.1-0.1-0.1C27.4,15.8,27.3,15.7,27.2,15.7L27.2,15.7z"/>
	</g>
</g>
<g>
	<g>
		<path class="st1" d="M29.7,15.6C29.7,15.6,29.7,15.6,29.7,15.6c0-0.1,0-0.2,0-0.3c0-0.1-0.1-0.1-0.1-0.2c0,0-0.1-0.1-0.2-0.1
			c-0.1,0-0.1,0-0.2,0c0,0-0.1,0-0.1,0c-0.1,0-0.2,0.1-0.2,0.1c0,0-0.1,0.1-0.1,0.1c0,0.1-0.1,0.2-0.1,0.3c0,0,0,0,0,0.1
			c0,0.1,0,0.1,0,0.2c0,0.1,0.1,0.1,0.1,0.2c0,0,0.1,0.1,0.2,0.1c0.1,0,0.1,0,0.2,0c0,0,0.1,0,0.1,0c0.1,0,0.2-0.1,0.2-0.1
			c0,0,0.1-0.1,0.1-0.1C29.7,15.8,29.7,15.7,29.7,15.6L29.7,15.6z"/>
	</g>
</g>
<g>
	<path class="st2" d="M23.6,21.4c1.2-0.8,2.3-1.5,3.5-2.3c0.2-0.1,0.4-0.3,0.6-0.4c0.1-0.1,0.2-0.1,0.3-0.2c0.7-0.5,1.5-0.9,2.3-1.3
		c0.6-0.3,1.3-0.6,2-0.7c1.1-0.1,2.2,0.4,2.8,1.3c0.2,0.2,0.3,0.5,0.4,0.8c0,0.7-0.5,1.2-1.2,1.5c-1.2,0.6-2.7,0.7-4,0.2
		c-0.9-0.3-1.6-0.9-2.5-0.9"/>
	<g>
		<path class="st1" d="M23.9,21.8c1.6-1,3.1-2.1,4.7-3.1c1.4-0.9,3.3-2.2,5-1.5c0.6,0.2,1.8,1.1,1.3,1.8c-0.4,0.7-1.5,1-2.2,1.1
			c-0.9,0.1-1.8-0.1-2.6-0.4c-0.7-0.3-1.4-0.7-2.3-0.8c-0.6-0.1-0.6,0.9,0,1c0.8,0.1,1.6,0.6,2.3,0.9c0.8,0.3,1.6,0.4,2.4,0.3
			c1.3-0.1,3.1-0.7,3.4-2.1c0.3-1.5-1.4-2.6-2.6-2.9c-1.6-0.3-3.2,0.6-4.6,1.4c-1.8,1.1-3.6,2.3-5.4,3.5
			C22.8,21.3,23.3,22.1,23.9,21.8L23.9,21.8z"/>
	</g>
</g>
<g>
	<g>
		<path class="st1" d="M26.7,19.8c0.3,0,0.7,0.1,1,0.1c0.1,0,0.3-0.1,0.4-0.1c0.1-0.1,0.2-0.2,0.1-0.4c0-0.1,0-0.3-0.1-0.4
			c-0.1-0.1-0.2-0.1-0.4-0.1c-0.3,0-0.7-0.1-1-0.1c-0.1,0-0.3,0.1-0.4,0.1c-0.1,0.1-0.2,0.2-0.1,0.4c0,0.1,0,0.3,0.1,0.4
			C26.4,19.7,26.6,19.8,26.7,19.8L26.7,19.8z"/>
	</g>
</g>
<g>
	<g>
		<path class="st1" d="M30.3,17.8c0.2,0,0.4,0.1,0.6,0.2c0,0-0.1,0-0.1-0.1c0.2,0.1,0.5,0.2,0.7,0.4c0.1,0.1,0.3,0.1,0.4,0.1
			c0.1,0,0.2-0.1,0.3-0.2c0.1-0.1,0.1-0.3,0.1-0.4c0-0.1-0.1-0.2-0.2-0.3c-0.4-0.3-0.9-0.5-1.3-0.6c-0.1,0-0.3,0-0.4,0.1
			c-0.1,0.1-0.2,0.2-0.2,0.3C29.9,17.4,30,17.7,30.3,17.8L30.3,17.8z"/>
	</g>
</g>
<path class="st3" d="M53.6,39.2C51.3,30.6,43.4,24.2,34,24.2c-11.2,0-20.3,9-20.3,20.1c0,2.2,0.4,4.2,1,6.2
	c5.5,2.2,11.9,2.7,17.4,2.1C41,51.6,49.6,47.1,53.6,39.2z"/>
</svg>
