<?xml version="1.0" encoding="utf-8"?>
<!-- Generator: Adobe Illustrator 28.3.0, SVG Export Plug-In . SVG Version: 6.00 Build 0)  -->
<svg version="1.1" xmlns="http://www.w3.org/2000/svg" xmlns:xlink="http://www.w3.org/1999/xlink" x="0px" y="0px"
	 viewBox="0 0 527.2 426.7" style="enable-background:new 0 0 527.2 426.7;" xml:space="preserve">
<style type="text/css">
	.st0{display:none;}
	.st1{display:inline;}
	.st2{fill:#76C28D;}
	.st3{fill:#040000;}
	.st4{fill:#F09394;}
	.st5{display:inline;fill:#CAE090;}
	.st6{display:inline;opacity:0.45;}
	.st7{fill:#CAE090;}
	.st8{display:inline;fill:none;}
	.st9{fill:#F2EC50;}
	.st10{display:inline;fill:#006543;stroke:#040000;stroke-miterlimit:10;}
	.st11{display:inline;fill:#006543;stroke:#000000;stroke-miterlimit:10;}
	.st12{fill:#EFEFEF;}
	.st13{fill:#980014;}
	.st14{opacity:0.18;}
	.st15{fill:#595757;}
	.st16{fill:#C30D23;}
	.st17{fill:none;stroke:#000000;stroke-width:0.5;stroke-miterlimit:10;}
	.st18{display:inline;fill:#00B5EE;}
	.st19{display:inline;fill:#FFFFFF;}
	.st20{display:inline;fill:#0083C8;}
	.st21{display:inline;fill:#0096D4;}
	.st22{fill:#0096D4;}
	.st23{fill:#FFFFFF;}
	.st24{fill:#0083C8;}
</style>
<g id="레이어_1" class="st0">
	<g class="st1">
		<path class="st2" d="M216.9,252c0.7-2,0.1-4.4-1.3-5.9c-1.5-1.5-3.7-2.2-5.8-1.9c-1.8,0.2-3.7,1.2-4.1,3c-2.1-2.1-4.9-4-7.8-3.3
			c-1.5,0.4-2.7,1.4-3.8,2.5c-1.4,1.4-2.5,3.6-2.2,5.6h-0.2c-12.5,5.3-19.8,23.8-10,35.1c6,6.9,16.8,8.5,25.5,7.6
			c10-1.1,19.8-6.7,22.9-16.8C233.5,267.2,227,256.1,216.9,252z"/>
		<g>
			<path class="st3" d="M217.4,252.1c1.2-3.3-0.9-6.8-4.1-8c-2.8-1-7.2-0.4-8.1,3c0.3-0.1,0.6-0.1,0.8-0.2c-2.4-2.4-5.8-4.5-9.2-3.1
				c-3,1.3-5.8,4.8-5.4,8.2c0.2-0.2,0.3-0.3,0.5-0.5c-0.8,0-1.8,0.7-2.5,1.1c-0.9,0.5-1.7,1-2.5,1.6c-1.6,1.2-3,2.6-4.3,4.2
				c-2.6,3.2-4.4,7-5.3,10.9c-0.9,3.9-0.8,8,0.5,11.8c1.4,4.1,4.2,7.5,7.9,9.9c3.9,2.5,8.6,3.7,13.2,4.2c4.6,0.4,9.3,0.1,13.7-1.1
				c8.8-2.4,16.7-8.8,18.6-18.1c1.9-9.2-3.1-18.5-11.1-23.1c-1-0.6-2-1-3-1.5c-0.6-0.2-0.9,0.7-0.3,1c8.1,3.3,14.1,11.5,13.7,20.4
				c-0.2,4.5-2,8.8-4.9,12.2c-2.8,3.3-6.6,5.7-10.6,7.2c-4.1,1.5-8.4,2.1-12.7,2.1c-4.4,0-9-0.8-13-2.6c-3.9-1.7-7.3-4.5-9.4-8.3
				c-1.8-3.4-2.5-7.3-2.1-11.1c0.7-7.6,5.3-15.1,12-18.9c0.4-0.2,0.8-0.4,1.2-0.6c0.2-0.1,0.4-0.2,0.5-0.3c0.1,0,0.2-0.1,0.3-0.1
				c-0.2,0,0,0,0.1,0c0.2,0,0.5-0.2,0.5-0.5c-0.3-3,2.1-6,4.7-7.2c3-1.4,6.2,0.7,8.2,2.8c0.3,0.3,0.7,0.1,0.8-0.2
				c0.8-2.8,4.6-3.1,6.9-2.3c2.7,1,4.4,4,3.4,6.8C216.2,252.5,217.1,252.7,217.4,252.1z"/>
		</g>
	</g>
	<g class="st1">
		<g>
			<path class="st3" d="M192.2,252.3C192.2,252.3,192.2,252.3,192.2,252.3c0.1-0.1,0.1-0.1,0.1-0.2c0-0.1,0-0.1,0-0.2
				c0-0.1,0-0.1,0-0.2c0-0.1-0.1-0.1-0.1-0.2c0,0-0.1-0.1-0.1-0.1c-0.1,0-0.2-0.1-0.3-0.1c0,0-0.1,0-0.1,0c-0.1,0-0.2,0.1-0.2,0.1
				c0,0,0,0,0,0c0,0-0.1,0.1-0.1,0.2c0,0.1,0,0.1,0,0.2c0,0.1,0,0.1,0,0.2c0,0.1,0.1,0.1,0.1,0.2c0,0,0.1,0.1,0.1,0.1
				c0.1,0,0.2,0.1,0.3,0.1c0,0,0.1,0,0.1,0C192,252.4,192.1,252.3,192.2,252.3L192.2,252.3z"/>
		</g>
	</g>
	<g class="st1">
		<g>
			<path class="st3" d="M216.9,252.5c0.6,0,0.6-1,0-1C216.3,251.5,216.3,252.5,216.9,252.5L216.9,252.5z"/>
		</g>
	</g>
	<g class="st1">
		<g>
			<path class="st3" d="M202.1,257.2C202.1,257.2,202.1,257.2,202.1,257.2c-0.1,0-0.2,0-0.3,0c-0.1,0-0.1,0-0.2,0.1
				c-0.1,0-0.1,0.1-0.1,0.1c0,0-0.1,0.1-0.1,0.2c0,0,0,0.1,0,0.1c0,0.1,0,0.2,0.1,0.3c0,0,0.1,0.1,0.1,0.1c0.1,0.1,0.1,0.1,0.2,0.1
				c0,0,0,0,0.1,0c0.1,0,0.1,0,0.2,0c0.1,0,0.1,0,0.2-0.1c0.1,0,0.1-0.1,0.1-0.1c0,0,0.1-0.1,0.1-0.2c0,0,0-0.1,0-0.1
				c0-0.1,0-0.2-0.1-0.3c0,0-0.1-0.1-0.1-0.1C202.3,257.3,202.2,257.2,202.1,257.2L202.1,257.2z"/>
		</g>
	</g>
	<g class="st1">
		<g>
			<path class="st3" d="M204.6,257.1C204.6,257.1,204.6,257.1,204.6,257.1c0-0.1,0-0.2,0-0.3c0-0.1-0.1-0.1-0.1-0.2
				c0,0-0.1-0.1-0.2-0.1c-0.1,0-0.1,0-0.2,0c0,0-0.1,0-0.1,0c-0.1,0-0.2,0.1-0.2,0.1c0,0-0.1,0.1-0.1,0.1c0,0.1-0.1,0.2-0.1,0.3
				c0,0,0,0,0,0.1c0,0.1,0,0.1,0,0.2c0,0.1,0.1,0.1,0.1,0.2c0,0,0.1,0.1,0.2,0.1c0.1,0,0.1,0,0.2,0c0,0,0.1,0,0.1,0
				c0.1,0,0.2-0.1,0.2-0.1c0,0,0.1-0.1,0.1-0.1C204.6,257.3,204.6,257.2,204.6,257.1L204.6,257.1z"/>
		</g>
	</g>
	<g class="st1">
		<path class="st4" d="M198.5,262.8c1.2-0.8,2.3-1.5,3.5-2.3c0.2-0.1,0.4-0.3,0.6-0.4c0.1-0.1,0.2-0.1,0.3-0.2
			c0.7-0.5,1.5-0.9,2.3-1.3c0.6-0.3,1.3-0.6,2-0.7c1.1-0.1,2.2,0.4,2.8,1.3c0.2,0.2,0.3,0.5,0.4,0.8c0,0.7-0.5,1.2-1.2,1.5
			c-1.2,0.6-2.7,0.7-4,0.2c-0.9-0.3-1.6-0.9-2.5-0.9"/>
		<g>
			<path class="st3" d="M198.8,263.3c1.6-1,3.1-2.1,4.7-3.1c1.4-0.9,3.3-2.2,5-1.5c0.6,0.2,1.8,1.1,1.3,1.8c-0.4,0.7-1.5,1-2.2,1.1
				c-0.9,0.1-1.8-0.1-2.6-0.4c-0.7-0.3-1.4-0.7-2.3-0.8c-0.6-0.1-0.6,0.9,0,1c0.8,0.1,1.6,0.6,2.3,0.9c0.8,0.3,1.6,0.4,2.4,0.3
				c1.3-0.1,3.1-0.7,3.4-2.1c0.3-1.5-1.4-2.6-2.6-2.9c-1.6-0.3-3.2,0.6-4.6,1.4c-1.8,1.1-3.6,2.3-5.4,3.5
				C197.7,262.8,198.2,263.6,198.8,263.3L198.8,263.3z"/>
		</g>
	</g>
	<g class="st1">
		<g>
			<path class="st3" d="M201.6,261.3c0.3,0,0.7,0.1,1,0.1c0.1,0,0.3-0.1,0.4-0.1c0.1-0.1,0.2-0.2,0.1-0.4c0-0.1,0-0.3-0.1-0.4
				c-0.1-0.1-0.2-0.1-0.4-0.1c-0.3,0-0.7-0.1-1-0.1c-0.1,0-0.3,0.1-0.4,0.1c-0.1,0.1-0.2,0.2-0.1,0.4c0,0.1,0,0.3,0.1,0.4
				C201.4,261.2,201.5,261.3,201.6,261.3L201.6,261.3z"/>
		</g>
	</g>
	<g class="st1">
		<g>
			<path class="st3" d="M205.2,259.3c0.2,0,0.4,0.1,0.6,0.2c0,0-0.1,0-0.1-0.1c0.2,0.1,0.5,0.2,0.7,0.4c0.1,0.1,0.3,0.1,0.4,0.1
				c0.1,0,0.2-0.1,0.3-0.2c0.1-0.1,0.1-0.3,0.1-0.4c0-0.1-0.1-0.2-0.2-0.3c-0.4-0.3-0.9-0.5-1.3-0.6c-0.1,0-0.3,0-0.4,0.1
				c-0.1,0.1-0.2,0.2-0.2,0.3C204.8,258.9,204.9,259.2,205.2,259.3L205.2,259.3z"/>
		</g>
	</g>
	<path class="st5" d="M228.5,280.7c-2.3-8.6-10.2-14.9-19.6-14.9c-11.2,0-20.3,9-20.3,20.1c0,2.2,0.4,4.2,1,6.2
		c5.5,2.2,11.9,2.7,17.4,2.1C215.9,293.1,224.5,288.6,228.5,280.7z"/>
</g>
<g id="레이어_2" class="st0">
	<g class="st1">
		<path class="st2" d="M222.2,258.4c-0.1-1.5,1.1-2.8,2.3-3.7c0.8-0.6,1.6-1.1,2.6-1.3c0.9-0.2,2-0.1,2.8,0.4
			c0.8,0.5,1.2,1.4,1.5,2.3c0.2,1,0.2,2.1-0.2,3c-0.6,1.3-1.9,2.1-3.3,2.4c-1,0.2-2.1,0.2-2.9-0.5c-0.9-0.7-1.1-2-2-2.7
			c-0.2-0.2-0.4-0.3-0.5-0.6s0.3-0.5,0.4-0.3"/>
		<g>
			<path class="st3" d="M222.7,258.4c-0.1-1.7,1.5-2.9,2.8-3.7c1.4-0.9,3.4-1.4,4.6,0c1.1,1.2,1.3,3.4,0.3,4.7
				c-0.9,1.2-2.6,1.9-4.1,1.7c-0.9-0.1-1.4-0.7-1.9-1.5c-0.2-0.4-0.4-0.7-0.6-1.1c-0.1-0.2-0.3-0.3-0.4-0.5
				c-0.1-0.1-0.1-0.1-0.2-0.2c0,0-0.1-0.1-0.1-0.1c-0.1-0.2-0.3-0.1-0.4,0.1c0.5,0.4,1-0.5,0.5-0.9c-0.4-0.3-0.9-0.1-1.1,0.3
				c-0.3,0.5,0,1,0.4,1.3c0.8,0.7,1.1,1.7,1.7,2.5c1.4,1.7,4.1,1.2,5.7,0.1c2-1.3,2.5-3.7,1.7-5.9c-0.4-1-1-1.8-2-2.2
				c-1-0.5-2.2-0.4-3.3,0c-1.2,0.4-2.3,1.2-3.2,2.1c-0.8,0.8-1.5,1.9-1.4,3.1C221.8,259,222.8,259,222.7,258.4L222.7,258.4z"/>
		</g>
	</g>
	<g class="st1">
		<path class="st2" d="M217.9,251.3c0.8-2.1,0.1-4.6-1.4-6.2c-1.6-1.6-3.9-2.3-6.1-2c-1.9,0.2-3.9,1.3-4.4,3.2
			c-2.2-2.3-5.2-4.2-8.3-3.5c-1.6,0.4-2.9,1.4-4,2.6c-1.5,1.5-2.6,3.8-2.4,5.9h-0.2c-2.2,0.9-4.2,2.2-6,3.8
			c-0.8-0.6-1.6-1.1-2.5-1.3c-2.3-0.7-5.1,0.3-6,2c-1,1.7-1.2,3.8,0.3,6.6c0.4,0.6,0.8,1.3,1.4,1.8c-3.7,7.9-3.7,17.3,2.3,24.3
			c6.4,7.3,17.8,9,27,8c10.6-1.2,21-7.1,24.3-17.8C235.5,267.4,228.7,255.6,217.9,251.3z"/>
		<g>
			<path class="st3" d="M218.4,251.5c1.2-3.5-0.9-7.2-4.3-8.5c-3-1.1-7.6-0.4-8.5,3.1c0.3-0.1,0.6-0.1,0.8-0.2
				c-2.5-2.6-6.2-4.8-9.8-3.2c-3.1,1.4-6,5.1-5.7,8.6c0.2-0.2,0.3-0.3,0.5-0.5c-0.5,0-1,0.3-1.4,0.5c-0.6,0.3-1.2,0.6-1.8,1
				c-1.2,0.7-2.3,1.6-3.4,2.5c0.2,0,0.4-0.1,0.6-0.1c-1.5-1.1-3.3-1.9-5.2-1.6c-1.5,0.2-3,1-3.9,2.3c-1.9,3-0.6,6.8,1.7,9.2
				c0-0.2-0.1-0.4-0.1-0.6c-3.6,7.8-3.7,17.2,1.7,24.1c5.1,6.5,13.6,8.9,21.5,9.2c7.8,0.3,15.9-1.4,22.3-6.1
				c6.4-4.7,10.5-12.4,9.8-20.4c-0.7-7.8-5.7-14.9-12.5-18.6c-0.9-0.5-1.8-0.9-2.7-1.3c-0.6-0.2-0.9,0.7-0.3,1
				c7,2.8,12.5,9,14.2,16.5c1.6,7.6-1.4,15.4-7.1,20.5c-5.7,5-13.3,7.3-20.7,7.5c-7.5,0.2-15.8-1.3-21.5-6.5
				c-3-2.7-5.1-6.4-5.9-10.4c-0.8-4-0.4-8.1,0.9-12c0.3-1,0.7-2,1.2-2.9c0.1-0.2,0.1-0.4-0.1-0.6c-2-2-3.2-5.3-1.6-7.8
				c0.7-1.2,2.1-1.8,3.4-2c1.6-0.2,3.1,0.5,4.4,1.5c0.2,0.1,0.5,0.1,0.6-0.1c1-0.8,2-1.6,3.1-2.3c0.5-0.3,1-0.6,1.5-0.9
				c0.4-0.2,0.9-0.6,1.3-0.6c0.2,0,0.5-0.2,0.5-0.5c-0.3-3.2,2.2-6.4,5-7.7c3.2-1.5,6.6,0.7,8.8,3c0.3,0.3,0.7,0.1,0.8-0.2
				c0.8-3,4.9-3.3,7.3-2.4c2.9,1.1,4.7,4.3,3.6,7.2C217.2,251.8,218.2,252.1,218.4,251.5z"/>
		</g>
	</g>
	<path class="st5" d="M230.2,281.7c-2.4-9.1-10.8-15.8-20.8-15.8c-11.9,0-21.5,9.5-21.5,21.3c0,2.3,0.4,4.5,1,6.5
		c5.8,2.4,12.6,2.9,18.5,2.2C216.9,294.9,226,290.2,230.2,281.7z"/>
	<g class="st1">
		<g>
			<path class="st3" d="M204.1,252.7c0.3,0.2,0.6,0.3,0.8,0.5c0.1,0.1,0.3,0.1,0.4,0.2c0.1,0,0.1,0.1,0.2,0.1c0,0,0.1,0.1,0.1,0.1
				c0.1,0,0-0.1,0,0c0-0.1-0.1-0.1-0.1-0.2c0,0,0,0,0,0c0-0.1,0-0.2,0-0.3c0.1-0.1,0.1-0.2,0-0.1c0,0,0,0-0.1,0.1
				c0,0-0.1,0.1-0.1,0.1c-0.1,0.1-0.2,0.2-0.2,0.2c-0.1,0.1-0.2,0.1-0.3,0.2c0,0-0.2,0.1-0.1,0.1c0,0-0.1,0.1-0.1,0.1
				c-0.4,0.3-0.8,0.5-1.2,0.7c-0.2,0.1-0.3,0.5-0.2,0.7c0.2,0.2,0.4,0.3,0.7,0.2c0.8-0.4,1.5-0.9,2.1-1.5c0.2-0.2,0.5-0.4,0.4-0.8
				c-0.1-0.3-0.4-0.4-0.6-0.6c-0.4-0.2-0.8-0.5-1.2-0.7c-0.2-0.1-0.6-0.1-0.7,0.2C203.8,252.3,203.9,252.6,204.1,252.7L204.1,252.7z
				"/>
		</g>
	</g>
	<g class="st1">
		<g>
			<path class="st3" d="M209.1,251.8c-0.4,0.3-0.8,0.6-1.3,0.9c-0.1,0.1-0.2,0.2-0.2,0.4c0,0.1,0,0.3,0.1,0.4c0.8,0.7,1.8,1,2.8,1.1
				c0.3,0,0.5-0.2,0.5-0.5c0-0.3-0.2-0.5-0.5-0.5c-0.1,0-0.2,0-0.3,0c0,0-0.1,0-0.1,0c0.1,0,0.1,0,0,0c-0.1,0-0.1,0-0.2,0
				c-0.2,0-0.4-0.1-0.6-0.2c0,0-0.2-0.1-0.1,0c-0.1,0-0.1,0-0.2-0.1c-0.1,0-0.2-0.1-0.3-0.1c-0.1-0.1-0.2-0.1-0.3-0.2
				c0,0-0.1-0.1-0.1-0.1c0.1,0.1,0,0-0.1-0.1c0,0.3-0.1,0.5-0.1,0.8c0.4-0.3,0.8-0.6,1.3-0.9c0.2-0.2,0.3-0.4,0.2-0.7
				C209.7,251.8,209.4,251.6,209.1,251.8L209.1,251.8z"/>
		</g>
	</g>
	<g class="st1">
		<path class="st4" d="M206.3,255.3c0.5-0.1,1.1-0.1,1.6,0c0.1,0,0.2,0.1,0.3,0.1c0.1,0.1,0.1,0.3,0.1,0.5c0,1.4-0.3,2.9-0.7,4.2
			c-0.1,0.3-0.2,0.5-0.5,0.6C206.6,259,206.3,257.2,206.3,255.3c-0.1,0.1-0.1,0.2-0.1,0.2"/>
		<g>
			<path class="st3" d="M206.5,255.8c0.3-0.1,0.5-0.1,0.8-0.1c0.1,0,0.2,0,0.4,0c0,0,0.2,0.1,0.2,0.1c0,0-0.1,0,0-0.1
				c0,0,0,0.2,0,0.3c0,0.2,0,0.3,0,0.5c0,0.3,0,0.6-0.1,0.9c-0.1,0.6-0.2,1.1-0.3,1.6c-0.1,0.3-0.2,0.6-0.2,0.8
				c0,0.1-0.1,0.4-0.2,0.4c0.2,0.1,0.4,0.2,0.6,0.3c-0.6-1.7-0.9-3.4-0.9-5.2c0-0.7-0.9-0.6-1,0c0,0.1,0,0.1,0,0.2
				c0,0.3,0.2,0.5,0.5,0.5c0.3,0,0.5-0.2,0.5-0.5c0-0.1,0-0.1,0-0.2c-0.3,0-0.7,0-1,0c0,1.9,0.3,3.7,0.9,5.5
				c0.1,0.3,0.3,0.4,0.6,0.3c0.7-0.2,0.9-1.1,1.1-1.7c0.2-0.8,0.4-1.6,0.4-2.4c0-0.4,0.1-0.8,0-1.1c0-0.4-0.1-0.8-0.4-1
				c-0.3-0.2-0.7-0.3-1-0.3c-0.4,0-0.8,0-1.2,0.1C205.6,255,205.8,256,206.5,255.8L206.5,255.8z"/>
		</g>
	</g>
</g>
<g id="레이어_3" class="st0">
	<g class="st1">
		<path class="st2" d="M221.9,268.3c-4.9-0.2-1.6-8.4-8.4-14.2c-9.2-7.8-19.8-7.3-28.4,1.6c-2.5,2.6-4.3,5.7-5.5,8.9
			c-1.2,3.4-1.8,6.9-1.9,10.4c0,2.5,0.3,5,0.9,7.5c-1.1,1.1-2,1.2-2.8,2.5c-0.1,0.2-0.3,1.4-0.3,1.7c0,0.2,0.1,0.5,0.3,0.7
			c1.2,1.7,4,4.3,12.7,5.4c14,1.8,22.4-1.4,26-2.2c4.8-1,12-6.1,14.8-8.5c2.7-2.4,5.4-10,1.8-12.3
			C228.8,268.4,225.6,268.4,221.9,268.3z"/>
		<g>
			<path d="M221.9,267.8c-1.5-0.1-2.1-1.2-2.5-2.5c-0.5-1.8-0.8-3.7-1.5-5.5c-0.8-2.3-2.2-4.4-4.1-6c-2.1-1.8-4.5-3.3-7-4.3
				c-4.7-1.9-9.9-1.7-14.5,0.4c-5.2,2.4-9.5,6.8-12,11.9c-3.2,6.4-3.9,14-2.2,21c0-0.2,0.1-0.3,0.1-0.5c-0.7,0.6-1.5,1.1-2.1,1.7
				c-0.5,0.5-0.8,1-0.9,1.7c-0.1,0.6-0.3,1.2,0.1,1.8c0.2,0.3,0.4,0.6,0.7,0.9c1.3,1.5,3.1,2.5,4.9,3.2c3.6,1.4,7.7,1.9,11.5,2.2
				c3.8,0.3,7.6,0.2,11.3-0.3c2.6-0.3,5.2-0.8,7.8-1.5c2-0.5,4.1-0.9,6-1.7c3.1-1.3,6.1-3.2,8.9-5.1c1.1-0.8,2.1-1.6,3.2-2.4
				c1-0.8,1.7-1.9,2.2-3c1.2-2.3,2.2-5.5,1.3-8.1c-1.1-3.1-5.1-3.5-8-3.7C224.1,267.9,223,267.8,221.9,267.8c-0.6,0-0.6,1,0,1
				c1.7,0.1,3.4,0.1,5.1,0.3c1.4,0.2,2.9,0.5,4.1,1.4c1.8,1.3,1.4,4.1,0.9,6c-0.6,2.1-1.6,4.2-3.3,5.6c-1.9,1.6-3.9,3-6,4.3
				c-2.3,1.4-4.7,2.8-7.4,3.6c-1.4,0.4-2.9,0.8-4.4,1.1c-4.8,1.2-9.7,1.9-14.7,1.8c-3.6,0-7.2-0.3-10.7-1c-2.3-0.5-4.7-1.1-6.8-2.4
				c-0.6-0.4-1.2-0.8-1.7-1.3c-0.4-0.4-1-1-1.1-1.5c-0.1-1.3,0.8-2.1,1.8-2.8c0.4-0.3,1.3-0.8,1.3-1.3c0-0.4-0.2-0.9-0.3-1.3
				c-0.1-0.5-0.2-1.1-0.3-1.6c-1-7.1,0.5-14.8,4.6-20.7c3.5-5.1,9.3-9.3,15.7-9.8c2.8-0.2,5.7,0.4,8.3,1.5c2.9,1.3,5.8,3.2,7.8,5.6
				c1.6,2,2.4,4.5,3,7c0.4,1.6,0.6,3.7,1.9,4.8c0.6,0.5,1.3,0.7,2.1,0.8C222.6,268.8,222.6,267.8,221.9,267.8z"/>
		</g>
	</g>
	<g class="st1">
		<g>
			<path d="M178.1,282.1c0.5,1.5,0.9,3.1,1.1,4.7c0,0.3,0.4,0.4,0.6,0.3c0.3-0.1,0.4-0.3,0.3-0.6c-0.2-1.6-0.6-3.2-1.1-4.7
				C178.8,281.3,177.9,281.5,178.1,282.1L178.1,282.1z"/>
		</g>
	</g>
	<g class="st1">
		<g>
			<path d="M217.7,262.2c0.6,2,1,4.1,1.8,6.1c0.6,1.4,1.5,2.7,2.9,3.3c0.6,0.3,1.1-0.6,0.5-0.9c-1.3-0.6-2.1-1.7-2.6-3
				c-0.7-1.9-1.1-3.9-1.7-5.8C218.5,261.3,217.5,261.6,217.7,262.2L217.7,262.2z"/>
		</g>
	</g>
	<g class="st1">
		<path class="st2" d="M192.5,252c0.1-1.2,0-0.8,0.1-1.2c0.2-1.2,1-2.3,2-3.1c1-0.8,2.2-1.4,3.4-1.8c0.8-0.2,1.6-0.4,2.4-0.4
			s1.6,0.4,2.1,1c0.7,0.9,0.3,2.3-0.6,3.1c1.2-1.5,3.3-2.3,5.3-2c1,0.2,2,0.7,2.4,1.6c0.4,0.8,0.1,1.8-0.3,2.7c-0.4,1-1,2-1.6,2.9"
			/>
		<g>
			<path d="M193,252c0-0.9,0-1.3,0.4-2.2c0.7-1.3,1.9-2.2,3.3-2.8c1.3-0.6,3-1.2,4.4-0.8c1.5,0.5,1.5,2.1,0.5,3.1
				c0.2,0.2,0.5,0.5,0.7,0.7c1.3-1.6,3.8-2.5,5.8-1.6c2.7,1.2,0.3,4.5-0.7,6.2c-0.3,0.6,0.5,1.1,0.9,0.5c1.3-2.1,3.7-5.8,0.5-7.5
				c-2.4-1.2-5.5-0.4-7.1,1.6c-0.4,0.5,0.2,1.2,0.7,0.7c1.1-1,1.5-2.9,0.4-4.1c-1.4-1.3-3.4-1-5.1-0.4c-1.7,0.6-3.4,1.5-4.5,3
				c-0.8,1.1-0.9,2.1-1,3.4C192,252.6,193,252.6,193,252L193,252z"/>
		</g>
	</g>
	<g class="st1">
		<g>
			<path d="M191.2,258.7c0.6,0,1.3-0.1,1.9-0.3c0.3-0.1,0.4-0.4,0.3-0.6c-0.1-0.3-0.3-0.4-0.6-0.3c-0.3,0.1-0.6,0.1-1,0.2
				c0,0,0.1,0,0.1,0c-0.3,0-0.6,0.1-0.8,0.1c-0.3,0-0.5,0.2-0.5,0.5C190.7,258.5,190.9,258.7,191.2,258.7L191.2,258.7z"/>
		</g>
	</g>
	<g class="st1">
		<g>
			<path d="M195.6,259.1c0.6,0,0.6-1,0-1C195,258.1,195,259.1,195.6,259.1L195.6,259.1z"/>
		</g>
	</g>
	<g class="st1">
		<g>
			<path d="M195.2,258.9c0.4,0.6,0.9,1.2,1.5,1.6c0.1,0.1,0.3,0.1,0.4,0.1c0.1,0,0.2-0.1,0.3-0.2c0.1-0.3,0.1-0.5-0.2-0.7
				c-0.1-0.1-0.2-0.1-0.2-0.2c0,0,0.1,0.1,0.1,0.1c-0.3-0.2-0.6-0.5-0.8-0.8c0,0,0.1,0.1,0.1,0.1c-0.1-0.1-0.2-0.3-0.3-0.5
				c-0.1-0.2-0.5-0.3-0.7-0.2C195.1,258.3,195,258.6,195.2,258.9L195.2,258.9z"/>
		</g>
	</g>
	<g class="st6">
		<path d="M195.4,258.2c-0.6-0.6-1.6-0.5-2.4-0.3c-0.4,0.1-0.7,0.2-1.1,0.4c-0.4,0.2-0.6,0.6-0.8,1c-0.4,1.2,0.1,2.7,1.3,3.3
			c1.2,0.6,2.8,0.2,3.5-0.8S196.4,259.1,195.4,258.2"/>
	</g>
	<g class="st1">
		<path class="st7" d="M196.1,292.9c9.1-0.1,10.8-0.9,12.3-1.2c0.9-2,1.6-4.6,1.9-6.4c0.3-2,0-4.1-0.7-6c-1.2-3.7-3.7-7.2-7-9.9
			c-2.8-2.3-6.3-4.1-10.1-4.4c-3.8-0.3-7.9,1-9.9,3.7c-0.8,1.2-1.3,2.5-1.6,3.8c-1.3,5.5-0.3,11.4,2.1,16.7c0.3,0.7,0.8,1.6,1.5,2.5
			C184.6,291.5,188.5,292.9,196.1,292.9z"/>
	</g>
	<g class="st1">
		<g>
			<path d="M193,260.9c0.5-0.5,1,0.4,1.1,0.7c0.2,0.7,0.2,1.5,0.2,2.3c0.1,1.6,0.1,3.3,0.1,4.9c0,0.6,1,0.6,1,0
				c0.1-2.1,0-4.2-0.2-6.4c-0.1-0.8-0.2-1.7-0.8-2.3c-0.6-0.5-1.5-0.6-2.1,0C191.9,260.6,192.6,261.3,193,260.9L193,260.9z"/>
		</g>
	</g>
</g>
<g id="레이어_4" class="st0">
	<g class="st1">
		<path class="st2" d="M218,251.6c-0.7-0.3-9.4-3.6-17.6-2.6c-6.4,0.8-12.5,3.7-15.9,6.5c-9.5,7.7-11.4,24.3-2.6,33.9
			c6.2,6.8,17.1,8.1,25.7,6.9c10-1.4,19.6-7.2,22.5-17.4C233,268.5,227.6,255.9,218,251.6z"/>
		<g>
			<path class="st3" d="M218.2,251.2c-1.5-0.6-3-1.1-4.6-1.5c-3-0.8-6-1.3-9.1-1.4c-6.5-0.2-13.4,1.9-18.8,5.6
				c-8.6,5.8-12,17.5-9.1,27.3c1.5,5.2,4.9,9.7,9.6,12.3c4.9,2.8,10.8,3.8,16.3,3.7c5.5-0.1,11-1.2,15.9-3.9
				c4.8-2.6,8.9-6.5,11-11.6c4.2-9.8,0.6-22.5-8.1-28.7C220.5,252.3,219.4,251.7,218.2,251.2c-0.6-0.3-1.1,0.6-0.5,0.9
				c9.4,4.2,14.4,16,12.1,25.8c-2.5,10.8-12.9,17-23.3,18.1c-5.4,0.6-11,0.2-16.1-1.6c-5-1.8-9.1-5.3-11.5-10.2
				c-4.2-8.8-2.4-20.5,4.7-27.3c1.9-1.9,4.3-3.3,6.7-4.4c3-1.4,6.2-2.4,9.5-2.9c5.5-0.8,11.4,0.2,16.6,2c0.3,0.1,0.6,0.2,0.9,0.3
				c0.1,0,0.2,0.1,0.3,0.1c0.1,0,0.2,0.1,0.1,0C218.3,252.3,218.8,251.4,218.2,251.2z"/>
		</g>
	</g>
	<g class="st1">
		<g>
			<path class="st3" d="M202.4,254.3c0.6,0,0.6-1,0-1C201.7,253.3,201.7,254.3,202.4,254.3L202.4,254.3z"/>
		</g>
	</g>
	<g class="st1">
		<g>
			<path class="st3" d="M205.1,252.3C205.1,252.3,205.1,252.3,205.1,252.3c-0.1-0.1-0.1-0.2-0.2-0.2c0,0-0.1-0.1-0.2-0.1
				c-0.1,0-0.1,0-0.2,0c-0.1,0-0.1,0-0.2,0.1c0,0-0.1,0.1-0.1,0.1c-0.1,0.1-0.1,0.1-0.1,0.2c0,0,0,0.1,0,0.1c0,0.1,0,0.2,0.1,0.3
				c0,0,0,0,0,0.1c0,0.1,0.1,0.1,0.1,0.1c0,0,0.1,0.1,0.2,0.1c0.1,0,0.1,0,0.2,0c0.1,0,0.1,0,0.2-0.1c0,0,0.1-0.1,0.1-0.1
				c0.1-0.1,0.1-0.1,0.1-0.2c0,0,0-0.1,0-0.1C205.2,252.5,205.2,252.4,205.1,252.3L205.1,252.3z"/>
		</g>
	</g>
	<g class="st1">
		<g>
			<path class="st3" d="M204.3,255c0,0.2,0,0.5,0,0.7c0,0.1,0.1,0.3,0.1,0.4c0,0,0.1,0.1,0.2,0.1c0.1,0,0.1,0,0.2,0
				c0.1,0,0.3,0,0.4-0.1c0.1-0.1,0.1-0.2,0.1-0.4c0-0.2,0-0.5,0-0.7c0-0.1-0.1-0.3-0.1-0.4c0,0-0.1-0.1-0.2-0.1c-0.1,0-0.1,0-0.2,0
				c-0.1,0-0.3,0-0.4,0.1C204.3,254.7,204.3,254.9,204.3,255L204.3,255z"/>
		</g>
	</g>
	<path class="st5" d="M228.5,281.8c-2.5-8.5-10.6-14.7-20-14.5c-11.2,0.3-20.1,9.5-19.8,20.6c0.1,2.2,0.5,4.2,1.1,6.2
		c5.5,2.1,12,2.4,17.5,1.7C216.2,294.6,224.7,289.9,228.5,281.8z"/>
	<g class="st1">
		<path class="st2" d="M189.2,259c-2.7-1.3-2.8-1.2-4-2.6c-1.2-1.4-1.7-3.4-1.7-5.3c0-0.8,0.1-1.7,0.5-2.4c0.8-1.7,2.8-2.6,4.7-2.7
			c4.1-0.3,5.5-0.4,8.6,4c-0.9-1.3,1,1.6-1-1.4c-0.5-0.7-1.2-2.1-1.1-3c0.1-0.8,0.7-1.5,1.3-2c2.2-1.8,5.6-2.1,8.1-0.6
			s4.1,3.7,3.4,6.5"/>
		<g>
			<path class="st3" d="M189.4,258.6c-1.3-0.6-2.6-1-3.6-2.1c-1.5-1.7-2.1-3.9-1.8-6.1c0.3-2.3,2.2-3.5,4.3-3.8
				c1.4-0.2,3.1-0.3,4.5,0.1c1.8,0.5,3,2.2,4.1,3.7c0.3-0.2,0.6-0.3,0.9-0.5c-0.1-0.2-0.3-0.4-0.5-0.5c-0.3-0.2-0.6,0-0.7,0.3
				c-0.1,0.3,0.1,0.5,0.3,0.7c0.3-0.2,0.5-0.4,0.8-0.6c0.2,0.2-0.1-0.1-0.1-0.2c-0.3-0.4-0.5-0.7-0.8-1.1c-0.5-0.7-1-1.6-1.1-2.4
				c-0.1-1,0.9-1.8,1.6-2.3c0.8-0.6,1.8-0.9,2.8-1c3.7-0.4,8.2,2.7,7.4,6.8c-0.1,0.6,0.8,0.9,1,0.3c0.4-1.7,0-3.4-1.1-4.8
				c-1.1-1.4-2.7-2.5-4.4-3c-1.8-0.5-3.7-0.3-5.4,0.5c-1.5,0.7-3.2,2.2-2.8,4c0.2,0.9,0.7,1.8,1.2,2.5c0.3,0.5,0.6,1.1,1,1.5
				c0.4,0.4,1.1-0.1,0.8-0.6c0-0.1-0.1-0.1-0.1-0.2c-0.2-0.3,0-0.2-0.1,0.2c-0.2,0.1-0.5,0.2-0.7,0.3c-0.2-0.1,0,0.1,0.1,0.2
				c0.4,0.5,1.2,0,0.9-0.5c-1.1-1.6-2.4-3.3-4.2-4c-1.5-0.6-3.3-0.4-5-0.3c-2.2,0.2-4.5,1.2-5.3,3.4c-0.8,2.3-0.3,5.3,1,7.2
				c0.5,0.7,1.1,1.4,1.8,1.9c0.8,0.6,1.9,1,2.8,1.4C189.5,259.7,190,258.8,189.4,258.6L189.4,258.6z"/>
		</g>
	</g>
	<path class="st8" d="M204.9,252.3"/>
</g>
<g id="레이어_5" class="st0">
	<g class="st1">
		<path class="st2" d="M217.5,253.3c0.8-2,0.1-4.4-1.4-6c-1.5-1.5-3.7-2.2-5.9-2c-1.8,0.2-3.7,1.3-4.2,3.1c-2.1-2.2-5-4-7.9-3.3
			c-1.5,0.4-2.8,1.4-3.8,2.5c-1.4,1.5-2.5,3.6-2.3,5.7h-0.2c-12.7,5.4-20.1,24.2-10.1,35.6c6.1,7,17.1,8.7,25.9,7.7
			c10.2-1.1,20.1-6.8,23.3-17C234.3,268.7,227.8,257.4,217.5,253.3z"/>
		<g>
			<path class="st3" d="M218,253.5c1.2-3.4-0.9-6.9-4.1-8.1c-2.9-1.1-7.3-0.4-8.2,3c0.3-0.1,0.6-0.1,0.8-0.2c-2.4-2.5-6-4.6-9.5-3.1
				c-3,1.3-5.8,4.8-5.4,8.2c0.2-0.2,0.3-0.3,0.5-0.5c-0.8,0-1.8,0.7-2.5,1.1c-0.9,0.5-1.7,1.1-2.6,1.7c-1.6,1.2-3.1,2.7-4.4,4.3
				c-2.6,3.2-4.5,7-5.4,11c-0.9,4-0.9,8.2,0.5,12.1c1.5,4.2,4.3,7.7,8.1,10c4,2.5,8.7,3.8,13.4,4.2c4.7,0.4,9.5,0.1,14-1.1
				c8.9-2.5,16.9-9,18.8-18.5c1.8-9.3-3.2-18.6-11.2-23.2c-1-0.6-2-1.1-3.1-1.5c-0.6-0.2-0.9,0.7-0.3,1c8.2,3.3,14.3,11.6,14,20.6
				c-0.2,4.5-2,8.9-4.9,12.3c-2.8,3.4-6.6,5.8-10.7,7.4c-4.1,1.6-8.5,2.2-13,2.2c-4.6,0-9.2-0.8-13.4-2.6c-4-1.8-7.4-4.6-9.5-8.5
				c-1.9-3.4-2.5-7.4-2.1-11.3c0.8-7.7,5.4-15.3,12.2-19.2c0.4-0.2,0.8-0.4,1.2-0.6c0.2-0.1,0.4-0.2,0.6-0.3
				c0.3-0.1,0.2-0.1,0.3-0.1c0.2,0,0.5-0.2,0.5-0.5c-0.3-3,2.1-6,4.7-7.3c3.1-1.5,6.3,0.6,8.4,2.8c0.3,0.3,0.7,0.1,0.8-0.2
				c0.8-2.9,4.7-3.2,7-2.3c2.8,1,4.4,4.1,3.4,6.9C216.8,253.8,217.7,254.1,218,253.5z"/>
		</g>
	</g>
	<g class="st1">
		<g>
			<path class="st3" d="M192.4,253.6C192.4,253.6,192.4,253.6,192.4,253.6c0.1-0.1,0.1-0.1,0.1-0.2c0-0.1,0-0.1,0-0.2
				c0-0.1,0-0.1,0-0.2c0-0.1-0.1-0.1-0.1-0.2c0,0-0.1-0.1-0.1-0.1c-0.1,0-0.2-0.1-0.3-0.1c0,0-0.1,0-0.1,0c-0.1,0-0.2,0.1-0.2,0.1
				c0,0,0,0,0,0c0,0-0.1,0.1-0.1,0.2c0,0.1,0,0.1,0,0.2c0,0.1,0,0.1,0,0.2c0,0.1,0.1,0.1,0.1,0.2c0,0,0.1,0.1,0.1,0.1
				c0.1,0,0.2,0.1,0.3,0.1c0,0,0.1,0,0.1,0C192.2,253.7,192.3,253.6,192.4,253.6L192.4,253.6z"/>
		</g>
	</g>
	<g class="st1">
		<g>
			<path class="st3" d="M217.5,253.8c0.6,0,0.6-1,0-1C216.9,252.8,216.9,253.8,217.5,253.8L217.5,253.8z"/>
		</g>
	</g>
	<g class="st1">
		<g>
			<path class="st3" d="M203.6,256.5C203.6,256.5,203.6,256.5,203.6,256.5c-0.1-0.1-0.2-0.1-0.2-0.1c-0.1,0-0.1,0-0.2,0
				c-0.1,0-0.1,0-0.2,0.1c-0.1,0-0.1,0.1-0.1,0.1c0,0,0,0.1-0.1,0.1c0,0.1,0,0.2,0,0.3c0,0,0,0.1,0.1,0.1c0,0.1,0.1,0.1,0.2,0.2
				c0,0,0,0,0.1,0c0.1,0,0.1,0.1,0.2,0.1c0.1,0,0.1,0,0.2,0c0.1,0,0.1,0,0.2-0.1c0.1,0,0.1-0.1,0.1-0.1c0,0,0-0.1,0.1-0.1
				c0-0.1,0-0.2,0-0.3c0,0,0-0.1-0.1-0.1C203.7,256.6,203.7,256.5,203.6,256.5L203.6,256.5z"/>
		</g>
	</g>
	<g class="st1">
		<g>
			<path class="st3" d="M206,257.3C206,257.3,206,257.3,206,257.3c0-0.1,0-0.2,0-0.3c0-0.1,0-0.1-0.1-0.2c0-0.1-0.1-0.1-0.1-0.1
				c0,0-0.1-0.1-0.2-0.1c0,0-0.1,0-0.1,0c-0.1,0-0.2,0-0.3,0.1c0,0-0.1,0.1-0.1,0.1c-0.1,0.1-0.1,0.1-0.1,0.2c0,0,0,0,0,0.1
				c0,0.1,0,0.1,0,0.2c0,0.1,0,0.1,0.1,0.2c0,0.1,0.1,0.1,0.1,0.1c0,0,0.1,0.1,0.2,0.1c0,0,0.1,0,0.1,0c0.1,0,0.2,0,0.3-0.1
				c0,0,0.1-0.1,0.1-0.1C206,257.5,206,257.4,206,257.3L206,257.3z"/>
		</g>
	</g>
	<g class="st1">
		<path class="st9" d="M219.2,257.2c-2.6-1.2-4.3-2.1-8.4-5.5c-1.3-1.1-3.9-3.6-4.3-4.4c0-0.1-0.2-0.2-0.2-0.2c0-0.1,0-0.1,0-0.2
			c0.5-1.9,1.1-3.3,2.3-4.8c1.9,2.4,3,3.7,3.7,5.6c2,0.1,1.6-0.7,4.8-0.3c1.1,2.1,1.3,3.1,1.4,5.2c2.1,0.3,3.8,0.5,6.7,1.9
			C225.1,255.4,220.9,257.1,219.2,257.2"/>
		<g>
			<path class="st3" d="M219.5,256.8c-2.3-1.1-4.4-2.3-6.5-3.9c-1.2-1-2.4-2-3.6-3.1c-0.9-0.8-1.7-1.7-2.4-2.6
				c0-0.1-0.3-0.3-0.3-0.3c0,0.2,0.2-0.4,0.2-0.5c0.1-0.5,0.3-0.9,0.5-1.4c0.4-0.9,0.9-1.7,1.5-2.5c-0.2,0-0.5,0-0.7,0
				c1.4,1.7,2.8,3.4,3.6,5.4c0.1,0.2,0.2,0.4,0.5,0.4c0.7,0,1.3-0.1,2-0.3c0.9-0.2,1.9-0.1,2.8,0c-0.1-0.1-0.3-0.2-0.4-0.2
				c0.4,0.8,0.8,1.6,1,2.5c0.2,0.8,0.3,1.6,0.3,2.5c0,0.2,0.1,0.5,0.4,0.5c2.3,0.3,4.4,0.8,6.6,1.8c-0.1-0.2-0.2-0.4-0.2-0.6
				c-0.1,0.2-0.5,0.5-0.8,0.6c-0.5,0.3-1,0.6-1.6,0.8c-1,0.4-2.1,0.9-3.2,1c-0.6,0-0.6,1,0,1c1.3-0.1,2.7-0.6,3.9-1.2
				c0.9-0.4,2.4-1,2.6-2c0.1-0.2,0-0.5-0.2-0.6c-2.2-1-4.4-1.6-6.8-1.9c0.1,0.2,0.2,0.3,0.4,0.5c0-1.1-0.1-2.2-0.5-3.2
				c-0.2-0.6-0.4-1.1-0.7-1.6c-0.1-0.2-0.2-0.6-0.5-0.8c-0.2-0.2-0.6-0.1-0.9-0.2c-0.8-0.1-1.6-0.1-2.5,0.1
				c-0.6,0.1-1.2,0.3-1.8,0.3c0.2,0.1,0.3,0.2,0.5,0.4c-0.9-2.2-2.4-4-3.9-5.8c-0.2-0.2-0.6-0.2-0.7,0c-1.1,1.4-1.9,3-2.4,4.8
				c-0.2,0.6,0.1,0.9,0.4,1.3c0.4,0.5,0.8,1,1.3,1.4c2.3,2.4,4.8,4.6,7.6,6.3c1.2,0.8,2.5,1.4,3.8,2
				C219.6,257.9,220.1,257.1,219.5,256.8L219.5,256.8z"/>
		</g>
	</g>
	<g class="st1">
		<path class="st4" d="M207.7,260.3c-0.1-0.1-0.1-0.3,0-0.5c0.5-1,1.5-1.6,2.4-2.1c0.6-0.3,1.2-0.5,1.8-0.4c0.6,0.1,1.2,1,1.2,1.6"
			/>
		<g>
			<path d="M208.1,260c0.2,0.2,0,0.2,0.1,0.1c0,0,0.1-0.1,0.1-0.2c0.1-0.1,0.1-0.2,0.2-0.3c0.2-0.2,0.4-0.4,0.6-0.6
				c0.4-0.4,0.9-0.6,1.4-0.9c0.4-0.2,1.1-0.5,1.6-0.3c0.3,0.2,0.6,0.7,0.6,1c0,0.3,0.2,0.5,0.5,0.5c0.2,0,0.5-0.2,0.5-0.5
				c-0.1-0.7-0.5-1.5-1.1-1.9c-0.8-0.5-1.8-0.1-2.5,0.2c-0.7,0.3-1.4,0.8-2,1.3c-0.5,0.5-1.3,1.5-0.7,2.1
				C207.8,261.2,208.5,260.4,208.1,260L208.1,260z"/>
		</g>
	</g>
	<g class="st1">
		<path class="st7" d="M215.6,271.3c-3.7-2.7-8.1-4.5-12.6-4.8c-5.6-0.4-11.3,1.6-15.7,5.3c-3.9,3.3-6.6,7.7-7.9,12.7
			c0.7,1.3,2.9,5.3,6.1,7.2c7,4.3,13.3,5.4,22.1,4.4c7.1-0.7,13.7-3.8,18.4-8.9C224.4,280.8,220.9,275.2,215.6,271.3z"/>
	</g>
	<g class="st1">
		<g>
			<path class="st3" d="M197.4,259.3c1.3,0.8,2.5,1.7,3.8,2.5c0.5,0.3,1,0.7,1.6,0.7c0.7,0,1.3-0.4,2-0.5c2.8-0.8,5.6-1.7,8.5-2.5
				c0.6-0.2,0.4-1.1-0.3-1c-2.6,0.8-5.2,1.5-7.8,2.3c-0.6,0.2-1.3,0.4-1.9,0.6c-0.3,0.1-0.6,0.2-0.9,0c-0.3-0.1-0.6-0.4-0.9-0.6
				c-1.2-0.8-2.4-1.6-3.6-2.4C197.4,258,196.9,258.9,197.4,259.3L197.4,259.3z"/>
		</g>
	</g>
	<g class="st1">
		<g>
			<path class="st3" d="M197.4,258.1C197.4,258.1,197.4,258.1,197.4,258.1C197.4,258.1,197.4,258.1,197.4,258.1
				c-0.1,0.2-0.3,0.4-0.5,0.5c0,0-0.1,0.1-0.1,0.2c0,0.1,0,0.1,0,0.2c0,0.1,0,0.1,0,0.2c0,0.1,0.1,0.1,0.1,0.2
				c0.1,0.1,0.2,0.2,0.4,0.1c0.1,0,0.3-0.1,0.4-0.1c0.2-0.2,0.4-0.5,0.6-0.7c0-0.1,0.1-0.1,0.1-0.2c0-0.1,0-0.1,0-0.2
				c0-0.1,0-0.1-0.1-0.2c0-0.1-0.1-0.1-0.1-0.1c-0.1-0.1-0.3-0.1-0.4-0.1c0,0-0.1,0-0.1,0.1C197.6,257.9,197.5,258,197.4,258.1
				L197.4,258.1z"/>
		</g>
	</g>
	<g class="st1">
		<path d="M200.9,266.7c-1-1.3-2.1-2.8-3.7-3.1c-0.5,2.2-0.9,4.4-0.9,6.6c1.4-0.6,2.8-1.3,4.2-1.9c0.2-0.1,0.3-0.1,0.5-0.1
			c0.1,0.1,0.2,0.2,0.3,0.3c0.5,0.8,1,1.5,1.7,2.2c0.1,0.1,0.3,0.3,0.5,0.2c0.1,0,0.2-0.2,0.3-0.3c1.1-1.6,2.3-3.5,2.1-5.5
			c-1.8,0.1-3.5,0.7-4.9,1.8"/>
		<g>
			<path class="st3" d="M201.3,266.4c-1-1.4-2.2-3-4-3.4c-0.3-0.1-0.5,0.1-0.6,0.3c-0.5,2.2-0.9,4.5-1,6.7c0,0.4,0.4,0.6,0.8,0.4
				c0.7-0.3,1.4-0.6,2.1-1c0.3-0.2,0.7-0.3,1-0.5c0.2-0.1,0.3-0.2,0.5-0.2c0.1,0,0.4-0.2,0.5-0.2c0-0.1,0.1-0.1,0.1,0
				c0,0.1,0.1,0.1,0.1,0.2c0.1,0.1,0.2,0.3,0.3,0.4c0.2,0.3,0.4,0.5,0.6,0.8c0.4,0.4,0.8,1.1,1.4,1.3c0.7,0.2,1-0.5,1.3-0.9
				c0.4-0.5,0.7-1.1,1-1.7c0.6-1.1,1-2.3,0.9-3.6c0-0.3-0.2-0.5-0.5-0.5c-1.9,0.1-3.7,0.8-5.1,1.9c-0.5,0.4,0,1.3,0.5,0.9
				c1.3-1,2.9-1.7,4.6-1.8c-0.2-0.2-0.3-0.3-0.5-0.5c0.1,1.2-0.3,2.4-0.9,3.4c-0.3,0.5-0.6,1-1,1.5c-0.1,0.1-0.1,0.2-0.2,0.3
				c0,0,0,0,0-0.1c-0.1,0-0.3-0.3-0.4-0.4c-0.2-0.2-0.4-0.5-0.6-0.8c-0.3-0.4-0.5-1-1-1.3c-0.5-0.3-1-0.1-1.4,0.1
				c-1.3,0.6-2.6,1.2-3.9,1.8c0.3,0.1,0.5,0.3,0.8,0.4c0.1-2.2,0.4-4.3,0.9-6.5c-0.2,0.1-0.4,0.2-0.6,0.3c1.5,0.4,2.5,1.7,3.4,2.9
				C200.8,267.5,201.7,267,201.3,266.4L201.3,266.4z"/>
		</g>
	</g>
</g>
<g id="레이어_6" class="st0">
	<path class="st10" d="M232.4,266.3c-1.5-12.4-15.3-21-30.8-19.1s-26.9,13.4-25.4,25.9c0.1,0.8,0.2,1.5,0.4,2.3l21-3l-11,15.8
		c5.5,3.4,12.8,5,20.4,4C222.5,290.3,233.9,278.7,232.4,266.3z"/>
</g>
<g id="레이어_7" class="st0">
	<g class="st1">
		<path class="st2" d="M218,251.3c0.8-2.1,0.1-4.6-1.4-6.2c-1.6-1.6-3.9-2.3-6.1-2c-1.9,0.2-3.9,1.3-4.4,3.2
			c-2.2-2.3-5.2-4.2-8.3-3.5c-1.6,0.4-2.9,1.4-4,2.6c-1.5,1.5-2.6,3.8-2.4,5.9h-0.2c-13.2,5.6-21,25.2-10.6,37.2
			c6.4,7.3,17.9,9,27,8c10.6-1.2,21-7.1,24.3-17.8C235.6,267.4,228.8,255.7,218,251.3z"/>
		<g>
			<path class="st3" d="M218.5,251.5c1.2-3.5-0.9-7.2-4.3-8.5c-3-1.1-7.6-0.4-8.5,3.1c0.3-0.1,0.6-0.1,0.8-0.2
				c-2.5-2.6-6.2-4.8-9.8-3.2c-3.1,1.4-6,5.1-5.7,8.6c0.2-0.2,0.3-0.3,0.5-0.5c-0.4,0-0.8,0.2-1.1,0.4c-0.5,0.2-1,0.5-1.5,0.8
				c-0.9,0.5-1.8,1.1-2.7,1.8c-1.7,1.3-3.2,2.8-4.5,4.4c-2.7,3.4-4.7,7.4-5.6,11.6c-0.9,4.1-0.9,8.5,0.5,12.5
				c1.5,4.3,4.5,8,8.3,10.4c4.2,2.7,9.1,4,14,4.4c4.8,0.5,9.8,0.1,14.5-1.2c9.3-2.6,17.7-9.4,19.6-19.2c2-9.7-3.3-19.5-11.7-24.4
				c-1-0.6-2.1-1.1-3.2-1.5c-0.6-0.2-0.9,0.7-0.3,1c8.6,3.5,15,12.2,14.6,21.6c-0.2,4.7-2.1,9.3-5.1,12.9c-3,3.5-7,6.1-11.3,7.8
				c-4.3,1.6-8.9,2.3-13.5,2.2c-4.7,0-9.5-0.8-13.9-2.7c-4.2-1.9-7.8-4.8-10-8.9c-1.9-3.6-2.6-7.7-2.2-11.7
				c0.8-8.1,5.7-16,12.7-20.1c0.4-0.2,0.8-0.4,1.2-0.6c0.2-0.1,0.5-0.2,0.7-0.3c0.1,0,0.2-0.1,0.3-0.1c-0.2,0,0,0,0.1,0
				c0.2,0,0.5-0.2,0.5-0.5c-0.3-3.2,2.2-6.4,5-7.7c3.2-1.5,6.6,0.7,8.8,3c0.3,0.3,0.7,0.1,0.8-0.2c0.8-3,4.9-3.3,7.3-2.4
				c2.9,1.1,4.7,4.3,3.6,7.2C217.3,251.8,218.3,252.1,218.5,251.5z"/>
		</g>
	</g>
	<g class="st1">
		<g>
			<path class="st3" d="M191.8,251.6C191.8,251.6,191.8,251.6,191.8,251.6c0.1-0.1,0.1-0.1,0.1-0.2c0-0.1,0-0.1,0-0.2
				c0-0.1,0-0.1,0-0.2c0-0.1-0.1-0.1-0.1-0.2c0,0-0.1-0.1-0.1-0.1c-0.1,0-0.2-0.1-0.3-0.1c0,0-0.1,0-0.1,0c-0.1,0-0.2,0.1-0.2,0.1
				c0,0,0,0,0,0c0,0-0.1,0.1-0.1,0.2c0,0.1,0,0.1,0,0.2c0,0.1,0,0.1,0,0.2c0,0.1,0.1,0.1,0.1,0.2c0,0,0.1,0.1,0.1,0.1
				c0.1,0,0.2,0.1,0.3,0.1c0,0,0.1,0,0.1,0C191.6,251.7,191.7,251.7,191.8,251.6L191.8,251.6z"/>
		</g>
	</g>
	<g class="st1">
		<g>
			<path class="st3" d="M218,251.8c0.6,0,0.6-1,0-1C217.4,250.8,217.4,251.8,218,251.8L218,251.8z"/>
		</g>
	</g>
	<g class="st1">
		<g>
			<path class="st3" d="M203.8,252.3C203.8,252.3,203.7,252.3,203.8,252.3c-0.1-0.1-0.2-0.1-0.2-0.1c-0.1,0-0.1,0-0.2,0
				c-0.1,0-0.1,0-0.2,0.1c-0.1,0-0.1,0.1-0.1,0.1c0,0,0,0.1-0.1,0.1c0,0.1,0,0.2,0,0.3c0,0,0,0.1,0.1,0.1c0,0.1,0.1,0.1,0.2,0.2
				c0,0,0,0,0.1,0c0.1,0,0.1,0.1,0.2,0.1c0.1,0,0.1,0,0.2,0c0.1,0,0.1,0,0.2-0.1c0.1,0,0.1-0.1,0.1-0.1c0,0,0-0.1,0.1-0.1
				c0-0.1,0-0.2,0-0.3c0,0,0-0.1-0.1-0.1C203.9,252.4,203.9,252.4,203.8,252.3L203.8,252.3z"/>
		</g>
	</g>
	<g class="st1">
		<g>
			<path class="st3" d="M206.3,253.1C206.3,253,206.3,253,206.3,253.1c0-0.1,0-0.2,0-0.3c0-0.1,0-0.1-0.1-0.2c0-0.1-0.1-0.1-0.1-0.1
				c0,0-0.1-0.1-0.2-0.1c0,0-0.1,0-0.1,0c-0.1,0-0.2,0-0.3,0.1c0,0-0.1,0.1-0.1,0.1c-0.1,0.1-0.1,0.1-0.1,0.2c0,0,0,0,0,0.1
				c0,0.1,0,0.1,0,0.2c0,0.1,0,0.1,0.1,0.2c0,0.1,0.1,0.1,0.1,0.1c0,0,0.1,0.1,0.2,0.1c0,0,0.1,0,0.1,0c0.1,0,0.2,0,0.3-0.1
				c0,0,0.1-0.1,0.1-0.1C206.2,253.2,206.3,253.1,206.3,253.1L206.3,253.1z"/>
		</g>
	</g>
	<g class="st1">
		<path class="st7" d="M219.2,266.9c-3.8-3.6-9-5.5-14.2-6.1c-3.1-0.3-6.3-0.2-9.3,0.7c-2.1,0.7-4,1.8-5.7,3.2
			c-4.9,4-7.9,10.1-8.1,16.4c-0.1,3.4,0.6,6.7,2,9.8c6.6,4.8,16,5.9,23.7,5c4.8-0.5,9.5-2,13.5-4.5c0.2-0.2,0.3-0.4,0.5-0.7
			c3.2-4.7,4.1-10.8,2.4-16.2C223.1,271.8,221.4,269.1,219.2,266.9z"/>
	</g>
</g>
<g id="레이어_8" class="st0">
	<path class="st11" d="M208.3,271.1l22.5,5.2c0.5-2.1,0.8-4.4,0.8-6.7c0-15.2-12.3-27.4-27.4-27.4c-15.2,0-27.4,12.3-27.4,27.4
		c0,15.2,12.3,27.4,27.4,27.4c6,0,11.6-1.9,16.1-5.2L208.3,271.1z"/>
</g>
<g id="레이어_9" class="st0">
	<g class="st1">
		<path class="st12" d="M134.5,253.5c0,0,54.3-46.8,131.2-16.1c0,0,43.8,24.9,19.3,58.3c-24.4,33.4-101.6,34-107.6,35.1
			c0,0-58.9-8-58.1-29.4C120.1,279.9,116.2,275.6,134.5,253.5z"/>
		<path class="st13" d="M255.9,232.4c0,0-16.7-6.3-22.8-6.4c-6,0-0.5,2.7-0.5,2.7l4.7,7.5C237.3,236.1,237.2,228.1,255.9,232.4z"/>
		<path class="st13" d="M249.1,249.6c0,0,4.5,1.6-8.9,11.8c0,0,38.5,0.1,42.4,37.5c0,0,18.8-17.4,5.5-40.1
			C288,258.8,269.7,238.2,249.1,249.6z"/>
		<path class="st13" d="M180.3,276c0,0,14.7,5.5,34.3-0.9c0,0,16.1,31.7,15.3,49.8c0,0-38.9,10.8-58.1,5.4
			C171.8,330.4,153.8,309.4,180.3,276z"/>
		<path class="st13" d="M129.5,259.3c0,0,20-18.1,37.8-8.6c0,0-1.6,1.1,1.3,11.4c0,0-39.2-0.8-48.4,35.3
			C120.2,297.4,111.8,283.4,129.5,259.3z"/>
		<path class="st14" d="M161.7,241c0,0,38.7-25.8,95.5-6.6c0,0,32.5,15.2,15.3,33.9s-73.6,17.5-77.9,18c0,0-43.2-5.8-43-18
			C151.7,255.9,148.7,253.3,161.7,241z"/>
		<g>
			<path class="st15" d="M240.1,248c2.1-0.6,4.5-0.6,6.6,0.1c1.4,0.5,2.9,1.5,3.1,3c0.1,1.4-0.8,2.6-1.8,3.5c-3,3-6.2,5.8-9.7,8.2
				L240.1,248"/>
			<g>
				<path d="M240.5,249.2c2-0.6,4.2-0.6,6.2,0.2c0.7,0.3,1.4,0.7,1.7,1.4c0.4,0.8-0.2,1.6-0.7,2.2c-1.4,1.7-3.1,3.2-4.8,4.6
					c-1.7,1.5-3.5,2.8-5.3,4.1c0.6,0.4,1.3,0.7,1.9,1.1c0.6-4.3,1.1-8.7,1.7-13c0.1-0.6,0.2-1.2,0.2-1.8c0.1-0.7-0.6-1.2-1.2-1.2
					c-0.7,0-1.2,0.6-1.2,1.2c-0.6,4.3-1.1,8.7-1.7,13c-0.1,0.6-0.2,1.2-0.2,1.8c-0.1,0.9,1.2,1.6,1.9,1.1c2.3-1.6,4.5-3.4,6.6-5.2
					c1-0.9,2-1.8,2.9-2.8c0.9-0.9,1.8-1.9,2.3-3.1c0.9-2.4-0.7-4.6-2.8-5.5c-2.5-1.1-5.5-1.2-8.1-0.5
					C238.3,247.2,238.9,249.6,240.5,249.2L240.5,249.2z"/>
			</g>
		</g>
		<g>
			<path class="st2" d="M180.6,232.1c0,0-0.2-3.1-0.1-3.8c0.3-2.4,0.9-3.6,1.8-5.8c0.9-2.2,2.4-4.2,4.6-5.1s5-0.5,6.4,1.4
				c0.7,1,1.1,2.2,1.3,3.4c1.5-1,3.3-1.6,5.1-1.8c0.1-2.9,0.4-6.3,3-7.7c0.9-0.5,1.9-0.6,2.9-0.5c4.2,0.3,7.7,4.4,7.4,8.6
				c6.6,1.2,13.6,2.7,18.6,7.3c4.2,3.8,6.5,9.4,7.3,15c0.8,5.6,0.2,11.3-0.5,16.9c-0.1,0.9-0.2,1.8-0.7,2.6
				c-0.6,0.9-1.5,1.4-2.4,1.9c-2.1,1.1-4.2,2.2-6.3,3.3c-10.8,5.5-22.4,10.8-34.6,10.3c-5.5-0.2-10.8-1.6-16.1-3
				c-1.2-0.3-2.4-0.6-3.4-1.3c-1.3-0.8-2.2-2-3-3.3c-4-6.2-5.6-14-4.1-21.2C169.3,242,174,235.4,180.6,232.1"/>
			<g>
				<path d="M181.9,232.1c-0.1-1.2-0.2-2.4-0.1-3.6c0.2-2.2,1.2-4.6,2.2-6.5c1-1.9,2.8-3.7,5.1-3.8c2.8-0.1,3.9,1.9,4.4,4.4
					c0.2,0.8,1.2,1.1,1.8,0.7c1.4-0.8,2.8-1.4,4.4-1.6c0.7-0.1,1.2-0.5,1.2-1.2c0.1-3.3,0.8-7.7,5.2-6.9c3.4,0.6,5.8,3.9,5.6,7.3
					c0,0.5,0.4,1.1,0.9,1.2c5,0.9,10.3,1.9,14.8,4.5c4.4,2.5,7.4,6.6,9,11.4c1.8,5.5,1.8,11.3,1.3,16.9c-0.1,1.5-0.3,2.9-0.5,4.4
					c-0.2,1.5-0.3,2.7-1.6,3.5c-2.4,1.6-5.2,2.7-7.7,4c-10,5.1-20.7,10-32.2,9.9c-5.9,0-11.8-1.6-17.5-3.1c-1.2-0.3-2.4-0.7-3.4-1.6
					c-1-0.9-1.8-2.2-2.5-3.4c-1.3-2.3-2.4-4.8-3-7.4c-2.7-10.9,1.7-22.9,12-28.1c1.4-0.7,0.2-2.9-1.3-2.2
					c-9.7,4.9-15,15.8-13.9,26.5c0.6,5.5,2.6,11.6,6.3,15.8c2.1,2.3,5,2.8,7.8,3.5c3.1,0.8,6.2,1.6,9.4,2c12.7,1.8,24.7-2.5,36-8.1
					c2.8-1.4,5.7-2.8,8.5-4.3c1.2-0.6,2.5-1.2,3.6-2.1c1.1-0.9,1.6-2.2,1.8-3.6c0.9-6.3,1.5-13,0.3-19.4c-1.1-6-4-11.7-8.8-15.4
					c-5.1-3.9-11.5-5.2-17.7-6.3c0.3,0.4,0.6,0.8,0.9,1.2c0.3-4.7-3.4-9.2-8.1-9.8c-2.5-0.3-4.9,0.6-6.2,2.7c-1.2,2-1.4,4.4-1.5,6.7
					c0.4-0.4,0.8-0.8,1.2-1.2c-2,0.3-3.9,0.9-5.7,1.9c0.6,0.2,1.2,0.5,1.8,0.7c-0.6-3-2.1-5.5-5.3-6.1c-2.8-0.5-5.5,0.7-7.4,2.8
					c-1.8,2.1-3,5.1-3.6,7.8c-0.4,1.9-0.3,3.8-0.2,5.7C179.5,233.7,182,233.7,181.9,232.1L181.9,232.1z"/>
			</g>
		</g>
		<g>
			<g>
				<path d="M239,236c1.9-2,4.7-2.6,7.3-2.7c2.8-0.1,5.6,0.2,8.3,0.8c5.5,1.3,10.6,3.8,15.2,7c9.2,6.5,17.2,16.1,20.3,27
					c1.6,5.5,1.7,11.3-0.1,16.8c-1.7,5.4-5.1,10.1-9.1,14c-8.8,8.5-20.9,13.3-32.1,17.8c-24.1,9.6-50,15.8-76,12.2
					c-6.5-0.9-13-2.4-19.4-4.2c-6-1.7-12.1-3.6-17.7-6.2c-5.2-2.3-9.9-5.6-12.7-10.6c-2.7-5-3.7-11.1-3.8-16.7
					c-0.2-10.9,3.4-22.2,10.9-30.2c7.1-7.7,17.7-12.2,28.2-11.7c2.6,0.1,5.1,0.6,7.6,1.3c1.5,0.5,2.2-2,0.7-2.4
					c-10.7-3.2-22.5-0.8-31.6,5.5c-9.5,6.5-15.6,17.1-17.5,28.4c-1,5.8-0.9,11.7,0.2,17.5c1.1,6,3.5,11.8,8.2,15.8
					c4.5,3.9,10.2,6.2,15.7,8.2c6.5,2.3,13.2,4.3,19.9,5.9c13.5,3,27.4,3.9,41.2,2.3c13.7-1.6,27-5.2,39.9-9.9
					c6.5-2.4,12.8-5,19.1-7.8c5.9-2.7,11.6-5.7,16.8-9.6c9.4-7.2,16.4-18,15.4-30.2c-1-12.1-8.5-23.1-17.4-31
					c-8.5-7.6-20.3-13.7-32-12.3c-2.7,0.3-5.3,1.2-7.2,3.3C236.1,235.5,237.9,237.2,239,236L239,236z"/>
			</g>
		</g>
		<g>
			<g>
				<path d="M202.4,231.6c0-0.1,0-0.1,0-0.2c0-0.2,0-0.3-0.1-0.5c-0.1-0.2-0.1-0.3-0.3-0.4c-0.1-0.1-0.2-0.2-0.4-0.3
					c-0.1-0.1-0.3-0.1-0.5-0.1c-0.1,0-0.2,0-0.3,0c-0.2,0.1-0.4,0.2-0.6,0.3c-0.1,0.1-0.1,0.2-0.2,0.3c-0.1,0.2-0.2,0.4-0.2,0.6
					c0,0.1,0,0.1,0,0.2c0,0.2,0,0.3,0.1,0.5c0.1,0.2,0.1,0.3,0.3,0.4c0.1,0.1,0.2,0.2,0.4,0.3c0.1,0.1,0.3,0.1,0.5,0.1
					c0.1,0,0.2,0,0.3,0c0.2-0.1,0.4-0.2,0.6-0.3c0.1-0.1,0.1-0.2,0.2-0.3C202.3,232,202.4,231.8,202.4,231.6L202.4,231.6z"/>
			</g>
		</g>
		<g>
			<g>
				<path d="M194.1,236.5c1.6,0,1.6-2.5,0-2.5C192.5,234,192.5,236.5,194.1,236.5L194.1,236.5z"/>
			</g>
		</g>
		<g>
			<path class="st4" d="M185.4,247.7c7.9-5.5,16.4-11.2,26.1-11.7c0.3,0,0.6,0,0.9,0.2c0.3,0.2,0.3,0.5,0.4,0.9
				c0.5,3.1,0.8,6.7-1.5,8.8c-1.5,1.3-3.7,1.6-5.7,1.8c-2.1,0.2-4.4,0.3-6.3-0.7c-1.9-1-3.2-3.5-2.1-5.3"/>
			<g>
				<path d="M186.1,248.8c5.8-4,11.9-8.2,18.7-10.3c1.7-0.5,3.4-0.9,5.2-1.1c0.4,0,1-0.2,1.5-0.1c0.1,0-0.2-0.5,0-0.1
					c0.1,0.1,0.1,0.4,0.1,0.5c0.1,0.8,0.2,1.6,0.3,2.4c0,1.5-0.1,3.1-1,4.3c-1,1.3-2.8,1.7-4.3,1.8c-1.9,0.2-4,0.5-5.9-0.1
					c-1.5-0.5-3.2-2.2-2.3-3.9c0.7-1.4-1.4-2.7-2.2-1.3c-0.9,1.7-0.6,3.7,0.5,5.2c1.2,1.7,3.2,2.5,5.2,2.7c2.2,0.2,4.7,0,6.8-0.5
					c1.9-0.5,3.7-1.5,4.6-3.3c1-1.8,1.1-3.9,0.9-5.9c-0.1-1.7-0.2-4.2-2.3-4.4c-2.1-0.2-4.6,0.4-6.6,0.9c-2.3,0.6-4.5,1.4-6.6,2.4
					c-4.9,2.3-9.5,5.4-13.9,8.5C183.5,247.5,184.7,249.7,186.1,248.8L186.1,248.8z"/>
			</g>
		</g>
		<g>
			<g>
				<path d="M202.6,239.4C202.7,239.4,202.7,239.5,202.6,239.4c0,0-0.1-0.1-0.1-0.2c0.6,0.8,1.1,1.7,1.5,2.6c0-0.1-0.1-0.2-0.1-0.3
					c0.1,0.3,0.2,0.5,0.3,0.8c0.1,0.3,0.3,0.6,0.6,0.7c0.3,0.2,0.7,0.2,1,0.1c0.6-0.2,1.1-0.9,0.9-1.5c-0.2-0.7-0.6-1.4-0.9-2.1
					c-0.4-0.7-0.8-1.3-1.3-1.9c-0.2-0.2-0.6-0.4-0.9-0.4c-0.3,0-0.7,0.1-0.9,0.4c-0.2,0.2-0.4,0.6-0.4,0.9c0,0.1,0,0.2,0,0.3
					C202.4,239.1,202.5,239.3,202.6,239.4L202.6,239.4z"/>
			</g>
		</g>
		<g>
			<g>
				<path d="M167.2,260.9c-8.8,0.3-17.8,2.4-25.5,6.6c-4.1,2.3-7.6,5.4-10.8,8.9c-3.3,3.6-6.3,7.5-8.7,11.8
					c-2.5,4.6-4.1,9.8-3.7,15.1c0.1,1.6,2.6,1.6,2.5,0c-0.6-9.2,4.8-17.3,10.6-24c3-3.4,6.1-6.5,10-8.9c3.6-2.2,7.6-3.8,11.7-4.9
					c4.5-1.3,9.2-2,13.9-2.1C168.9,263.4,168.9,260.9,167.2,260.9L167.2,260.9z"/>
			</g>
		</g>
		<g>
			<g>
				<path d="M171.1,329.1c-3.4-6-4.5-13.5-4-20.3c0.3-4.2,1.3-8.3,2.5-12.3c1.2-3.6,2.5-7.3,4.4-10.6c2-3.4,4.7-6.6,8.3-8.5
					c1.4-0.8,0.2-2.9-1.3-2.2c-6.9,3.8-10.6,11.3-13.1,18.4c-2.8,7.9-4.1,16.1-3,24.5c0.6,4.2,1.8,8.5,4,12.2
					C169.7,331.8,171.9,330.5,171.1,329.1L171.1,329.1z"/>
			</g>
		</g>
		<g>
			<g>
				<path d="M214.6,276.1c6.9,15.1,11.6,31.1,14,47.4c0.2,1.6,2.6,0.9,2.4-0.7c-2.4-16.6-7.2-32.8-14.2-48
					C216.1,273.3,213.9,274.6,214.6,276.1L214.6,276.1z"/>
			</g>
		</g>
		<g>
			<g>
				<path d="M240.7,263.8c8-1.9,16.4,2.1,23,6.4c6.4,4.2,11.8,9.8,14.5,17.1c1.5,4,2.2,8.3,1.9,12.5c-0.1,1.6,2.4,1.6,2.5,0
					c0.5-8.1-2.2-16.4-7.3-22.7c-5.3-6.5-12.7-11.4-20.5-14.4c-4.7-1.8-9.8-2.6-14.7-1.4C238.5,261.8,239.2,264.2,240.7,263.8
					L240.7,263.8z"/>
			</g>
		</g>
		<g>
			<g>
				<path d="M250.3,249.6c6.4-3.1,13.7-3.4,20.4-1c5.7,2,11.7,5.5,15,10.6c0.9,1.3,3,0.1,2.2-1.3c-3.7-5.7-10.2-9.6-16.5-11.8
					c-7.3-2.6-15.3-2.1-22.3,1.3C247.6,248.1,248.9,250.3,250.3,249.6L250.3,249.6z"/>
			</g>
		</g>
		<g>
			<g>
				<path d="M124.8,268.4c5.4-9,12.6-16.7,21.4-22.4c4-2.6,8.9-5.3,13.1-7c3.2-1.2,6.5-2.2,9.8-3.1c2.2-0.6,4.5-1.2,6.8-1.8
					c1.5-0.3,3.1-0.7,4.7-0.8c1.6,0,1.6-2.5,0-2.5c-3.5,0.1-7.1,1.2-10.4,2.1c-3.7,1-7.4,2.1-11,3.4c-4.4,1.6-8.7,4-12.7,6.5
					c-4.5,2.8-8.7,6-12.5,9.6c-4.5,4.3-8.2,9.3-11.4,14.7C121.8,268.5,124,269.8,124.8,268.4L124.8,268.4z"/>
			</g>
		</g>
		<g>
			<g>
				<path d="M264.2,235c-5.3-2.8-10.7-5.5-16.4-7.3c-5.7-1.8-11.6-2.6-17.6-2.7c-1.6,0-1.6,2.5,0,2.5c5.7,0.2,11.4,0.9,16.9,2.6
					c5.5,1.7,10.7,4.3,15.8,7C264.4,238,265.6,235.8,264.2,235L264.2,235z"/>
			</g>
		</g>
		<g>
			<path class="st7" d="M225.9,252.7c-6.9-2.5-14.5-2-21.5-0.2c-5.2,1.3-10.3,3.4-14.6,6.6c-4.3,3.2-7.8,7.4-9.5,12.4
				c-0.3,0.9-0.5,1.7-0.7,2.6c4.9,1.3,9.9,2.5,15,2.7c12.1,0.6,23.7-4.4,34.5-9.6c2.1-1,3.4-1.8,5.4-3.1c1.3-0.8,1.9-1.4,2.3-2.2
				c0.2-0.4,0.2-0.8-0.1-1.2C234.2,256.7,230.6,254.4,225.9,252.7z"/>
		</g>
		<path class="st16" d="M231.6,226.7"/>
		<path class="st17" d="M239.7,250.3c0,0,0.3-5.1,6-2.3s4,5.9-1.4,9.9"/>
	</g>
</g>
<g id="레이어_10" class="st0">
	<g class="st1">
		<path class="st12" d="M156.3,184.9c0,0,58.2-50.2,140.7-17.3c0,0,46.9,26.7,20.7,62.6c-26.2,35.9-109,36.5-115.5,37.6
			c0,0-63.2-8.5-62.3-31.5C140.9,213.3,136.6,208.5,156.3,184.9z"/>
		<path class="st13" d="M286.5,162.2c0,0-18-6.8-24.4-6.8c-6.5,0-0.5,2.9-0.5,2.9l5,8C266.6,166.3,266.4,157.6,286.5,162.2z"/>
		<path class="st13" d="M279.2,180.7c0,0,4.9,1.7-9.6,12.7c0,0,41.2,0.1,45.5,40.2c0,0,20.1-18.6,5.8-43
			C320.9,190.6,301.3,168.5,279.2,180.7z"/>
		<path class="st13" d="M205.4,209c0,0,15.8,5.9,36.8-0.9c0,0,17.3,34,16.4,53.4c0,0-41.7,11.5-62.3,5.8
			C196.3,267.3,177,244.8,205.4,209z"/>
		<path class="st13" d="M150.9,191.2c0,0,21.5-19.4,40.5-9.2c0,0-1.7,1.2,1.4,12.2c0,0-42.1-0.8-51.9,37.9
			C141,232,131.9,217,150.9,191.2z"/>
		<path class="st14" d="M185.4,171.5c0,0,41.5-27.7,102.4-7.1c0,0,34.8,16.3,16.4,36.3s-78.9,18.8-83.6,19.3c0,0-46.4-6.2-46.2-19.4
			C174.7,187.5,171.5,184.7,185.4,171.5z"/>
		<g>
			<path class="st15" d="M269.6,179c2.3-0.7,4.8-0.7,7,0.1c1.5,0.5,3.1,1.6,3.3,3.2c0.2,1.5-0.9,2.7-1.9,3.8
				c-3.2,3.3-6.7,6.2-10.4,8.8L269.6,179"/>
			<g>
				<path d="M269.9,180.2c2.2-0.6,4.6-0.6,6.7,0.2c0.7,0.3,1.6,0.8,1.9,1.5c0.4,0.9-0.2,1.8-0.7,2.5c-1.5,1.8-3.4,3.4-5.2,5
					c-1.8,1.6-3.7,3.1-5.7,4.5c0.6,0.4,1.3,0.7,1.9,1.1c0.6-4.7,1.2-9.3,1.8-14c0.1-0.7,0.2-1.3,0.3-2c0.1-0.7-0.6-1.2-1.2-1.2
					c-0.7,0-1.2,0.6-1.2,1.2c-0.6,4.7-1.2,9.3-1.8,14c-0.1,0.7-0.2,1.3-0.3,2c-0.1,0.9,1.2,1.6,1.9,1.1c2.5-1.7,4.8-3.6,7.1-5.6
					c1.1-1,2.1-2,3.2-3c1-1,1.9-2,2.4-3.3c1-2.5-0.7-4.8-3-5.8c-2.7-1.2-5.8-1.3-8.6-0.5C267.7,178.2,268.4,180.6,269.9,180.2
					L269.9,180.2z"/>
			</g>
		</g>
		<g>
			<path class="st2" d="M205.8,162c0,0-0.2-3.4-0.1-4c0.3-2.5,1-3.8,1.9-6.2c0.9-2.4,2.6-4.5,5-5.5c2.3-1,5.4-0.5,6.9,1.5
				c0.8,1,1.1,2.4,1.4,3.7c1.6-1,3.5-1.7,5.4-1.9c0.1-3.1,0.5-6.8,3.2-8.2c0.9-0.5,2.1-0.6,3.1-0.6c4.5,0.3,8.3,4.7,7.9,9.2
				c7.1,1.3,14.6,2.9,20,7.8c4.5,4.1,6.9,10.1,7.8,16.1c0.9,6,0.3,12.1-0.5,18.2c-0.1,1-0.3,2-0.8,2.8c-0.6,0.9-1.6,1.5-2.6,2
				c-2.2,1.2-4.5,2.3-6.8,3.5c-11.6,5.9-24.1,11.6-37.1,11c-5.9-0.3-11.6-1.8-17.3-3.3c-1.3-0.3-2.6-0.7-3.7-1.4
				c-1.4-0.9-2.4-2.2-3.2-3.5c-4.3-6.7-6-15-4.4-22.7C193.6,172.5,198.7,165.5,205.8,162"/>
			<g>
				<path d="M207,162c-0.1-1.3-0.2-2.6-0.1-3.9c0.2-2.3,1.2-4.9,2.3-6.9c1.1-2.2,3.1-4.1,5.7-4.2c3-0.1,4.2,2.1,4.7,4.8
					c0.2,0.8,1.2,1.1,1.8,0.7c1.5-0.9,3.1-1.5,4.8-1.7c0.7-0.1,1.2-0.5,1.2-1.2c0.1-3.6,0.9-8.3,5.6-7.5c3.7,0.6,6.4,4.2,6.1,7.9
					c0,0.5,0.4,1.1,0.9,1.2c5.4,1,11,2.1,15.8,4.9c4.7,2.7,8,7.2,9.7,12.3c1.9,5.8,2,11.9,1.4,17.9c-0.1,1.6-0.3,3.2-0.5,4.8
					c-0.2,1.6-0.3,3.1-1.8,4c-2.6,1.7-5.5,3-8.3,4.3c-10.8,5.5-22.5,10.9-34.9,10.7c-6.4-0.1-12.8-1.7-18.9-3.5
					c-1.4-0.4-2.6-0.9-3.7-2c-1-1-1.8-2.3-2.5-3.6c-1.4-2.5-2.4-5.1-3.1-7.8c-2.9-11.7,1.9-24.5,12.9-30.1c1.4-0.7,0.2-2.9-1.3-2.2
					c-10.3,5.2-16,16.8-14.9,28.1c0.6,5.9,2.7,12.4,6.7,16.9c2.2,2.5,5.3,3.1,8.3,3.9c3.4,0.9,6.8,1.7,10.2,2.2
					c13.7,2,26.6-2.7,38.7-8.6c3.1-1.5,6.1-3.1,9.2-4.7c1.3-0.7,2.7-1.3,3.8-2.3c1.2-1,1.6-2.4,1.8-3.9c0.9-6.8,1.6-13.9,0.3-20.7
					c-1.2-6.4-4.3-12.6-9.6-16.5c-5.4-4-12.2-5.4-18.7-6.6c0.3,0.4,0.6,0.8,0.9,1.2c0.3-5-3.7-9.8-8.7-10.4
					c-2.6-0.3-5.1,0.6-6.5,2.9c-1.3,2.1-1.5,4.7-1.6,7.1c0.4-0.4,0.8-0.8,1.2-1.2c-2.2,0.3-4.2,0.9-6.1,2.1c0.6,0.2,1.2,0.5,1.8,0.7
					c-0.6-3.1-2.1-5.7-5.4-6.4c-3.1-0.6-6.1,0.7-8.1,3.1c-1.9,2.3-3.2,5.6-3.8,8.5c-0.4,1.9-0.3,3.8-0.2,5.8
					C204.6,163.6,207.1,163.6,207,162L207,162z"/>
			</g>
		</g>
		<g>
			<g>
				<path d="M268.3,166.1c2-2.2,5.1-2.8,8-2.9c2.9-0.1,5.8,0.2,8.7,0.9c5.9,1.3,11.4,4,16.3,7.4c10,6.9,18.7,17.3,22.1,29.1
					c1.7,5.9,1.9,12.1,0,18c-1.8,5.7-5.3,10.8-9.6,14.9c-9.5,9.3-22.5,14.5-34.6,19.4c-26,10.4-53.9,17.1-81.9,13.1
					c-7-1-13.9-2.5-20.7-4.5c-6.4-1.8-12.9-3.9-18.9-6.6c-5.5-2.5-10.7-5.9-13.6-11.3c-3-5.4-4-12-4.1-18.2
					c-0.2-11.7,3.6-23.8,11.7-32.5c7.7-8.3,19-13.1,30.3-12.6c2.8,0.1,5.5,0.6,8.1,1.4c1.5,0.5,2.2-2,0.7-2.4
					c-11.5-3.4-24.3-0.8-34.1,6c-10.1,7-16.5,18.3-18.5,30.4c-1,6.2-1,12.5,0.2,18.6c1.2,6.6,3.9,12.8,9.1,17.2
					c4.8,4,10.6,6.3,16.4,8.4c7.1,2.5,14.3,4.7,21.7,6.4c14.6,3.3,29.5,4.1,44.3,2.4c14.6-1.7,28.8-5.6,42.6-10.7
					c6.9-2.5,13.7-5.3,20.4-8.4c6.3-2.9,12.4-6.1,17.9-10.3c10.1-7.8,17.5-19.3,16.4-32.5c-1.1-12.9-9.1-24.5-18.6-33
					c-9.2-8.1-21.9-14.8-34.5-13.2c-2.8,0.4-5.5,1.3-7.5,3.4C265.5,165.5,267.2,167.3,268.3,166.1L268.3,166.1z"/>
			</g>
		</g>
		<g>
			<g>
				<path d="M229,161.4c0-0.1,0-0.1,0-0.2c0-0.2,0-0.3-0.1-0.5c-0.1-0.2-0.1-0.3-0.3-0.4c-0.1-0.1-0.2-0.2-0.4-0.3
					c-0.1-0.1-0.3-0.1-0.5-0.1c-0.1,0-0.2,0-0.3,0c-0.2,0.1-0.4,0.2-0.6,0.3c-0.1,0.1-0.1,0.2-0.2,0.3c-0.1,0.2-0.2,0.4-0.2,0.6
					c0,0.1,0,0.1,0,0.2c0,0.2,0,0.3,0.1,0.5c0.1,0.2,0.1,0.3,0.3,0.4c0.1,0.1,0.2,0.2,0.4,0.3c0.1,0.1,0.3,0.1,0.5,0.1
					c0.1,0,0.2,0,0.3,0c0.2-0.1,0.4-0.2,0.6-0.3c0.1-0.1,0.1-0.2,0.2-0.3C229,161.8,229,161.6,229,161.4L229,161.4z"/>
			</g>
		</g>
		<g>
			<g>
				<path d="M220.2,166.5c1.6,0,1.6-2.5,0-2.5C218.6,164,218.6,166.5,220.2,166.5L220.2,166.5z"/>
			</g>
		</g>
		<g>
			<path class="st4" d="M210.9,178.7c8.5-5.9,17.6-12,28-12.5c0.3,0,0.7,0,0.9,0.2c0.3,0.2,0.4,0.6,0.4,0.9c0.6,3.3,0.8,7.2-1.6,9.4
				c-1.6,1.4-3.9,1.7-6.1,1.9c-2.3,0.2-4.7,0.3-6.7-0.7s-3.4-3.7-2.2-5.7"/>
			<g>
				<path d="M211.6,179.7c6.4-4.4,12.9-9,20.4-11.2c1.8-0.5,3.7-0.9,5.6-1.1c0.3,0,1.2-0.2,1.3-0.2c0.1,0,0.1,0.5,0.2,0.8
					c0.1,0.9,0.2,1.9,0.3,2.8c0,1.6-0.2,3.3-1.3,4.5c-1.2,1.3-3.1,1.7-4.8,1.9c-2.1,0.2-4.4,0.5-6.4-0.3c-1.6-0.6-3.1-2.5-2.2-4.2
					c0.8-1.4-1.4-2.7-2.2-1.3c-0.9,1.8-0.7,3.8,0.5,5.4c1.3,1.9,3.4,2.7,5.6,2.9c2.3,0.2,4.8,0,7.1-0.5c2.1-0.5,4.1-1.6,5.1-3.6
					c1-1.8,1.1-4,1-6c-0.1-1.8-0.2-4.8-2.6-4.9c-2.4-0.1-5,0.5-7.3,1.1c-2.3,0.6-4.6,1.5-6.8,2.6c-5.3,2.4-10.1,5.7-14.8,9
					C209,178.5,210.2,180.7,211.6,179.7L211.6,179.7z"/>
			</g>
		</g>
		<g>
			<g>
				<path d="M229.4,169.7c0,0,0.1,0.1,0.1,0.1c-0.1-0.1-0.1-0.2-0.2-0.3c0.7,0.9,1.2,1.8,1.6,2.8c0-0.1-0.1-0.2-0.1-0.3
					c0.1,0.3,0.2,0.6,0.3,0.9c0.1,0.3,0.3,0.6,0.6,0.7c0.3,0.2,0.7,0.2,1,0.1c0.6-0.2,1.1-0.9,0.9-1.5c-0.5-1.6-1.3-3-2.3-4.3
					c-0.2-0.2-0.6-0.4-0.9-0.4c-0.3,0-0.7,0.1-0.9,0.4c-0.2,0.2-0.4,0.6-0.4,0.9C229.1,169.2,229.2,169.4,229.4,169.7L229.4,169.7z"
					/>
			</g>
		</g>
		<g>
			<g>
				<path d="M191.4,193c-9.5,0.3-19.2,2.6-27.5,7.3c-4.4,2.5-8.1,5.8-11.4,9.5c-3.4,3.8-6.7,7.9-9.1,12.4c-2.7,5-4.4,10.5-4,16.2
					c0.1,1.6,2.6,1.6,2.5,0c-0.6-9.9,5.3-18.7,11.5-25.9c3.1-3.6,6.6-7,10.7-9.4c3.8-2.3,8.1-4,12.4-5.3c4.9-1.4,10-2.2,15-2.3
					C193,195.4,193,192.9,191.4,193L191.4,193z"/>
			</g>
		</g>
		<g>
			<g>
				<path d="M195.4,266c-3.7-6.4-4.8-14.5-4.3-21.8c0.3-4.5,1.3-9,2.7-13.3c1.2-3.9,2.7-7.8,4.8-11.4c2.2-3.6,5.1-7.1,8.9-9.1
					c1.4-0.8,0.2-2.9-1.3-2.2c-7.4,4.1-11.4,12.2-14.1,19.8c-3,8.5-4.4,17.3-3.1,26.2c0.7,4.5,1.9,9,4.2,12.9
					C194.1,268.7,196.2,267.4,195.4,266L195.4,266z"/>
			</g>
		</g>
		<g>
			<g>
				<path d="M242.3,209c7.4,16.2,12.4,33.3,15,50.9c0.2,1.6,2.6,0.9,2.4-0.7c-2.6-17.8-7.8-35.1-15.2-51.5
					C243.8,206.3,241.6,207.6,242.3,209L242.3,209z"/>
			</g>
		</g>
		<g>
			<g>
				<path d="M270.2,195.9c8.6-2.1,17.6,2.2,24.7,6.8c6.9,4.5,12.8,10.6,15.6,18.4c1.6,4.3,2.4,8.9,2.1,13.5c-0.1,1.6,2.4,1.6,2.5,0
					c0.6-8.6-2.4-17.5-7.7-24.2c-5.6-7-13.6-12.2-21.9-15.4c-5.1-1.9-10.5-2.8-15.9-1.6C268,193.9,268.7,196.3,270.2,195.9
					L270.2,195.9z"/>
			</g>
		</g>
		<g>
			<g>
				<path d="M280.5,180.6c6.9-3.3,14.8-3.6,22-1.1c6.1,2.1,12.5,5.9,16.1,11.4c0.9,1.3,3,0.1,2.2-1.3c-4-6.1-10.9-10.2-17.6-12.6
					c-7.8-2.8-16.4-2.2-23.9,1.4C277.8,179.2,279,181.3,280.5,180.6L280.5,180.6z"/>
			</g>
		</g>
		<g>
			<g>
				<path d="M145.8,200.8c5.8-9.7,13.5-17.9,23.1-24.1c2.4-1.5,4.8-3,7.4-4.3c1.2-0.7,2.5-1.3,3.8-1.9c1-0.5,2.1-1,2.8-1.3
					c3.4-1.3,7-2.3,10.5-3.4c2.4-0.7,4.9-1.4,7.4-1.9c1.7-0.4,3.4-0.8,5.1-0.8c1.6,0,1.6-2.5,0-2.5c-3.8,0.1-7.8,1.3-11.4,2.4
					c-3.9,1.1-7.9,2.2-11.7,3.6c-4.7,1.8-9.3,4.3-13.6,7c-4.9,3-9.4,6.5-13.5,10.5c-4.7,4.6-8.6,9.8-12,15.5
					C142.8,200.9,145,202.2,145.8,200.8L145.8,200.8z"/>
			</g>
		</g>
		<g>
			<g>
				<path d="M295.4,165.2c-5.7-3-11.4-5.9-17.5-7.8c-6.1-1.9-12.5-2.7-18.8-2.9c-1.6,0-1.6,2.5,0,2.5c6.2,0.2,12.3,1,18.2,2.8
					c5.9,1.9,11.5,4.6,16.9,7.5C295.5,168.1,296.8,165.9,295.4,165.2L295.4,165.2z"/>
			</g>
		</g>
		<g>
			<path class="st7" d="M254.3,184c-7.4-2.6-15.6-2.2-23.1-0.2c-5.6,1.4-11.1,3.7-15.7,7.1c-4.6,3.4-8.4,8-10.2,13.3
				c-0.3,0.9-0.6,1.9-0.7,2.8c5.3,1.4,10.6,2.7,16.1,2.9c13,0.6,25.4-4.7,37-10.3c2.2-1.1,3.7-2,5.8-3.3c1.4-0.9,2-1.5,2.5-2.3
				c0.2-0.4,0.2-0.9-0.1-1.3C263.2,188.4,259.4,185.8,254.3,184z"/>
		</g>
		<path class="st16" d="M260.5,156.1"/>
		<path class="st17" d="M269.1,181.5c0,0,0.3-5.5,6.4-2.4c6.1,3,4.2,6.3-1.5,10.7"/>
	</g>
</g>
<g id="레이어_11" class="st0">
	<path class="st18" d="M483.3,307.3L39.8,333l22.6-200.8c35.9-14.3,69.9-23.6,93.6-20.4c0,0,244.2-52.2,194.5,28.7
		c0,0-18.8,75.9,86.2-68c5.3-7.3,10.4-13.8,15.2-19.6L483.3,307.3z"/>
	<path class="st19" d="M480.9,335.9L51.2,371.4l10.6-230.6c69.1-30.4,144.1-47.3,198.4-15.6c130,75.8,46,110.3,172.6,35.8
		c6.4-3.8,12.8-7.3,19.1-10.6"/>
	<path class="st20" d="M477.9,348.9l-147.7,52.3L53.8,351.8l10.9-176.2c74.4-18.3,151.4-20.8,193.7,26.1
		C357,311.2,396.6,131,456.7,114.8L477.9,348.9z"/>
	<path class="st18" d="M470.8,334.2l2,53.4H76.5l-8.2-164.1c55.7-18.2,113.2-32.9,141.3-27.3c63.9,12.8,97.8,66.9,170.5,30.4
		c28.7-14.4,59.3-21.6,85.9-24.9L470.8,334.2"/>
</g>
<g id="레이어_12" class="st0">
	<path class="st18" d="M472.5,252.7l-408.6,7.5L83.1,51.6c9.5-3.7,19.1-6.1,28.6-6.4c50-1.6,126.3,24.1,201.4,73.5
		S450.4,74.8,460.9,70L472.5,252.7z"/>
	<path class="st19" d="M474.3,275.2L67,296l-7.3-187.3c11.2-4.4,22.8-7.2,34.5-7.5c82.7-2.6,159.8,29.5,212.5,46.3
		s76.9-14.5,82.3-14.7c4-0.1,45.3-15.3,72.3-19.7L474.3,275.2z"/>
	<path class="st21" d="M476.7,410.4L46.4,393.7l16.5-259.4c51-21.1,109.7-21.4,163.8,36.2c62.2,66.2,147.2,2.7,229-74.7L476.7,410.4
		z"/>
</g>
<g id="레이어_13">
	<path class="st22" d="M462.5,385.9L67.9,413.3l-6.5-306.2c33.4-23.5,77-43.8,125.3-40.4c108.4,7.5,105.2,30.5,176.2,1.5
		c27.5-11.2,51.3-20.7,71.4-27.5L462.5,385.9z"/>
	<path class="st23" d="M458.8,284.4l-262.2,54.4l-136-249c72.6-25.3,97.3-23.5,182.6,11.4c104.2,42.7,133.9,32.8,161.7,5.2
		c6.9-6.9,16.8-13.9,27.8-20.5L458.8,284.4z"/>
	<path class="st24" d="M457.2,407L89.5,386.2l-7.2-6.9L65.7,140.5c19.4-8.2,39.6-13.4,59.7-13.2c92.8,0.9,124.7-2,157.6,3.4
		c32.9,5.4,75.1,9.1,83.6,5.7c8.6-3.5,50.5-26.5,54.3-33c1.9-3.3,5.2-9.7,10.7-15.6L457.2,407z"/>
</g>
</svg>
